<svg width="79" height="80" fill="none" xmlns="http://www.w3.org/2000/svg"><path d="M39.272 76.582c20.244 0 36.655-16.41 36.655-36.654 0-20.244-16.41-36.655-36.655-36.655-20.244 0-36.655 16.41-36.655 36.655 0 20.244 16.411 36.654 36.655 36.654z" fill="#fff"/><path d="M39.273 79.2c21.69 0 39.273-17.729 39.273-39.6C78.546 17.73 60.963 0 39.273 0 17.583 0 0 17.73 0 39.6c0 21.871 17.583 39.6 39.273 39.6z" fill="#666"/><path d="M39.274 77.237c20.605 0 37.31-16.704 37.31-37.31 0-20.605-16.705-37.309-37.31-37.309-20.605 0-37.31 16.704-37.31 37.31 0 20.605 16.705 37.309 37.31 37.309z" fill="#166693"/><path d="M39.273 74.619c19.16 0 34.692-15.678 34.692-35.019 0-19.34-15.532-35.018-34.692-35.018-19.159 0-34.69 15.678-34.69 35.018s15.53 35.02 34.689 35.02z" fill="#fff"/><path d="M62.414 63.068c12.783-12.783 12.783-33.498 0-46.28-12.783-12.784-33.498-12.784-46.28 0-12.784 12.782-12.784 33.497 0 46.28 12.782 12.783 33.497 12.783 46.28 0z" fill="#fff"/><path fill-rule="evenodd" clip-rule="evenodd" d="M68.635 45.793c-.095.43-.197.851-.308 1.273l-4.478-.97c.095-.343.182-.693.261-1.043l4.525.74zM24.118 19.368l7.136 7.498-5.427.963.071 5.547a344.984 344.984 0 01-8.916-5.667 25.978 25.978 0 00-1.748 4.123l-4.312-.907c2.5-8.413 8.647-15.266 16.606-18.752l1.875 4.139a24.95 24.95 0 00-5.285 3.056zm34.802 4.091a24.296 24.296 0 00-1.424-1.576l-3.077 3.064 1.503 1.497 2.998-2.985zM20.85 56.745l3.157-3.144-1.503-1.497-3.038 3.033c.435.549.902 1.09 1.385 1.608zm22.366-24.467c-1.574-.167-1.115-.167-2.698-.167l-3.346 3.096-.934-3.009c-.031 0-.775.096-.807.096-6.582.732-11.384 3.414-11.859 6.694v.023c4.375.637 4.367.35 0 .987v.016c.206 4.378 8.885 6.83 12.018 6.734 0 0 .989-.915 3.014-3.136l.34 3.383c.047 0 .926-.024.973-.024 4.138-.112 14.612-1.743 15.285-6.909v-.032l-2.943-.605 2.935-.406v-.023c-.483-3.304-5.34-6.002-11.978-6.718zm26.029 9.408c1.4-17.948-7.817-34.846-30.443-32.26l-3.15.486c-.482.064-.972.136-1.447.223l-.277.04h.056a28.93 28.93 0 00-5.356 1.536l1.883 4.155a25.05 25.05 0 016.97-1.52l3.156 9.455-4.652-1.576 1.33 11.589 1.336-7.872 3.687 1.815.815.478-.862-13.786a25.247 25.247 0 0111.898 4.593c-2.697 3.024-4.652 5.213-7.04 8.046l5.521.74.158 5.493 8.695-6.09a25.118 25.118 0 011.82 4.044c-1.084.446-1.883.78-2.88 1.218l1.4.923-.688 1.512 3.038-.485c.261 1.273.427 2.587.49 3.932l-6.4-.717.736 1.529-5.665.286 6.852.677-.65-1.401 5.135 1.448a24.531 24.531 0 01-.371 3.685l4.533.749c.174-.963.292-1.95.371-2.945zM40.044 69.36l3.283-.501a24.012 24.012 0 001.543-.24l.055-.007h-.008c10.965-1.998 19.834-9.973 23.085-20.416l-4.485-.97a24.871 24.871 0 01-1.598 3.844 383.55 383.55 0 00-9.098-5.787l.07 5.548-5.426.963 7.373 7.744a25.369 25.369 0 01-12.532 5.078l.847-13.53-.815.477-4.28 2.284.127-7.855-3.94 11.31 6.273-1.425-2.943 8.835a25.202 25.202 0 01-6.835-1.449l-.61 1.76-1.091-.47.593-1.727a25.258 25.258 0 01-5.324-3.025c2.722-3.048 4.676-5.237 7.08-8.087l-5.521-.74-.159-5.492-8.623 6.041a24.618 24.618 0 01-1.812-4.218c1.195-.454 2.12-.812 3.252-1.273l-1.662-1.163.84-1.782-3.34.445c-.047-.31-.095-.62-.134-.939a76.704 76.704 0 00-.055-2.428l5.031-1.424-.648 1.4 6.716-.692-5.522-.278.736-1.529-6.305.709a23.64 23.64 0 01.34-3.725l-4.272-.9c-.095.494-.182.987-.246 1.489-.11.684-.205 1.369-.3 2.045-.008-.04-.016-.063-.016-.055 0 .055-.008.12-.008.175-.443 3.215.546 4.99-.135 7.664-2.69 8.732 8.972 25.024 30.499 24.316z" fill="#666"/><path fill-rule="evenodd" clip-rule="evenodd" d="M40.467 72.631l3.18-.483a30.498 30.498 0 001.705-.262l.056-.008h-.016a33.022 33.022 0 0014.133-6.24A32.814 32.814 0 0070.597 49.43l-4.671-1.007a27.384 27.384 0 01-1.77 4.218c-3.735-2.419-6.574-4.226-10.048-6.351l.08 6.09-5.988 1.054 8.137 8.5A27.98 27.98 0 0142.505 67.5l.936-14.835-.896.523-4.727 2.506.135-8.611-4.346 12.409 6.923-1.554-3.251 9.681a28.07 28.07 0 01-7.55-1.586l-.675 1.927-1.205-.515.658-1.888a27.422 27.422 0 01-5.877-3.314c2.998-3.338 5.163-5.748 7.812-8.865l-6.075-.84-.175-6.018-9.5 6.612a27.206 27.206 0 01-2-4.622c1.317-.5 2.34-.888 3.585-1.404l-1.832-1.276.928-1.959-3.688.5a21.574 21.574 0 01-.143-1.031 69.869 69.869 0 00-.063-2.664l5.552-1.554-.714 1.53 7.407-.753-6.09-.302.808-1.68-6.955.769c.032-1.348.127-2.649.38-4.084l-4.71-.983a33.134 33.134 0 00-.611 6.312c0 18.078 14.656 32.723 32.731 32.723.405 0 .793-.008 1.19-.024zm31.066-27.11l-4.688-.769c.23-1.316.373-2.664.405-4.044l-5.663-1.593.714 1.53-7.566-.745 6.25-.317-.817-1.681 7.058.785a27.509 27.509 0 00-.54-4.314l-3.346.54.761-1.666-1.546-1.023c1.094-.483 1.983-.848 3.18-1.34a27.258 27.258 0 00-2.006-4.432l-9.597 6.684-.174-6.018-6.091-.809c2.64-3.1 4.798-5.503 7.772-8.825a27.894 27.894 0 00-13.134-5.035l.952 15.12-.896-.522-4.077-1.99-1.475 8.634-1.46-12.694 5.14 1.728-3.49-10.371a28.14 28.14 0 00-7.693 1.665l-2.078-4.56c1.888-.737 3.87-1.3 5.909-1.68h-.064l.302-.048a35.414 35.414 0 011.602-.246l.849-.126a33.662 33.662 0 013.243-.159c18.083 0 32.732 14.653 32.732 32.723a31.743 31.743 0 01-.468 5.599zm-.246 1.277c-.095.468-.206.928-.325 1.38l-4.656-1.007c.103-.38.198-.761.286-1.142l4.695.77zM7.918 30.543l4.743.992a27.545 27.545 0 011.927-4.528c3.743 2.426 6.36 4.091 9.842 6.216l-.079-6.09 5.988-1.054-7.875-8.222a28.181 28.181 0 015.837-3.354l-2.07-4.536a32.863 32.863 0 00-14.363 12.084l-.032.04a5.553 5.553 0 00-.198.31 32.405 32.405 0 00-3.72 8.142zm35.61 1.483c7.329.785 12.69 3.743 13.213 7.358v.024l-3.243.444 3.251.658v.04c-.745 5.661-12.309 7.453-16.877 7.58-.055 0-1.023.024-1.07.032l-.373-3.703C36.2 46.901 35.106 47.9 35.106 47.9c-3.458.111-13.04-2.585-13.261-7.382v-.016c4.822-.705 4.838-.388.008-1.086v-.024c.523-3.592 5.83-6.533 13.094-7.334a30.6 30.6 0 01.896-.103l1.031 3.298 3.688-3.393c1.737-.016 1.23-.016 2.966.166zM18.847 58.858a27.17 27.17 0 01-1.53-1.768l3.354-3.322 1.658 1.641-3.482 3.45z" fill="#166693"/><path fill-rule="evenodd" clip-rule="evenodd" d="M26.847 38.629h2.371c-.062-.566-.25-1.037-.57-1.406-.311-.37-.74-.558-1.279-.558-.405 0-.748.118-1.03.338-.28.228-.475.526-.584.903l-1.514-.345c.156-.668.5-1.21 1.03-1.61.53-.401 1.217-.605 2.06-.605 1.1 0 1.965.369 2.581 1.1.624.73.928 1.688.928 2.866 0 .802-.14 1.485-.428 2.066a3.36 3.36 0 01-1.186 1.343c-.5.314-1.108.48-1.818.48-1.724 0-2.792-.818-3.19-2.444l1.537-.479c.078.542.273.95.585 1.21.312.26.686.393 1.115.393a1.58 1.58 0 001.147-.471c.32-.315.522-.81.616-1.5h-2.371v-1.281zm5.21 4.422V35.48h2.301l1.358 5.16 1.341-5.16h2.31v7.572h-1.42l-.008-5.962-1.498 5.962h-1.474l-1.49-5.962-.008 5.962h-1.412zm8.87-7.572h6.029v7.572h-1.537V36.76h-2.956v6.291h-1.537V35.48zm7.597 7.572V35.48h2.457c.928 0 1.537.04 1.817.11a2 2 0 011.093.739c.296.384.436.871.436 1.476 0 .464-.085.856-.25 1.17a2.144 2.144 0 01-.639.747c-.257.18-.523.298-.796.353-.366.07-.897.11-1.583.11h-.998v2.851h-1.537v.016zm1.537-6.291v2.16h.834c.6 0 1.006-.04 1.21-.118a.985.985 0 00.475-.37c.117-.164.172-.369.172-.589 0-.274-.078-.502-.242-.683a1.07 1.07 0 00-.616-.338c-.18-.031-.546-.055-1.1-.055h-.733v-.008z" fill="#fff"/><path d="M20.012 26.837L14.4 21.538l1.06-1.139 2.212 2.08 2.075-2.242-2.213-2.08 1.072-1.139 5.612 5.299-1.06 1.138-2.455-2.312-2.074 2.243 2.443 2.312-1.06 1.139zm41.021-9.819l3.768 4.95-6.05 4.869-.956-1.256 5.036-4.05-1.856-2.44-5.036 4.05-.956-1.255 6.05-4.868z" fill="#fff"/><path fill-rule="evenodd" clip-rule="evenodd" d="M33.381 11.48l5.764 11.589 4.04 4.422L44.51 9.818 33.38 11.48z" fill="#166693"/><path d="M37.32 8.51h5.88v7.854h-1.498V9.828h-2.895v6.536h-1.498V8.509h.01z" fill="#fff"/></svg>