<svg width="213" height="55" fill="none" xmlns="http://www.w3.org/2000/svg"><mask id="a" maskUnits="userSpaceOnUse" x="0" y="0" width="213" height="55" fill="#000"><path fill="#fff" d="M0 0h213v55H0z"/><path d="M18.185 53.264V3.06c0-.442.1-.736.3-.883.2-.197.75-.32 1.65-.368.951-.05 2.577-.074 4.878-.074V51.94c0 .442-.075.76-.225.957-.15.147-.725.245-1.726.294-.95.05-2.576.074-4.877.074zM1 53.264V3.06c0-.442.075-.736.225-.883.2-.197.776-.32 1.726-.368.95-.05 2.577-.074 4.878-.074V51.94c0 .442-.1.76-.3.957-.15.147-.7.245-1.651.294-.95.05-2.577.074-4.878.074zm3.302-24.439v-6.33h16.96l.074 6.33H4.302zm26.011 24.439V3.06c0-.442.1-.736.3-.883.2-.197.776-.32 1.726-.368.95-.05 2.552-.074 4.803-.074h16.51V51.94c0 .442-.1.76-.301.957-.2.147-.775.245-1.726.294-.95.05-2.576.074-4.878.074V8.067h-9.605v43.872c0 .442-.1.76-.3.957-.2.147-.776.245-1.726.294-.95.05-2.551.074-4.803.074zm28.507 0V3.06c0-.442.1-.736.3-.883.2-.197.776-.32 1.727-.368.95-.05 2.55-.074 4.802-.074h16.51V51.94c0 .442-.1.76-.3.957-.201.147-.776.245-1.727.294-.95.05-2.576.074-4.878.074V8.067H65.65v43.872c0 .442-.1.76-.3.957-.2.147-.776.245-1.726.294-.95.05-2.551.074-4.803.074zm47.576.736c-1.501 0-2.901-.22-4.202-.663-1.251-.441-2.276-1.03-3.077-1.766-.8-.736-1.2-1.497-1.2-2.282 0-.883.1-1.693.3-2.43.2-.785.45-1.594.75-2.428a21.1 21.1 0 003.227 1.472c1.101.392 2.251.589 3.452.589 1.05 0 2.001-.27 2.851-.81.851-.589 1.576-1.521 2.177-2.797.6-1.276 1.075-2.945 1.425-5.006.401-2.06.651-4.588.751-7.582h-9.831c-.6 0-.95-.392-1.05-1.178-.1-.785-.15-2.429-.15-4.931h11.106c-.15-3.926-.475-6.994-.976-9.202-.45-2.257-1.05-3.901-1.801-4.932-.7-1.08-1.526-1.742-2.476-1.987a8.881 8.881 0 00-2.777-.442c-1.2 0-2.251.172-3.151.515-.851.344-1.501.712-1.951 1.104a8.9 8.9 0 01-.75-1.84 7.829 7.829 0 01-.301-2.208c0-.638.275-1.276.825-1.914.551-.687 1.426-1.227 2.627-1.62 1.201-.441 2.751-.662 4.652-.662 1.351 0 2.677.196 3.978.589 1.3.343 2.501 1.03 3.602 2.061 1.15 1.03 2.151 2.503 3.001 4.417.901 1.914 1.576 4.416 2.027 7.508.5 3.043.75 6.772.75 11.189 0 4.711-.25 8.686-.75 11.925-.451 3.19-1.101 5.79-1.952 7.803-.8 2.012-1.776 3.558-2.926 4.637-1.101 1.08-2.352 1.816-3.752 2.209-1.351.441-2.827.662-4.428.662zm31.953-12.367l-3.827-11.336a77.654 77.654 0 01-.751-2.429c-.3-1.178-.675-2.552-1.125-4.122a100.6 100.6 0 00-1.351-4.785 458.39 458.39 0 00-1.276-4.637 73.735 73.735 0 00-.9-3.386l-.3-1.325 2.626-7.877 6.754 20.906c.3.834.575 1.742.825 2.723a43.71 43.71 0 011.201 4.49l.225.737.15-.736c.1-.491.25-1.13.45-1.914.25-.785.476-1.62.676-2.503.25-.933.525-1.816.825-2.65L148.63 3.06l3.076 6.772-.375 1.325c-.2.835-.5 1.939-.9 3.313a355.726 355.726 0 01-1.201 4.564c-.45 1.62-.901 3.19-1.351 4.71-.45 1.522-.85 2.872-1.201 4.05-.3 1.177-.55 2.011-.75 2.502l-3.902 10.747c-.1.393-.375.59-.826.59h-2.851zm-13.283 11.63V3.062c0-.638.125-1.006.376-1.104.3-.147.625-.22.975-.22h5.028l.375 10.967-1.801 2.135.075.957c.1.589.2 1.448.3 2.576.15 1.08.276 2.356.376 3.828.15 1.423.275 2.944.375 4.564.15 1.57.275 3.19.375 4.858.1 1.669.15 3.264.15 4.785l.15 15.532c0 .442-.125.76-.375.957-.2.147-.775.245-1.726.294-.951.05-2.501.074-4.653.074zm23.488 0l.301-16.635c.05-1.522.125-3.116.225-4.785s.2-3.312.3-4.932c.15-1.668.275-3.239.375-4.711a409.49 409.49 0 00.601-6.625l.15-1.03-1.876-1.546V3.06c.15-.442.3-.76.45-.957.15-.245.45-.368.9-.368h5.628V51.94c0 .442-.1.76-.3.957-.2.147-.8.245-1.801.294-.95.05-2.601.074-4.953.074zm12.276.001V3.06c0-.442.1-.736.3-.883.201-.197.776-.32 1.726-.368.951-.05 2.552-.074 4.803-.074h16.509V51.94c0 .442-.1.76-.3.957-.2.147-.775.245-1.726.294-.95.05-2.576.074-4.878.074V8.067h-9.605v43.872c0 .442-.1.76-.3.957-.2.147-.775.245-1.726.294-.951.05-2.551.074-4.803.074zm30.609-20.538c-.801 0-1.251-.122-1.351-.368-.05-.294-.075-.76-.075-1.398V3.135c0-.098.025-.344.075-.736.05-.442.375-.663.975-.663h6.829c3.152 0 5.778.49 7.88 1.472 2.101.933 3.652 2.479 4.652 4.638 1.051 2.16 1.576 5.03 1.576 8.612 0 3.141-.4 5.767-1.201 7.877-.75 2.06-1.776 3.705-3.076 4.932a11.683 11.683 0 01-4.428 2.65c-1.651.54-3.402.81-5.253.81h-6.603zm-2.177 20.538V3.06c0-.49.075-.834.225-1.03.201-.197.576-.295 1.126-.295h4.202c.651 0 1.026.22 1.126.663l.15.662v48.88c0 .442-.1.76-.3.957-.2.147-.775.245-1.726.294-.901.05-2.501.074-4.803.074zm6.754-26.795h2.777c1.2 0 2.201-.319 3.001-.957.801-.686 1.426-1.815 1.876-3.386.451-1.57.676-3.705.676-6.404 0-1.717-.175-3.165-.526-4.343-.3-1.227-.825-2.16-1.575-2.797-.701-.638-1.701-.957-3.002-.957h-3.227v18.844z"/></mask><path d="M18.185 53.264V3.06c0-.442.1-.736.3-.883.2-.197.75-.32 1.65-.368.951-.05 2.577-.074 4.878-.074V51.94c0 .442-.075.76-.225.957-.15.147-.725.245-1.726.294-.95.05-2.576.074-4.877.074zM1 53.264V3.06c0-.442.075-.736.225-.883.2-.197.776-.32 1.726-.368.95-.05 2.577-.074 4.878-.074V51.94c0 .442-.1.76-.3.957-.15.147-.7.245-1.651.294-.95.05-2.577.074-4.878.074zm3.302-24.439v-6.33h16.96l.074 6.33H4.302zm26.011 24.439V3.06c0-.442.1-.736.3-.883.2-.197.776-.32 1.726-.368.95-.05 2.552-.074 4.803-.074h16.51V51.94c0 .442-.1.76-.301.957-.2.147-.775.245-1.726.294-.95.05-2.576.074-4.878.074V8.067h-9.605v43.872c0 .442-.1.76-.3.957-.2.147-.776.245-1.726.294-.95.05-2.551.074-4.803.074zm28.507 0V3.06c0-.442.1-.736.3-.883.2-.197.776-.32 1.727-.368.95-.05 2.55-.074 4.802-.074h16.51V51.94c0 .442-.1.76-.3.957-.201.147-.776.245-1.727.294-.95.05-2.576.074-4.878.074V8.067H65.65v43.872c0 .442-.1.76-.3.957-.2.147-.776.245-1.726.294-.95.05-2.551.074-4.803.074zm47.576.736c-1.501 0-2.901-.22-4.202-.663-1.251-.441-2.276-1.03-3.077-1.766-.8-.736-1.2-1.497-1.2-2.282 0-.883.1-1.693.3-2.43.2-.785.45-1.594.75-2.428a21.1 21.1 0 003.227 1.472c1.101.392 2.251.589 3.452.589 1.05 0 2.001-.27 2.851-.81.851-.589 1.576-1.521 2.177-2.797.6-1.276 1.075-2.945 1.425-5.006.401-2.06.651-4.588.751-7.582h-9.831c-.6 0-.95-.392-1.05-1.178-.1-.785-.15-2.429-.15-4.931h11.106c-.15-3.926-.475-6.994-.976-9.202-.45-2.257-1.05-3.901-1.801-4.932-.7-1.08-1.526-1.742-2.476-1.987a8.881 8.881 0 00-2.777-.442c-1.2 0-2.251.172-3.151.515-.851.344-1.501.712-1.951 1.104a8.9 8.9 0 01-.75-1.84 7.829 7.829 0 01-.301-2.208c0-.638.275-1.276.825-1.914.551-.687 1.426-1.227 2.627-1.62 1.201-.441 2.751-.662 4.652-.662 1.351 0 2.677.196 3.978.589 1.3.343 2.501 1.03 3.602 2.061 1.15 1.03 2.151 2.503 3.001 4.417.901 1.914 1.576 4.416 2.027 7.508.5 3.043.75 6.772.75 11.189 0 4.711-.25 8.686-.75 11.925-.451 3.19-1.101 5.79-1.952 7.803-.8 2.012-1.776 3.558-2.926 4.637-1.101 1.08-2.352 1.816-3.752 2.209-1.351.441-2.827.662-4.428.662zm31.953-12.367l-3.827-11.336a77.654 77.654 0 01-.751-2.429c-.3-1.178-.675-2.552-1.125-4.122a100.6 100.6 0 00-1.351-4.785 458.39 458.39 0 00-1.276-4.637 73.735 73.735 0 00-.9-3.386l-.3-1.325 2.626-7.877 6.754 20.906c.3.834.575 1.742.825 2.723a43.71 43.71 0 011.201 4.49l.225.737.15-.736c.1-.491.25-1.13.45-1.914.25-.785.476-1.62.676-2.503.25-.933.525-1.816.825-2.65L148.63 3.06l3.076 6.772-.375 1.325c-.2.835-.5 1.939-.9 3.313a355.726 355.726 0 01-1.201 4.564c-.45 1.62-.901 3.19-1.351 4.71-.45 1.522-.85 2.872-1.201 4.05-.3 1.177-.55 2.011-.75 2.502l-3.902 10.747c-.1.393-.375.59-.826.59h-2.851zm-13.283 11.63V3.062c0-.638.125-1.006.376-1.104.3-.147.625-.22.975-.22h5.028l.375 10.967-1.801 2.135.075.957c.1.589.2 1.448.3 2.576.15 1.08.276 2.356.376 3.828.15 1.423.275 2.944.375 4.564.15 1.57.275 3.19.375 4.858.1 1.669.15 3.264.15 4.785l.15 15.532c0 .442-.125.76-.375.957-.2.147-.775.245-1.726.294-.951.05-2.501.074-4.653.074zm23.488 0l.301-16.635c.05-1.522.125-3.116.225-4.785s.2-3.312.3-4.932c.15-1.668.275-3.239.375-4.711a409.49 409.49 0 00.601-6.625l.15-1.03-1.876-1.546V3.06c.15-.442.3-.76.45-.957.15-.245.45-.368.9-.368h5.628V51.94c0 .442-.1.76-.3.957-.2.147-.8.245-1.801.294-.95.05-2.601.074-4.953.074zm12.276.001V3.06c0-.442.1-.736.3-.883.201-.197.776-.32 1.726-.368.951-.05 2.552-.074 4.803-.074h16.509V51.94c0 .442-.1.76-.3.957-.2.147-.775.245-1.726.294-.95.05-2.576.074-4.878.074V8.067h-9.605v43.872c0 .442-.1.76-.3.957-.2.147-.775.245-1.726.294-.951.05-2.551.074-4.803.074zm30.609-20.538c-.801 0-1.251-.122-1.351-.368-.05-.294-.075-.76-.075-1.398V3.135c0-.098.025-.344.075-.736.05-.442.375-.663.975-.663h6.829c3.152 0 5.778.49 7.88 1.472 2.101.933 3.652 2.479 4.652 4.638 1.051 2.16 1.576 5.03 1.576 8.612 0 3.141-.4 5.767-1.201 7.877-.75 2.06-1.776 3.705-3.076 4.932a11.683 11.683 0 01-4.428 2.65c-1.651.54-3.402.81-5.253.81h-6.603zm-2.177 20.538V3.06c0-.49.075-.834.225-1.03.201-.197.576-.295 1.126-.295h4.202c.651 0 1.026.22 1.126.663l.15.662v48.88c0 .442-.1.76-.3.957-.2.147-.775.245-1.726.294-.901.05-2.501.074-4.803.074zm6.754-26.795h2.777c1.2 0 2.201-.319 3.001-.957.801-.686 1.426-1.815 1.876-3.386.451-1.57.676-3.705.676-6.404 0-1.717-.175-3.165-.526-4.343-.3-1.227-.825-2.16-1.575-2.797-.701-.638-1.701-.957-3.002-.957h-3.227v18.844z" fill="#fff"/><path d="M18.185 53.264h-1v1h1v-1zm.3-51.086l.592.805.057-.042.051-.05-.7-.713zm1.65-.368l-.05-.999h-.004l.055.999zm4.878-.074h1v-1h-1v1zm-.225 51.16l.7.714.051-.05.044-.057-.795-.607zm-1.726.294l-.049-.998h-.002l.051.998zM1 53.264H0v1h1v-1zm.225-51.086l.7.714-.7-.714zm1.726-.368L2.9.81l.051.999zm4.878-.074h1v-1h-1v1zm-.3 51.16l-.7-.714.7.714zM4.302 28.825h-1v1h1v-1zm0-6.33v-1h-1v1h1zm16.96 0l1-.012-.012-.989h-.989v1zm.074 6.33v1h1.012l-.012-1.012-1 .012zm8.977 24.439h-1v1h1v-1zm.3-51.086l.593.805.057-.042.05-.05-.7-.713zm1.726-.368l-.051-1 .051.999zm21.312-.074h1v-1h-1v1zm-.3 51.16l.593.805.057-.042.05-.05-.7-.713zm-1.726.294l-.051-.998.051.998zm-4.878.074h-1v1h1v-1zm0-45.197h1v-1h-1v1zm-9.605 0v-1h-1v1h1zm-.3 44.829l.593.805.056-.042.051-.05-.7-.713zm21.978.368h-1v1h1v-1zm.3-51.086l.593.805.057-.042.05-.05-.7-.713zm1.727-.368l-.053-1 .051.999zm21.311-.074h1v-1h-1v1zm-.3 51.16l.593.805.057-.042.05-.05-.7-.713zm-1.726.294l-.051-.998.051.998zm-4.878.074h-1v1h1v-1zm0-45.197h1v-1h-1v1zm-9.605 0v-1h-1v1h1zm-.3 44.829l.593.805.057-.042.05-.05-.7-.713zm36.845.441l-.333.944.011.003.322-.947zm-3.077-1.766l-.677.736.677-.736zm-.9-4.711l.965.262.002-.008.002-.007-.97-.247zm.75-2.43l.49-.872-1.031-.577-.4 1.111.941.339zm3.227 1.473l-.336.942.336-.942zm6.303-.221l.536.844.017-.01.017-.012-.57-.822zm2.177-2.797l.904.425-.904-.425zm1.425-5.006l-.981-.19-.002.011-.002.012.985.167zm.751-7.582l.999.034.035-1.034h-1.034v1zm-10.881-1.178l.992-.126-.992.126zm-.15-4.931v-1h-1v1h1zm11.106 0v1h1.039l-.04-1.039-.999.038zm-.976-9.202l-.98.196.002.012.003.013.975-.22zm-1.801-4.932l-.839.544.015.023.016.022.808-.589zm-2.476-1.987l-.311.95.03.01.031.008.25-.968zm-5.928.073l-.357-.934-.009.003-.009.004.375.927zm-1.951 1.104l-.874.486.6 1.08.931-.812-.657-.754zm-.226-5.962l.758.653.012-.014.011-.014-.78-.625zm2.627-1.62l.311.951.017-.006.017-.006-.345-.938zm8.63-.073l-.289.957.016.005.017.005.256-.967zm3.602 2.061l-.684.73.008.008.009.007.667-.745zm3.001 4.417l-.913.406.004.01.005.01.904-.426zm2.027 7.508l-.99.144.001.01.002.008.987-.162zm0 23.114l-.989-.153-.002.013.991.14zm-1.952 7.803l-.921-.39-.004.01-.004.01.929.37zm-2.926 4.637l-.684-.73-.009.008-.007.008.7.714zm-3.752 2.209l-.27-.963-.021.005-.02.007.311.95zm27.525-11.705l-.948.32.23.68h.718v-1zm-3.827-11.336l.947-.32v-.002l-.947.322zm-.751-2.429l-.969.247.005.02.006.018.958-.285zm-1.125-4.122l-.969.247.003.014.004.014.962-.275zm-1.351-4.785l-.966.26.005.018.005.017.956-.295zm-1.276-4.637l-.971.239.004.015.005.016.962-.27zm-.9-3.386l-.976.22.008.034.01.033.958-.287zm-.3-1.325l-.949-.317-.088.265.061.272.976-.22zm2.626-7.877l.952-.307-.224-.693h-.728v1zm6.754 20.906l-.952.307.005.016.006.015.941-.338zm.825 2.723l-.969.247.008.03.009.03.952-.307zm.751 2.577l.969-.247-.969.247zm.45 1.914l-.98.2.01.046.014.046.956-.292zm.225.736l-.956.292 1.936-.093-.98-.2zm.15-.736l-.98-.2.98.2zm.45-1.914l-.952-.304-.009.028-.008.029.969.247zm.676-2.503l-.966-.26-.005.02-.005.019.976.22zm.825-2.65l.941.338.008-.021.007-.023-.956-.294zM148.63 3.06l-.947-.322-.005.014-.004.014.956.294zm3.076 6.772l.962.273.1-.353-.151-.333-.911.413zm-.375 1.325l-.962-.272-.006.02-.004.02.972.232zm-.9 3.313l-.961-.28-.004.016-.004.017.969.247zm-1.201 4.564l.963.268.002-.008-.965-.26zm-1.351 4.71l-.959-.283.959.284zm-1.201 4.05l-.958-.286-.006.02-.005.018.969.247zm-.75 2.502l-.926-.377-.007.018-.007.018.94.341zm-3.902 10.747l-.94-.34-.017.046-.012.047.969.247zm-16.96 12.22h-1v1h1v-1zm.376-51.307l.365.93.038-.014.037-.018-.44-.898zm6.378 10.747l.765.645.248-.294-.013-.385-1 .034zm-1.801 2.135l-.764-.645-.265.314.032.41.997-.08zm.075.957l-.997.078.004.045.007.044.986-.167zm.3 2.576l-.996.088.002.025.004.025.99-.138zm.376 3.828l-.998.068.001.018.002.019.995-.105zm.375 4.564l-.998.062.001.016.001.017.996-.095zm.375 4.858l-.998.06.998-.06zm.15 4.785h-1v.01l1-.01zm.15 15.532h1v-.01l-1 .01zm-.375.957l.593.805.012-.009.012-.01-.617-.786zm-1.726.294l.052.999-.052-.999zm18.835.074l-.999-.018-.019 1.018h1.018v-1zm.301-16.636l-1-.033v.015l1 .018zm.525-9.717l-.996-.09-.001.014-.001.014.998.062zm.375-4.711l-.995-.098-.001.015-.002.015.998.068zm.601-6.625l-.99-.144-.005.033-.002.033.997.078zm.15-1.03l.989.144.081-.558-.434-.358-.636.771zm-1.876-1.546h-1v.471l.364.3.636-.771zm.45-10.895l.794.608.032-.042.027-.044-.853-.522zm6.528-.368h1v-1h-1v1zm-.3 51.16l.593.805.057-.042.051-.05-.701-.713zm-1.801.294l-.049-.998h-.002l.051.998zm7.323.074h-1v1h1v-1zm.3-51.086l.593.805.057-.042.051-.05-.701-.713zm1.726-.368l-.051-.999.051.999zm21.312-.074h1v-1h-1v1zm-.3 51.16l.593.805.057-.042.05-.05-.7-.713zm-1.726.294l-.051-.998.051.998zm-4.878.074h-1v1h1v-1zm0-45.197h1v-1h-1v1zm-9.605 0v-1h-1v1h1zm-.3 44.829l.593.805.057-.042.05-.05-.7-.713zm22.729-20.538l-.986.168.018.108.042.102.926-.378zm0-29.96l.992.127.001-.014-.993-.112zm15.684.81l-.424.906.009.004.009.004.406-.914zm4.652 4.638l-.907.42.004.009.004.008.899-.437zm.375 16.489l-.935-.355-.004.013.939.342zm-3.076 4.932l.686.727-.686-.727zm-4.428 2.65l.311.95-.311-.95zm-14.033 21.347h-1v1h1v-1zm.225-51.233l-.7-.714-.051.05-.043.056.794.608zm6.604 1.03h1v-.11l-.025-.109-.975.221zm-.3 49.835l.593.805.057-.042.05-.05-.7-.713zm-1.726.294l-.052-.998h-.002l.054.998zm1.951-26.72h-1v1h1v-1zm5.778-.957l.624.781.014-.01.014-.013-.652-.759zm1.876-3.387l-.961-.275.961.275zm.15-10.747l-.971.238.006.024.007.023.958-.285zm-1.575-2.797l-.674.74.013.01.013.012.648-.762zm-6.229-.957v-1h-1v1h1zM19.185 53.264V3.06h-2v50.203h2zm0-50.203c0-.073.004-.129.01-.169a.356.356 0 01.011-.061c.001-.002-.005.017-.026.047a.442.442 0 01-.103.105l-1.185-1.61c-.601.442-.707 1.167-.707 1.688h2zm0-.17c-.07.07-.12.085-.093.074a1.08 1.08 0 01.173-.05c.2-.045.501-.084.925-.107L20.081.811c-.476.026-.9.073-1.251.152-.306.068-.733.195-1.045.5l1.4 1.429zm1.002-.083c.922-.047 2.525-.072 4.826-.072v-2c-2.3 0-3.95.025-4.929.075l.103 1.997zm3.826-1.072V51.94h2V1.736h-2zm0 50.203c0 .168-.014.278-.03.341-.015.065-.023.053.01.008l1.59 1.215c.353-.462.43-1.056.43-1.564h-2zm.075.243c.125-.123.234-.148.188-.132a1.473 1.473 0 01-.2.044 9.18 9.18 0 01-1.063.097l.098 1.998c.517-.025.956-.065 1.301-.123.172-.03.346-.068.504-.122a1.49 1.49 0 00.572-.334l-1.4-1.428zm-1.077.01c-.922.047-2.525.072-4.826.072v2c2.3 0 3.95-.025 4.929-.075l-.103-1.997zM2 53.264V3.06H0v50.203h2zM2 3.06c0-.083.004-.15.009-.202a.737.737 0 01.016-.103c.005-.017.005-.01-.007.014a.48.48 0 01-.093.122l-1.4-1.428a1.685 1.685 0 00-.438.798 3.26 3.26 0 00-.087.8h2zm-.075-.17c-.075.075-.13.091-.099.078.024-.01.083-.03.19-.052.214-.046.536-.085.987-.109L2.9.811c-.5.026-.94.073-1.302.15-.31.066-.754.19-1.073.503l1.4 1.428zm1.078-.083c.922-.047 2.524-.072 4.826-.072v-2c-2.301 0-3.95.025-4.93.075l.104 1.997zm3.826-1.072V51.94h2V1.736h-2zm0 50.203c0 .15-.018.234-.03.271-.01.033-.009.01.03-.028l1.4 1.428c.477-.469.6-1.111.6-1.671h-2zm0 .243c.118-.117.22-.143.181-.129a1.339 1.339 0 01-.182.042 8.643 8.643 0 01-1.002.097l.103 1.997c.493-.026.915-.065 1.25-.125a3.23 3.23 0 00.493-.123c.135-.048.363-.14.557-.331l-1.4-1.428zm-1.003.01c-.922.047-2.525.072-4.826.072v2c2.301 0 3.95-.025 4.93-.075l-.104-1.997zm-.524-23.367v-6.33h-2v6.33h2zm-1-5.33h16.96v-2H4.301v2zm15.96-.989l.074 6.33 2-.023-.075-6.33-2 .023zm1.074 5.319H4.302v2h17.034v-2zm9.977 25.439V3.06h-2v50.203h2zm0-50.203c0-.073.004-.129.01-.169a.363.363 0 01.012-.061c0-.002-.005.017-.026.047a.439.439 0 01-.103.105l-1.185-1.61c-.602.442-.708 1.167-.708 1.688h2zm0-.17c-.075.075-.13.091-.099.078.024-.01.083-.03.19-.052.214-.046.536-.085.987-.109L32.288.811c-.5.026-.94.073-1.302.15-.31.066-.754.19-1.073.503l1.4 1.428zm1.078-.083c.922-.047 2.5-.072 4.751-.072v-2c-2.252 0-3.875.025-4.854.075l.103 1.997zm4.751-.072h16.51v-2h-16.51v2zm15.51-1V51.94h2V1.736h-2zm0 50.203c0 .15-.018.234-.03.271-.01.033-.01.01.029-.028l1.4 1.428c.478-.469.6-1.111.6-1.671h-2zm.106.151c.077-.056.121-.062.07-.046-.038.012-.11.03-.227.05a9.3 9.3 0 01-1.027.098l.103 1.997a11.16 11.16 0 001.26-.123c.288-.05.697-.137 1.007-.365l-1.186-1.61zm-1.184.102c-.922.047-2.525.072-4.827.072v2c2.302 0 3.95-.025 4.93-.075l-.103-1.997zm-3.827 1.072V8.067h-2v45.197h2zm-1-46.197h-9.605v2h9.605v-2zm-10.605 1v43.872h2V8.067h-2zm0 43.872c0 .15-.018.234-.03.271-.01.033-.008.01.03-.028l1.4 1.428c.478-.469.6-1.111.6-1.671h-2zm.107.151c.077-.056.12-.062.07-.046-.038.012-.11.03-.227.05a9.3 9.3 0 01-1.028.098l.103 1.997a11.16 11.16 0 001.261-.123c.288-.05.697-.137 1.007-.365l-1.186-1.61zm-1.185.102c-.922.047-2.5.072-4.75.072v2c2.25 0 3.875-.025 4.853-.075l-.103-1.997zm24.756 1.072V3.06h-2v50.203h2zm0-50.203c0-.073.005-.129.01-.169a.363.363 0 01.012-.061c0-.002-.005.017-.026.047a.441.441 0 01-.103.105l-1.185-1.61c-.602.442-.708 1.167-.708 1.688h2zm0-.17c-.075.075-.13.091-.099.078.025-.01.083-.03.19-.052.214-.046.537-.085.987-.109L60.795.811c-.5.026-.94.073-1.302.15-.309.066-.754.19-1.073.503l1.4 1.428zm1.078-.083c.922-.047 2.5-.072 4.751-.072v-2c-2.252 0-3.875.025-4.854.075l.103 1.997zm4.751-.072h16.51v-2h-16.51v2zm15.51-1V51.94h2V1.736h-2zm0 50.203c0 .15-.018.234-.03.271-.01.033-.01.01.029-.028l1.4 1.428c.478-.469.6-1.111.6-1.671h-2zm.107.151c.076-.056.12-.062.07-.046-.039.012-.111.03-.228.05a9.3 9.3 0 01-1.027.098l.103 1.997c.493-.026.918-.065 1.26-.123.288-.05.697-.137 1.007-.365l-1.185-1.61zm-1.185.102c-.922.047-2.525.072-4.827.072v2c2.302 0 3.95-.025 4.93-.075l-.103-1.997zm-3.827 1.072V8.067h-2v45.197h2zm-1-46.197H65.65v2h9.605v-2zm-10.605 1v43.872h2V8.067h-2zm0 43.872c0 .15-.017.234-.03.271-.01.033-.008.01.03-.028l1.4 1.428c.478-.469.6-1.111.6-1.671h-2zm.107.151c.077-.056.121-.062.07-.046-.038.012-.11.03-.227.05a9.3 9.3 0 01-1.028.098l.104 1.997c.493-.026.918-.065 1.26-.123.288-.05.697-.137 1.007-.365l-1.186-1.61zm-1.185.102c-.922.047-2.5.072-4.75.072v2c2.251 0 3.875-.025 4.854-.075l-.104-1.997zm42.825.808c-1.401 0-2.693-.206-3.881-.61l-.643 1.894c1.414.48 2.924.716 4.524.716v-2zm-3.869-.605c-1.151-.407-2.051-.933-2.733-1.56l-1.354 1.472c.92.845 2.07 1.496 3.421 1.973l.666-1.885zm-2.733-1.56c-.676-.622-.877-1.135-.877-1.546h-2c0 1.16.599 2.168 1.523 3.018l1.354-1.472zm-.877-1.546c0-.809.091-1.529.265-2.167l-1.93-.525a10.24 10.24 0 00-.335 2.692h2zm.269-2.182c.191-.752.432-1.53.722-2.338l-1.882-.677c-.31.862-.57 1.702-.778 2.52l1.938.495zm-.708-1.804a22.084 22.084 0 003.38 1.542l.672-1.884a20.07 20.07 0 01-3.074-1.403l-.978 1.745zm3.38 1.542c1.211.432 2.476.647 3.788.647v-2a9.195 9.195 0 01-3.116-.531l-.672 1.884zm3.788.647c1.232 0 2.37-.32 3.387-.966l-1.071-1.688c-.684.433-1.447.654-2.316.654v2zm3.421-.988c1.038-.719 1.862-1.814 2.511-3.194l-1.809-.851c-.552 1.172-1.178 1.942-1.841 2.4l1.139 1.645zm2.511-3.194c.653-1.387 1.148-3.152 1.507-5.263l-1.971-.335c-.342 2.01-.797 3.582-1.345 4.747l1.809.851zm1.503-5.24c.414-2.13.667-4.713.768-7.74l-1.999-.066c-.099 2.96-.345 5.432-.732 7.424l1.963.382zm-.231-8.773h-9.831v2h9.831v-2zm-9.831 0c-.04 0-.042-.006-.021.002.024.01.044.026.055.038.007.009-.007-.004-.028-.06a1.224 1.224 0 01-.064-.284l-1.984.253c.063.498.221 1.017.583 1.422.393.44.919.63 1.459.63v-2zm-.058-.304c-.091-.71-.142-2.29-.142-4.805h-2c0 2.49.048 4.198.158 5.058l1.984-.253zm-1.142-3.805h11.106v-2h-11.106v2zm12.105-1.039c-.151-3.95-.479-7.087-.999-9.384l-1.951.442c.48 2.12.802 5.117.952 9.019l1.998-.077zm-.994-9.359c-.459-2.302-1.094-4.117-1.973-5.324l-1.617 1.177c.622.854 1.188 2.327 1.629 4.539l1.961-.392zm-1.943-5.28c-.793-1.223-1.804-2.086-3.065-2.412l-.5 1.937c.64.165 1.28.627 1.887 1.563l1.678-1.088zm-3.004-2.394a9.88 9.88 0 00-3.088-.491v2c.846 0 1.666.13 2.466.392l.622-1.9zm-3.088-.491c-1.293 0-2.469.185-3.508.58l.713 1.87c.763-.291 1.688-.45 2.795-.45v-2zm-3.526.588c-.904.365-1.667.784-2.234 1.278l1.315 1.507c.334-.291.872-.609 1.668-.93l-.749-1.855zm-.702 1.545a7.914 7.914 0 01-.665-1.633l-1.92.559c.218.748.495 1.432.837 2.046l1.748-.972zm-.665-1.633a6.873 6.873 0 01-.26-1.93h-2c0 .872.111 1.703.34 2.489l1.92-.56zm-.26-1.93c0-.33.138-.744.583-1.26L98.81 2.63c-.656.76-1.068 1.621-1.068 2.567h2zm.606-1.288c.387-.483 1.064-.937 2.157-1.294l-.622-1.901c-1.309.428-2.382 1.053-3.096 1.945l1.561 1.25zm2.191-1.306c1.05-.386 2.472-.601 4.307-.601V0c-1.967 0-3.646.227-4.997.724l.69 1.877zm4.307-.6c1.253 0 2.481.182 3.689.546l.578-1.914A14.694 14.694 0 00106.846 0v2zm3.722.556c1.122.296 2.18.893 3.174 1.824l1.367-1.46c-1.206-1.13-2.551-1.907-4.03-2.298l-.511 1.934zm3.191 1.839c1.015.909 1.942 2.25 2.755 4.078l1.827-.812c-.888-2-1.962-3.604-3.248-4.756l-1.334 1.49zm2.764 4.097c.843 1.794 1.499 4.191 1.941 7.227l1.979-.288c-.458-3.147-1.153-5.755-2.111-7.79l-1.809.851zm1.944 7.245c.488 2.972.737 6.643.737 11.027h2c0-4.45-.252-8.238-.764-11.351l-1.973.324zm.737 11.027c0 4.68-.249 8.6-.739 11.772l1.977.306c.51-3.306.762-7.336.762-12.078h-2zm-.741 11.785c-.443 3.14-1.077 5.65-1.882 7.553l1.843.779c.896-2.12 1.562-4.813 2.02-8.052l-1.981-.28zm-1.89 7.573c-.765 1.923-1.67 3.329-2.681 4.278l1.368 1.458c1.29-1.21 2.336-2.896 3.172-4.997l-1.859-.739zm-2.697 4.293c-.988.97-2.093 1.615-3.322 1.96l.54 1.925c1.572-.44 2.969-1.267 4.182-2.457l-1.4-1.428zm-3.363 1.972c-1.239.405-2.608.613-4.117.613v2c1.694 0 3.276-.234 4.738-.712l-.621-1.901zm28.783-11.074l-3.827-11.336-1.895.64 3.827 11.336 1.895-.64zm-3.827-11.338a73.432 73.432 0 01-.739-2.392l-1.917.57c.35 1.177.605 2.004.762 2.466l1.894-.643zm-.729-2.354a146.66 146.66 0 00-1.133-4.15l-1.923.55c.449 1.564.821 2.928 1.118 4.094l1.938-.494zm-1.125-4.122a100.83 100.83 0 00-1.365-4.833l-1.911.59a97.938 97.938 0 011.338 4.737l1.938-.494zM132.26 18.7a461.929 461.929 0 00-1.278-4.648l-1.925.541c.399 1.42.823 2.962 1.272 4.628l1.931-.521zm-1.27-4.616a74.932 74.932 0 00-.913-3.435l-1.916.575c.243.81.539 1.921.887 3.338l1.942-.478zm-.896-3.368l-.225-.994-.056-.249-.015-.062a.124.124 0 00-.003-.015l-.001-.004v-.001l-.975.22-.976.221.001.002v.004l.004.015.014.062.056.249.225.993 1.951-.441zm-.327-.788l2.627-7.877-1.898-.632-2.626 7.876 1.897.633zm.726-7.885l6.754 20.905 1.903-.615-6.753-20.905-1.904.615zm6.765 20.936c.288.8.554 1.677.797 2.632l1.938-.494a30.926 30.926 0 00-.853-2.815l-1.882.677zm.814 2.692c.295.916.539 1.755.734 2.517l1.938-.494a44.748 44.748 0 00-.768-2.636l-1.904.613zm.734 2.517c.198.777.344 1.398.439 1.866l1.96-.4a43.843 43.843 0 00-.461-1.96l-1.938.494zm.463 1.959l.168.552.043.138.01.035a.043.043 0 00.003.008l.001.003.956-.292.956-.293-.001-.003-.002-.008-.011-.035-.042-.138-.169-.552-1.912.585zm1.181.444l.98.2v-.004l.002-.008.007-.035.028-.138.113-.552-1.96-.4-.112.553a8.464 8.464 0 00-.028.138l-.008.035-.001.008-.001.002v.001l.98.2zm1.13-.537c.095-.468.241-1.088.439-1.866l-1.938-.494a43.81 43.81 0 00-.461 1.96l1.96.4zm.423-1.81c.26-.815.492-1.677.698-2.585l-1.951-.442a29.434 29.434 0 01-.652 2.42l1.905.607zm.689-2.547c.243-.908.51-1.765.8-2.57l-1.882-.678c-.31.863-.593 1.773-.85 2.73l1.932.518zm.815-2.615l6.078-19.727-1.911-.59-6.079 19.728 1.912.59zm4.212-19.608l3.077 6.772 1.821-.827-3.077-6.773-1.821.828zm3.987 6.358l-.962-.272v.001l-.001.004-.005.016-.017.062-.071.248-.281.994 1.924.545.282-.994.07-.248.018-.063.004-.015.001-.004v-.001l-.962-.273zm-1.347 1.092c-.195.812-.49 1.899-.889 3.266l1.921.56a75.44 75.44 0 00.912-3.36l-1.944-.466zm-.897 3.299a331.132 331.132 0 01-1.198 4.55l1.931.521a335.35 335.35 0 001.205-4.577l-1.938-.494zm-1.196 4.543c-.448 1.614-.897 3.18-1.346 4.695l1.918.568c.452-1.527.904-3.103 1.355-4.727l-1.927-.536zm-1.346 4.695l-1.2 4.047 1.917.57c.35-1.178.751-2.528 1.201-4.05l-1.918-.567zm-1.211 4.085c-.299 1.176-.535 1.951-.707 2.373l1.852.755c.228-.56.493-1.453.793-2.634l-1.938-.494zm-.721 2.409l-3.902 10.747 1.88.683 3.902-10.748-1.88-.682zm-3.931 10.841c-.003.012-.001-.003.018-.032a.334.334 0 01.089-.093c.08-.057.122-.039.036-.039v2c.365 0 .77-.08 1.125-.333.367-.261.574-.63.67-1.009l-1.938-.493zm.143-.164h-2.851v2h2.851v-2zm-15.134 12.63v-50.2h-2v50.203h2zm0-50.202a2.6 2.6 0 01.016-.304.732.732 0 01.025-.129c.004-.012-.006.025-.051.08a.602.602 0 01-.249.18l-.731-1.862c-.504.198-.749.624-.863.959-.113.333-.147.708-.147 1.076h2zm-.184-.206c.157-.077.33-.119.535-.119v-2c-.495 0-.972.105-1.416.323l.881 1.796zm.535-.119h5.028v-2h-5.028v2zm4.029-.966l.375 10.968 1.999-.068-.376-10.968-1.998.068zm.61 10.29l-1.801 2.134 1.528 1.29 1.802-2.135-1.529-1.29zm-1.037 2.779l-.997.078v.001l.001.003v.011l.004.045.014.18.056.717 1.994-.156-.056-.718-.014-.18-.004-.044-.001-.012v-.003l-.997.078zm-.911 1.124c.094.55.191 1.376.29 2.498l1.992-.177c-.1-1.136-.203-2.027-.31-2.656l-1.972.335zm.296 2.547a54.65 54.65 0 01.368 3.758l1.995-.136a56.735 56.735 0 00-.382-3.898l-1.981.276zm.371 3.795c.148 1.407.272 2.914.372 4.52l1.996-.123a106.821 106.821 0 00-.379-4.607l-1.989.21zm.374 4.554c.149 1.558.273 3.166.373 4.823l1.996-.12c-.1-1.68-.226-3.31-.378-4.893l-1.991.19zm.373 4.823c.099 1.65.148 3.225.148 4.725h2c0-1.543-.051-3.158-.152-4.845l-1.996.12zm.148 4.735l.15 15.532 2-.02-.15-15.532-2 .02zm.15 15.522a.6.6 0 01-.025.205c-.002.007-.001.003.006-.007a.12.12 0 01.027-.028l1.234 1.573c.577-.452.758-1.12.758-1.743h-2zm.032.151c.077-.056.121-.062.071-.046a1.77 1.77 0 01-.228.05c-.233.04-.57.074-1.028.098l.104 1.997a11.18 11.18 0 001.261-.123c.287-.05.696-.137 1.006-.365l-1.186-1.61zm-1.185.102c-.922.047-2.451.072-4.601.072v2c2.153 0 3.726-.025 4.705-.075l-.104-1.997zm19.887 1.09l.3-16.636-1.999-.036-.3 16.636 1.999.036zm.3-16.621c.05-1.512.124-3.098.224-4.758l-1.996-.12c-.101 1.677-.176 3.28-.227 4.812l1.999.066zm.224-4.758c.1-1.668.2-3.311.3-4.93l-1.996-.124c-.1 1.62-.2 3.265-.3 4.934l1.996.12zm.298-4.902c.151-1.675.276-3.253.377-4.733l-1.996-.136a209.75 209.75 0 01-.373 4.69l1.992.179zm.374-4.703c.151-1.523.276-2.852.376-3.985l-1.992-.176a382.973 382.973 0 01-.374 3.965l1.99.196zm.376-3.985c.101-1.13.176-2.017.226-2.66l-1.993-.156c-.05.633-.125 1.512-.225 2.64l1.992.176zm.219-2.594l.113-.773.028-.193.007-.048.002-.012v-.004l-.989-.145-.99-.144v.001l-.001.003-.001.012-.007.049-.028.193-.113.773 1.979.288zm-.203-1.946l-1.877-1.546-1.271 1.543 1.876 1.546 1.272-1.543zm-1.512-.774V3.06h-2V13h2zm-.054-9.616c.141-.413.249-.607.298-.671l-1.589-1.215c-.251.328-.443.772-.602 1.242l1.893.644zm.357-.757a.368.368 0 01-.137.128c-.006.002.004-.003.036-.008a.936.936 0 01.148-.01v-2c-.59 0-1.334.162-1.753.846l1.706 1.044zm.047.11h3.902v-2h-3.902v2zm3.902 0h1.426v-2h-1.426v2zm1.426 0h.3v-2h-.3v2zm-.7-1V51.94h2V1.736h-2zm0 50.203c0 .15-.017.234-.029.271-.01.033-.009.01.029-.028l1.401 1.428c.477-.469.599-1.111.599-1.671h-2zm.108.151c.081-.06.13-.066.074-.049-.042.013-.12.032-.243.052-.247.04-.605.075-1.089.098l.098 1.998c.517-.025.96-.065 1.313-.122.177-.03.349-.066.507-.114.145-.044.343-.118.525-.252l-1.185-1.61zm-1.26.102c-.922.047-2.55.072-4.902.072v2c2.351 0 4.026-.025 5.005-.075l-.103-1.997zm8.374 1.072V3.06h-2v50.203h2zm0-50.203c0-.073.005-.129.01-.169a.312.312 0 01.012-.061c.001-.002-.005.017-.026.047a.43.43 0 01-.103.105l-1.185-1.61c-.602.442-.708 1.167-.708 1.688h2zm.001-.17c-.076.075-.131.091-.1.078.024-.01.083-.03.19-.052.214-.046.537-.085.987-.109L162.805.81c-.5.026-.941.073-1.302.15-.309.066-.754.19-1.073.503l1.401 1.428zm1.077-.083c.922-.047 2.5-.072 4.751-.072v-2c-2.252 0-3.875.025-4.854.075l.103 1.997zm4.751-.072h16.509v-2h-16.509v2zm15.509-1V51.94h2V1.736h-2zm0 50.203c0 .15-.017.234-.029.271-.01.033-.009.01.029-.028l1.4 1.428c.478-.469.6-1.111.6-1.671h-2zm.108.151c.076-.056.12-.062.07-.046a1.77 1.77 0 01-.228.05 9.27 9.27 0 01-1.027.098l.103 1.997a11.18 11.18 0 001.261-.123c.287-.05.696-.137 1.006-.365l-1.185-1.61zm-1.185.102c-.922.047-2.525.072-4.827.072v2c2.302 0 3.951-.025 4.93-.075l-.103-1.997zm-3.827 1.072V8.067h-2v45.197h2zm-1-46.197h-9.605v2h9.605v-2zm-10.605 1v43.872h2V8.067h-2zm0 43.872c0 .15-.017.234-.029.271-.01.033-.009.01.029-.028l1.4 1.428c.478-.469.6-1.111.6-1.671h-2zm.107.151c.077-.056.121-.062.071-.046-.039.012-.112.03-.228.05-.233.04-.57.074-1.028.098l.104 1.997a11.18 11.18 0 001.261-.123c.287-.05.696-.137 1.006-.365l-1.186-1.61zm-1.185.102c-.922.047-2.5.072-4.751.072v2c2.252 0 3.876-.025 4.855-.075l-.104-1.997zm25.858-20.466c-.365 0-.576-.03-.676-.056-.047-.013-.028-.015.021.018a.642.642 0 01.23.293l-1.852.755c.233.571.77.78 1.076.863.35.096.765.127 1.201.127v-2zm-.365.465c-.035-.206-.061-.601-.061-1.231h-2c0 .645.024 1.183.089 1.566l1.972-.335zm-.061-1.231V3.135h-2V30.96h2zm0-27.825c0 .007.001-.032.013-.157.012-.11.029-.26.054-.453l-1.984-.253a8.584 8.584 0 00-.083.863h2zm.068-.624a.248.248 0 01-.034.09.38.38 0 01-.116.128c-.037.025-.056.026-.034.021a.753.753 0 01.166-.014v-2c-.402 0-.861.07-1.256.338-.437.297-.66.744-.713 1.212l1.987.225zm-.018.225h6.829v-2h-6.829v2zm6.829 0c3.055 0 5.526.477 7.456 1.378l.847-1.812c-2.273-1.061-5.054-1.566-8.303-1.566v2zm7.474 1.386c1.871.83 3.248 2.196 4.151 4.144l1.814-.84c-1.098-2.371-2.823-4.097-5.154-5.132l-.811 1.828zm4.159 4.161c.96 1.973 1.475 4.676 1.475 8.175h2c0-3.665-.535-6.704-1.677-9.05l-1.798.875zM211 16.458c0 3.064-.391 5.56-1.136 7.522l1.87.71c.857-2.259 1.266-5.014 1.266-8.232h-2zm-1.14 7.535c-.709 1.947-1.659 3.448-2.824 4.546l1.373 1.455c1.437-1.355 2.538-3.142 3.33-5.317l-1.879-.684zm-2.824 4.546a10.672 10.672 0 01-4.052 2.427l.622 1.901a12.682 12.682 0 004.803-2.873l-1.373-1.455zm-4.052 2.427c-1.544.505-3.189.76-4.942.76v2c1.95 0 3.806-.284 5.564-.859l-.622-1.9zm-4.942.76h-6.603v2h6.603v-2zm-7.78 21.538V3.06h-2v50.203h2zm0-50.203c0-.2.016-.332.034-.412.018-.085.029-.068-.014-.011l-1.589-1.215c-.363.475-.431 1.11-.431 1.638h2zm-.074-.317c-.063.062-.097.054-.016.033.079-.02.219-.04.441-.04v-2c-.592 0-1.325.089-1.826.58l1.401 1.427zm.425-.008h4.202v-2h-4.202v2zm4.202 0c.108 0 .181.01.226.02.045.009.051.016.036.008a.26.26 0 01-.075-.072.208.208 0 01-.036-.072l1.95-.442a1.738 1.738 0 00-.824-1.138c-.399-.235-.855-.304-1.277-.304v2zm.151-.116l.112.496.028.125.008.03.001.008.001.002v.001l.975-.22.975-.222v-.002l-.002-.008-.007-.031-.028-.124-.113-.497-1.95.442zm.125.441V51.94h2V3.06h-2zm0 48.878c0 .15-.017.234-.029.271-.01.033-.009.01.029-.028l1.4 1.428c.478-.469.6-1.111.6-1.671h-2zm.107.151c.077-.056.121-.062.071-.046a1.77 1.77 0 01-.228.05c-.233.04-.57.074-1.028.098l.104 1.997a11.18 11.18 0 001.261-.123c.287-.05.696-.137 1.006-.365l-1.186-1.61zm-1.187.102c-.87.047-2.446.072-4.749.072v2c2.3 0 3.926-.025 4.857-.075l-.108-1.997zm2.005-24.723h2.777v-2h-2.777v2zm2.777 0c1.386 0 2.618-.372 3.625-1.175l-1.247-1.564c-.594.474-1.363.74-2.378.74v2zm3.653-1.198c1.009-.866 1.709-2.206 2.186-3.869l-1.923-.551c-.424 1.478-.975 2.395-1.566 2.903l1.303 1.517zm2.186-3.869c.487-1.7.714-3.94.714-6.68h-2c0 2.658-.224 4.687-.637 6.129l1.923.551zm.714-6.68c0-1.779-.181-3.329-.567-4.628l-1.917.57c.314 1.057.484 2.402.484 4.058h2zm-.554-4.58c-.336-1.374-.949-2.514-1.9-3.322l-1.295 1.524c.55.467.988 1.193 1.252 2.273l1.943-.476zm-1.874-3.3c-.944-.859-2.219-1.217-3.675-1.217v2c1.145 0 1.871.28 2.328.696l1.347-1.478zm-3.675-1.217h-3.227v2h3.227v-2zm-4.227 1v18.844h2V7.625h-2z" fill="#000" mask="url(#a)"/></svg>