<svg width="255" height="78" fill="none" xmlns="http://www.w3.org/2000/svg"><mask id="a" maskUnits="userSpaceOnUse" x="81" y="6" width="152" height="40" fill="#000"><path fill="#fff" d="M81 6h152v40H81z"/><path d="M94.216 44.472V8.478c0-.317.072-.528.214-.634.142-.14.533-.228 1.174-.263.675-.036 1.831-.053 3.467-.053v35.994c0 .317-.053.546-.16.686-.107.106-.516.176-1.227.211-.676.036-1.831.053-3.468.053zm-12.216 0V8.478c0-.317.053-.528.16-.634.142-.14.551-.228 1.227-.263.676-.036 1.832-.053 3.468-.053v35.994c0 .317-.072.546-.214.686-.107.106-.498.176-1.173.211-.676.036-1.832.053-3.468.053zm2.347-17.522v-4.539h12.057l.053 4.539h-12.11zm18.492 17.522V8.478c0-.317.071-.528.213-.634.142-.14.551-.228 1.227-.263.676-.036 1.814-.053 3.414-.053h11.737v35.994c0 .317-.071.546-.214.686-.142.106-.551.176-1.227.211-.675.036-1.831.053-3.467.053V12.067h-6.829v31.455c0 .317-.071.546-.213.686-.142.106-.551.176-1.227.211-.676.036-1.814.053-3.414.053zm20.265 0V8.478c0-.317.072-.528.214-.634.142-.14.551-.228 1.227-.263.676-.036 1.814-.053 3.414-.053h11.736v35.994c0 .317-.071.546-.213.686-.142.106-.551.176-1.227.211-.676.036-1.831.053-3.467.053V12.067h-6.829v31.455c0 .317-.071.546-.213.686-.143.106-.552.176-1.227.211-.676.036-1.814.053-3.415.053zm33.822.528a9.154 9.154 0 01-2.987-.475c-.889-.317-1.618-.739-2.187-1.267-.569-.527-.854-1.073-.854-1.636 0-.633.071-1.214.213-1.741.143-.563.32-1.144.534-1.742.747.422 1.511.774 2.294 1.055a7.19 7.19 0 002.454.423c.747 0 1.422-.194 2.027-.58.605-.423 1.12-1.092 1.547-2.006.427-.915.765-2.112 1.014-3.59.284-1.477.462-3.29.533-5.435h-6.988c-.427 0-.676-.282-.747-.845-.071-.563-.107-1.742-.107-3.536h7.895c-.106-2.815-.337-5.014-.693-6.597-.32-1.619-.747-2.797-1.28-3.536-.498-.774-1.085-1.25-1.761-1.425a6.262 6.262 0 00-1.974-.317c-.853 0-1.6.123-2.24.37-.605.246-1.067.51-1.387.791a6.36 6.36 0 01-.534-1.32 5.693 5.693 0 01-.213-1.583c0-.457.195-.914.587-1.372.391-.492 1.013-.88 1.867-1.161.853-.317 1.956-.475 3.307-.475.961 0 1.903.14 2.828.422.924.247 1.778.74 2.56 1.478.818.739 1.53 1.794 2.134 3.167.64 1.372 1.121 3.166 1.441 5.383.355 2.181.533 4.856.533 8.022 0 3.378-.178 6.228-.533 8.55-.32 2.287-.783 4.152-1.387 5.595-.569 1.442-1.263 2.55-2.081 3.325-.782.774-1.671 1.301-2.667 1.583-.961.317-2.01.475-3.148.475zm22.715-8.867l-2.72-8.127a55.511 55.511 0 01-.534-1.742c-.213-.845-.48-1.83-.8-2.956a73.028 73.028 0 00-.96-3.43c-.32-1.197-.623-2.305-.907-3.325a54.37 54.37 0 00-.64-2.428l-.214-.95 1.867-5.647 4.802 14.989c.213.598.409 1.249.586 1.952.214.669.392 1.285.534 1.848.142.563.249 1.02.32 1.372l.16.528.107-.528c.071-.352.178-.81.32-1.372.178-.563.338-1.161.48-1.795.178-.668.373-1.302.587-1.9l4.321-14.144 2.187 4.855-.267.95a52.75 52.75 0 01-.64 2.375 249.61 249.61 0 01-.853 3.273c-.32 1.16-.64 2.287-.961 3.377l-.853 2.903c-.214.845-.391 1.443-.534 1.795l-2.774 7.705c-.071.282-.266.422-.586.422h-2.028zm-9.442 8.34V8.477c0-.458.089-.722.267-.792a1.54 1.54 0 01.693-.158h3.574l.267 7.864-1.28 1.53.053.686c.071.423.142 1.038.214 1.848.106.774.195 1.688.266 2.744.107 1.02.196 2.111.267 3.272.107 1.126.196 2.287.267 3.484a57.97 57.97 0 01.106 3.43L175 43.522c0 .317-.089.546-.267.686-.142.106-.551.176-1.227.211-.675.036-1.778.053-3.307.053zm16.698 0l.213-11.929c.036-1.09.089-2.234.16-3.43.071-1.196.142-2.375.213-3.536.107-1.197.196-2.322.267-3.378a283.078 283.078 0 00.427-4.75l.107-.739-1.334-1.108V8.478c.107-.317.213-.546.32-.686.107-.176.32-.264.64-.264h4.001v35.994c0 .317-.071.546-.213.686-.142.106-.569.176-1.281.211-.675.036-1.849.053-3.52.053zm8.726-.001V8.478c0-.317.072-.528.214-.634.142-.14.551-.228 1.227-.263.676-.036 1.814-.053 3.414-.053h11.736v35.994c0 .317-.071.546-.213.686-.142.106-.551.176-1.227.211-.676.036-1.832.053-3.467.053V12.067h-6.829v31.455c0 .317-.071.546-.213.686-.143.106-.552.176-1.227.211-.676.036-1.814.053-3.415.053zm21.76-14.725c-.569 0-.889-.088-.96-.264-.036-.21-.054-.545-.054-1.002V8.53c0-.07.018-.247.054-.528.035-.317.266-.475.693-.475h4.855c2.24 0 4.107.352 5.601 1.055 1.494.669 2.596 1.777 3.308 3.325.747 1.549 1.12 3.607 1.12 6.175 0 2.252-.285 4.135-.854 5.648-.533 1.477-1.262 2.656-2.187 3.536a8.288 8.288 0 01-3.147 1.9c-1.174.387-2.419.58-3.735.58h-4.694zm-1.547 14.725V8.478c0-.352.053-.598.16-.74.142-.14.409-.21.8-.21h2.987c.463 0 .73.158.801.475l.106.475v35.044c0 .317-.071.546-.213.686-.142.106-.551.176-1.227.211-.64.036-1.778.053-3.414.053zm4.801-19.21h1.974c.853 0 1.565-.23 2.134-.687.569-.493 1.013-1.302 1.333-2.428.321-1.126.481-2.656.481-4.591 0-1.232-.125-2.27-.374-3.114-.213-.88-.587-1.549-1.12-2.006-.498-.457-1.209-.686-2.134-.686h-2.294v13.511z"/></mask><path d="M94.216 44.472V8.478c0-.317.072-.528.214-.634.142-.14.533-.228 1.174-.263.675-.036 1.831-.053 3.467-.053v35.994c0 .317-.053.546-.16.686-.107.106-.516.176-1.227.211-.676.036-1.831.053-3.468.053zm-12.216 0V8.478c0-.317.053-.528.16-.634.142-.14.551-.228 1.227-.263.676-.036 1.832-.053 3.468-.053v35.994c0 .317-.072.546-.214.686-.107.106-.498.176-1.173.211-.676.036-1.832.053-3.468.053zm2.347-17.522v-4.539h12.057l.053 4.539h-12.11zm18.492 17.522V8.478c0-.317.071-.528.213-.634.142-.14.551-.228 1.227-.263.676-.036 1.814-.053 3.414-.053h11.737v35.994c0 .317-.071.546-.214.686-.142.106-.551.176-1.227.211-.675.036-1.831.053-3.467.053V12.067h-6.829v31.455c0 .317-.071.546-.213.686-.142.106-.551.176-1.227.211-.676.036-1.814.053-3.414.053zm20.265 0V8.478c0-.317.072-.528.214-.634.142-.14.551-.228 1.227-.263.676-.036 1.814-.053 3.414-.053h11.736v35.994c0 .317-.071.546-.213.686-.142.106-.551.176-1.227.211-.676.036-1.831.053-3.467.053V12.067h-6.829v31.455c0 .317-.071.546-.213.686-.143.106-.552.176-1.227.211-.676.036-1.814.053-3.415.053zm33.822.528a9.154 9.154 0 01-2.987-.475c-.889-.317-1.618-.739-2.187-1.267-.569-.527-.854-1.073-.854-1.636 0-.633.071-1.214.213-1.741.143-.563.32-1.144.534-1.742.747.422 1.511.774 2.294 1.055a7.19 7.19 0 002.454.423c.747 0 1.422-.194 2.027-.58.605-.423 1.12-1.092 1.547-2.006.427-.915.765-2.112 1.014-3.59.284-1.477.462-3.29.533-5.435h-6.988c-.427 0-.676-.282-.747-.845-.071-.563-.107-1.742-.107-3.536h7.895c-.106-2.815-.337-5.014-.693-6.597-.32-1.619-.747-2.797-1.28-3.536-.498-.774-1.085-1.25-1.761-1.425a6.262 6.262 0 00-1.974-.317c-.853 0-1.6.123-2.24.37-.605.246-1.067.51-1.387.791a6.36 6.36 0 01-.534-1.32 5.693 5.693 0 01-.213-1.583c0-.457.195-.914.587-1.372.391-.492 1.013-.88 1.867-1.161.853-.317 1.956-.475 3.307-.475.961 0 1.903.14 2.828.422.924.247 1.778.74 2.56 1.478.818.739 1.53 1.794 2.134 3.167.64 1.372 1.121 3.166 1.441 5.383.355 2.181.533 4.856.533 8.022 0 3.378-.178 6.228-.533 8.55-.32 2.287-.783 4.152-1.387 5.595-.569 1.442-1.263 2.55-2.081 3.325-.782.774-1.671 1.301-2.667 1.583-.961.317-2.01.475-3.148.475zm22.715-8.867l-2.72-8.127a55.511 55.511 0 01-.534-1.742c-.213-.845-.48-1.83-.8-2.956a73.028 73.028 0 00-.96-3.43c-.32-1.197-.623-2.305-.907-3.325a54.37 54.37 0 00-.64-2.428l-.214-.95 1.867-5.647 4.802 14.989c.213.598.409 1.249.586 1.952.214.669.392 1.285.534 1.848.142.563.249 1.02.32 1.372l.16.528.107-.528c.071-.352.178-.81.32-1.372.178-.563.338-1.161.48-1.795.178-.668.373-1.302.587-1.9l4.321-14.144 2.187 4.855-.267.95a52.75 52.75 0 01-.64 2.375 249.61 249.61 0 01-.853 3.273c-.32 1.16-.64 2.287-.961 3.377l-.853 2.903c-.214.845-.391 1.443-.534 1.795l-2.774 7.705c-.071.282-.266.422-.586.422h-2.028zm-9.442 8.34V8.477c0-.458.089-.722.267-.792a1.54 1.54 0 01.693-.158h3.574l.267 7.864-1.28 1.53.053.686c.071.423.142 1.038.214 1.848.106.774.195 1.688.266 2.744.107 1.02.196 2.111.267 3.272.107 1.126.196 2.287.267 3.484a57.97 57.97 0 01.106 3.43L175 43.522c0 .317-.089.546-.267.686-.142.106-.551.176-1.227.211-.675.036-1.778.053-3.307.053zm16.698 0l.213-11.929c.036-1.09.089-2.234.16-3.43.071-1.196.142-2.375.213-3.536.107-1.197.196-2.322.267-3.378a283.078 283.078 0 00.427-4.75l.107-.739-1.334-1.108V8.478c.107-.317.213-.546.32-.686.107-.176.32-.264.64-.264h4.001v35.994c0 .317-.071.546-.213.686-.142.106-.569.176-1.281.211-.675.036-1.849.053-3.52.053zm8.726-.001V8.478c0-.317.072-.528.214-.634.142-.14.551-.228 1.227-.263.676-.036 1.814-.053 3.414-.053h11.736v35.994c0 .317-.071.546-.213.686-.142.106-.551.176-1.227.211-.676.036-1.832.053-3.467.053V12.067h-6.829v31.455c0 .317-.071.546-.213.686-.143.106-.552.176-1.227.211-.676.036-1.814.053-3.415.053zm21.76-14.725c-.569 0-.889-.088-.96-.264-.036-.21-.054-.545-.054-1.002V8.53c0-.07.018-.247.054-.528.035-.317.266-.475.693-.475h4.855c2.24 0 4.107.352 5.601 1.055 1.494.669 2.596 1.777 3.308 3.325.747 1.549 1.12 3.607 1.12 6.175 0 2.252-.285 4.135-.854 5.648-.533 1.477-1.262 2.656-2.187 3.536a8.288 8.288 0 01-3.147 1.9c-1.174.387-2.419.58-3.735.58h-4.694zm-1.547 14.725V8.478c0-.352.053-.598.16-.74.142-.14.409-.21.8-.21h2.987c.463 0 .73.158.801.475l.106.475v35.044c0 .317-.071.546-.213.686-.142.106-.551.176-1.227.211-.64.036-1.778.053-3.414.053zm4.801-19.21h1.974c.853 0 1.565-.23 2.134-.687.569-.493 1.013-1.302 1.333-2.428.321-1.126.481-2.656.481-4.591 0-1.232-.125-2.27-.374-3.114-.213-.88-.587-1.549-1.12-2.006-.498-.457-1.209-.686-2.134-.686h-2.294v13.511z" fill="#fff"/><path d="M94.216 44.472h-1v1h1v-1zm.214-36.628l.596.804.057-.043.05-.05-.703-.71zm1.174-.263l-.052-1-.003.001.055.999zm3.467-.053h1v-1h-1v1zm-.16 36.68l.703.711.051-.05.043-.057-.797-.604zm-1.227.211l-.05-.998h-.002l.052.998zM82 44.472h-1v1h1v-1zm.16-36.628l.703.711-.703-.71zm1.227-.263l-.052-1 .052 1zm3.468-.053h1v-1h-1v1zm-.214 36.68l-.703-.71.703.71zM84.347 26.95h-1v1h1v-1zm0-4.539v-1h-1v1h1zm12.057 0l1-.012-.012-.988h-.988v1zm.053 4.539v1h1.012l-.012-1.012-1 .012zm6.382 17.522h-1v1h1v-1zm.213-36.628l.596.804.057-.043.05-.05-.703-.71zm1.227-.263l-.052-1 .052 1zm15.151-.053h1v-1h-1v1zm-.214 36.68l.596.803.057-.042.051-.05-.704-.71zm-1.227.211l-.052-.998.052.998zm-3.467.053h-1v1h1v-1zm0-32.405h1v-1h-1v1zm-6.829 0v-1h-1v1h1zm-.213 32.141l.596.803.057-.042.05-.05-.703-.71zm15.624.264h-1v1h1v-1zm.214-36.628l.596.804.057-.043.05-.05-.703-.71zm1.227-.263l-.052-1 .052 1zm15.15-.053h1v-1h-1v1zm-.213 36.68l.596.803.057-.042.05-.05-.703-.71zm-1.227.211l-.052-.998.052.998zm-3.467.053h-1v1h1v-1zm0-32.405h1v-1h-1v1zm-6.829 0v-1h-1v1h1zm-.213 32.141l.596.803.057-.042.05-.05-.703-.71zm26.193.317l-.336.942.012.004.324-.946zm-2.187-1.267l-.68.733.68-.733zm-.641-3.377l.966.26.002-.008.002-.007-.97-.245zm.534-1.742l.492-.87-1.035-.585-.399 1.119.942.336zm2.294 1.055l-.339.941.339-.94zm4.481-.158l.539.842.017-.01.017-.012-.573-.82zm1.547-2.005l.906.422-.906-.422zm1.014-3.59l-.982-.188-.003.011-.001.011.986.167zm.533-5.435l1 .033.034-1.033h-1.034v1zm-7.735-.845l.992-.125-.992.125zm-.107-3.536v-1h-1v1h1zm7.895 0v1h1.039l-.039-1.038-1 .038zm-.693-6.597l-.981.194.002.012.003.013.976-.22zm-1.28-3.536l-.841.54.014.023.016.022.811-.585zm-1.761-1.425l-.313.95.03.01.031.007.252-.967zm-4.214.052l-.359-.933-.009.004-.01.003.378.926zm-1.387.792l-.876.483.601 1.09.935-.822-.66-.75zm-.16-4.275l.76.65.011-.014.012-.014-.783-.622zm1.867-1.161l.313.95.017-.006.018-.006-.348-.938zm6.135-.053l-.291.957.016.005.017.005.258-.967zm2.56 1.478l-.686.727.008.008.008.007.67-.742zm2.134 3.167l-.915.403.005.01.004.01.906-.423zm1.441 5.383l-.99.143.001.009.002.009.987-.161zm0 16.572l-.989-.151-.002.013.991.138zm-1.387 5.595l-.923-.387-.004.01-.004.01.931.367zm-2.081 3.325l-.687-.727-.008.008-.008.008.703.71zm-2.667 1.583l-.272-.962-.021.006-.02.006.313.95zm19.567-8.392l-.948.318.229.682h.719v-1zm-2.72-8.127l.948-.318-.001-.002-.947.32zm-.534-1.742l-.969.245.004.019.006.019.959-.283zm-.8-2.956l-.97.245.004.015.004.014.962-.274zm-.96-3.43l-.966.258.004.018.006.017.956-.293zm-.907-3.325l-.972.237.004.016.005.015.963-.268zm-.64-2.428l-.976.22.007.032.01.033.959-.285zm-.214-.95l-.949-.314-.087.263.061.27.975-.219zm1.867-5.647l.953-.305-.223-.695h-.73v1zm4.802 14.989l-.953.305.005.015.006.016.942-.336zm.586 1.952l-.969.245.007.03.01.03.952-.305zm.534 1.848l.969-.245-.969.245zm.32 1.372l-.98.198.009.047.014.045.957-.29zm.16.528l-.957.29 1.937-.092-.98-.198zm.107-.528l-.98-.198.98.198zm.32-1.372l-.954-.302-.009.028-.007.029.97.245zm.48-1.795l-.966-.257-.005.019-.005.02.976.218zm.587-1.9l.942.336.007-.021.007-.023-.956-.292zm4.321-14.144l-.948-.32-.004.014-.004.014.956.292zm2.187 4.855l.963.27.098-.35-.149-.33-.912.41zm-.267.95l-.962-.27-.006.02-.004.019.972.231zm-.64 2.375l-.96-.277-.005.016-.004.016.969.245zm-.853 3.273l.964.265.002-.007-.966-.258zm-.961 3.377l-.959-.281.959.281zm-.853 2.903l-.959-.283-.006.02-.005.018.97.245zm-.534 1.795l-.927-.375-.007.018-.006.018.94.339zm-2.774 7.705l-.941-.339-.016.047-.012.047.969.245zm-12.056 8.761h-1v1h1v-1zm.267-36.786l.368.93.038-.015.037-.019-.443-.896zM175 15.392l.767.641.246-.293-.013-.382-1 .034zm-1.28 1.53l-.767-.641-.262.312.032.407.997-.078zm.053.686l-.997.078.004.044.007.044.986-.166zm.214 1.848l-.997.087.003.025.003.024.991-.136zm.266 2.744l-.997.067.001.019.002.018.994-.104zm.267 3.272l-.998.061.001.017.001.017.996-.095zm.267 3.484l-.998.059.998-.06zm.106 3.43h-1v.01l1-.01zM175 43.522h1v-.01l-1 .01zm-.267.686l.596.803.013-.009.012-.01-.621-.784zm12.164.264l-1-.018-.018 1.018h1.018v-1zm.213-11.928l-1-.032v.015l1 .017zm.373-6.966l-.996-.09-.001.015-.001.014.998.06zm.267-3.378l-.995-.097-.002.015-.001.015.998.067zm.427-4.75l-.99-.143-.005.033-.002.032.997.078zm.107-.739l.989.143.08-.554-.43-.358-.639.77zm-1.334-1.108h-1v.469l.361.3.639-.77zm.32-7.811l.797.604.031-.041.027-.045-.855-.518zm4.641-.264h1v-1h-1v1zm-.213 36.68l.596.803.057-.042.05-.05-.703-.71zm-1.281.211l-.049-.998h-.003l.052.998zm5.206.053h-1v1h1v-1zm.214-36.628l.596.804.057-.043.05-.05-.703-.71zm1.227-.263l-.052-1 .052 1zm15.15-.053h1v-1h-1v1zm-.213 36.68l.596.803.057-.042.05-.05-.703-.71zm-1.227.211l-.052-.998.052.998zm-3.467.053h-1v1h1v-1zm0-32.405h1v-1h-1v1zm-6.829 0v-1h-1v1h1zm-.213 32.141l.596.803.057-.042.05-.05-.703-.71zm16.158-14.725l-.986.166.018.108.041.101.927-.375zm0-21.48l.992.125.001-.014-.993-.111zm11.149.58l-.426.905.009.004.009.004.408-.913zm3.308 3.325l-.909.418.004.008.004.009.901-.435zm.266 11.823l-.936-.353-.004.013.94.34zm-2.187 3.536l.689.724-.689-.724zm-3.147 1.9l.313.95-.313-.95zm-9.976 15.305h-1v1h1v-1zm.16-36.733l-.703-.711-.051.05-.043.057.797.604zm4.694.739h1v-.111l-.024-.108-.976.219zm-.213 35.73l.596.803.057-.042.05-.05-.703-.71zm-1.227.211l-.052-.998h-.003l.055.998zm1.387-19.158h-1v1h1v-1zm4.108-.686l.626.78.014-.012.014-.012-.654-.756zm1.333-2.428l-.961-.273.961.273zm.107-7.705l-.972.235.006.024.007.023.959-.282zm-1.12-2.006l-.677.736.013.012.013.011.651-.759zm-4.428-.686v-1h-1v1h1zM95.217 44.472V8.478h-2v35.994h2zm0-35.994c0-.092.01-.107 0-.077a.538.538 0 01-.191.247L93.834 7.04c-.541.402-.618 1.043-.618 1.437h2zm-.084.077c-.084.084-.155.112-.156.113-.006.003.014-.006.072-.02.12-.026.316-.053.61-.069l-.11-1.997c-.347.02-.667.054-.938.115-.228.052-.602.157-.884.437l1.406 1.421zm.523.024c.647-.033 1.78-.051 3.415-.051v-2c-1.636 0-2.815.017-3.52.054l.105 1.997zm2.415-1.051v35.994h2V7.528h-2zm0 35.994a1.308 1.308 0 01-.014.182c-.002.008 0 .002.007-.015a.417.417 0 01.05-.085l1.594 1.208c.308-.406.363-.908.363-1.29h-2zm.137-.025a.778.778 0 01.243-.163.594.594 0 01-.096.02c-.147.026-.38.05-.72.067l.099 1.997a8.29 8.29 0 00.96-.092c.13-.023.27-.053.403-.099.11-.037.328-.12.517-.308l-1.406-1.422zm-.576-.076c-.647.034-1.78.051-3.416.051v2c1.637 0 2.816-.017 3.52-.054l-.104-1.997zM83 44.472V8.478h-2v35.994h2zm0-35.994a1.097 1.097 0 01.01-.151.336.336 0 01-.028.067c-.02.04-.056.1-.119.161l-1.406-1.421a1.491 1.491 0 00-.386.703 2.63 2.63 0 00-.071.64h2zm-.137.077a.646.646 0 01-.163.117c-.004.002.02-.008.084-.021.13-.029.342-.056.655-.072l-.104-1.997a6.305 6.305 0 00-.972.113c-.227.05-.616.152-.906.439l1.406 1.421zm.576.024c.647-.033 1.78-.051 3.416-.051v-2c-1.636 0-2.816.017-3.52.054l.104 1.997zm2.416-1.051v35.994h2V7.528h-2zm0 35.994a.73.73 0 01-.005.092l-.004.02a.43.43 0 01.091-.137l1.407 1.422c.418-.413.51-.964.51-1.397h-2zm.083-.025a.77.77 0 01.172-.13c.036-.019.06-.027.065-.029.007-.002-.016.006-.084.018a5.838 5.838 0 01-.675.065l.104 1.997a7.57 7.57 0 00.925-.093 2.56 2.56 0 00.396-.101c.111-.04.32-.124.504-.305l-1.407-1.422zm-.522-.076c-.647.034-1.78.051-3.416.051v2c1.636 0 2.815-.017 3.52-.054l-.104-1.997zm-.069-16.471v-4.539h-2v4.539h2zm-1-3.539h12.057v-2H84.347v2zm11.057-.988l.053 4.539 2-.024-.053-4.539-2 .024zm1.053 3.527h-12.11v2h12.11v-2zm7.382 18.522V8.478h-2v35.994h2zm0-35.994c0-.092.011-.107.001-.077a.539.539 0 01-.192.247l-1.192-1.607c-.541.402-.617 1.043-.617 1.437h2zm-.084.077a.613.613 0 01-.116.093.273.273 0 01-.047.024c-.004.002.019-.008.084-.021.13-.029.342-.056.655-.072l-.104-1.997a6.316 6.316 0 00-.972.113c-.227.05-.616.152-.906.439l1.406 1.421zm.576.024c.647-.034 1.762-.051 3.362-.051v-2c-1.6 0-2.762.017-3.466.054l.104 1.997zm3.362-.051h11.737v-2h-11.737v2zm10.737-1v35.994h2V7.528h-2zm0 35.994a.837.837 0 01-.005.092c-.003.02-.005.025-.003.02a.42.42 0 01.091-.137l1.407 1.422c.417-.413.51-.964.51-1.397h-2zm.191-.117c.09-.067.156-.084.135-.077a1.061 1.061 0 01-.123.027c-.149.025-.376.05-.696.066l.104 1.997c.356-.018.672-.047.932-.092.204-.035.558-.106.839-.315l-1.191-1.606zm-.684.016c-.647.034-1.779.051-3.415.051v2c1.636 0 2.815-.017 3.519-.054l-.104-1.997zm-2.415 1.051V12.067h-2v32.405h2zm-1-33.405h-6.829v2h6.829v-2zm-7.829 1v31.455h2V12.067h-2zm0 31.455a.64.64 0 01-.005.092l-.003.02c.002-.005.008-.023.022-.048a.429.429 0 01.07-.089l1.406 1.422c.418-.413.51-.964.51-1.397h-2zm.191-.117c.091-.067.157-.084.135-.077a.88.88 0 01-.122.027c-.149.025-.376.05-.696.066l.104 1.997c.356-.018.671-.047.931-.092.205-.035.559-.106.84-.315l-1.192-1.606zm-.683.016c-.647.034-1.762.051-3.362.051v2c1.601 0 2.762-.017 3.466-.054l-.104-1.997zm17.903 1.051V8.478h-2v35.994h2zm0-35.994c0-.092.012-.107.001-.077a.534.534 0 01-.191.247l-1.192-1.607c-.542.402-.618 1.043-.618 1.437h2zm-.083.077a.646.646 0 01-.116.093.273.273 0 01-.047.024c-.004.002.019-.008.084-.021.13-.029.342-.056.655-.072l-.104-1.997a6.3 6.3 0 00-.972.113c-.227.05-.616.152-.906.439l1.406 1.421zm.576.024c.647-.034 1.762-.051 3.362-.051v-2c-1.601 0-2.762.017-3.466.054l.104 1.997zm3.362-.051h11.736v-2h-11.736v2zm10.736-1v35.994h2V7.528h-2zm0 35.994a.905.905 0 01-.004.092l-.004.02c.002-.005.008-.023.023-.048a.389.389 0 01.069-.089l1.406 1.422c.418-.413.51-.964.51-1.397h-2zm.191-.117c.091-.067.157-.084.135-.077a.963.963 0 01-.122.027c-.149.025-.376.05-.696.066l.104 1.997c.356-.018.671-.047.931-.092.205-.035.559-.106.84-.315l-1.192-1.606zm-.683.016c-.647.034-1.779.051-3.415.051v2c1.635 0 2.815-.017 3.519-.054l-.104-1.997zm-2.415 1.051V12.067h-2v32.405h2zm-1-33.405h-6.829v2h6.829v-2zm-7.829 1v31.455h2V12.067h-2zm0 31.455a.64.64 0 01-.005.092c-.002.02-.005.025-.003.02a.24.24 0 01.022-.048.456.456 0 01.069-.089l1.407 1.422c.418-.413.51-.964.51-1.397h-2zm.191-.117c.091-.067.157-.084.135-.077a1.074 1.074 0 01-.122.027c-.149.025-.377.05-.696.066l.104 1.997c.356-.018.671-.047.931-.092.204-.035.559-.106.84-.315l-1.192-1.606zm-.683.016c-.647.034-1.763.051-3.363.051v2c1.601 0 2.762-.017 3.467-.054l-.104-1.997zm30.459.579a8.156 8.156 0 01-2.663-.421l-.648 1.892c1.038.356 2.144.529 3.311.529v-2zm-2.652-.417c-.788-.28-1.392-.64-1.842-1.058l-1.36 1.467c.687.637 1.541 1.122 2.531 1.475l.671-1.884zm-1.842-1.058c-.445-.412-.534-.71-.534-.903h-2c0 .934.48 1.727 1.174 2.37l1.36-1.467zm-.534-.903c0-.559.063-1.05.179-1.481l-1.931-.52a7.654 7.654 0 00-.248 2.001h2zm.183-1.496c.134-.53.302-1.08.506-1.651l-1.884-.672c-.223.625-.41 1.236-.561 1.833l1.939.49zm-.928-1.117c.794.45 1.61.825 2.447 1.126l.677-1.881a13.936 13.936 0 01-2.14-.986l-.984 1.741zm2.447 1.126a8.196 8.196 0 002.793.482v-2a6.198 6.198 0 01-2.116-.363l-.677 1.881zm2.793.482c.93 0 1.794-.244 2.566-.739l-1.078-1.684a2.68 2.68 0 01-1.488.423v2zm2.6-.761c.792-.553 1.405-1.385 1.88-2.403l-1.812-.845c-.379.812-.797 1.317-1.214 1.608l1.146 1.64zm1.88-2.403c.479-1.025.836-2.317 1.094-3.845l-1.972-.332c-.241 1.427-.559 2.528-.934 3.332l1.812.845zm1.09-3.822c.297-1.546.478-3.414.551-5.592l-1.999-.067c-.07 2.114-.245 3.87-.516 5.28l1.964.379zm-.449-6.625h-6.988v2h6.988v-2zm-6.988 0a.394.394 0 01.242.126c.032.036.038.059.033.044a.62.62 0 01-.03-.14l-1.984.25c.048.386.173.82.483 1.17a1.64 1.64 0 001.256.55v-2zm.245.03c-.062-.49-.099-1.604-.099-3.411h-2c0 1.781.034 3.025.115 3.662l1.984-.251zm-1.099-2.411h7.895v-2h-7.895v2zm8.895-1.038c-.108-2.838-.342-5.108-.717-6.778l-1.952.438c.336 1.496.564 3.625.67 6.416l1.999-.076zm-.712-6.753c-.329-1.664-.79-3.013-1.451-3.928l-1.621 1.171c.406.563.799 1.571 1.11 3.145l1.962-.388zm-1.42-3.883c-.59-.917-1.362-1.595-2.35-1.852l-.504 1.935c.364.095.765.367 1.172.999l1.682-1.082zm-2.289-1.834a7.26 7.26 0 00-2.287-.367v2c.57 0 1.122.089 1.661.266l.626-1.899zm-2.287-.367c-.947 0-1.82.136-2.599.436l.718 1.867c.501-.193 1.122-.303 1.881-.303v-2zm-2.618.443c-.659.269-1.233.584-1.67.967l1.321 1.502c.204-.18.554-.392 1.104-.617l-.755-1.852zm-.134 1.235a5.444 5.444 0 01-.448-1.114l-1.922.555a7.45 7.45 0 00.619 1.525l1.751-.966zm-.448-1.114a4.677 4.677 0 01-.174-1.306h-2c0 .648.082 1.27.252 1.861l1.922-.555zm-.174-1.306c0-.152.061-.388.347-.722l-1.52-1.3c-.497.58-.827 1.26-.827 2.022h2zm.37-.75c.228-.287.653-.588 1.397-.833l-.626-1.9c-.963.318-1.783.791-2.337 1.49l1.566 1.243zm1.432-.845c.702-.26 1.675-.413 2.959-.413V6c-1.418 0-2.65.165-3.655.537l.696 1.876zM157.246 8a8.66 8.66 0 012.537.379l.582-1.913A10.66 10.66 0 00157.246 6v2zm2.57.389c.745.198 1.455.599 2.132 1.238l1.373-1.454c-.888-.839-1.885-1.423-2.99-1.717l-.515 1.933zm2.148 1.253c.683.617 1.322 1.54 1.889 2.828l1.83-.806c-.642-1.458-1.425-2.645-2.378-3.506l-1.341 1.484zm1.898 2.847c.584 1.252 1.045 2.942 1.357 5.104l1.979-.286c-.328-2.272-.827-4.17-1.523-5.663l-1.813.845zm1.36 5.122c.344 2.11.52 4.727.52 7.861h2c0-3.2-.179-5.93-.546-8.183l-1.974.322zm.52 7.861c0 3.347-.176 6.143-.522 8.399l1.977.303c.366-2.39.545-5.293.545-8.702h-2zm-.524 8.412c-.313 2.238-.759 4.01-1.319 5.346l1.845.773c.649-1.55 1.128-3.506 1.455-5.842l-1.981-.277zm-1.327 5.366c-.534 1.355-1.158 2.322-1.837 2.965l1.374 1.453c.957-.905 1.72-2.154 2.324-3.684l-1.861-.734zm-1.853 2.98c-.67.664-1.414 1.1-2.236 1.333l.544 1.924c1.169-.33 2.204-.95 3.098-1.834l-1.406-1.422zm-2.277 1.345c-.848.28-1.79.425-2.835.425v2c1.232 0 2.388-.171 3.461-.525l-.626-1.9zm20.829-7.76l-2.721-8.127-1.897.635 2.721 8.128 1.897-.635zm-2.722-8.129c-.099-.296-.272-.86-.522-1.705l-1.918.566c.249.843.431 1.44.545 1.778l1.895-.639zm-.511-1.667c-.217-.857-.486-1.852-.808-2.984l-1.924.547c.318 1.12.582 2.095.793 2.927l1.939-.49zm-.801-2.956a72.104 72.104 0 00-.973-3.478l-1.912.586c.351 1.146.666 2.273.946 3.382l1.939-.49zm-.963-3.444c-.321-1.199-.624-2.31-.91-3.335l-1.926.537c.283 1.017.584 2.122.904 3.315l1.932-.517zm-.902-3.303a52.898 52.898 0 00-.653-2.476l-1.917.57c.171.575.38 1.366.627 2.38l1.943-.474zm-.636-2.41l-.16-.713-.04-.178-.01-.044-.002-.011-.001-.003v-.001l-.976.219-.975.22v.003a.89.89 0 00.013.056l.04.178.16.712 1.951-.438zm-.239-.417l1.867-5.647-1.899-.628-1.867 5.647 1.899.628zm-.035-5.656l4.801 14.989 1.905-.61-4.801-14.99-1.905.61zm4.812 15.02c.201.564.388 1.184.559 1.861l1.939-.49a22.777 22.777 0 00-.614-2.043l-1.884.672zm.576 1.92c.208.653.38 1.25.516 1.789l1.939-.49a32.61 32.61 0 00-.55-1.907l-1.905.608zm.516 1.789c.141.555.243.995.31 1.325l1.96-.396a29.651 29.651 0 00-.331-1.42l-1.939.49zm.333 1.417a85.177 85.177 0 00.15.495l.008.025.001.006.001.001.957-.29.957-.29-.001-.002-.001-.006a85.177 85.177 0 01-.158-.52l-1.914.581zm1.117.238l.98.198.001-.002.001-.006.005-.025.02-.1.08-.395-1.96-.396a45.03 45.03 0 00-.08.396l-.02.099-.005.024-.002.007v.001l.98.199zm1.087-.33c.067-.33.169-.77.309-1.325l-1.939-.49a30.7 30.7 0 00-.33 1.419l1.96.396zm.293-1.27a22.46 22.46 0 00.503-1.876l-1.952-.438a20.449 20.449 0 01-.458 1.712l1.907.603zm.493-1.838a23.07 23.07 0 01.563-1.82l-1.884-.673a24.713 24.713 0 00-.611 1.98l1.932.513zm.577-1.865l4.321-14.144-1.912-.584-4.322 14.144 1.913.584zm2.453-14.026l2.187 4.856 1.824-.821-2.187-4.856-1.824.821zm3.099 4.445l-.963-.27-.001.004a1.08 1.08 0 00-.015.056l-.05.178-.2.712 1.925.54.2-.712.05-.178.013-.045a.069.069 0 01.003-.01l.001-.003v-.001l-.963-.27zm-1.239.719c-.137.576-.346 1.35-.628 2.329l1.921.555c.286-.992.505-1.8.652-2.421l-1.945-.463zm-.637 2.361c-.248.98-.531 2.066-.85 3.26l1.932.516c.321-1.2.606-2.295.857-3.286l-1.939-.49zm-.848 3.252a220.916 220.916 0 01-.956 3.362l1.919.563c.322-1.096.643-2.228.965-3.394l-1.928-.531zm-.956 3.362l-.853 2.901 1.918.566.854-2.904-1.919-.563zm-.864 2.94c-.212.841-.376 1.38-.491 1.664l1.855.75c.17-.422.361-1.078.575-1.925l-1.939-.49zm-.504 1.7l-2.775 7.705 1.882.678 2.774-7.706-1.881-.677zm-2.803 7.8a.48.48 0 01.185-.25c.121-.087.216-.084.198-.084v2c.301 0 .654-.066.97-.294.327-.234.505-.563.586-.883l-1.939-.49zm.383-.334h-2.028v2h2.028v-2zm-10.47 9.34V8.477h-2v35.994h2zm0-35.995c0-.084.004-.144.009-.185.005-.042.01-.05.005-.037a.485.485 0 01-.082.143.726.726 0 01-.297.217l-.736-1.86c-.469.186-.686.581-.78.861-.094.28-.119.584-.119.86h2zm-.29.104a.544.544 0 01.25-.054v-2c-.395 0-.779.085-1.137.262l.887 1.792zm.25-.054h3.574v-2h-3.574v2zm2.575-.966l.267 7.864 1.999-.068-.267-7.864-1.999.068zm.499 7.188l-1.28 1.53 1.534 1.284 1.28-1.53-1.534-1.284zm-.513 2.172l-.997.078v.003l.001.008.002.032.01.128.04.515 1.994-.155-.04-.515-.01-.128-.002-.033-.001-.008v-.002l-.997.077zm-.933.852c.064.383.133.967.203 1.77l1.993-.176a26.201 26.201 0 00-.224-1.926l-1.972.332zm.209 1.818c.103.745.189 1.635.26 2.675l1.995-.134a40.945 40.945 0 00-.274-2.814l-1.981.273zm.263 2.712c.105 1.004.193 2.08.263 3.23l1.996-.123a78.366 78.366 0 00-.27-3.315l-1.989.208zm.265 3.263c.106 1.113.194 2.263.265 3.448l1.996-.119c-.072-1.207-.162-2.38-.269-3.518l-1.992.189zm.265 3.448c.07 1.178.104 2.302.104 3.371h2c0-1.112-.036-2.276-.108-3.49l-1.996.119zm.104 3.38L174 43.533l2-.02-.107-11.136-2 .02zM174 43.523c0 .069-.01.076.001.047a.354.354 0 01.112-.145l1.241 1.569c.502-.398.646-.976.646-1.47h-2zm.138-.117c.09-.067.156-.084.135-.077a1.061 1.061 0 01-.123.027c-.149.025-.376.05-.696.066l.104 1.997c.356-.018.672-.047.932-.092.204-.035.558-.106.839-.315l-1.191-1.606zm-.684.016c-.647.034-1.727.051-3.255.051v2c1.53 0 2.656-.017 3.359-.054l-.104-1.997zm14.442 1.07l.214-11.929-2-.035-.213 11.927 1.999.036zm.213-11.914c.036-1.081.089-2.215.159-3.404l-1.996-.118a128.35 128.35 0 00-.162 3.457l1.999.065zm.159-3.404c.071-1.195.142-2.374.214-3.534l-1.997-.122c-.071 1.161-.142 2.34-.213 3.538l1.996.118zm.211-3.506c.108-1.203.197-2.336.269-3.4l-1.996-.134a153.21 153.21 0 01-.265 3.356l1.992.178zm.266-3.37c.107-1.093.197-2.046.268-2.86l-1.992-.175c-.071.805-.16 1.752-.266 2.84l1.99.195zm.268-2.86c.071-.81.125-1.447.161-1.91l-1.994-.155c-.035.453-.088 1.082-.159 1.89l1.992.176zm.154-1.844l.08-.554.02-.139.005-.034.001-.01v-.002l-.989-.143-.99-.143-.001.003-.001.009-.005.034-.02.139-.08.554 1.98.286zm-.244-1.651l-1.334-1.108-1.278 1.538 1.333 1.108 1.279-1.538zm-.973-.34V8.479h-2v7.125h2zm-.052-6.805c.045-.134.085-.234.118-.305.035-.076.054-.1.051-.096l-1.594-1.208c-.207.272-.355.626-.471.97l1.896.64zm.227-.487a.545.545 0 01-.234.208c-.051.021-.057.01.019.01v-2c-.463 0-1.121.129-1.495.745l1.71 1.037zm-.215.218h2.774v-2h-2.774v2zm2.774 0h1.014v-2h-1.014v2zm1.014 0h.213v-2h-.213v2zm-.787-1v35.994h2V7.528h-2zm0 35.994a.64.64 0 01-.005.092c-.002.02-.005.025-.003.02.002-.005.008-.023.022-.048a.429.429 0 01.07-.089l1.406 1.422c.418-.413.51-.964.51-1.397h-2zm.191-.117c.096-.071.167-.088.14-.08a1.115 1.115 0 01-.134.029 6.93 6.93 0 01-.74.067l.099 1.997c.373-.018.7-.047.967-.091.133-.022.27-.05.399-.09.116-.037.293-.101.461-.226l-1.192-1.606zm-.737.016c-.646.034-1.796.051-3.468.051v2c1.671 0 2.868-.017 3.572-.054l-.104-1.997zm6.258 1.051V8.478h-2v35.994h2zm0-35.994c0-.092.012-.107.001-.077a.534.534 0 01-.191.247l-1.192-1.607c-.542.402-.618 1.043-.618 1.437h2zm-.083.077a.647.647 0 01-.116.093.32.32 0 01-.047.024c-.004.002.019-.008.084-.021.13-.029.342-.056.655-.072l-.104-1.997a6.3 6.3 0 00-.972.113c-.227.05-.616.152-.906.439l1.406 1.421zm.576.024c.647-.034 1.762-.051 3.362-.051v-2c-1.601 0-2.762.017-3.466.054l.104 1.997zm3.362-.051h11.736v-2h-11.736v2zm10.736-1v35.994h2V7.528h-2zm0 35.994a.905.905 0 01-.004.092l-.004.02c.002-.005.008-.023.022-.048a.429.429 0 01.07-.089l1.406 1.422c.418-.413.51-.964.51-1.397h-2zm.191-.117c.091-.067.157-.084.135-.077a.963.963 0 01-.122.027c-.149.025-.376.05-.696.066l.104 1.997c.356-.018.671-.047.931-.092.205-.035.559-.106.84-.315l-1.192-1.606zm-.683.016c-.647.034-1.779.051-3.415.051v2c1.635 0 2.815-.017 3.519-.054l-.104-1.997zm-2.415 1.051V12.067h-2v32.405h2zm-1-33.405h-6.829v2h6.829v-2zm-7.829 1v31.455h2V12.067h-2zm0 31.455a.64.64 0 01-.005.092c-.002.02-.005.025-.003.02a.19.19 0 01.022-.048.456.456 0 01.069-.089l1.407 1.422c.417-.413.51-.964.51-1.397h-2zm.191-.117c.091-.067.157-.084.135-.077a1.074 1.074 0 01-.122.027c-.15.025-.377.05-.696.066l.104 1.997c.356-.018.671-.047.931-.092.204-.035.559-.106.84-.315l-1.192-1.606zm-.683.016c-.648.034-1.763.051-3.363.051v2c1.601 0 2.762-.017 3.467-.054l-.104-1.997zm18.397-14.674a2.93 2.93 0 01-.282-.011.801.801 0 01-.12-.019c-.014-.004.031.006.101.053a.749.749 0 01.268.338l-1.854.75c.216.536.712.72.955.787.286.08.612.102.932.102v-2zm.026.57c-.021-.123-.04-.387-.04-.836h-2c0 .465.017.87.068 1.168l1.972-.332zm-.04-.836V8.53h-2v19.95h2zm0-19.95c0 .017-.001.02.001-.001l.008-.084a8.5 8.5 0 01.037-.318l-1.984-.25a6.291 6.291 0 00-.062.653h2zm.047-.417a.454.454 0 01-.058.17.563.563 0 01-.17.188c-.117.08-.182.056-.072.056v-2c-.316 0-.71.055-1.058.293-.39.267-.584.667-.629 1.07l1.987.223zm-.3.414h4.855v-2h-4.855v2zm4.855 0c2.143 0 3.853.337 5.175.96l.852-1.81c-1.665-.784-3.689-1.15-6.027-1.15v2zm5.193.968c1.262.565 2.192 1.492 2.807 2.83l1.817-.835c-.808-1.759-2.083-3.049-3.807-3.82l-.817 1.825zm2.815 2.847c.657 1.362 1.021 3.254 1.021 5.74h2c0-2.65-.383-4.875-1.22-6.61l-1.801.87zm1.021 5.74c0 2.176-.276 3.93-.79 5.296l1.872.704c.625-1.66.918-3.671.918-6h-2zm-.794 5.308c-.493 1.365-1.147 2.4-1.936 3.151l1.378 1.45c1.061-1.01 1.865-2.331 2.439-3.922l-1.881-.679zm-1.936 3.151a7.29 7.29 0 01-2.771 1.675l.626 1.9a9.284 9.284 0 003.523-2.126l-1.378-1.449zm-2.771 1.675c-1.067.352-2.205.53-3.422.53v2a12.85 12.85 0 004.048-.63l-.626-1.9zm-3.422.53h-4.694v2h4.694v-2zm-5.241 15.725V8.478h-2v35.994h2zm0-35.994c0-.13.01-.205.017-.237.003-.015.004-.011-.003.005a.476.476 0 01-.057.097l-1.594-1.208c-.317.418-.363.954-.363 1.343h2zm-.137-.028a.484.484 0 01-.114.085c-.025.013-.037.015-.027.012a.52.52 0 01.074-.012c.042-.004.096-.007.164-.007v-2c-.434 0-1.061.062-1.503.5l1.406 1.422zm.097.078h2.987v-2h-2.987v2zm2.987 0c.134 0 .116.025.037-.022a.469.469 0 01-.212-.284l1.951-.438a1.527 1.527 0 00-.718-.997c-.346-.206-.729-.26-1.058-.26v2zm-.175-.306l.08.356.02.09.005.022.001.005.001.001.975-.218.976-.22v-.001l-.002-.006-.005-.022-.02-.09-.08-.355-1.951.438zm.082.256v35.044h2V8.478h-2zm0 35.044a.64.64 0 01-.005.092l-.003.02c.002-.005.008-.023.022-.048a.429.429 0 01.07-.089l1.406 1.422c.418-.413.51-.964.51-1.397h-2zm.191-.117c.091-.067.157-.084.135-.077a.88.88 0 01-.122.027c-.149.025-.376.05-.696.066l.104 1.997c.356-.018.671-.047.931-.092.205-.035.559-.106.84-.315l-1.192-1.606zm-.686.016c-.609.033-1.722.051-3.359.051v2c1.635 0 2.798-.017 3.469-.054l-.11-1.997zm1.442-17.16h1.974v-2h-1.974v2zm1.974 0c1.041 0 1.985-.283 2.76-.907l-1.253-1.558c-.362.29-.841.465-1.507.465v2zm2.788-.93c.777-.673 1.295-1.693 1.641-2.91l-1.923-.547c-.295 1.034-.666 1.632-1.027 1.945l1.309 1.512zm1.641-2.91c.357-1.254.519-2.89.519-4.865h-2c0 1.894-.159 3.32-.442 4.318l1.923.547zm.519-4.865c0-1.293-.13-2.432-.415-3.397l-1.918.565c.213.725.333 1.66.333 2.832h2zm-.402-3.35c-.249-1.025-.708-1.9-1.441-2.529l-1.302 1.518c.334.287.621.748.799 1.482l1.944-.471zm-1.416-2.506c-.741-.681-1.728-.95-2.81-.95v2c.767 0 1.203.189 1.457.422l1.353-1.472zm-2.81-.95h-2.294v2h2.294v-2zm-3.294 1v13.511h2V11.75h-2z" fill="#000" mask="url(#a)"/><path d="M38.351 74.786c19.77 0 35.795-16.026 35.795-35.795 0-19.77-16.026-35.795-35.795-35.795-19.768 0-35.794 16.026-35.794 35.795 0 19.769 16.026 35.795 35.794 35.795z" fill="#fff"/><path d="M38.352 77.342c21.18 0 38.351-17.313 38.351-38.67C76.703 17.313 59.533 0 38.352 0 17.17 0 0 17.314 0 38.671 0 60.03 17.17 77.342 38.352 77.342z" fill="#666"/><path d="M38.352 75.425c20.121 0 36.434-16.312 36.434-36.434 0-20.122-16.313-36.434-36.434-36.434-20.122 0-36.435 16.312-36.435 36.434 0 20.122 16.313 36.434 36.434 36.434z" fill="#166693"/><path d="M38.352 72.868c18.71 0 33.877-15.31 33.877-34.197 0-18.886-15.167-34.197-33.877-34.197S4.475 19.784 4.475 38.671s15.167 34.197 33.877 34.197z" fill="#fff"/><path d="M60.95 61.588c12.482-12.483 12.482-32.712 0-45.195-12.484-12.483-32.713-12.483-45.196 0-12.483 12.483-12.483 32.712 0 45.195 12.484 12.483 32.712 12.483 45.195 0z" fill="#fff"/><path fill-rule="evenodd" clip-rule="evenodd" d="M67.025 44.718c-.093.42-.193.832-.301 1.244l-4.373-.948c.093-.335.178-.677.255-1.019l4.42.723zM23.552 18.914l6.97 7.321-5.3.94.069 5.418a336.907 336.907 0 01-8.707-5.534 25.37 25.37 0 00-1.707 4.026l-4.211-.886c2.441-8.215 8.444-14.907 16.216-18.312l1.831 4.042a24.36 24.36 0 00-5.16 2.985zm33.986 3.995a23.74 23.74 0 00-1.39-1.54l-3.006 2.993 1.468 1.461 2.928-2.914zM20.362 55.413l3.082-3.07-1.468-1.461-2.966 2.961c.425.536.88 1.065 1.352 1.57zm21.84-23.892c-1.537-.164-1.089-.164-2.634-.164L36.3 34.381l-.912-2.938c-.03 0-.757.093-.788.093-6.428.715-11.117 3.334-11.58 6.537v.023c4.272.622 4.264.342 0 .964v.015c.2 4.275 8.675 6.67 11.735 6.576 0 0 .965-.894 2.943-3.062l.333 3.303c.046 0 .903-.023.95-.023 4.04-.11 14.27-1.703 14.926-6.747v-.031l-2.874-.59 2.866-.397v-.023c-.471-3.226-5.215-5.86-11.697-6.56zm25.418 9.187C68.987 23.18 59.987 6.68 37.891 9.206l-3.074.474c-.472.062-.95.132-1.414.217l-.27.04h.053a28.27 28.27 0 00-5.23 1.5l1.839 4.057a24.466 24.466 0 016.806-1.485l3.083 9.234-4.543-1.54 1.298 11.318 1.306-7.687 3.6 1.772.796.466-.843-13.462a24.654 24.654 0 0111.62 4.485c-2.635 2.953-4.543 5.09-6.876 7.858l5.393.723.154 5.363 8.49-5.946a24.527 24.527 0 011.778 3.948 120.02 120.02 0 00-2.813 1.19l1.368.901-.672 1.477 2.966-.474c.255 1.243.418 2.526.48 3.84l-6.25-.7.718 1.492-5.532.28 6.69.66-.633-1.367 5.014 1.414a23.957 23.957 0 01-.363 3.599l4.427.73c.17-.94.286-1.904.363-2.875zM39.104 67.733l3.206-.49c.51-.062 1.013-.14 1.507-.233l.054-.008h-.008c10.708-1.95 19.369-9.739 22.544-19.936l-4.38-.949a24.294 24.294 0 01-1.561 3.754 374.526 374.526 0 00-8.885-5.65l.07 5.417-5.3.94 7.2 7.563a24.774 24.774 0 01-12.237 4.96l.827-13.214-.796.466-4.18 2.231.124-7.672-3.848 11.045 6.127-1.391-2.874 8.627a24.607 24.607 0 01-6.675-1.414l-.595 1.718-1.066-.459.58-1.687a24.67 24.67 0 01-5.2-2.953c2.657-2.977 4.566-5.115 6.914-7.897l-5.392-.723-.155-5.363-8.42 5.9a24.035 24.035 0 01-1.77-4.12c1.167-.443 2.07-.793 3.175-1.244l-1.622-1.134.819-1.741-3.26.435a31.586 31.586 0 01-.132-.917 75.022 75.022 0 00-.054-2.37l4.914-1.392-.634 1.368 6.56-.676-5.393-.273.718-1.492-6.157.692c.023-1.205.108-2.355.332-3.638l-4.172-.878c-.092.482-.177.964-.24 1.454-.107.668-.2 1.336-.293 1.997-.008-.039-.015-.062-.015-.054 0 .054-.008.116-.008.17-.433 3.14.533 4.874-.131 7.486-2.627 8.526 8.76 24.436 29.782 23.745z" fill="#666"/><path fill-rule="evenodd" clip-rule="evenodd" d="M39.517 70.927l3.106-.472a29.7 29.7 0 001.665-.256l.054-.007h-.015a32.245 32.245 0 0013.801-6.094A32.043 32.043 0 0068.94 48.27l-4.561-.984a26.752 26.752 0 01-1.728 4.12c-3.648-2.362-6.42-4.127-9.813-6.202l.078 5.946-5.847 1.03 7.946 8.3a27.322 27.322 0 01-13.507 5.436l.914-14.487-.876.511-4.616 2.447.132-8.41-4.244 12.119 6.761-1.518-3.175 9.455a27.414 27.414 0 01-7.373-1.55l-.659 1.882-1.177-.503.643-1.843a26.777 26.777 0 01-5.74-3.236c2.928-3.26 5.043-5.614 7.63-8.657l-5.933-.82-.17-5.878-9.279 6.458a26.568 26.568 0 01-1.952-4.514c1.286-.488 2.285-.868 3.501-1.37l-1.789-1.248.906-1.912-3.601.488c-.054-.333-.1-.666-.14-1.007a68.132 68.132 0 00-.062-2.602l5.422-1.517-.697 1.494 7.234-.735-5.948-.295.79-1.641-6.793.75c.031-1.315.124-2.585.372-3.987l-4.6-.96a32.357 32.357 0 00-.597 6.164c0 17.654 14.313 31.955 31.963 31.955.396 0 .775-.007 1.162-.023zm30.337-26.474l-4.577-.75c.224-1.286.364-2.602.395-3.95l-5.53-1.556.697 1.494-7.389-.727 6.103-.31-.797-1.642 6.893.767c-.07-1.44-.24-2.842-.527-4.212l-3.268.526.743-1.626-1.51-.999c1.069-.472 1.936-.828 3.106-1.308a26.62 26.62 0 00-1.96-4.329l-9.371 6.528-.17-5.877-5.949-.79c2.58-3.028 4.686-5.374 7.59-8.618a27.24 27.24 0 00-12.825-4.917l.93 14.766-.876-.511-3.981-1.944-1.44 8.433-1.426-12.397 5.02 1.688-3.409-10.128a27.488 27.488 0 00-7.512 1.626l-2.03-4.452c1.844-.72 3.78-1.27 5.77-1.642h-.062l.295-.046c.519-.093 1.038-.17 1.564-.24l.829-.124a33.09 33.09 0 013.168-.155c17.658 0 31.963 14.31 31.963 31.956a31.006 31.006 0 01-.457 5.466zm-.24 1.247c-.093.457-.201.906-.318 1.347l-4.546-.983c.1-.372.194-.743.28-1.115l4.584.751zM7.732 29.827l4.631.968a26.9 26.9 0 011.883-4.422c3.655 2.37 6.21 3.996 9.61 6.07l-.077-5.946 5.848-1.03-7.69-8.03a27.511 27.511 0 015.7-3.275l-2.022-4.429a32.092 32.092 0 00-14.026 11.8l-.031.04c-.07.1-.132.2-.194.302a31.645 31.645 0 00-3.632 7.952zm34.775 1.448c7.156.766 12.392 3.654 12.903 7.185v.023l-3.168.434 3.176.643v.038c-.728 5.53-12.02 7.28-16.482 7.403a46 46 0 00-1.045.03l-.364-3.615c-2.177 2.385-3.245 3.36-3.245 3.36-3.377.109-12.733-2.524-12.95-7.208v-.016c4.709-.689 4.724-.38.008-1.06v-.024c.511-3.508 5.692-6.38 12.787-7.162.03-.008.836-.101.875-.101l1.007 3.221 3.601-3.314c1.696-.015 1.2-.015 2.897.163zM18.405 57.477a26.577 26.577 0 01-1.495-1.726l3.276-3.245 1.619 1.603-3.4 3.368z" fill="#166693"/><path fill-rule="evenodd" clip-rule="evenodd" d="M26.217 37.723h2.316c-.06-.553-.244-1.013-.556-1.373-.305-.36-.724-.545-1.25-.545-.395 0-.73.115-1.005.33a1.715 1.715 0 00-.571.882l-1.478-.338a2.674 2.674 0 011.006-1.572c.518-.391 1.188-.59 2.01-.59 1.075 0 1.92.36 2.522 1.073.61.714.907 1.65.907 2.8 0 .782-.138 1.45-.42 2.017a3.28 3.28 0 01-1.157 1.312c-.488.307-1.082.468-1.775.468-1.684 0-2.727-.798-3.116-2.386l1.501-.468c.076.53.267.928.571 1.182.305.253.67.383 1.09.383.434 0 .807-.153 1.12-.46.312-.307.51-.79.601-1.465h-2.316v-1.25zm5.089 4.318v-7.394h2.247l1.325 5.04 1.31-5.04h2.255v7.394h-1.386l-.008-5.822-1.462 5.822h-1.44l-1.455-5.822-.008 5.822h-1.378zm8.66-7.394h5.889v7.394h-1.5v-6.144h-2.888v6.144h-1.5v-7.394zm7.42 7.394v-7.394h2.4c.906 0 1.5.038 1.774.107.427.115.785.353 1.067.721.29.376.426.852.426 1.442 0 .453-.084.836-.243 1.143a2.093 2.093 0 01-.625.729c-.252.176-.51.291-.777.345-.358.069-.876.107-1.546.107h-.975v2.785h-1.501v.015zm1.5-6.144v2.11h.816c.586 0 .982-.039 1.18-.116a.963.963 0 00.465-.36.983.983 0 00.168-.575.955.955 0 00-.237-.668 1.044 1.044 0 00-.601-.33c-.175-.03-.534-.053-1.074-.053h-.716v-.008z" fill="#fff"/><path d="M19.543 26.207l-5.48-5.174 1.035-1.112 2.16 2.03 2.026-2.189-2.16-2.031 1.046-1.112 5.48 5.174-1.035 1.112-2.397-2.258-2.026 2.19 2.386 2.258-1.035 1.112zM59.6 16.619l3.68 4.834-5.908 4.754-.934-1.226 4.917-3.956-1.811-2.382-4.918 3.955-.934-1.226L59.6 16.62z" fill="#fff"/><path fill-rule="evenodd" clip-rule="evenodd" d="M32.6 11.211l5.628 11.317 3.945 4.318 1.292-17.258L32.6 11.21z" fill="#166693"/><path d="M36.445 8.31h5.742v7.67h-1.463V9.597h-2.827v6.383h-1.463V8.31h.01z" fill="#fff"/><path d="M82.227 51h.83v3.891h2.751V51h.82v8.78h-.82v-4.271h-2.75v4.27h-.832V51zm6.848 8.877c-.374 0-.676-.134-.906-.401-.23-.267-.346-.6-.346-.997 0-.412.08-.752.238-1.02.165-.267.417-.505.755-.715.338-.209.845-.465 1.521-.769v-.444c0-.39-.025-.694-.076-.91-.043-.218-.122-.373-.237-.467-.108-.094-.262-.14-.464-.14-.582 0-.874.357-.874 1.072v.217l-.776-.01c.007-.644.144-1.117.41-1.42.266-.304.694-.456 1.284-.456.546 0 .934.166 1.165.499.237.332.355.856.355 1.571v3.046c0 .202.004.434.011.694.015.26.03.444.043.552h-.7l-.12-.867a1.508 1.508 0 01-.485.694c-.223.18-.489.27-.798.27zm.248-.672c.216 0 .41-.072.583-.217a1.8 1.8 0 00.431-.531v-1.95c-.489.26-.845.462-1.068.606a1.69 1.69 0 00-.496.488c-.108.173-.162.4-.162.683 0 .31.065.541.194.693.137.152.31.228.518.228zm2.788 1.517c.504 0 .842-.054 1.014-.162a.538.538 0 00.26-.488c0-.137-.033-.332-.098-.585a8.053 8.053 0 00-.108-.456l-1.284-5.516h.788l1.079 5.332 1.046-5.332h.798l-1.51 6.709c-.093.397-.28.683-.56.856-.281.173-.688.26-1.22.26h-.205v-.618zm6.558-3.555a5.008 5.008 0 01-.907.109c-1.028 0-1.542-.48-1.542-1.442v-2.32h.787v2.342c0 .563.306.845.917.845.209 0 .457-.032.745-.097v-3.09h.798v6.265h-.798v-2.612zm2.011-3.652h.788v2.73h1.941v-2.73h.799v6.264h-.799v-2.937h-1.941v2.937h-.788v-6.264zm6.273 6.362c-.619 0-1.05-.192-1.295-.575-.244-.39-.366-.986-.366-1.788V55.78c0-.802.122-1.395.366-1.778.245-.39.676-.585 1.295-.585.626 0 1.061.195 1.305.585.245.383.367.976.367 1.778v1.734c0 .802-.122 1.398-.367 1.788-.244.383-.679.575-1.305.575zm0-.596c.259 0 .449-.069.572-.206.129-.138.212-.322.248-.553.036-.238.054-.56.054-.965v-1.82a6.54 6.54 0 00-.054-.954c-.036-.239-.119-.427-.248-.564-.123-.137-.313-.206-.572-.206-.259 0-.45.069-.572.206-.122.137-.201.325-.237.564a6.54 6.54 0 00-.054.953v1.821c0 .405.018.727.054.965.036.231.115.416.237.553.122.137.313.206.572.206zm2.626-3.349h2.287v.628h-2.287v-.628zm3.343-2.417h3.333v6.264h-.788v-5.647h-1.758v5.647h-.787v-6.264zm4.53 0h.787v.52c.324-.412.723-.618 1.197-.618.547 0 .917.228 1.112.683.201.448.302 1.051.302 1.81v1.322c0 .86-.112 1.518-.335 1.973-.223.448-.611.672-1.165.672-.388 0-.759-.199-1.111-.596v2.558h-.787v-8.324zm1.779 5.733c.331 0 .551-.155.659-.466.115-.31.172-.82.172-1.528V55.91c0-.672-.057-1.153-.172-1.442-.108-.289-.335-.433-.68-.433-.324 0-.647.162-.971.488v4.27c.288.303.619.455.992.455zm4.262.629c-.619 0-1.05-.192-1.295-.575-.245-.39-.367-.986-.367-1.788V55.78c0-.802.122-1.395.367-1.778.245-.39.676-.585 1.295-.585.625 0 1.06.195 1.305.585.244.383.367.976.367 1.778v1.734c0 .802-.123 1.398-.367 1.788-.245.383-.68.575-1.305.575zm0-.596c.258 0 .449-.069.571-.206.13-.138.212-.322.248-.553.036-.238.054-.56.054-.965v-1.82a6.54 6.54 0 00-.054-.954c-.036-.239-.118-.427-.248-.564-.122-.137-.313-.206-.571-.206-.259 0-.45.069-.572.206-.122.137-.202.325-.238.564-.036.23-.053.549-.053.953v1.821c0 .405.017.727.053.965.036.231.116.416.238.553.122.137.313.206.572.206zm2.766-5.766h.668v4.823l2.083-4.823h.636v6.264h-.669v-4.812l-2.06 4.812h-.658v-6.264zm5.963 6.373c-1.036 0-1.554-.622-1.554-1.864h.702c0 .86.291 1.29.873 1.29.303 0 .518-.113.648-.337.129-.224.194-.549.194-.975 0-.412-.101-.712-.302-.9-.194-.188-.529-.282-1.003-.282v-.585c.489 0 .827-.087 1.014-.26.194-.174.291-.444.291-.813 0-.347-.076-.625-.227-.834-.143-.21-.352-.315-.625-.315-.612 0-.917.38-.917 1.138h-.691c0-1.156.543-1.734 1.629-1.734.511 0 .892.163 1.144.488.259.325.388.73.388 1.214 0 .426-.101.755-.302.986a1.188 1.188 0 01-.744.412c.33.094.589.253.776.477.195.224.292.589.292 1.095 0 .57-.137 1.015-.41 1.333-.274.31-.666.466-1.176.466zm2.559-6.373h1.511c.561 0 .963.14 1.208.422.252.282.381.643.388 1.084 0 .318-.061.6-.183.846-.122.238-.327.408-.615.509.331.094.568.285.712.575.151.281.226.62.226 1.018 0 .593-.118 1.044-.356 1.355-.237.304-.668.455-1.294.455h-1.597v-6.264zm1.565 2.644c.251 0 .449-.09.593-.27.151-.181.226-.445.226-.792 0-.65-.32-.976-.96-.976h-.647v2.038h.788zm-.108 3.013c.352 0 .607-.1.766-.303.165-.202.248-.513.248-.932 0-.463-.083-.777-.248-.943-.166-.174-.403-.26-.712-.26h-.734v2.438h.68zm4.289.705c-.618 0-1.05-.192-1.294-.575-.245-.39-.367-.986-.367-1.788V55.78c0-.802.122-1.395.367-1.778.244-.39.676-.585 1.294-.585.626 0 1.061.195 1.306.585.244.383.366.976.366 1.778v1.734c0 .802-.122 1.398-.366 1.788-.245.383-.68.575-1.306.575zm0-.596c.259 0 .45-.069.572-.206.13-.138.212-.322.248-.553.036-.238.054-.56.054-.965v-1.82a6.54 6.54 0 00-.054-.954c-.036-.239-.118-.427-.248-.564-.122-.137-.313-.206-.572-.206-.259 0-.449.069-.571.206-.123.137-.202.325-.238.564a6.54 6.54 0 00-.054.953v1.821c0 .405.018.727.054.965.036.231.115.416.238.553.122.137.312.206.571.206zm2.239-.044c.266-.166.485-.4.658-.704.172-.304.313-.737.42-1.3.108-.572.184-1.323.227-2.255l.097-1.463h2.6v5.69h.626v2.08h-.594l-.064-1.506h-3.302l-.075 1.507h-.593v-2.049zm3.236-.032V54.1h-1.197l-.098 1.04c-.057.925-.129 1.655-.215 2.19-.087.527-.202.936-.346 1.225a1.55 1.55 0 01-.56.65h2.416zm3.881.672c-.461 0-.813-.101-1.058-.304a1.562 1.562 0 01-.496-.834c-.079-.354-.119-.799-.119-1.333v-1.463c0-.607.047-1.092.141-1.453.1-.361.269-.629.507-.802.244-.18.586-.271 1.025-.271.611 0 1.028.17 1.251.51.223.332.334.83.334 1.495v.304h-.733v-.304c0-.368-.029-.654-.087-.856-.05-.202-.136-.343-.258-.423-.123-.087-.292-.13-.507-.13-.245 0-.432.058-.561.174-.123.115-.209.3-.259.552-.043.246-.065.604-.065 1.073v1.756c0 .434.025.773.075 1.02.051.245.141.422.27.53.13.109.313.163.55.163.245 0 .425-.05.54-.152.122-.108.201-.267.237-.477.043-.21.065-.502.065-.878v-.347h.733v.304c0 .47-.043.86-.129 1.17a1.264 1.264 0 01-.464.716c-.23.173-.561.26-.992.26zm3.459-5.756h-1.349v-.606h3.463v.606h-1.327v5.658h-.787v-5.658zm2.793-.606h1.511c.561 0 .963.14 1.208.422.252.282.381.643.388 1.084 0 .318-.061.6-.183.846-.122.238-.327.408-.615.509.331.094.568.285.712.575.151.281.227.62.227 1.018 0 .593-.119 1.044-.356 1.355-.238.304-.669.455-1.295.455h-1.597v-6.264zm1.565 2.644c.251 0 .449-.09.593-.27.151-.181.227-.445.227-.792 0-.65-.32-.976-.961-.976h-.647v2.038h.788zm-.108 3.013c.352 0 .608-.1.766-.303.165-.202.248-.513.248-.932 0-.463-.083-.777-.248-.943-.166-.174-.403-.26-.712-.26h-.734v2.438h.68zm4.311.705c-.403 0-.726-.08-.971-.239-.244-.158-.424-.415-.539-.77-.115-.353-.173-.834-.173-1.44v-1.583c0-.614.058-1.095.173-1.442.122-.354.305-.607.55-.758.252-.152.575-.228.971-.228.431 0 .762.094.992.282.238.18.399.455.486.824.093.368.14.863.14 1.484v.564h-2.524v1.095c0 .6.068 1.019.205 1.257.136.238.366.358.69.358.273 0 .482-.087.626-.26.151-.174.226-.488.226-.943v-.434h.766v.347c0 .607-.126 1.073-.377 1.398-.252.325-.666.488-1.241.488zm.852-3.761v-.52c0-.376-.021-.672-.064-.89a.908.908 0 00-.238-.509c-.122-.122-.305-.184-.55-.184-.223 0-.399.05-.529.152-.129.094-.222.264-.28.51-.058.238-.086.577-.086 1.018v.423h1.747zm1.84-2.601h.787v2.73h1.942v-2.73h.799v6.264h-.799v-2.937h-1.942v2.937h-.787v-6.264zm4.73 0h.788v2.73h1.941v-2.73h.799v6.264h-.799v-2.937h-1.941v2.937h-.788v-6.264zm6.273 6.362c-.619 0-1.05-.192-1.295-.575-.244-.39-.366-.986-.366-1.788V55.78c0-.802.122-1.395.366-1.778.245-.39.676-.585 1.295-.585.626 0 1.061.195 1.305.585.245.383.367.976.367 1.778v1.734c0 .802-.122 1.398-.367 1.788-.244.383-.679.575-1.305.575zm0-.596c.259 0 .449-.069.572-.206.129-.138.212-.322.248-.553.036-.238.054-.56.054-.965v-1.82a6.54 6.54 0 00-.054-.954c-.036-.239-.119-.427-.248-.564-.123-.137-.313-.206-.572-.206-.259 0-.45.069-.572.206-.122.137-.201.325-.237.564a6.54 6.54 0 00-.054.953v1.821c0 .405.018.727.054.965.036.231.115.416.237.553.122.137.313.206.572.206zm4.33.596c-.403 0-.726-.08-.971-.239-.244-.158-.424-.415-.539-.77-.115-.353-.173-.834-.173-1.44v-1.583c0-.614.058-1.095.173-1.442.122-.354.306-.607.55-.758.252-.152.575-.228.971-.228.431 0 .762.094.992.282.238.18.4.455.486.824.093.368.14.863.14 1.484v.564h-2.524v1.095c0 .6.068 1.019.205 1.257.136.238.367.358.69.358.273 0 .482-.087.626-.26.151-.174.226-.488.226-.943v-.434h.766v.347c0 .607-.126 1.073-.377 1.398-.252.325-.665.488-1.241.488zm.852-3.761v-.52c0-.376-.021-.672-.064-.89a.908.908 0 00-.238-.509c-.122-.122-.305-.184-.55-.184-.223 0-.399.05-.528.152-.13.094-.223.264-.281.51-.057.238-.086.577-.086 1.018v.423h1.747zm4.042-2.601h3.333v6.264h-.787v-5.647h-1.759v5.647h-.787v-6.264zm4.53 0h.787v.52c.324-.412.723-.618 1.198-.618.546 0 .917.228 1.111.683.201.448.302 1.051.302 1.81v1.322c0 .86-.112 1.518-.334 1.973-.223.448-.612.672-1.166.672-.388 0-.758-.199-1.111-.596v2.558h-.787v-8.324zm1.78 5.733c.331 0 .55-.155.658-.466.115-.31.172-.82.172-1.528V55.91c0-.672-.057-1.153-.172-1.442-.108-.289-.335-.433-.68-.433-.323 0-.647.162-.971.488v4.27c.288.303.619.455.993.455zm4.282.629c-.402 0-.726-.08-.97-.239-.245-.158-.425-.415-.54-.77-.115-.353-.172-.834-.172-1.44v-1.583c0-.614.057-1.095.172-1.442.122-.354.306-.607.55-.758.252-.152.576-.228.971-.228.432 0 .763.094.993.282.237.18.399.455.485.824.094.368.14.863.14 1.484v.564h-2.524v1.095c0 .6.068 1.019.205 1.257.137.238.367.358.69.358.274 0 .482-.087.626-.26.151-.174.227-.488.227-.943v-.434h.766v.347c0 .607-.126 1.073-.378 1.398-.252.325-.665.488-1.241.488zm.853-3.761v-.52c0-.376-.022-.672-.065-.89a.914.914 0 00-.237-.509c-.123-.122-.306-.184-.551-.184-.223 0-.399.05-.528.152-.13.094-.223.264-.281.51-.057.238-.086.577-.086 1.018v.423h1.748zm1.343 3.121c.266-.166.485-.4.658-.704.173-.304.313-.737.421-1.3.108-.572.183-1.323.226-2.255l.097-1.463h2.6v5.69h.626v2.08h-.593l-.065-1.506h-3.301l-.076 1.507h-.593v-2.049zm3.236-.032V54.1h-1.197l-.097 1.04c-.058.925-.13 1.655-.216 2.19-.086.527-.201.936-.345 1.225a1.559 1.559 0 01-.561.65h2.416zm2.328-5.69h3.333v6.264h-.788v-5.647h-1.758v5.647h-.787v-6.264zm4.53 0h.787v.52c.324-.412.723-.618 1.197-.618.547 0 .917.228 1.112.683.201.448.302 1.051.302 1.81v1.322c0 .86-.112 1.518-.335 1.973-.223.448-.611.672-1.165.672-.388 0-.759-.199-1.111-.596v2.558h-.787v-8.324zm1.779 5.733c.331 0 .551-.155.659-.466.115-.31.172-.82.172-1.528V55.91c0-.672-.057-1.153-.172-1.442-.108-.289-.335-.433-.68-.433-.324 0-.647.162-.971.488v4.27c.288.303.619.455.992.455zm2.719-5.733h.669v4.823l2.082-4.823h.636v6.264h-.669v-4.812l-2.06 4.812h-.658v-6.264zm5.391 3.555a1.186 1.186 0 01-.679-.64 2.637 2.637 0 01-.205-1.073c0-.592.151-1.048.453-1.365.302-.319.856-.477 1.661-.477h1.111v6.264h-.787v-2.536c-.403 0-.676-.01-.82-.032l-1.111 2.568h-.852l1.229-2.71zm1.554-.315v-2.753h-.356c-.54.008-.903.123-1.09.347-.18.224-.269.56-.269 1.008 0 .484.107.838.323 1.062.216.217.586.33 1.111.336h.281zm2.819-2.634h-1.349v-.606h3.463v.606h-1.327v5.658h-.787v-5.658zm2.793-.606h.669v4.823l2.082-4.823h.637v6.264h-.669v-4.812l-2.061 4.812h-.658v-6.264zm6.158 6.362c-.403 0-.727-.08-.971-.239-.245-.158-.424-.415-.539-.77-.116-.353-.173-.834-.173-1.44v-1.583c0-.614.057-1.095.173-1.442.122-.354.305-.607.55-.758.251-.152.575-.228.971-.228.431 0 .762.094.992.282.237.18.399.455.486.824.093.368.14.863.14 1.484v.564h-2.525v1.095c0 .6.069 1.019.205 1.257.137.238.367.358.691.358.273 0 .482-.087.626-.26.151-.174.226-.488.226-.943v-.434h.766v.347c0 .607-.126 1.073-.378 1.398-.251.325-.665.488-1.24.488zm.852-3.761v-.52c0-.376-.022-.672-.065-.89a.914.914 0 00-.237-.509c-.122-.122-.306-.184-.55-.184-.223 0-.399.05-.529.152-.129.094-.223.264-.28.51-.058.238-.087.577-.087 1.018v.423h1.748zM83.597 73.038c-.619 0-1.04-.155-1.263-.466-.222-.318-.334-.795-.334-1.43V71h.734v.13c0 .49.064.834.194 1.03.136.187.363.281.68.281.244 0 .427-.058.55-.173.122-.116.204-.297.248-.542a6.92 6.92 0 00.064-1.084v-.607h-1.65v-.488h1.65v-.607c0-.455-.025-.802-.075-1.04-.043-.239-.126-.409-.248-.51-.123-.108-.302-.162-.54-.162-.352 0-.586.108-.7.325-.116.21-.173.553-.173 1.03v.205H82v-.173c0-.643.112-1.135.334-1.474.23-.34.659-.51 1.284-.51.46 0 .81.102 1.047.304.244.195.402.466.474.813.08.347.119.798.119 1.355v1.409c0 .607-.047 1.09-.14 1.452-.094.361-.263.632-.507.813-.238.173-.576.26-1.014.26zm2.27-.65c.288-.007.504-.087.647-.239.144-.151.256-.426.335-.823.079-.398.147-1.015.205-1.854l.194-2.796h2.848v6.265h-.788v-5.658h-1.37l-.15 2.19c-.065.975-.159 1.708-.281 2.2-.115.484-.288.827-.518 1.03-.23.194-.564.292-1.003.292h-.119v-.607zm6.991.65c-.403 0-.727-.08-.971-.238-.245-.16-.424-.416-.54-.77-.115-.354-.172-.834-.172-1.441v-1.583c0-.614.057-1.094.172-1.441.123-.354.306-.607.55-.76.252-.15.576-.227.971-.227.432 0 .763.094.993.282.237.18.4.455.485.824.094.368.14.863.14 1.485v.563h-2.524v1.095c0 .6.069 1.019.205 1.257.137.239.367.358.69.358.274 0 .483-.087.626-.26.151-.174.227-.488.227-.943v-.434h.766v.347c0 .607-.126 1.073-.378 1.398-.251.326-.665.488-1.24.488zm.852-3.76v-.521c0-.376-.022-.672-.065-.889a.912.912 0 00-.237-.51c-.122-.122-.306-.184-.55-.184-.223 0-.4.051-.529.152-.13.094-.223.264-.28.51-.058.238-.087.578-.087 1.019v.422h1.748zm1.84-2.602h.787v2.764h.442l1.424-2.764h.82l-1.52 3.024 1.563 3.24h-.82l-1.467-3.013h-.442v3.014h-.787v-6.265zm5.002.607h-1.349v-.607h3.463v.607h-1.327v5.658h-.787v-5.658zm2.793-.607h.788v.52c.323-.412.723-.618 1.197-.618.547 0 .917.228 1.111.683.202.448.302 1.052.302 1.81v1.323c0 .86-.111 1.517-.334 1.972-.223.448-.611.672-1.165.672-.388 0-.759-.198-1.111-.596V75h-.788v-8.324zm1.78 5.733c.331 0 .551-.155.658-.466.115-.31.173-.82.173-1.528v-1.344c0-.672-.058-1.152-.173-1.441-.107-.29-.334-.434-.679-.434-.324 0-.648.163-.971.488v4.27c.288.304.618.456.992.456zm4.261.629c-.618 0-1.05-.191-1.294-.574-.245-.39-.367-.987-.367-1.789v-1.734c0-.802.122-1.394.367-1.777.244-.39.676-.586 1.294-.586.626 0 1.061.195 1.306.586.244.383.366.975.366 1.777v1.734c0 .802-.122 1.398-.366 1.789-.245.383-.68.574-1.306.574zm0-.596c.259 0 .45-.069.572-.206.13-.137.212-.321.248-.553.036-.238.054-.56.054-.964v-1.821a6.54 6.54 0 00-.054-.954c-.036-.239-.118-.426-.248-.564-.122-.137-.313-.206-.572-.206-.259 0-.449.07-.571.206-.123.138-.202.326-.238.564a6.54 6.54 0 00-.054.954v1.82c0 .405.018.727.054.965.036.232.115.416.238.553.122.137.312.206.571.206zm2.777-5.766h.594l1.456 4.303 1.456-4.303h.615l.054 6.265h-.68l-.01-4.4-1.306 3.75h-.248l-1.294-3.73-.011 4.38h-.68l.054-6.265zm6.873 6.362c-.618 0-1.05-.191-1.294-.574-.245-.39-.367-.987-.367-1.789v-1.734c0-.802.122-1.394.367-1.777.244-.39.676-.586 1.294-.586.626 0 1.061.195 1.306.586.244.383.366.975.366 1.777v1.734c0 .802-.122 1.398-.366 1.789-.245.383-.68.574-1.306.574zm0-.596c.259 0 .45-.069.572-.206a1.01 1.01 0 00.248-.553c.036-.238.054-.56.054-.964v-1.821a6.54 6.54 0 00-.054-.954 1.025 1.025 0 00-.248-.564c-.122-.137-.313-.206-.572-.206-.259 0-.449.07-.571.206-.123.138-.202.326-.238.564a6.54 6.54 0 00-.054.954v1.82c0 .405.018.727.054.965.036.232.115.416.238.553.122.137.312.206.571.206zm2.766-5.766h.788v2.731h1.942v-2.731h.798v6.265h-.798v-2.938h-1.942v2.938h-.788v-6.265zm5.55.607h-1.348v-.607h3.463v.607h-1.327v5.658h-.788v-5.658zm3.873 5.755c-.374 0-.676-.133-.906-.4-.231-.268-.346-.6-.346-.998 0-.412.08-.752.238-1.019.165-.267.417-.506.755-.715.338-.21.845-.466 1.521-.77v-.444c0-.39-.025-.694-.076-.91-.043-.217-.122-.373-.237-.467-.108-.094-.262-.14-.464-.14-.582 0-.874.357-.874 1.073v.216l-.776-.01c.007-.644.144-1.117.41-1.42.266-.304.694-.456 1.283-.456.547 0 .935.166 1.165.499.238.332.356.856.356 1.572v3.045c0 .203.004.434.011.694.015.26.029.444.043.553h-.701l-.118-.868a1.514 1.514 0 01-.486.694c-.223.18-.489.271-.798.271zm.248-.672c.216 0 .41-.072.582-.217.18-.151.324-.328.432-.53v-1.952c-.489.26-.845.463-1.068.607a1.683 1.683 0 00-.496.488c-.108.174-.162.401-.162.683 0 .31.065.542.194.694a.667.667 0 00.518.227zm4.158-2.634l-1.672-3.056h.766l1.564 3.002h.097v-3.002h.658v3.002h.097l1.554-3.002h.755l-1.661 3.056 1.747 3.209h-.733l-1.662-3.111h-.097v3.11h-.658v-3.11h-.108l-1.661 3.11h-.744l1.758-3.208zm4.555-3.056h.787v2.731h1.942v-2.731h.798v6.265h-.798v-2.938h-1.942v2.938h-.787v-6.265zm4.73 0h.787v2.547h.378c.798.007 1.352.17 1.661.488.309.31.464.776.464 1.398 0 .585-.162 1.037-.485 1.355-.317.318-.885.477-1.705.477h-1.1v-6.265zm4.078 0h.787v6.265h-.787v-6.265zm-2.978 5.766c.561 0 .946-.108 1.154-.325.209-.224.313-.564.313-1.019 0-.44-.1-.777-.302-1.008-.194-.238-.571-.361-1.132-.368h-.346v2.72h.313zm6.025-2.775l-1.403-2.991h.777l1.068 2.298 1.025-2.298h.798l-1.456 3.078 1.478 3.187h-.755l-1.165-2.46-1.09 2.46h-.755l1.478-3.274zm5.253-2.991h.669v4.823l2.082-4.823h.637v6.265h-.669v-4.813l-2.061 4.813h-.658v-6.265zm6.795 0h3.334v6.265h-.788v-5.647h-1.758v5.647h-.788v-6.265zm4.358 7.208c.503 0 .841-.055 1.014-.163a.54.54 0 00.259-.488c0-.137-.033-.332-.097-.585a8.817 8.817 0 00-.108-.455l-1.284-5.517h.787l1.079 5.332 1.047-5.332h.798l-1.51 6.709c-.094.397-.281.683-.561.856-.281.174-.687.26-1.219.26h-.205v-.617zm5.834-.846c-.46 0-.812-.101-1.057-.303a1.562 1.562 0 01-.496-.835c-.079-.354-.119-.798-.119-1.333v-1.463c0-.607.047-1.091.14-1.453.101-.36.27-.628.507-.802.245-.18.587-.27 1.025-.27.612 0 1.029.17 1.252.509.223.332.334.83.334 1.496v.303h-.734v-.303c0-.369-.028-.654-.086-.857-.05-.202-.136-.343-.259-.422-.122-.087-.291-.13-.507-.13-.244 0-.431.057-.561.173-.122.115-.208.3-.259.553-.043.245-.064.603-.064 1.073v1.755c0 .434.025.774.075 1.02.051.245.14.422.27.53.129.109.313.163.55.163.245 0 .424-.05.539-.152.123-.108.202-.267.238-.477.043-.21.064-.502.064-.877v-.347h.734v.303c0 .47-.043.86-.129 1.17-.08.304-.234.543-.464.716-.23.173-.561.26-.993.26zm2.64-6.362h.787v2.764h.443l1.423-2.764h.82l-1.521 3.024 1.564 3.24h-.819l-1.467-3.013h-.443v3.014h-.787v-6.265zm5.725 6.362c-.619 0-1.05-.191-1.295-.574-.244-.39-.367-.987-.367-1.789v-1.734c0-.802.123-1.394.367-1.777.245-.39.676-.586 1.295-.586.625 0 1.06.195 1.305.586.245.383.367.975.367 1.777v1.734c0 .802-.122 1.398-.367 1.789-.245.383-.68.574-1.305.574zm0-.596c.259 0 .449-.069.571-.206.13-.137.213-.321.249-.553.036-.238.053-.56.053-.964v-1.821c0-.405-.017-.723-.053-.954-.036-.239-.119-.426-.249-.564-.122-.137-.312-.206-.571-.206-.259 0-.45.07-.572.206-.122.138-.201.326-.237.564a6.54 6.54 0 00-.054.954v1.82c0 .405.018.727.054.965.036.232.115.416.237.553.122.137.313.206.572.206zm2.766-5.766h.787v2.731h1.942v-2.731h.798v6.265h-.798v-2.938h-1.942v2.938h-.787v-6.265zm5.809 6.362c-.374 0-.676-.133-.906-.4-.231-.268-.346-.6-.346-.998 0-.412.079-.752.238-1.019.165-.267.417-.506.755-.715.338-.21.845-.466 1.521-.77v-.444c0-.39-.025-.694-.076-.91-.043-.217-.122-.373-.237-.467-.108-.094-.262-.14-.464-.14-.582 0-.874.357-.874 1.073v.216l-.776-.01c.007-.644.143-1.117.41-1.42.266-.304.694-.456 1.283-.456.547 0 .935.166 1.165.499.238.332.356.856.356 1.572v3.045c0 .203.004.434.011.694.015.26.029.444.043.553h-.701l-.119-.868a1.504 1.504 0 01-.485.694c-.223.18-.489.271-.798.271zm.248-.672c.216 0 .41-.072.582-.217.18-.151.324-.328.432-.53v-1.952c-.489.26-.845.463-1.068.607a1.683 1.683 0 00-.496.488c-.108.174-.162.401-.162.683 0 .31.065.542.194.694a.667.667 0 00.518.227zm2.475.022c.288-.007.504-.087.647-.239.144-.151.256-.426.335-.823.079-.398.147-1.015.205-1.854l.194-2.796h2.848v6.265h-.788v-5.658h-1.37l-.151 2.19c-.064.975-.158 1.708-.28 2.2-.115.484-.288.827-.518 1.03-.23.194-.564.292-1.003.292h-.119v-.607zm6.505.65c-.374 0-.676-.133-.906-.4-.23-.268-.345-.6-.345-.998 0-.412.079-.752.237-1.019.166-.267.417-.506.755-.715.338-.21.845-.466 1.521-.77v-.444c0-.39-.025-.694-.075-.91-.043-.217-.122-.373-.237-.467-.108-.094-.263-.14-.464-.14-.583 0-.874.357-.874 1.073v.216l-.777-.01c.007-.644.144-1.117.41-1.42.266-.304.694-.456 1.284-.456.546 0 .935.166 1.165.499.237.332.356.856.356 1.572v3.045c0 .203.003.434.011.694.014.26.028.444.043.553h-.701l-.119-.868a1.512 1.512 0 01-.485.694 1.23 1.23 0 01-.799.271zm.248-.672c.216 0 .41-.072.583-.217.18-.151.324-.328.431-.53v-1.952c-.489.26-.845.463-1.068.607a1.696 1.696 0 00-.496.488c-.108.174-.162.401-.162.683 0 .31.065.542.195.694a.665.665 0 00.517.227zm2.465.033a1.94 1.94 0 00.658-.705c.173-.303.313-.737.421-1.3.108-.571.183-1.323.226-2.255l.097-1.463h2.6v5.69h.626v2.081h-.594l-.064-1.506h-3.301l-.076 1.506h-.593V72.4zm3.236-.033v-5.105h-1.197l-.097 1.04c-.058.926-.13 1.655-.216 2.19-.086.528-.201.936-.345 1.225a1.559 1.559 0 01-.561.65h2.416zm3.744.672c-.619 0-1.05-.191-1.295-.574-.244-.39-.367-.987-.367-1.789v-1.734c0-.802.123-1.394.367-1.777.245-.39.676-.586 1.295-.586.625 0 1.06.195 1.305.586.244.383.367.975.367 1.777v1.734c0 .802-.123 1.398-.367 1.789-.245.383-.68.574-1.305.574zm0-.596c.259 0 .449-.069.571-.206a.998.998 0 00.248-.553c.036-.238.054-.56.054-.964v-1.821a6.54 6.54 0 00-.054-.954 1.011 1.011 0 00-.248-.564c-.122-.137-.312-.206-.571-.206-.259 0-.45.07-.572.206a1.066 1.066 0 00-.237.564 6.54 6.54 0 00-.054.954v1.82c0 .405.018.727.054.965.035.232.115.416.237.553.122.137.313.206.572.206zm5.042-2.113a5.007 5.007 0 01-.906.108c-1.029 0-1.543-.48-1.543-1.442v-2.32h.788v2.342c0 .564.305.846.917.846.208 0 .456-.033.744-.098v-3.09h.798v6.266h-.798v-2.612zm2.011-3.653h.788v2.731h1.942v-2.731h.798v6.265h-.798v-2.938h-1.942v2.938h-.788v-6.265zm4.731 0h.787v2.547h.378c.798.007 1.352.17 1.661.488.309.31.464.776.464 1.398 0 .585-.162 1.037-.486 1.355-.316.318-.884.477-1.704.477h-1.1v-6.265zm4.077 0h.788v6.265h-.788v-6.265zm-2.977 5.766c.561 0 .946-.108 1.154-.325.209-.224.313-.564.313-1.019 0-.44-.101-.777-.302-1.008-.194-.238-.572-.361-1.133-.368h-.345v2.72h.313zm6.025-2.775l-1.403-2.991h.777l1.068 2.298 1.025-2.298h.798l-1.456 3.078 1.478 3.187h-.756l-1.165-2.46-1.089 2.46h-.755l1.478-3.274zm5.253-2.991h.787v.52c.324-.412.723-.618 1.198-.618.546 0 .917.228 1.111.683.201.448.302 1.052.302 1.81v1.323c0 .86-.111 1.517-.334 1.972-.223.448-.612.672-1.165.672-.389 0-.759-.198-1.112-.596V75h-.787v-8.324zm1.78 5.733c.331 0 .55-.155.658-.466.115-.31.173-.82.173-1.528v-1.344c0-.672-.058-1.152-.173-1.441-.108-.29-.334-.434-.68-.434-.323 0-.647.163-.971.488v4.27c.288.304.619.456.993.456zm3.797.629c-.374 0-.676-.133-.906-.4-.23-.268-.345-.6-.345-.998 0-.412.079-.752.237-1.019.166-.267.417-.506.755-.715.338-.21.845-.466 1.521-.77v-.444c0-.39-.025-.694-.075-.91-.043-.217-.122-.373-.238-.467-.107-.094-.262-.14-.463-.14-.583 0-.874.357-.874 1.073v.216l-.777-.01c.007-.644.144-1.117.41-1.42.266-.304.694-.456 1.284-.456.546 0 .935.166 1.165.499.237.332.356.856.356 1.572v3.045c0 .203.003.434.011.694.014.26.028.444.043.553h-.701l-.119-.868a1.506 1.506 0 01-.486.694c-.223.18-.489.271-.798.271zm.248-.672c.216 0 .41-.072.583-.217.18-.151.323-.328.431-.53v-1.952c-.489.26-.845.463-1.068.607a1.696 1.696 0 00-.496.488c-.108.174-.162.401-.162.683 0 .31.065.542.194.694a.67.67 0 00.518.227zm4.719.672a1.64 1.64 0 01-1.251-.53c-.324-.355-.485-.872-.485-1.55v-3.86c0-.78.079-1.354.237-1.723.165-.376.424-.643.777-.802a3.78 3.78 0 01.593-.195c.216-.05.345-.08.388-.087.281-.057.515-.112.702-.162.194-.058.395-.134.604-.228l.14.661a2.904 2.904 0 01-.572.217c-.187.05-.41.101-.669.152-.215.043-.395.083-.539.12a1.585 1.585 0 00-.378.15.966.966 0 00-.442.532c-.093.246-.14.6-.14 1.062v.889c.136-.145.349-.275.636-.39.288-.123.554-.185.799-.185.481 0 .848.188 1.1.564.252.368.377.98.377 1.832V70.6c0 .917-.158 1.553-.474 1.907-.317.354-.784.531-1.403.531zm.065-.596c.353 0 .608-.115.766-.347.165-.238.248-.668.248-1.29V69.3c0-.607-.065-1.03-.194-1.268-.122-.239-.338-.358-.647-.358-.173 0-.378.05-.615.152-.23.1-.421.213-.572.336v2.818c0 .506.09.878.27 1.116.18.231.428.347.744.347zm4.46.596c-.618 0-1.05-.191-1.294-.574-.245-.39-.367-.987-.367-1.789v-1.734c0-.802.122-1.394.367-1.777.244-.39.676-.586 1.294-.586.626 0 1.061.195 1.306.586.244.383.366.975.366 1.777v1.734c0 .802-.122 1.398-.366 1.789-.245.383-.68.574-1.306.574zm0-.596c.259 0 .45-.069.572-.206.13-.137.212-.321.248-.553.036-.238.054-.56.054-.964v-1.821a6.54 6.54 0 00-.054-.954c-.036-.239-.118-.426-.248-.564-.122-.137-.313-.206-.572-.206-.259 0-.449.07-.571.206-.123.138-.202.326-.238.564a6.54 6.54 0 00-.054.954v1.82c0 .405.018.727.054.965.036.232.115.416.238.553.122.137.312.206.571.206zm3.513-5.159h-1.349v-.607H255v.607h-1.327v5.658h-.787v-5.658z" fill="#485D70"/></svg>