<svg width="50" height="78" viewBox="0 0 50 78" fill="none" xmlns="http://www.w3.org/2000/svg">
<path d="M24.336 78.0002L13.104 44.9282L24.336 46.388V78.0002Z" fill="#166693"/>
<path d="M24.336 78.0002L35.568 44.9282L24.336 46.388V78.0002Z" fill="#348FC2"/>
<circle cx="25" cy="26" r="25" fill="#166693"/>
<circle cx="24.336" cy="24.3361" r="20.592" fill="white"/>
<path d="M24.9996 49.3469C37.8862 49.3469 48.3329 38.9866 48.3329 26.2064C48.3329 13.4263 37.8862 3.06594 24.9996 3.06594C12.1129 3.06594 1.66626 13.4263 1.66626 26.2064C1.66626 38.9866 12.1129 49.3469 24.9996 49.3469Z" fill="white"/>
<path d="M25 51C38.8071 51 50 39.8071 50 26C50 12.1929 38.8071 1 25 1C11.1929 1 0 12.1929 0 26C0 39.8071 11.1929 51 25 51Z" fill="#666666"/>
<path d="M25.0004 49.7602C38.1172 49.7602 48.7504 39.2148 48.7504 26.2065C48.7504 13.1981 38.1172 2.65275 25.0004 2.65275C11.8837 2.65275 1.25042 13.1981 1.25042 26.2065C1.25042 39.2148 11.8837 49.7602 25.0004 49.7602Z" fill="#166693"/>
<path d="M25.0003 48.1077C37.1966 48.1077 47.0836 38.2099 47.0836 26.0003C47.0836 13.7907 37.1966 3.89285 25.0003 3.89285C12.804 3.89285 2.91695 13.7907 2.91695 26.0003C2.91695 38.2099 12.804 48.1077 25.0003 48.1077Z" fill="white"/>
<path d="M39.7303 40.8149C47.8676 32.7448 47.8676 19.6676 39.7303 11.5976C31.593 3.52756 18.4068 3.52756 10.2695 11.5976C2.13226 19.6676 2.13226 32.7448 10.2695 40.8149C18.4068 48.8849 31.593 48.8849 39.7303 40.8149Z" fill="white"/>
<path fill-rule="evenodd" clip-rule="evenodd" d="M43.6912 29.9093C43.6308 30.1807 43.5653 30.447 43.4948 30.7133L40.6444 30.1003C40.7048 29.8842 40.7602 29.6631 40.8106 29.442L43.6912 29.9093ZM15.353 13.2272L19.8956 17.9605L16.4408 18.5685L16.4861 22.0707C14.4818 20.8497 12.9659 19.89 10.8104 18.4931C10.3672 19.3222 9.99457 20.1915 9.69744 21.0959L6.95276 20.5231C8.54417 15.212 12.4572 10.8857 17.5236 8.68486L18.7171 11.2977C17.5135 11.8052 16.3854 12.4534 15.353 13.2272ZM37.5069 15.8099C37.2198 15.4682 36.9177 15.1316 36.6004 14.815L34.6413 16.7496L35.5982 17.6942L37.5069 15.8099ZM13.2731 36.8234L15.2825 34.8386L14.3256 33.8939L12.3918 35.8084C12.6688 36.1551 12.9659 36.4967 13.2731 36.8234ZM27.5102 21.3773C26.508 21.2718 26.8001 21.2718 25.7929 21.2718L23.6626 23.2264L23.0683 21.3271C23.0482 21.3271 22.5748 21.3874 22.5547 21.3874C18.3646 21.8497 15.3077 23.543 15.0055 25.6132C15.0055 25.6182 15.0055 25.6232 15.0055 25.6283C17.7905 26.0302 17.7854 25.8493 15.0055 26.2513C15.0055 26.2563 15.0055 26.2563 15.0055 26.2614C15.1365 29.025 20.6611 30.5726 22.6554 30.5123C22.6554 30.5123 23.2849 29.9345 24.5741 28.5326L24.7907 30.6681C24.8209 30.6681 25.3799 30.653 25.4101 30.653C28.044 30.5826 34.7118 29.5526 35.1399 26.2915C35.1399 26.2815 35.1399 26.2764 35.1399 26.2714L33.2665 25.8895L35.1349 25.6333C35.1349 25.6283 35.1349 25.6232 35.1349 25.6182C34.8277 23.5329 31.7355 21.8296 27.5102 21.3773ZM44.079 27.3166C44.9704 15.9858 39.1033 5.31829 24.7 6.95133L22.6957 7.25784C22.3885 7.29804 22.0762 7.34326 21.7741 7.39853L21.5978 7.42366H21.633C20.4546 7.63972 19.3164 7.96633 18.2236 8.39343L19.4222 11.0163C20.8222 10.4988 22.3079 10.1672 23.859 10.0566L25.8684 16.026L22.9072 15.0311L23.7533 22.3471L24.6044 17.3776L26.9512 18.5233L27.4699 18.8248L26.921 10.1219C29.7311 10.4385 32.3147 11.4686 34.4953 13.0212C32.778 14.9306 31.5341 16.3124 30.0131 18.1012L33.5284 18.5685L33.6291 22.0356L39.1638 18.1917C39.6221 19.0006 40.0098 19.8548 40.3221 20.7442C39.6321 21.0256 39.1235 21.2366 38.4889 21.513L39.3803 22.0959L38.9422 23.0506L40.8761 22.7441C41.0423 23.548 41.148 24.3771 41.1883 25.2263L37.1141 24.7741L37.5824 25.7388L33.9766 25.9197L38.3379 26.3468L37.9249 25.4624L41.1933 26.3769C41.1732 27.1708 41.0926 27.9447 40.9566 28.7034L43.8423 29.1757C43.9531 28.5677 44.0287 27.9447 44.079 27.3166ZM25.4907 44.7876L27.5807 44.471C27.9131 44.4308 28.2404 44.3806 28.5627 44.3203L28.598 44.3152H28.593C35.573 43.054 41.2185 38.0192 43.2884 31.4268L40.4329 30.8138C40.1609 31.6579 39.8185 32.4669 39.4156 33.2407C37.2652 31.8489 35.6234 30.8088 33.624 29.5877L33.6694 33.09L30.2146 33.698L34.9083 38.587C32.647 40.3055 29.9124 41.4511 26.931 41.7928L27.4699 33.2508L26.9512 33.5523L24.2266 34.9944L24.3072 30.0349L21.7992 37.1751L25.7929 36.2757L23.9194 41.8531C22.3985 41.7476 20.9381 41.431 19.5682 40.9386L19.1805 42.0491L18.4855 41.7526L18.8632 40.6622C17.6495 40.1598 16.5113 39.5166 15.4739 38.7529C17.2063 36.8284 18.4502 35.4466 19.9812 33.6477L16.466 33.1804L16.3653 29.7134L10.8759 33.5271C10.4126 32.683 10.0248 31.7936 9.72262 30.864C10.4831 30.5776 11.0723 30.3515 11.7925 30.0601L10.7349 29.3265L11.2687 28.2009L9.14347 28.4823C9.11325 28.2863 9.08304 28.0904 9.05786 27.8894C9.05282 27.3568 9.04275 26.8392 9.0226 26.3568L12.2256 25.4574L11.8126 26.3418L16.0883 25.9046L12.5731 25.7288L13.0414 24.764L9.02764 25.2112C9.04275 24.4324 9.09814 23.6887 9.24419 22.8596L6.52469 22.2918C6.46425 22.6034 6.40886 22.9149 6.36857 23.2315C6.29806 23.6636 6.23763 24.0957 6.1772 24.5228C6.17216 24.4977 6.16712 24.4826 6.16712 24.4876C6.16712 24.5228 6.16209 24.563 6.16209 24.5982C5.88006 26.6282 6.50958 27.7487 6.07647 29.437C4.36419 34.9491 11.7874 45.2348 25.4907 44.7876Z" fill="#666666"/>
<path fill-rule="evenodd" clip-rule="evenodd" d="M25.7596 46.8524L27.7842 46.547C28.1477 46.502 28.5112 46.4469 28.8696 46.3818L28.905 46.3768H28.8949C32.2371 45.7761 35.3016 44.3945 37.8915 42.4373C41.1934 39.8543 43.6874 36.2953 44.9395 32.2056L41.9658 31.5699C41.6629 32.4909 41.2893 33.3819 40.84 34.2329C38.462 32.7062 36.6546 31.5649 34.4433 30.2233L34.4938 34.0677L30.6821 34.7335L35.862 40.0996C33.368 41.9868 30.3489 43.2432 27.0571 43.6137L27.6529 34.2479L27.0824 34.5783L24.0734 36.1601L24.1592 30.7239L21.3926 38.5579L25.8 37.5767L23.7301 43.6887C22.0539 43.5736 20.4434 43.2282 18.9238 42.6876L18.4946 43.904L17.7272 43.5786L18.1463 42.3873C16.8084 41.8416 15.5513 41.1358 14.4052 40.2949C16.3136 38.1874 17.6919 36.6657 19.3782 34.6984L15.5109 34.1678L15.3998 30.3685L9.35154 34.5433C8.84163 33.6172 8.41249 32.6411 8.07928 31.6249C8.91736 31.3096 9.56863 31.0643 10.3613 30.7389L9.19503 29.933L9.78572 28.6966L7.4381 29.0119C7.40276 28.7967 7.37247 28.5814 7.34723 28.3612C7.34218 27.7755 7.33208 27.2099 7.30684 26.6793L10.8409 25.6981L10.3865 26.6642L15.1019 26.1887L11.2246 25.9985L11.7395 24.9373L7.31189 25.4228C7.33208 24.5719 7.39266 23.7509 7.55422 22.8449L4.55532 22.2242C4.30289 23.5156 4.16658 24.8472 4.16658 26.2087C4.16658 37.6218 13.4965 46.8674 25.0023 46.8674C25.2598 46.8674 25.5072 46.8624 25.7596 46.8524ZM45.5352 29.7378L42.5514 29.2522C42.6979 28.4213 42.7887 27.5703 42.8089 26.6993L39.2042 25.6931L39.6586 26.6592L34.8422 26.1887L38.8205 25.9885L38.3005 24.9273L42.7938 25.4228C42.7483 24.4918 42.6373 23.5857 42.4505 22.6997L40.3199 23.0401L40.8046 21.9889L39.8201 21.3432C40.5168 21.0378 41.0823 20.8075 41.8446 20.4972C41.5013 19.5211 41.0722 18.585 40.5673 17.699L34.4585 21.9188L34.3474 18.1195L30.47 17.6089C32.1512 15.6516 33.5245 14.1349 35.4177 12.0375C33.0095 10.3305 30.157 9.20426 27.0571 8.85886L27.663 18.4048L27.0925 18.0744L24.4975 16.818L23.5584 22.2692L22.6295 14.255L25.901 15.3463L23.6796 8.79879C21.9681 8.92394 20.3273 9.28435 18.7824 9.85L17.4597 6.9717C18.6612 6.50617 19.9234 6.15076 21.2209 5.91049H21.1805L21.3724 5.88045C21.7106 5.82038 22.0489 5.77032 22.3922 5.72527L22.9324 5.64518C23.6089 5.58011 24.3006 5.54507 24.9973 5.54507C36.5082 5.54507 45.8331 14.7957 45.8331 26.2037C45.8381 27.4101 45.7371 28.5915 45.5352 29.7378ZM45.3787 30.5437C45.3181 30.839 45.2474 31.1294 45.1717 31.4147L42.2081 30.779C42.2738 30.5387 42.3344 30.2984 42.3899 30.0581L45.3787 30.5437ZM5.03999 20.2819L8.05909 20.9077C8.3822 19.9115 8.79619 18.9604 9.28591 18.0494C11.6689 19.5811 13.3349 20.6323 15.5513 21.9739L15.5008 18.1295L19.3125 17.4637L14.2992 12.2728C15.4402 11.4268 16.6872 10.716 18.015 10.1553L16.6973 7.29207C12.9411 8.90892 9.76553 11.582 7.55422 14.9208L7.53403 14.9458C7.48859 15.0109 7.4482 15.076 7.40781 15.1411C6.39303 16.7229 5.5903 18.4498 5.03999 20.2819ZM27.7084 21.218C32.3734 21.7136 35.7863 23.5807 36.1195 25.8633C36.1195 25.8683 36.1195 25.8733 36.1195 25.8783L34.0546 26.1587L36.1245 26.5741C36.1245 26.5842 36.1245 26.5892 36.1245 26.5992C35.6499 30.1733 28.289 31.3046 25.381 31.3847C25.3457 31.3847 24.7297 31.3997 24.6994 31.4047L24.4621 29.067C23.0435 30.6088 22.3468 31.2395 22.3468 31.2395C20.1455 31.3096 14.0468 29.6076 13.9054 26.5792C13.9054 26.5741 13.9054 26.5741 13.9054 26.5691C16.975 26.1236 16.9851 26.3239 13.9105 25.8834C13.9105 25.8783 13.9105 25.8733 13.9105 25.8683C14.2437 23.6007 17.6212 21.7436 22.2458 21.238C22.266 21.233 22.791 21.173 22.8163 21.173L23.4726 23.2553L25.8202 21.1129C26.9259 21.1029 26.6028 21.1029 27.7084 21.218ZM11.997 38.1574C11.6588 37.802 11.3306 37.4266 11.0226 37.0411L13.1582 34.9437L14.2134 35.9799L11.997 38.1574Z" fill="#166693"/>
<path fill-rule="evenodd" clip-rule="evenodd" d="M17.0903 25.387H18.5998C18.5601 25.03 18.4409 24.7324 18.2373 24.4994C18.0387 24.2663 17.7656 24.1473 17.423 24.1473C17.1648 24.1473 16.9463 24.2217 16.7676 24.3605C16.5888 24.5043 16.4647 24.6928 16.3951 24.9308L15.4318 24.7126C15.5312 24.2911 15.7496 23.949 16.0873 23.6961C16.4249 23.4432 16.8619 23.3143 17.3982 23.3143C18.0983 23.3143 18.6495 23.5473 19.0417 24.0085C19.439 24.4696 19.6326 25.0746 19.6326 25.8184C19.6326 26.3242 19.5432 26.7556 19.3595 27.1225C19.1758 27.4845 18.9226 27.7672 18.6048 27.9705C18.287 28.1688 17.8997 28.2729 17.4478 28.2729C16.3505 28.2729 15.6702 27.7572 15.417 26.7308L16.3951 26.4283C16.4448 26.7705 16.5689 27.0283 16.7676 27.1919C16.9662 27.3556 17.2045 27.4399 17.4776 27.4399C17.7606 27.4399 18.004 27.3407 18.2075 27.1424C18.4111 26.944 18.5402 26.6316 18.5998 26.1953H17.0903V25.387V25.387ZM20.4072 28.1787V23.3986H21.872L22.736 26.6564L23.5901 23.3986H25.0599V28.1787H24.1562L24.1512 24.4151L23.1978 28.1787H22.2594L21.3109 24.4151L21.306 28.1787H20.4072ZM26.053 23.3986H29.8913V28.1787H28.9131V24.2068H27.0312V28.1787H26.053V23.3986ZM30.8893 28.1787V23.3986H32.4534C33.0443 23.3986 33.4316 23.4234 33.6104 23.468C33.8885 23.5424 34.1218 23.6961 34.3056 23.9341C34.4942 24.1771 34.5836 24.4845 34.5836 24.8663C34.5836 25.1589 34.529 25.4068 34.4247 25.6052C34.3155 25.8035 34.1814 25.9622 34.0176 26.0762C33.8537 26.1903 33.6849 26.2647 33.5111 26.2994C33.2777 26.344 32.9401 26.3688 32.5031 26.3688H31.8675V28.1688H30.8893V28.1787ZM31.8675 24.2068V25.5705H32.3988C32.7812 25.5705 33.0394 25.5457 33.1685 25.4961C33.2976 25.4465 33.4018 25.3672 33.4714 25.263C33.5458 25.1589 33.5806 25.03 33.5806 24.8911C33.5806 24.7176 33.5309 24.5738 33.4267 24.4597C33.3224 24.3457 33.1933 24.2762 33.0344 24.2465C32.9202 24.2267 32.6868 24.2118 32.3343 24.2118H31.8675V24.2068Z" fill="white"/>
<path d="M12.7394 17.9423L9.16695 14.5974L9.84183 13.8785L11.2503 15.1915L12.5707 13.7758L11.1623 12.4628L11.8445 11.7439L15.417 15.0888L14.7421 15.8077L13.1796 14.348L11.8591 15.7637L13.4143 17.2234L12.7394 17.9423Z" fill="white"/>
<path d="M38.8514 11.7439L41.2502 14.8693L37.399 17.9423L36.7901 17.1497L39.9958 14.5926L38.8148 13.0524L35.6091 15.6095L35.0002 14.8169L38.8514 11.7439Z" fill="white"/>
<path fill-rule="evenodd" clip-rule="evenodd" d="M21.2498 8.24777L24.9188 15.5636L27.4906 18.3554L28.3331 7.19835L21.2498 8.24777Z" fill="#166693"/>
<path d="M23.7566 6.37197H27.4996V11.3306H26.5462V7.20461H24.703V11.3306H23.7496V6.37197H23.7566Z" fill="white"/>
</svg>
