<svg width="49" height="78" fill="none" xmlns="http://www.w3.org/2000/svg"><path d="M24.336 78L13.104 44.928l11.232 1.46V78z" fill="#166693"/><path d="M24.336 78l11.232-33.072-11.232 1.46V78z" fill="#008FDF"/><circle cx="24.336" cy="24.336" r="24.336" fill="#166693"/><circle cx="24.336" cy="24.336" r="20.592" fill="#fff"/><path d="M24.77 40.235c-.508-.02-1.01-.016-1.518-.063-.45-.036-.895-.12-1.34-.194a32.64 32.64 0 01-.974-.179 6.596 6.596 0 01-.634-.162 22.62 22.62 0 01-1.01-.342c-.393-.142-.786-.283-1.163-.457a15.379 15.379 0 01-2.293-1.292c-.937-.646-1.822-1.355-2.576-2.206-.56-.63-1.136-1.255-1.597-1.97-.372-.572-.739-1.144-1.021-1.759a33.5 33.5 0 01-.749-1.722 9.39 9.39 0 01-.33-1.072c-.13-.504-.272-1.013-.356-1.528a15.135 15.135 0 01-.199-2.006c-.026-.788 0-1.576.063-2.359.031-.41.12-.814.188-1.213.058-.315.12-.635.194-.945.042-.194.1-.389.157-.578.482-1.554 1.157-3.02 2.084-4.364a15.873 15.873 0 013.194-3.43 14.85 14.85 0 012.534-1.644 18.283 18.283 0 011.86-.814c.507-.189 1.041-.325 1.575-.457.555-.136 1.12-.241 1.686-.341.24-.042.487-.037.728-.063a11.212 11.212 0 012.587 0c.45.058.9.09 1.35.157.346.053.681.142 1.021.221.22.053.44.105.655.173.455.142.921.268 1.361.447.555.226 1.095.493 1.629.756.633.31 1.225.699 1.796 1.108a15.66 15.66 0 014.445 4.937c.34.588.639 1.198.895 1.828.178.436.32.882.461 1.329.126.404.251.814.346 1.229.083.367.12.74.178 1.113.005.042.005.09.01.131.178 1.05.178 2.106.115 3.167-.026.489-.078.977-.146 1.46-.047.347-.142.683-.22 1.025-.053.236-.105.478-.173.709-.141.457-.277.919-.445 1.365-.131.357-.298.704-.456 1.05a13.368 13.368 0 01-.968 1.76 15.515 15.515 0 01-6.021 5.478 14.59 14.59 0 01-2.21.924c-.383.121-.76.247-1.147.347-.32.084-.65.115-.974.189-.282.063-.565.084-.848.131-.576.084-1.157.11-1.744.126zm1.414-1.129c.456.005.843-.115 1.236-.168.282-.042.56-.131.832-.205.377-.105.76-.194 1.126-.325.597-.21 1.178-.463 1.749-.746a14.152 14.152 0 002.54-1.634c.057-.047.104-.105.177-.183-.382-.316-.743-.615-1.104-.92-.357-.294-.712-.588-1.069-.887-.36-.3-.727-.594-1.089-.903-.356-.305-.738-.573-1.078-.925.083-.115.152-.22.23-.31.57-.693 1.147-1.381 1.717-2.074.372-.452.75-.898 1.116-1.35.068-.079.136-.131.251-.131.042.026.094.057.142.094.863.72 1.727 1.44 2.596 2.154.482.399.97.798 1.456 1.197.053.042.126.063.2.095a14.522 14.522 0 001.92-6.513c-.277-.09-.539-.179-.806-.257-.267-.08-.534-.147-.795-.231-.257-.08-.508-.195-.807-.21.037.215.073.399.11.614-.126.01-.215.026-.309.026h-1.361c-.639.006-1.273.021-1.911.032-.079 0-.163.005-.2-.1a.454.454 0 01.346-.19c.414-.052.828-.104 1.241-.162.042-.005.084-.02.126-.026.23-.037.46-.084.696-.116.157-.02.31-.052.414-.173-.052-.289-.105-.557-.152-.825a.778.778 0 01.566-.015c.099.031.199.052.303.068.351.058.702.11 1.053.168.042.005.083.026.125.037.126.026.257.058.383.084.162.031.324.063.481.1.163.031.32.052.477.01.057-.252-.058-1.602-.168-1.927-.073-.006-.157-.027-.24-.021-.357.02-.713.052-1.069.078-.089.006-.178 0-.277 0-.005-.278.152-.451.251-.65.052-.106.105-.2.058-.327-.236-.194-.54-.299-.76-.535a.37.37 0 01.079-.069c.236-.089.466-.183.702-.267.146-.053.293-.11.445-.148a.513.513 0 00.319-.189c-.052-.168-.084-.33-.152-.483-.251-.583-.502-1.166-.77-1.738-.073-.158-.11-.357-.314-.436-.057.042-.115.079-.167.126l-.958.85-2.765 2.443c-.079.068-.147.158-.288.126-.052-.058-.12-.126-.183-.194l-1.9-2.159c-.357-.404-.713-.814-1.074-1.218-.079-.09-.116-.168-.063-.294.817-.72 1.639-1.45 2.46-2.18.498-.441.996-.877 1.493-1.318.068-.058.12-.137.199-.226-2.079-1.739-4.42-2.81-7.09-3.256-.047.682.053 1.334.079 1.985.031.656.031 1.313.058 1.97.026.656.078 1.307.11 1.964.031.65.052 1.302.083 1.995-.11-.02-.199-.015-.267-.047-.607-.32-1.21-.651-1.811-.971a77.03 77.03 0 00-.623-.331c-.027.073-.042.11-.047.152l-.142 1.25c-.01.095-.026.189-.042.284-.068.456-.141.913-.194 1.37-.062.53-.11 1.061-.172 1.586a2.092 2.092 0 01-.084.358c-.016.052-.063.094-.094.136-.11-.052-.1-.131-.105-.21-.047-.61-.09-1.218-.141-1.828-.037-.451-.084-.903-.12-1.36-.027-.289-.037-.578-.064-.861-.02-.237-.047-.468-.063-.704-.02-.315-.01-.635-.062-.94-.084-.462-.068-.925-.09-1.387 0-.063.032-.126.053-.215.838.305 1.623.672 2.482.972-.54-1.797-1.068-3.546-1.597-5.294-.608-.09-1.178.047-1.739.13a13.736 13.736 0 00-3.895 1.198c-.744.357-1.466.751-2.157 1.26.052.08.089.158.146.221.22.247.445.494.67.736l3.027 3.256c.063.068.12.142.188.22a.927.927 0 01-.523.2c-.377.047-.754.11-1.131.168-.016 0-.032.016-.047.016l-.409.079-.36.063c-.163.026-.326.058-.488.084a5.82 5.82 0 00-.188.036c-.016.09-.042.174-.047.258a92.345 92.345 0 00-.095 1.702c-.015.315 0 .63-.005.945 0 .084-.02.163-.037.289-.115-.058-.193-.084-.261-.131-.55-.363-1.1-.725-1.65-1.093l-2.56-1.702c-.21-.136-.424-.268-.655-.415a14.393 14.393 0 00-1.722 5.52c-.021.184-.084.373-.01.594.167-.016.33-.021.491-.042.2-.026.393-.074.592-.09.34-.031.68-.02 1.01-.12.042-.01.09-.01.131-.01.336.01.66-.038.985-.1.141-.032.288-.08.434 0 .084.152.01.294-.036.43-.058.168-.105.331-.005.525.078.01.162.032.246.037.398.021.8.037 1.204.053.194.01.382.02.576.036.115.01.22.037.283.195-.116.02-.215.047-.315.058-.188.015-.382.02-.57.036-.252.021-.503.053-.754.079-.157.016-.314.026-.466.042-.34.037-.676.074-1.016.105-.068.005-.141-.026-.24-.047.062-.215.11-.394.162-.578-.105-.063-.194-.042-.283-.005a2.228 2.228 0 01-.246.079c-.288.057-.582.105-.87.162-.057.01-.115.037-.172.053-.095.026-.184.052-.278.068-.277.053-.56.105-.843.158-.015.005-.026.02-.042.031-.084.331.021 1.634.173 1.99.377-.046.764-.104 1.152-.146a8.26 8.26 0 01.623-.047c.042 0 .09.031.136.047-.089.346-.34.614-.372.966.23.163.445.315.66.462.084.058.147.121.131.242-.283.105-.565.21-.848.31-.283.1-.57.194-.859.3-.057.02-.1.083-.146.125.083.226.162.43.235.636.246.72.587 1.397.958 2.058.042.069.11.127.168.19.686-.636 1.346-1.256 2.01-1.87.665-.615 1.31-1.25 1.995-1.833.383.289.796.777.864 1.014-.555.52-1.12 1.05-1.707 1.596.037.074.058.147.105.2l1.367 1.48c.047.053.12.085.183.122l1.77-1.634c.35.258.581.61.858.862.053.183-.068.241-.146.315-.843.788-1.686 1.565-2.53 2.353-.402.373-.805.745-1.203 1.123-.074.069-.178.127-.152.29.21.157.43.335.665.498.696.494 1.419.946 2.204 1.287a29.2 29.2 0 001.466.615c.325.126.66.215.995.304.262.069.524.126.79.179.357.073.718.136 1.074.2.136.02.277.036.419.036.089 0 .183-.02.272-.031.016-.069.021-.116.032-.153.162-.446.335-.893.492-1.344.162-.457.303-.925.46-1.381.2-.573.414-1.146.618-1.718.032-.084.037-.184.058-.289-.09 0-.147-.01-.204 0-.43.116-.854.236-1.278.352-.508.137-1.02.273-1.534.4-.105.026-.22.015-.325.02-.036-.21-.031-.205.01-.325.074-.195.142-.394.21-.589.116-.346.23-.693.346-1.034l.33-.988c.104-.315.199-.63.303-.94.116-.336.236-.672.351-1.008.11-.331.215-.662.325-.993.12-.362.24-.725.366-1.087.047-.131.09-.273.247-.383.015.1.036.168.036.23-.016.578-.031 1.156-.052 1.734-.016.383-.047.767-.063 1.15-.01.263-.01.525-.021.788-.016.378-.042.75-.063 1.13-.005.088-.042.193.09.256.444-.215.895-.43 1.345-.65.455-.221.895-.474 1.382-.652.084.205.037.373.021.546-.031.294-.058.588-.089.888-.02.226-.042.451-.068.677-.021.163-.052.331-.068.494-.052.646-.1 1.287-.152 1.933-.016.163-.042.33-.058.493l-.062.678c-.026.252-.042.504-.074.756-.063.326-.063.657-.094 1.02zm8.681-4.186c.09-.073.147-.11.194-.157.414-.483.827-.967 1.236-1.455.057-.068.068-.168.11-.263-1.215-1.003-2.404-1.99-3.613-2.988-.068.063-.131.11-.178.168-.419.504-.838 1.003-1.251 1.512-.048.058-.058.148-.084.221 1.204.993 2.387 1.97 3.586 2.962zM36.5 16.265c-.016-.042-.021-.079-.042-.11a13.965 13.965 0 00-1.325-1.613c-.041-.042-.115-.057-.183-.089l-3.393 2.999c-.042.142.026.21.09.283.397.452.79.904 1.188 1.355.068.08.146.142.214.205.215-.094 3.3-2.81 3.451-3.03zM15.97 33.528c-.524-.635-1.084-1.192-1.613-1.759-.21.09-1.361 1.155-1.529 1.397.079.284 1.147 1.55 1.524 1.807.042-.016.1-.021.136-.053.487-.446.963-.903 1.482-1.392z" fill="url(#paint0_linear)"/><path d="M15.456 24.947c.607-.116 1.193-.232 1.775-.342 0-.01.005-.02.005-.037-.042-.015-.079-.036-.12-.042-.372-.057-.744-.1-1.11-.162-.158-.027-.315-.09-.482-.137.157-.546.466-.961.848-1.323.466-.447 1-.81 1.586-1.088.367-.173.739-.351 1.116-.493.33-.126.675-.205 1.015-.305.273-.079.55-.152.828-.226a.767.767 0 01.152-.026c.041-.005.089.005.13-.005.42-.126.86-.126 1.283-.21a5.4 5.4 0 01.304-.048c.152.09.167.216.188.337.084.483.168.96.247 1.444.062.389.12.777.178 1.166.031.205.083.404.178.651.492-1.213.963-2.38 1.445-3.577.063-.015.152-.063.24-.063.446.01.896-.015 1.33.069.435.084.885.068 1.315.204.267.09.56.105.837.163.205.042.404.095.603.158.282.084.565.168.837.273.31.116.613.247.906.389.461.22.906.472 1.314.787.503.389.948.825 1.215 1.408.12.268.252.54.178.872-.46.215-.974.3-1.513.494.262.105.498.105.723.13.22.032.445.043.665.064.062.131.031.241-.021.341a4.03 4.03 0 01-1.058 1.282 7.31 7.31 0 01-1.77 1.034c-.434.184-.9.305-1.35.452-.22.073-.446.137-.67.205-.085.026-.174.031-.258.052-.099.021-.204.042-.303.069-.026.005-.047.02-.073.026-.351.058-.702.12-1.058.168a11.6 11.6 0 01-.859.09c-.529.02-1.063.026-1.592.036-.031 0-.068-.021-.13-.042-.027-.247-.058-.51-.074-.767-.026-.53-.042-1.066-.068-1.602-.005-.11.01-.23-.136-.31-.67.857-1.277 1.755-1.937 2.59-.084.005-.126.015-.168.01a80.425 80.425 0 01-1.199-.226c-.042-.01-.084-.026-.125-.031-.34-.032-.66-.137-.98-.247-.172-.058-.35-.1-.518-.157-.393-.142-.785-.268-1.162-.436a7.108 7.108 0 01-1.571-.967 3.495 3.495 0 01-1.09-1.502c-.067-.2-.041-.394-.046-.593zm9.801 1.565c.016-.1.026-.158.026-.216V23.15c0-.084-.026-.162-.047-.257-.22-.026-.413-.063-.612.037-.346.982-.691 1.964-1.037 2.925-.168.037-.188-.063-.22-.157-.105-.32-.204-.646-.314-.967-.126-.373-.246-.74-.377-1.108a25.909 25.909 0 00-.272-.714c-.314-.069-.508-.058-.712.031-.047.273-.042 3.356.015 3.566.136.027.278.069.435-.057v-2.5c0-.105-.026-.226.094-.326.367.972.66 1.949 1.042 2.915.157-.01.293-.021.414-.032.382-.971.665-1.943 1.089-2.872a.94.94 0 01.063.33c.005.752 0 1.503 0 2.259 0 .094.01.184.015.289h.398zm-7.806-1.035c.036.289.146.483.282.667.367.489.89.573 1.445.567a2.02 2.02 0 00.592-.089c.555-.194.89-.61 1.032-1.16.146-.584.146-1.177-.105-1.744a1.634 1.634 0 00-.932-.898 1.95 1.95 0 00-1.283-.048c-.44.132-.744.4-.942.799-.032.063-.032.147-.042.215.167.068.303.11.46.047.137-.304.325-.567.676-.667.34-.094.68-.084 1 .047.482.195.77.762.628 1.198-.44.037-.89-.016-1.356.031-.01.126-.016.226-.02.294.093.132.203.121.308.127h.89c.115 0 .23.005.273.157-.011.074-.032.163-.042.247-.074.52-.514 1.045-1.147 1.06-.534.017-.974-.172-1.194-.703-.037-.09-.089-.168-.152-.278-.125.037-.246.084-.371.131zm11.592.998c.052-.247.047-3.32-.01-3.556-.063-.015-.131-.042-.21-.047-.565-.047-2.267-.01-2.445.047-.063.2-.068 3.325-.005 3.582.11.047.225.058.35-.037.021-1.034-.015-2.08.021-3.109.226-.084 1.576-.1 1.87-.026.005.095.02.194.02.294v2.595c0 .094.011.183.016.278.157.042.278.063.393-.021zm1.215-1.418c.172-.01.303-.021.43-.026.397-.016.8.042 1.188-.11a.895.895 0 00.46-.395c.152-.236.147-.493.142-.756-.016-.43-.377-.85-.822-.861-.53-.01-1.063-.026-1.592-.037-.073 0-.141.026-.215.037v3.597c.147.037.267.069.414-.068-.005-.43-.005-.882-.005-1.381z" fill="url(#paint1_linear)"/><path d="M30.336 24.626c-.1-.241-.11-1.045-.026-1.318.063-.01.136-.026.215-.032.303 0 .607-.005.916.006.435.01.702.388.597.814-.073.315-.288.478-.581.52-.372.058-.744.037-1.12.01z" fill="url(#paint2_linear)"/><defs><linearGradient id="paint0_linear" x1="9" y1="9" x2="40.16" y2="9" gradientUnits="userSpaceOnUse"><stop stop-color="#166693"/><stop offset="1" stop-color="#008FDF"/></linearGradient><linearGradient id="paint1_linear" x1="9" y1="9" x2="40.16" y2="9" gradientUnits="userSpaceOnUse"><stop stop-color="#166693"/><stop offset="1" stop-color="#008FDF"/></linearGradient><linearGradient id="paint2_linear" x1="9" y1="9" x2="40.16" y2="9" gradientUnits="userSpaceOnUse"><stop stop-color="#166693"/><stop offset="1" stop-color="#008FDF"/></linearGradient></defs></svg>