<svg width="59" height="106" viewBox="0 0 59 106" fill="none" xmlns="http://www.w3.org/2000/svg">
<path d="M1 105.234H57.9876M11.0222 15.6925H47.8923H11.0222ZM11.0222 101.942H47.8923H11.0222ZM47.8923 12.3273V105.234V12.3273ZM11.0222 12.3273V105.234V12.3273ZM1 12.3273H57.9876H1ZM1 0.622559V105.307V0.622559ZM57.9876 0.622559H1H57.9876ZM57.9876 105.234V0.622559V105.234Z" stroke="#677075" stroke-width="0.3"/>
<path d="M6.85247 9.62072H11.9002M18.7036 52.7089C18.7036 51.7579 17.972 51.0264 17.021 51.0264C16.07 51.0264 15.3384 51.7579 15.3384 52.7089C15.3384 53.66 16.07 54.3915 17.021 54.3915C17.972 54.3915 18.7036 53.66 18.7036 52.7089ZM52.1353 9.62072C52.5743 9.62072 52.94 9.25494 52.94 8.81601L52.1353 9.62072ZM52.94 3.76833C52.94 3.3294 52.5743 2.96362 52.1353 2.96362L52.94 3.76833ZM47.0877 2.96362C46.6487 2.96362 46.283 3.3294 46.283 3.76833L47.0877 2.96362ZM46.2098 8.81601C46.2098 9.25494 46.5756 9.62072 47.0145 9.62072L46.2098 8.81601ZM46.2098 3.76833V8.81601V3.76833ZM52.1353 2.96362H47.0877H52.1353ZM52.94 8.81601V3.76833V8.81601ZM47.0877 9.62072H52.1353H47.0877ZM38.6748 9.62072C39.1138 9.62072 39.4795 9.25494 39.4795 8.81601L38.6748 9.62072ZM39.5527 3.76833C39.5527 3.3294 39.1869 2.96362 38.748 2.96362L39.5527 3.76833ZM33.6272 2.96362C33.1882 2.96362 32.8225 3.3294 32.8225 3.76833L33.6272 2.96362ZM32.8225 8.81601C32.8225 9.25494 33.1882 9.62072 33.6272 9.62072L32.8225 8.81601ZM32.8225 3.76833V8.81601V3.76833ZM38.6748 2.96362H33.6272H38.6748ZM39.5527 8.81601V3.76833V8.81601ZM33.6272 9.62072H38.6748H33.6272ZM25.2875 9.62072C25.7264 9.62072 26.0922 9.25494 26.0922 8.81601L25.2875 9.62072ZM26.0922 3.76833C26.0922 3.3294 25.7264 2.96362 25.2875 2.96362L26.0922 3.76833ZM20.2398 2.96362C19.8009 2.96362 19.4351 3.3294 19.4351 3.76833L20.2398 2.96362ZM19.4351 8.81601C19.4351 9.25494 19.8009 9.62072 20.2398 9.62072L19.4351 8.81601ZM19.4351 3.76833V8.81601V3.76833ZM25.2875 2.96362H20.2398H25.2875ZM26.0922 8.81601V3.76833V8.81601ZM20.2398 9.62072H25.2875H20.2398ZM11.827 9.62072C12.2659 9.62072 12.6317 9.25494 12.6317 8.81601L11.827 9.62072ZM12.7049 3.76833C12.7049 3.3294 12.3391 2.96362 11.9002 2.96362L12.7049 3.76833ZM6.85247 2.96362C6.34038 2.96362 5.97461 3.3294 5.97461 3.76833L6.85247 2.96362ZM5.97461 8.81601C5.97461 9.25494 6.34038 9.62072 6.77931 9.62072L5.97461 8.81601ZM5.97461 3.76833V8.81601V3.76833ZM11.827 2.96362H6.85247H11.827ZM12.7049 8.81601V3.76833V8.81601Z" stroke="#677075" stroke-width="0.3"/>
<path d="M17.021 49.5632V55.4156M19.7277 52.7089H14.168H19.7277Z" stroke="#677075" stroke-width="0.3"/>
<path d="M5.3159 40.3458H6.63269M5.97429 45.0277C7.36424 45.0277 8.46156 43.9303 8.46156 42.5404L5.97429 45.0277ZM3.48703 42.5404C3.48703 43.9303 4.58435 45.0277 5.97429 45.0277L3.48703 42.5404ZM8.53472 37.4927C8.53472 36.1028 7.43739 35.0054 6.04745 35.0054L8.53472 37.4927ZM5.97429 34.9323C4.58435 34.9323 3.48703 36.0296 3.48703 37.4196L5.97429 34.9323ZM5.3159 37.4927C3.92596 37.8585 3.12125 39.2484 3.48703 40.6384C3.8528 42.0283 5.24275 42.833 6.63269 42.3941C8.02263 42.0283 8.82734 40.6384 8.38841 39.2484C8.2421 38.4437 7.51055 37.7853 6.63269 37.4927H5.3159ZM3.48703 37.4927V42.5404V37.4927ZM8.53472 42.5404V37.4927V42.5404ZM6.63269 29.8115C7.51055 29.4457 7.87632 28.4215 7.51055 27.6168C7.14477 26.7389 6.1206 26.3732 5.3159 26.7389C4.43804 27.1047 4.07227 28.0557 4.43804 28.9336C4.58435 29.2994 4.95013 29.6651 5.3159 29.8115H6.63269ZM5.3159 28.5678V40.2726V28.5678ZM6.63269 28.5678H5.3159H6.63269ZM6.63269 40.3458V28.641V40.3458Z" stroke="#677075" stroke-width="0.3"/>
<path d="M5.97457 26.0073V43.6376M8.53499 28.2751H3.4873H8.53499Z" stroke="#677075" stroke-width="0.3"/>
<path d="M3.70691 50.0752H8.24251M5.97471 74.3626C7.36465 74.3626 8.46198 73.2653 8.46198 71.8753L5.97471 74.3626ZM3.48744 71.8753C3.48744 73.2653 4.58477 74.3626 5.97471 74.3626L3.48744 71.8753ZM8.53513 66.8277C8.53513 65.4377 7.43781 64.3404 6.04786 64.3404L8.53513 66.8277ZM5.97471 64.2672C4.58477 64.2672 3.48744 65.3646 3.48744 66.7545L5.97471 64.2672ZM5.31632 66.9008C3.92637 67.2666 3.12167 68.6565 3.48744 70.0465C3.85322 71.4364 5.24316 72.2411 6.6331 71.8753C8.02305 71.5096 8.82775 70.1196 8.38882 68.7297C8.16936 67.8518 7.43781 67.1934 6.6331 66.9008H5.31632ZM3.48744 66.8277V71.8753V66.8277ZM8.53513 71.8753V66.8277V71.8753ZM6.6331 59.1464C7.51096 58.7806 7.87674 57.7565 7.51096 56.9518C7.14519 56.0739 6.12102 55.7081 5.31632 56.0739C4.43846 56.4397 4.07268 57.4638 4.43846 58.2685C4.58477 58.6343 4.95054 59.0001 5.31632 59.1464H6.6331ZM5.31632 57.9028V69.6075V57.9028ZM6.6331 57.9028H5.31632H6.6331ZM6.6331 69.6807V57.9759V69.6807ZM5.31632 69.6807H6.6331H5.31632ZM3.19482 52.9282C3.19482 53.2209 3.41429 53.4403 3.70691 53.4403L3.19482 52.9282ZM3.70691 50.0752C3.41429 50.0752 3.19482 50.2947 3.19482 50.5873L3.70691 50.0752ZM8.7546 50.5873C8.7546 50.2947 8.53513 50.0752 8.24251 50.0752L8.7546 50.5873ZM8.24251 53.4403C8.53513 53.4403 8.7546 53.2209 8.7546 52.9282L8.24251 53.4403ZM3.19482 52.9282V50.5873V52.9282ZM8.24251 53.4403H3.70691H8.24251ZM8.7546 50.5873V52.9282V50.5873Z" stroke="#677075" stroke-width="0.3"/>
<path d="M5.97457 55.3425V72.9729M8.53499 57.6103H3.4873H8.53499Z" stroke="#677075" stroke-width="0.3"/>
<path d="M55.2078 20.7401H50.6722M50.4528 42.5403C50.4528 43.9302 51.5501 45.0276 52.94 45.0276L50.4528 42.5403ZM52.94 45.0276C54.33 45.0276 55.4273 43.9302 55.4273 42.5403L52.94 45.0276ZM52.94 34.9322C51.5501 34.9322 50.4528 36.0295 50.4528 37.4195L52.94 34.9322ZM55.4273 37.4926C55.4273 36.1027 54.33 35.0053 52.94 35.0053L55.4273 37.4926ZM52.2816 37.4926C50.8917 37.8584 50.087 39.2483 50.4528 40.6383C50.8186 42.0282 52.2085 42.8329 53.5984 42.394C54.9884 42.0282 55.7931 40.6383 55.3542 39.2483C55.1347 38.3705 54.4031 37.7121 53.5984 37.4195L52.2816 37.4926ZM55.4273 37.4926V42.5403V37.4926ZM50.4528 42.5403V37.4926V42.5403ZM53.5984 29.8114C54.4763 29.4456 54.8421 28.4214 54.4763 27.6167C54.1105 26.7388 53.0864 26.3731 52.2816 26.7388C51.4038 27.1046 51.038 28.1288 51.4038 28.9335C51.5501 29.2993 51.9159 29.665 52.2816 29.8114H53.5984ZM53.5984 28.5677V40.2725V28.5677ZM52.2816 28.5677H53.5984H52.2816ZM52.2816 40.3457V28.6409V40.3457ZM53.5984 40.3457H52.2816H53.5984ZM55.2078 24.0321C55.5005 24.0321 55.7199 23.8127 55.7199 23.52L55.2078 24.0321ZM55.7199 21.1791C55.7199 20.8865 55.5005 20.667 55.2078 20.667L55.7199 21.1791ZM50.6722 20.7401C50.3796 20.7401 50.1602 20.9596 50.1602 21.2522L50.6722 20.7401ZM50.1602 23.5932C50.1602 23.8858 50.3796 24.1053 50.6722 24.1053L50.1602 23.5932ZM55.7199 23.5932V21.2522V23.5932ZM50.6722 24.0321H55.2078H50.6722ZM50.1602 21.1791V23.52V21.1791Z" stroke="#677075" stroke-width="0.3"/>
<path d="M52.9399 26.0073V43.6376M50.4526 28.2751H55.5003H50.4526Z" stroke="#677075" stroke-width="0.3"/>
<path d="M55.2078 50.0752H50.6722M50.4528 71.8753C50.4528 73.2653 51.5501 74.3626 52.94 74.3626L50.4528 71.8753ZM52.94 74.3626C54.33 74.3626 55.4273 73.2653 55.4273 71.8753L52.94 74.3626ZM52.94 64.2672C51.5501 64.2672 50.4528 65.3646 50.4528 66.7545L52.94 64.2672ZM55.4273 66.8277C55.4273 65.4377 54.33 64.3404 52.94 64.3404L55.4273 66.8277ZM52.2816 66.9008C50.8917 67.2666 50.087 68.6565 50.4528 70.0465C50.8186 71.4364 52.2085 72.2411 53.5984 71.8753C54.9884 71.5096 55.7931 70.1196 55.3542 68.7297C55.1347 67.8518 54.4031 67.1934 53.5984 66.9008H52.2816ZM55.4273 66.8277V71.8753V66.8277ZM50.4528 71.8753V66.8277V71.8753ZM53.5984 59.1464C54.4763 58.7806 54.8421 57.7565 54.4763 56.9518C54.1105 56.0739 53.0864 55.7081 52.2816 56.0739C51.4038 56.4397 51.038 57.4638 51.4038 58.2685C51.5501 58.6343 51.9159 59.0001 52.2816 59.1464H53.5984ZM53.5984 57.9028V69.6075V57.9028ZM52.2816 57.9028H53.5984H52.2816ZM52.2816 69.6807V57.9759V69.6807ZM53.5984 69.6807H52.2816H53.5984ZM55.2078 53.4403C55.5005 53.4403 55.7199 53.2209 55.7199 52.9282L55.2078 53.4403ZM55.7199 50.5873C55.7199 50.2947 55.5005 50.0752 55.2078 50.0752L55.7199 50.5873ZM50.6722 50.0752C50.3796 50.0752 50.1602 50.2947 50.1602 50.5873L50.6722 50.0752ZM50.1602 52.9282C50.1602 53.2209 50.3796 53.4403 50.6722 53.4403L50.1602 52.9282ZM55.7199 52.9282V50.5873V52.9282ZM50.6722 53.4403H55.2078H50.6722ZM50.1602 50.5873V52.9282V50.5873Z" stroke="#677075" stroke-width="0.3"/>
<path d="M52.9399 55.3425V72.9729M50.4526 57.6103H55.5003H50.4526Z" stroke="#677075" stroke-width="0.3"/>
</svg>
