<svg width="125" height="154" viewBox="0 0 125 154" fill="none" xmlns="http://www.w3.org/2000/svg">
<path d="M121.692 114.674L121.892 114.475M67.8071 148.244V148.111V148.244ZM67.8071 80.9712H68.8728H67.8071ZM79.3301 148.111V148.244V148.111ZM79.3301 80.9712V81.1044V80.9712ZM68.9394 80.9712H68.8728H68.9394ZM68.9394 88.4978V80.9712V88.4978ZM68.9394 113.409V90.7625V113.409ZM68.9394 138.386V115.74V138.386ZM68.9394 148.244V140.718V148.244ZM69.0726 148.244H68.9394H69.0726ZM78.1978 148.244H78.0646H78.1978ZM78.1978 80.9712V148.244V80.9712ZM69.0726 74.4437V80.3051V74.4437ZM69.0726 148.244V149.11V148.244ZM69.0726 149.11H78.1312H69.0726ZM78.0646 148.244V149.11V148.244ZM78.0646 75.243V80.3051V75.243ZM111.834 81.0378V80.9046V81.0378ZM111.834 148.244V148.111V148.244ZM121.492 148.311H121.626H121.492ZM121.626 148.311V79.0396V148.311ZM112.9 88.4978V80.9712V88.4978ZM112.9 113.409V90.7625V113.409ZM112.9 138.386V115.74V138.386ZM112.9 148.244V140.718V148.244ZM113.033 148.244H112.9H113.033ZM113.033 80.3718V78.3069V80.3718ZM113.033 149.11V148.244V149.11ZM121.492 149.11H113.033H121.492ZM121.492 148.311V149.044V148.311ZM69.0726 80.3051V74.4437V80.3051ZM7.59432 80.3051V69.0486V80.3051ZM69.0726 80.9712H7.59432H69.0726ZM69.0726 80.3718V80.9046V80.3718ZM7.59432 80.9046V80.3718V80.9046ZM69.0726 80.9046H7.59432H69.0726ZM113.033 80.3718V78.3069V80.3718ZM78.0646 80.3718V75.3096V80.3718ZM113.033 80.3718V80.9046V80.3718ZM78.0646 80.9046V80.3718V80.9046ZM113.033 80.9046H78.0646H113.033ZM113.033 80.9712H78.0646H113.033ZM78.1978 148.244H112.967H78.1978ZM78.0646 148.311H113.033H78.0646ZM38.4334 81.1044L38.5 81.171L38.4334 81.1044ZM38.5 81.171L38.4334 81.1044L38.5 81.171ZM38.5 147.978L38.4334 148.045L38.5 147.978ZM38.3668 81.1044L38.5 81.171L38.3668 81.1044ZM38.3668 148.045V81.1044V148.045ZM38.5 147.978H38.4334H38.5ZM38.4334 148.045L38.5 147.978L38.4334 148.045ZM68.673 81.171L68.7396 81.1044L68.673 81.171ZM68.7396 81.1044L68.673 81.171L68.7396 81.1044ZM68.7396 81.0378L68.673 81.171L68.7396 81.0378ZM38.4334 81.0378H68.8062H38.4334ZM38.5 81.171V81.1044V81.171ZM68.7396 148.045L68.673 147.978L68.7396 148.045ZM38.4334 148.111L38.5 147.978L38.4334 148.111ZM68.7396 148.111H38.4334H68.7396ZM68.8062 148.045L68.7396 147.978H68.673L68.8062 148.045ZM68.8062 140.651V148.045V140.651ZM68.8062 115.74V138.386V115.74ZM68.8062 90.8291V113.475V90.8291ZM68.8062 81.1044V88.4978V81.1044ZM68.673 81.171H68.7396H68.673ZM68.673 147.978L68.7396 148.045L68.673 147.978ZM68.673 147.978V148.045V147.978ZM121.892 113.742V114.142V113.742ZM121.892 114.142V114.541V114.142ZM40.8312 93.4933C40.8312 93.1603 40.5648 92.8939 40.2318 92.8939C39.8987 92.8939 39.6323 93.1603 39.6323 93.4933C39.6323 93.8264 39.8987 94.0928 40.2318 94.0928C40.5648 94.0928 40.8312 93.8264 40.8312 93.4933ZM40.6314 93.4933C40.6314 93.2935 40.4316 93.0937 40.2318 93.0937C40.032 93.0937 39.8321 93.2935 39.8321 93.4933C39.8321 93.6932 40.032 93.893 40.2318 93.893C40.4982 93.893 40.6314 93.6932 40.6314 93.4933ZM81.2617 135.656C81.2617 135.323 80.9953 135.056 80.6622 135.056C80.3292 135.056 80.0628 135.323 80.0628 135.656C80.0628 135.989 80.3292 136.255 80.6622 136.255C80.9953 136.255 81.2617 135.989 81.2617 135.656ZM81.0619 135.656C81.0619 135.456 80.8621 135.256 80.6622 135.256C80.4624 135.256 80.2626 135.456 80.2626 135.656C80.2626 135.855 80.4624 136.055 80.6622 136.055C80.8621 136.055 81.0619 135.922 81.0619 135.656ZM81.2617 93.4933C81.2617 93.1603 80.9953 92.8939 80.6622 92.8939C80.3292 92.8939 80.0628 93.1603 80.0628 93.4933C80.0628 93.8264 80.3292 94.0928 80.6622 94.0928C80.9953 94.0928 81.2617 93.8264 81.2617 93.4933ZM81.0619 93.4933C81.0619 93.2935 80.8621 93.0937 80.6622 93.0937C80.4624 93.0937 80.2626 93.2935 80.2626 93.4933C80.2626 93.6932 80.4624 93.893 80.6622 93.893C80.8621 93.893 81.0619 93.6932 81.0619 93.4933ZM40.8312 135.656C40.8312 135.323 40.5648 135.056 40.2318 135.056C39.8987 135.056 39.6323 135.323 39.6323 135.656C39.6323 135.989 39.8987 136.255 40.2318 136.255C40.5648 136.255 40.8312 135.989 40.8312 135.656ZM40.6314 135.656C40.6314 135.456 40.4316 135.256 40.2318 135.256C40.032 135.256 39.8321 135.456 39.8321 135.656C39.8321 135.855 40.032 136.055 40.2318 136.055C40.4982 136.055 40.6314 135.922 40.6314 135.656ZM80.9287 93.5599V93.4267V93.5599ZM80.4624 93.5599C80.4624 93.6932 80.5956 93.7598 80.7289 93.6932C80.7955 93.6932 80.8621 93.6266 80.8621 93.5599H80.4624ZM80.3958 93.4267V93.5599V93.4267ZM80.8621 93.4267C80.8621 93.2935 80.7289 93.2269 80.5956 93.2935C80.529 93.2935 80.4624 93.3601 80.4624 93.4267H80.8621ZM40.5648 93.5599V93.4267V93.5599ZM40.0986 93.5599C40.0986 93.6932 40.2318 93.7598 40.365 93.6932C40.4316 93.6932 40.4982 93.6266 40.4982 93.5599H40.0986ZM40.032 93.4267V93.5599V93.4267ZM40.4982 93.4267C40.4982 93.2935 40.365 93.2269 40.2318 93.2935C40.1652 93.2935 40.0986 93.3601 40.0986 93.4267H40.4982ZM80.9287 135.722V135.589V135.722ZM80.8621 135.656C80.8621 135.522 80.7289 135.456 80.5956 135.522C80.529 135.522 80.4624 135.589 80.4624 135.656H80.8621ZM80.4624 135.722C80.4624 135.855 80.5956 135.922 80.7289 135.855C80.7955 135.855 80.8621 135.789 80.8621 135.722H80.4624ZM80.3958 135.656V135.789V135.656ZM40.5648 135.722V135.589V135.722ZM40.0986 135.722C40.0986 135.855 40.2318 135.922 40.365 135.855C40.4316 135.855 40.4982 135.789 40.4982 135.722H40.0986ZM40.032 135.656V135.789V135.656ZM40.4982 135.656C40.4982 135.522 40.365 135.456 40.2318 135.522C40.1652 135.522 40.0986 135.589 40.0986 135.656H40.4982ZM112.567 113.409H112.7H112.567ZM110.635 115.74H110.769H110.635ZM110.635 113.409H110.769H110.635ZM110.635 115.74V113.409V115.74ZM112.7 115.141H112.567H112.7ZM110.769 115.74H112.7H110.769ZM112.567 114.008H112.7H112.567ZM112.567 114.608H112.7H112.567ZM110.769 113.409H112.567H110.769ZM112.567 115.141V114.541V115.141ZM112.567 114.008V113.409V114.008ZM110.769 113.409V115.74V113.409ZM112.7 115.74H112.833H112.7ZM112.7 115.141V115.74V115.141ZM112.833 114.008H113.033H112.833ZM112.833 114.608H113.033H112.833ZM113.033 114.008H113.166H113.033ZM113.033 114.608H113.166H113.033ZM113.033 114.008V114.608V114.008ZM113.166 114.008V114.608V114.008ZM112.7 114.008V114.608V114.008ZM112.833 114.008V114.608V114.008ZM113.166 115.141H113.033H113.166ZM113.033 115.74H113.166H113.033ZM113.166 115.141V115.74V115.141ZM113.033 115.141H112.833H113.033ZM112.833 115.74H113.033H112.833ZM113.033 115.141V115.74V115.141ZM112.833 115.141V115.74V115.141ZM112.567 138.386H112.7H112.567ZM110.635 140.651H110.769H110.635ZM110.635 138.386H110.769H110.635ZM110.635 140.651V138.32V140.651ZM112.7 140.118H112.567H112.7ZM112.567 138.919H112.7H112.567ZM112.567 139.519H112.7H112.567ZM110.769 140.651H112.7H110.769ZM110.769 138.386H112.567H110.769ZM112.567 140.118V139.519V140.118ZM112.567 138.919V138.32V138.919ZM110.769 138.386V140.718V138.386ZM112.7 138.919V139.519V138.919ZM113.033 138.919H113.166H113.033ZM113.033 139.519H113.166H113.033ZM113.166 138.919V139.519V138.919ZM112.833 138.919H113.033H112.833ZM112.833 138.919V139.519V138.919ZM112.833 139.519H113.033H112.833ZM113.033 138.919V139.519V138.919ZM112.7 140.651H112.833H112.7ZM112.7 140.118V140.718V140.118ZM113.166 140.118H113.033H113.166ZM113.033 140.651H113.166H113.033ZM113.166 140.118V140.718V140.118ZM112.833 140.651H113.033H112.833ZM113.033 140.118V140.718V140.118ZM113.033 140.118H112.833H113.033ZM112.833 140.118V140.718V140.118ZM112.567 88.4978H112.7H112.567ZM110.635 90.8291H110.769H110.635ZM110.635 88.4978H110.769H110.635ZM110.635 90.8291V88.4978V90.8291ZM112.7 90.2296H112.567H112.7ZM112.567 89.0973H112.7H112.567ZM112.567 89.6301H112.7H112.567ZM110.769 90.8291H112.7H110.769ZM112.567 90.2296V89.6301V90.2296ZM112.567 89.0973V88.4978V89.0973ZM110.769 88.4978H112.567H110.769ZM110.769 88.4978V90.8291V88.4978ZM112.7 89.0973V89.6967V89.0973ZM112.833 89.0973H113.033H112.833ZM112.833 89.0973V89.6967V89.0973ZM112.833 89.6301H113.033H112.833ZM112.7 90.8291H112.833H112.7ZM112.7 90.2296V90.8291V90.2296ZM113.033 89.0973H113.166H113.033ZM113.033 89.0973V89.6967V89.0973ZM113.033 89.6301H113.166H113.033ZM113.166 89.0973V89.6967V89.0973ZM113.033 90.2296H112.833H113.033ZM112.833 90.8291H113.033H112.833ZM112.833 90.2296V90.8291V90.2296ZM113.166 90.2296H113.033H113.166ZM113.033 90.8291H113.166H113.033ZM113.166 90.2296V90.8291V90.2296ZM113.033 90.2296V90.8291V90.2296ZM112.567 113.409H112.7H112.567ZM110.635 115.74H110.769H110.635ZM110.635 113.409H110.769H110.635ZM110.635 115.74V113.409V115.74ZM112.7 115.141H112.567H112.7ZM110.769 115.74H112.7H110.769ZM112.567 114.608H112.7H112.567ZM112.567 114.008H112.7H112.567ZM110.769 113.409H112.567H110.769ZM112.567 115.141V114.541V115.141ZM112.567 114.008V113.409V114.008ZM110.769 113.409V115.74V113.409ZM112.7 114.008V114.608V114.008ZM112.7 115.74H112.833H112.7ZM112.7 115.141V115.74V115.141ZM113.033 114.008H113.166H113.033ZM113.033 114.608H113.166H113.033ZM113.166 114.008V114.608V114.008ZM112.833 114.008H113.033H112.833ZM112.833 114.008V114.608V114.008ZM112.833 114.608H113.033H112.833ZM113.033 114.008V114.608V114.008ZM112.833 115.74H113.033H112.833ZM113.033 115.141H112.833H113.033ZM112.833 115.141V115.74V115.141ZM113.033 115.74H113.166H113.033ZM113.166 115.141V115.74V115.141ZM113.166 115.141H113.033H113.166ZM113.033 115.141V115.74V115.141ZM122.225 106.615H122.092H122.225ZM122.225 106.615V106.082V106.615ZM122.225 106.082H122.092H122.225ZM122.225 104.883H122.092H122.225ZM122.092 105.483H122.225H122.092ZM122.225 105.483V104.883V105.483ZM121.959 106.615H122.092H121.959ZM122.092 106.615V106.082V106.615ZM122.092 106.082H121.959H122.092ZM122.092 104.883H121.959H122.092ZM121.959 105.483H122.092H121.959ZM122.092 105.483V104.883V105.483ZM122.092 89.3637H122.225H122.092ZM122.225 88.7642H122.092H122.225ZM122.225 89.3637V88.7642V89.3637ZM122.225 89.9632H122.092H122.225ZM122.225 90.496H122.092H122.225ZM122.225 90.496V89.8966V90.496ZM121.959 89.3637H122.092H121.959ZM122.092 88.7642H121.959H122.092ZM122.092 89.3637V88.7642V89.3637ZM122.092 89.9632H121.959H122.092ZM121.959 90.496H122.092H121.959ZM122.092 90.496V89.8966V90.496ZM122.092 138.253H121.959H122.092ZM121.959 138.853H122.092H121.959ZM121.959 137.72H122.092H121.959ZM122.092 137.121H121.959H122.092ZM122.225 138.253H122.092H122.225ZM122.225 138.853H122.092H122.225ZM122.225 138.853V138.253V138.853ZM122.092 138.853V138.253V138.853ZM122.092 137.72H122.225H122.092ZM122.225 137.121H122.092H122.225ZM122.092 137.72V137.121V137.72ZM122.225 137.72V137.121V137.72ZM122.225 122.134H122.092H122.225ZM122.225 122.734H122.092H122.225ZM122.225 122.734V122.134V122.734ZM122.092 121.002H121.959H122.092ZM121.959 121.602H122.092H121.959ZM122.225 121.002H122.092H122.225ZM122.092 121.602H122.225H122.092ZM122.092 121.602V121.002V121.602ZM122.225 121.602V121.002V121.602ZM122.092 122.134H121.959H122.092ZM121.959 122.734H122.092H121.959ZM122.092 122.734V122.134V122.734ZM66.6082 115.74H66.7414H66.6082ZM66.6082 113.409H66.7414H66.6082ZM66.6082 115.74V113.409V115.74ZM66.7414 115.74H68.673H66.7414ZM68.5398 115.141V114.541V115.141ZM68.5398 114.008V113.409V114.008ZM66.7414 113.409H68.5398H66.7414ZM66.7414 113.409V115.74V113.409ZM68.8062 114.008H69.006H68.8062ZM68.8062 114.608H69.006H68.8062ZM68.673 114.008V114.608V114.008ZM68.8062 114.008V114.608V114.008ZM69.006 114.008H69.1392H69.006ZM69.006 114.008V114.608V114.008ZM69.006 114.608H69.1392H69.006ZM69.0726 114.008V114.608V114.008ZM69.006 115.141H68.8062H69.006ZM68.8062 115.74H69.006H68.8062ZM69.0726 115.141H68.9394H69.0726ZM69.006 115.74H69.1392H69.006ZM69.0726 115.141V115.74V115.141ZM69.006 115.141V115.74V115.141ZM68.673 115.74H68.8062H68.673ZM68.8062 115.141V115.74V115.141ZM68.673 115.141V115.74V115.141ZM68.673 113.409H68.5398H68.673ZM66.6082 115.74H66.7414H66.6082ZM66.6082 113.409H66.7414H66.6082ZM66.6082 115.74V113.409V115.74ZM68.5398 115.141H68.673H68.5398ZM68.673 114.008H68.5398H68.673ZM66.7414 115.74H68.673H66.7414ZM68.673 114.608H68.5398H68.673ZM68.5398 115.141V114.541V115.141ZM68.5398 114.008V113.409V114.008ZM66.7414 113.409H68.5398H66.7414ZM66.7414 113.409V115.74V113.409ZM69.006 114.008H69.1392H69.006ZM69.006 114.608H69.1392H69.006ZM69.0726 114.008V114.608V114.008ZM68.673 114.008V114.608V114.008ZM68.8062 114.008H69.006H68.8062ZM68.8062 114.008V114.608V114.008ZM68.8062 114.608H69.006H68.8062ZM69.006 114.008V114.608V114.008ZM69.006 115.141H68.8062H69.006ZM68.673 115.74H68.9394H68.673ZM68.8062 115.141V115.74V115.141ZM68.673 115.141V115.74V115.141ZM69.0726 115.141H68.9394H69.0726ZM69.006 115.74H69.1392H69.006ZM69.0726 115.141V115.74V115.141ZM69.006 115.141V115.74V115.141ZM68.5398 138.386H68.673H68.5398ZM66.6082 140.651H66.7414H66.6082ZM66.6082 138.386H66.7414H66.6082ZM66.6082 140.651V138.32V140.651ZM68.673 140.118H68.5398H68.673ZM68.5398 138.919H68.673H68.5398ZM68.5398 139.519H68.673H68.5398ZM66.7414 140.651H68.673H66.7414ZM66.7414 138.386H68.5398H66.7414ZM68.5398 140.118V139.519V140.118ZM68.5398 138.919V138.32V138.919ZM66.7414 138.386V140.718V138.386ZM68.8062 138.919H69.006H68.8062ZM68.8062 139.519H69.006H68.8062ZM68.673 138.919V139.519V138.919ZM68.8062 138.919V139.519V138.919ZM69.006 138.919H69.1392H69.006ZM69.006 138.919V139.519V138.919ZM69.006 139.519H69.1392H69.006ZM69.0726 138.919V139.519V138.919ZM69.006 140.118H68.8062H69.006ZM68.673 140.651H68.9394H68.673ZM68.8062 140.118V140.718V140.118ZM68.673 140.118V140.718V140.118ZM69.0726 140.118H68.9394H69.0726ZM69.006 140.651H69.1392H69.006ZM69.0726 140.118V140.718V140.118ZM69.006 140.118V140.718V140.118ZM68.5398 88.4978H68.673H68.5398ZM66.6082 90.8291H66.7414H66.6082ZM66.6082 88.4978H66.7414H66.6082ZM66.6082 90.8291V88.4978V90.8291ZM68.673 90.2296H68.5398H68.673ZM68.5398 89.0973H68.673H68.5398ZM66.7414 90.8291H68.673H66.7414ZM68.5398 89.6301H68.673H68.5398ZM66.7414 88.4978H68.5398H66.7414ZM68.5398 90.2296V89.6301V90.2296ZM68.5398 89.0973V88.4978V89.0973ZM66.7414 88.4978V90.8291V88.4978ZM69.006 89.0973H69.1392H69.006ZM69.006 89.6301H69.1392H69.006ZM69.0726 89.0973V89.6967V89.0973ZM68.8062 89.0973H69.006H68.8062ZM68.8062 89.6301H69.006H68.8062ZM69.006 89.0973V89.6967V89.0973ZM68.673 89.0973V89.6967V89.0973ZM68.8062 89.0973V89.6967V89.0973ZM69.006 90.8291H69.1392H69.006ZM69.0726 90.2296V90.8291V90.2296ZM69.0726 90.2296H68.9394H69.0726ZM68.8062 90.8291H69.006H68.8062ZM69.006 90.2296V90.8291V90.2296ZM69.006 90.2296H68.8062H69.006ZM68.673 90.8291H68.8062H68.673ZM68.8062 90.2296V90.8291V90.2296ZM68.673 90.2296V90.8291V90.2296ZM10.0588 113.409H9.92557H10.0588ZM10.0588 115.74H9.92557H10.0588ZM10.0588 113.409V115.74V113.409ZM9.85896 113.409H7.92736H9.85896ZM8.12718 114.008V114.608V114.008ZM8.12718 115.141V115.74V115.141ZM9.85896 115.74H8.06057H9.85896ZM9.85896 115.74V113.409V115.74ZM7.79414 113.409H7.59432H7.79414ZM7.66093 114.008H7.86075H7.66093ZM7.66093 115.141H7.52771H7.66093ZM7.66093 114.608H7.52771H7.66093ZM7.52771 115.141V114.541V115.141ZM7.79414 115.141H7.59432H7.79414ZM7.79414 114.608H7.59432H7.79414ZM7.66093 115.141V114.541V115.141ZM7.92736 113.409H7.79414H7.92736ZM7.79414 114.008V113.409V114.008ZM7.92736 114.008V113.409V114.008ZM7.92736 115.141V114.541V115.141ZM7.79414 115.141V114.541V115.141ZM7.66093 113.409H7.52771H7.66093ZM7.52771 114.008V113.409V114.008ZM7.52771 114.008H7.66093H7.52771ZM7.66093 114.008V113.409V114.008ZM7.92736 115.74H8.06057H7.92736ZM9.85896 113.409H7.92736H9.85896ZM8.12718 114.008H7.99396H8.12718ZM7.92736 114.608H8.06057H7.92736ZM7.92736 115.141H8.06057H7.92736ZM9.85896 115.74H8.06057H9.85896ZM8.12718 114.008V114.608V114.008ZM8.12718 115.141V115.74V115.141ZM10.0588 113.409H9.92557H10.0588ZM10.0588 115.74H9.92557H10.0588ZM10.0588 113.409V115.74V113.409ZM9.85896 115.74V113.409V115.74ZM7.92736 115.141V114.541V115.141ZM7.79414 113.409H7.59432H7.79414ZM7.66093 114.008H7.86075H7.66093ZM7.79414 114.608H7.59432H7.79414ZM7.79414 115.141H7.59432H7.79414ZM7.79414 115.141V114.541V115.141ZM7.92736 113.409H7.79414H7.92736ZM7.79414 114.008V113.409V114.008ZM7.92736 114.008V113.409V114.008ZM7.66093 115.141H7.52771H7.66093ZM7.66093 115.141V114.541V115.141ZM7.66093 114.608H7.52771H7.66093ZM7.52771 115.141V114.541V115.141ZM7.66093 113.409H7.52771H7.66093ZM7.52771 114.008V113.409V114.008ZM7.52771 114.008H7.66093H7.52771ZM7.66093 114.008V113.409V114.008ZM8.12718 140.651H7.99396H8.12718ZM10.0588 138.386H9.92557H10.0588ZM10.0588 140.651H9.92557H10.0588ZM10.0588 138.386V140.718V138.386ZM9.85896 138.386H7.92736H9.85896ZM8.12718 139.519H7.99396H8.12718ZM8.12718 140.118H7.99396H8.12718ZM7.92736 138.919H8.06057H7.92736ZM8.12718 138.919V139.519V138.919ZM8.12718 140.118V140.718V140.118ZM9.85896 140.651H8.06057H9.85896ZM9.85896 140.651V138.32V140.651ZM7.79414 139.519H7.59432H7.79414ZM7.79414 140.118H7.59432H7.79414ZM7.66093 139.519H7.52771H7.66093ZM7.66093 140.118H7.52771H7.66093ZM7.66093 140.118V139.519V140.118ZM7.52771 140.118V139.519V140.118ZM7.92736 140.118V139.519V140.118ZM7.79414 140.118V139.519V140.118ZM7.66093 138.386H7.52771H7.66093ZM7.52771 138.919V138.32V138.919ZM7.52771 138.919H7.66093H7.52771ZM7.79414 138.386H7.59432H7.79414ZM7.66093 138.919V138.32V138.919ZM7.66093 138.919H7.86075H7.66093ZM7.92736 138.386H7.79414H7.92736ZM7.79414 138.919V138.32V138.919ZM7.92736 138.919V138.32V138.919ZM8.12718 90.8291H7.99396H8.12718ZM9.85896 88.4978H7.92736H9.85896ZM8.12718 89.6301H7.99396H8.12718ZM8.12718 90.2296H7.99396H8.12718ZM7.92736 89.0973H8.06057H7.92736ZM9.85896 90.8291H8.06057H9.85896ZM8.12718 89.0973V89.6967V89.0973ZM8.12718 90.2296V90.8291V90.2296ZM10.0588 88.4978H9.92557H10.0588ZM10.0588 90.8291H9.92557H10.0588ZM10.0588 88.4978V90.8291V88.4978ZM9.85896 90.8291V88.4978V90.8291ZM7.66093 89.6301H7.52771H7.66093ZM7.66093 90.2296H7.52771H7.66093ZM7.52771 90.2296V89.6301V90.2296ZM7.92736 90.2296V89.6301V90.2296ZM7.79414 89.6301H7.59432H7.79414ZM7.79414 90.2296H7.59432H7.79414ZM7.79414 90.2296V89.6301V90.2296ZM7.66093 90.2296V89.6301V90.2296ZM7.79414 88.4978H7.59432H7.79414ZM7.66093 89.0973H7.86075H7.66093ZM7.66093 88.4978H7.52771H7.66093ZM7.52771 89.0973V88.4978V89.0973ZM7.52771 89.0973H7.66093H7.52771ZM7.66093 89.0973V88.4978V89.0973ZM7.92736 88.4978H7.79414H7.92736ZM7.79414 89.0973V88.4978V89.0973ZM7.92736 89.0973V88.4978V89.0973ZM38.3002 148.045H38.3668H38.3002ZM38.3668 81.1044H38.3002H38.3668ZM7.86075 81.1044L7.92736 81.171L7.86075 81.1044ZM7.92736 81.171L7.86075 81.1044L7.92736 81.171ZM7.79414 81.1044L7.92736 81.171L7.79414 81.1044ZM7.79414 140.651V148.045V140.651ZM7.79414 115.74V138.386V115.74ZM7.79414 90.8291V113.475V90.8291ZM7.79414 81.1044V88.4978V81.1044ZM7.92736 147.978L7.86075 148.045L7.92736 147.978ZM7.92736 147.978H7.86075H7.92736ZM7.86075 148.045L7.92736 147.978L7.86075 148.045ZM38.167 81.171L38.2336 81.1044L38.167 81.171ZM38.2336 81.1044L38.167 81.171L38.2336 81.1044ZM38.2336 81.0378L38.167 81.171L38.2336 81.0378ZM7.86075 81.0378H38.2336H7.86075ZM7.92736 81.171V81.1044V81.171ZM38.2336 148.045L38.167 147.978L38.2336 148.045ZM7.86075 148.111L7.92736 147.978L7.86075 148.111ZM38.2336 148.111H7.86075H38.2336ZM38.3002 148.045L38.167 147.978L38.3002 148.045ZM38.3002 81.1044V148.045V81.1044ZM38.167 81.171H38.2336H38.167ZM38.167 147.978L38.2336 148.045L38.167 147.978ZM38.167 147.978V148.045V147.978ZM87.9224 88.7642V99.0883V88.7642ZM87.9224 99.0883H103.242H87.9224ZM103.309 99.0883V88.7642V99.0883ZM103.309 88.7642H87.989H103.309ZM102.176 90.4294H102.043H102.176ZM102.176 92.7607H102.043H102.176ZM102.176 91.6283H102.043H102.176ZM102.176 89.8966H102.043H102.176ZM102.176 92.1612H102.043H102.176ZM102.176 91.0289H102.043H102.176ZM102.176 96.2908H102.043H102.176ZM102.176 95.6914H102.043H102.176ZM102.176 98.0226H102.043H102.176ZM102.176 95.1585H102.043H102.176ZM102.176 96.8903H102.043H102.176ZM102.176 97.4232H102.043H102.176ZM89.1213 89.8966H88.9881H89.1213ZM89.1213 97.4232H88.9881H89.1213ZM89.1213 92.7607H88.9881H89.1213ZM89.1213 90.4294H88.9881H89.1213ZM89.1213 95.6914H88.9881H89.1213ZM89.1213 91.6283H88.9881H89.1213ZM89.1213 91.0289H88.9881H89.1213ZM89.1213 92.1612H88.9881H89.1213ZM89.1213 98.0226H88.9881H89.1213ZM89.1213 95.1585H88.9881H89.1213ZM89.1213 96.2908H88.9881H89.1213ZM89.1213 96.8903H88.9881H89.1213ZM92.9846 96.8903H92.8513H92.9846ZM92.9846 97.4232H92.8513H92.9846ZM92.9846 90.4294H92.8513H92.9846ZM92.9846 92.1612H92.8513H92.9846ZM92.9846 96.2908H92.8513H92.9846ZM92.9846 91.6283H92.8513H92.9846ZM92.9846 89.8966H92.8513H92.9846ZM92.9846 95.6914H92.8513H92.9846ZM92.9846 92.7607H92.8513H92.9846ZM92.9846 95.1585H92.8513H92.9846ZM92.9846 91.0289H92.8513H92.9846ZM92.9846 98.0226H92.8513H92.9846ZM98.3131 97.4232H98.1799H98.3131ZM98.3131 95.6914H98.1799H98.3131ZM98.3131 96.2908H98.1799H98.3131ZM98.3131 98.0226H98.1799H98.3131ZM98.3131 96.8903H98.1799H98.3131ZM98.3131 95.1585H98.1799H98.3131ZM98.3131 92.1612H98.1799H98.3131ZM98.3131 90.4294H98.1799H98.3131ZM98.3131 92.7607H98.1799H98.3131ZM98.3131 89.8966H98.1799H98.3131ZM98.3131 91.0289H98.1799H98.3131ZM98.3131 91.6283H98.1799H98.3131ZM92.5183 90.4294H89.4544H92.5183ZM92.5183 89.8966H89.4544H92.5183ZM92.5183 91.0289H89.4544H92.5183ZM92.5183 97.4232H89.4544H92.5183ZM92.5183 96.8903H89.4544H92.5183ZM92.5183 95.1585H89.4544H92.5183ZM92.5183 92.1612H89.4544H92.5183ZM92.5183 98.0226H89.4544H92.5183ZM92.5183 96.2908H89.4544H92.5183ZM92.5183 92.7607H89.4544H92.5183ZM92.5183 95.6914H89.4544H92.5183ZM92.5183 91.6283H89.4544H92.5183ZM101.777 89.8966H98.7128H101.777ZM101.777 92.7607H98.7128H101.777ZM101.777 92.1612H98.7128H101.777ZM101.777 91.0289H98.7128H101.777ZM101.777 91.6283H98.7128H101.777ZM101.777 90.4294H98.7128H101.777ZM101.777 96.2908H98.7128H101.777ZM101.777 96.8903H98.7128H101.777ZM101.777 98.0226H98.7128H101.777ZM101.777 95.1585H98.7128H101.777ZM101.777 97.4232H98.7128H101.777ZM101.777 95.6914H98.7128H101.777ZM89.4544 91.0289H89.1213H89.4544ZM89.4544 90.4294H89.1213H89.4544ZM89.4544 92.7607H89.1213H89.4544ZM89.4544 91.6283H89.1213H89.4544ZM89.4544 89.8966H89.1213H89.4544ZM89.4544 96.8903H89.1213H89.4544ZM89.4544 95.1585H89.1213H89.4544ZM89.4544 92.1612H89.1213H89.4544ZM89.4544 97.4232H89.1213H89.4544ZM89.4544 96.2908H89.1213H89.4544ZM89.4544 98.0226H89.1213H89.4544ZM89.4544 95.6914H89.1213H89.4544ZM98.7128 91.6283H98.3797H98.7128ZM98.7128 92.1612H98.3797H98.7128ZM98.7128 92.7607H98.3797H98.7128ZM98.7128 90.4294H98.3797H98.7128ZM98.7128 91.0289H98.3797H98.7128ZM98.7128 89.8966H98.3797H98.7128ZM98.7128 95.6914H98.3797H98.7128ZM98.7128 98.0226H98.3797H98.7128ZM98.7128 95.1585H98.3797H98.7128ZM98.7128 96.8903H98.3797H98.7128ZM98.7128 97.4232H98.3797H98.7128ZM98.7128 96.2908H98.3797H98.7128ZM92.8513 91.0289H92.5183H92.8513ZM92.8513 90.4294H92.5183H92.8513ZM92.8513 89.8966H92.5183H92.8513ZM92.8513 91.6283H92.5183H92.8513ZM92.8513 95.1585H92.5183H92.8513ZM92.8513 96.2908H92.5183H92.8513ZM92.8513 95.6914H92.5183H92.8513ZM92.8513 96.8903H92.5183H92.8513ZM92.8513 98.0226H92.5183H92.8513ZM92.8513 97.4232H92.5183H92.8513ZM92.8513 92.7607H92.5183H92.8513ZM92.8513 92.1612H92.5183H92.8513ZM102.11 92.1612H101.777H102.11ZM102.11 91.0289H101.777H102.11ZM102.11 91.6283H101.777H102.11ZM102.11 89.8966H101.777H102.11ZM102.11 90.4294H101.777H102.11ZM102.11 92.7607H101.777H102.11ZM102.11 96.2908H101.777H102.11ZM102.11 95.1585H101.777H102.11ZM102.11 95.6914H101.777H102.11ZM102.11 96.8903H101.777H102.11ZM102.11 97.4232H101.777H102.11ZM102.11 98.0226H101.777H102.11ZM121.825 88.7642C121.825 88.6976 121.759 88.5644 121.692 88.4978L121.825 88.7642ZM121.825 91.1621H121.692H121.825ZM121.825 91.1621V91.0955V91.1621ZM121.825 97.0235H121.692H121.825ZM121.825 97.0235C121.825 96.8903 121.759 96.7571 121.692 96.6905L121.825 97.0235ZM121.825 94.6923H121.692H121.825ZM121.825 94.6923C121.825 94.5591 121.759 94.4258 121.692 94.3592L121.825 94.6923ZM121.825 95.2917H121.692H121.825ZM121.825 95.2917C121.825 95.1585 121.759 95.0253 121.692 94.9587L121.825 95.2917ZM121.825 91.7616H121.692H121.825ZM121.825 91.7616C121.825 91.6283 121.759 91.4951 121.692 91.4285L121.825 91.7616ZM121.825 96.4241H121.692H121.825ZM121.825 96.4241C121.825 96.2908 121.759 96.1576 121.692 96.091L121.825 96.4241ZM121.825 94.1594H121.692H121.825ZM121.825 94.1594C121.825 94.0262 121.759 93.893 121.692 93.8264L121.825 94.1594ZM121.825 95.8912H121.692H121.825ZM121.825 95.8912C121.825 95.758 121.759 95.6248 121.692 95.5582L121.825 95.8912ZM121.692 91.2953C121.692 91.3619 121.692 91.3619 121.759 91.4285L121.692 91.2953ZM121.692 88.4312C121.692 88.4978 121.692 88.4978 121.759 88.5644L121.692 88.4312ZM121.692 95.9578C121.692 96.0244 121.692 96.0244 121.759 96.091L121.692 95.9578ZM121.692 93.6932C121.692 93.7598 121.692 93.7598 121.759 93.8264L121.692 93.6932ZM121.692 96.5573C121.692 96.6239 121.692 96.6239 121.759 96.6905L121.692 96.5573ZM121.692 94.2926C121.692 94.3592 121.692 94.3592 121.759 94.4258L121.692 94.2926ZM121.692 94.8255C121.692 94.8921 121.692 94.8921 121.759 94.9587L121.692 94.8255ZM121.692 95.4249C121.692 95.4916 121.692 95.4916 121.759 95.5582L121.692 95.4249ZM121.692 91.0955V98.0892V91.0955ZM121.692 87.7651V88.8309V87.7651ZM121.825 110.078H121.692H121.825ZM121.825 110.078C121.825 109.945 121.759 109.812 121.692 109.745L121.825 110.078ZM121.825 110.678H121.692H121.825ZM121.825 110.678C121.825 110.545 121.759 110.412 121.692 110.345L121.825 110.678ZM121.825 111.211H121.692H121.825ZM121.825 111.211C121.825 111.078 121.759 110.944 121.692 110.878L121.825 111.211ZM121.825 112.41H121.692H121.825ZM121.825 112.41C121.825 112.277 121.759 112.143 121.692 112.077L121.825 112.41ZM121.825 111.81H121.692H121.825ZM121.825 111.81C121.825 111.677 121.759 111.544 121.692 111.477L121.825 111.81ZM121.825 117.072H121.692H121.825ZM121.825 117.072C121.825 116.939 121.759 116.806 121.692 116.739L121.825 117.072ZM121.825 118.205H121.692H121.825ZM121.825 118.205C121.825 118.071 121.759 117.938 121.692 117.872L121.825 118.205ZM121.825 115.94H121.692H121.825ZM121.825 115.94C121.825 115.807 121.759 115.673 121.692 115.607L121.825 115.94ZM121.825 115.34H121.692H121.825ZM121.825 115.34C121.825 115.207 121.759 115.074 121.692 115.007L121.825 115.34ZM121.825 117.672H121.692H121.825ZM121.825 117.672C121.825 117.538 121.759 117.405 121.692 117.339L121.825 117.672ZM121.825 116.473H121.692H121.825ZM121.825 116.473C121.825 116.34 121.759 116.206 121.692 116.14L121.825 116.473ZM121.825 112.943H121.692H121.825ZM121.825 112.943C121.825 112.809 121.759 112.676 121.692 112.61L121.825 112.943ZM121.692 110.212C121.692 110.278 121.692 110.278 121.759 110.345L121.692 110.212ZM121.692 111.943C121.692 112.01 121.692 112.01 121.759 112.077L121.692 111.943ZM121.692 111.344C121.692 111.411 121.692 111.411 121.759 111.477L121.692 111.344ZM121.692 109.612C121.692 109.679 121.692 109.679 121.759 109.745L121.692 109.612ZM121.692 112.476C121.692 112.543 121.692 112.543 121.759 112.61L121.692 112.476ZM121.692 110.811C121.692 110.878 121.692 110.878 121.759 110.944L121.692 110.811ZM121.692 114.874C121.692 114.941 121.692 114.941 121.759 115.007L121.692 114.874ZM121.692 115.474C121.692 115.54 121.692 115.54 121.759 115.607L121.692 115.474ZM121.692 116.606C121.692 116.673 121.692 116.673 121.759 116.739L121.692 116.606ZM121.692 116.007C121.692 116.073 121.692 116.073 121.759 116.14L121.692 116.007ZM121.692 117.205C121.692 117.272 121.692 117.272 121.759 117.339L121.692 117.205ZM121.692 117.738C121.692 117.805 121.692 117.805 121.759 117.872L121.692 117.738ZM121.692 108.946V119.27V108.946ZM121.825 131.26H121.692H121.825ZM121.825 131.26C121.825 131.126 121.759 130.993 121.692 130.927L121.825 131.26ZM121.825 133.591H121.692H121.825ZM121.825 133.591C121.825 133.458 121.759 133.324 121.692 133.258L121.825 133.591ZM121.825 131.859H121.692H121.825ZM121.825 131.859C121.825 131.726 121.759 131.593 121.692 131.526L121.825 131.859ZM121.825 132.458H121.692H121.825ZM121.825 132.458C121.825 132.325 121.759 132.192 121.692 132.125L121.825 132.458ZM121.825 132.991H121.692H121.825ZM121.825 132.991C121.825 132.858 121.759 132.725 121.692 132.658L121.825 132.991ZM121.825 134.124H121.692H121.825ZM121.825 134.124C121.825 133.99 121.759 133.857 121.692 133.791L121.825 134.124ZM121.825 136.521H121.692H121.825ZM121.825 136.521C121.825 136.388 121.759 136.255 121.692 136.188L121.825 136.521ZM121.825 137.121H121.692H121.825ZM121.825 137.121C121.825 136.988 121.759 136.855 121.692 136.788L121.825 137.121ZM121.692 133.125C121.692 133.191 121.692 133.191 121.759 133.258L121.692 133.125ZM121.692 131.992C121.692 132.059 121.692 132.059 121.759 132.125L121.692 131.992ZM121.692 132.525C121.692 132.592 121.692 132.592 121.759 132.658L121.692 132.525ZM121.692 131.393C121.692 131.459 121.692 131.459 121.759 131.526L121.692 131.393ZM121.692 130.793C121.692 130.86 121.692 130.86 121.759 130.927L121.692 130.793ZM121.692 133.724C121.692 133.791 121.692 133.791 121.759 133.857L121.692 133.724ZM121.692 136.055C121.692 136.122 121.692 136.122 121.759 136.188L121.692 136.055ZM121.692 136.655C121.692 136.721 121.692 136.721 121.759 136.788L121.692 136.655ZM121.692 139.452V140.518V139.452ZM121.692 130.127V137.121V130.127ZM87.9224 130.061V140.385V130.061ZM87.9224 140.451H103.242H87.9224ZM103.309 140.451V130.061V140.451ZM103.309 130.061H87.989H103.309ZM102.176 133.524H102.043H102.176ZM102.176 131.26H102.043H102.176ZM102.176 132.991H102.043H102.176ZM102.176 131.792H102.043H102.176ZM102.176 134.124H102.043H102.176ZM102.176 132.392H102.043H102.176ZM102.176 138.253H102.043H102.176ZM102.176 138.786H102.043H102.176ZM102.176 137.654H102.043H102.176ZM102.176 137.054H102.043H102.176ZM102.176 139.386H102.043H102.176ZM102.176 136.521H102.043H102.176ZM89.1213 131.26H88.9881H89.1213ZM89.1213 137.654H88.9881H89.1213ZM89.1213 136.521H88.9881H89.1213ZM89.1213 133.524H88.9881H89.1213ZM89.1213 131.792H88.9881H89.1213ZM89.1213 137.054H88.9881H89.1213ZM89.1213 132.392H88.9881H89.1213ZM89.1213 132.991H88.9881H89.1213ZM89.1213 134.124H88.9881H89.1213ZM89.1213 139.386H88.9881H89.1213ZM89.1213 138.786H88.9881H89.1213ZM89.1213 138.253H88.9881H89.1213ZM92.9846 133.524H92.8513H92.9846ZM92.9846 131.26H92.8513H92.9846ZM92.9846 137.654H92.8513H92.9846ZM92.9846 132.392H92.8513H92.9846ZM92.9846 138.786H92.8513H92.9846ZM92.9846 139.386H92.8513H92.9846ZM92.9846 136.521H92.8513H92.9846ZM92.9846 138.253H92.8513H92.9846ZM92.9846 131.792H92.8513H92.9846ZM92.9846 137.054H92.8513H92.9846ZM92.9846 132.991H92.8513H92.9846ZM92.9846 134.124H92.8513H92.9846ZM98.3131 137.054H98.1799H98.3131ZM98.3131 136.521H98.1799H98.3131ZM98.3131 139.386H98.1799H98.3131ZM98.3131 137.654H98.1799H98.3131ZM98.3131 138.253H98.1799H98.3131ZM98.3131 138.786H98.1799H98.3131ZM98.3131 132.392H98.1799H98.3131ZM98.3131 131.26H98.1799H98.3131ZM98.3131 131.792H98.1799H98.3131ZM98.3131 134.124H98.1799H98.3131ZM98.3131 133.524H98.1799H98.3131ZM98.3131 132.991H98.1799H98.3131ZM92.5183 131.792H89.4544H92.5183ZM92.5183 131.26H89.4544H92.5183ZM92.5183 139.386H89.4544H92.5183ZM92.5183 132.392H89.4544H92.5183ZM92.5183 138.253H89.4544H92.5183ZM92.5183 133.524H89.4544H92.5183ZM92.5183 137.654H89.4544H92.5183ZM92.5183 132.991H89.4544H92.5183ZM92.5183 134.124H89.4544H92.5183ZM92.5183 138.786H89.4544H92.5183ZM92.5183 136.521H89.4544H92.5183ZM92.5183 137.054H89.4544H92.5183ZM101.777 134.124H98.7128H101.777ZM101.777 133.524H98.7128H101.777ZM101.777 131.26H98.7128H101.777ZM101.777 132.991H98.7128H101.777ZM101.777 131.792H98.7128H101.777ZM101.777 132.392H98.7128H101.777ZM101.777 136.521H98.7128H101.777ZM101.777 137.654H98.7128H101.777ZM101.777 139.386H98.7128H101.777ZM101.777 137.054H98.7128H101.777ZM101.777 138.786H98.7128H101.777ZM101.777 138.253H98.7128H101.777ZM89.4544 131.792H89.1213H89.4544ZM89.4544 136.521H89.1213H89.4544ZM89.4544 133.524H89.1213H89.4544ZM89.4544 134.124H89.1213H89.4544ZM89.4544 138.253H89.1213H89.4544ZM89.4544 131.26H89.1213H89.4544ZM89.4544 137.054H89.1213H89.4544ZM89.4544 132.991H89.1213H89.4544ZM89.4544 139.386H89.1213H89.4544ZM89.4544 132.392H89.1213H89.4544ZM89.4544 137.654H89.1213H89.4544ZM89.4544 138.786H89.1213H89.4544ZM98.7128 132.991H98.3797H98.7128ZM98.7128 131.792H98.3797H98.7128ZM98.7128 133.524H98.3797H98.7128ZM98.7128 132.392H98.3797H98.7128ZM98.7128 131.26H98.3797H98.7128ZM98.7128 134.124H98.3797H98.7128ZM98.7128 137.654H98.3797H98.7128ZM98.7128 139.386H98.3797H98.7128ZM98.7128 137.054H98.3797H98.7128ZM98.7128 136.521H98.3797H98.7128ZM98.7128 138.786H98.3797H98.7128ZM98.7128 138.253H98.3797H98.7128ZM92.8513 131.792H92.5183H92.8513ZM92.8513 132.991H92.5183H92.8513ZM92.8513 131.26H92.5183H92.8513ZM92.8513 132.392H92.5183H92.8513ZM92.8513 136.521H92.5183H92.8513ZM92.8513 133.524H92.5183H92.8513ZM92.8513 134.124H92.5183H92.8513ZM92.8513 137.054H92.5183H92.8513ZM92.8513 138.253H92.5183H92.8513ZM92.8513 138.786H92.5183H92.8513ZM92.8513 137.654H92.5183H92.8513ZM92.8513 139.386H92.5183H92.8513ZM102.11 132.392H101.777H102.11ZM102.11 131.26H101.777H102.11ZM102.11 134.124H101.777H102.11ZM102.11 132.991H101.777H102.11ZM102.11 131.792H101.777H102.11ZM102.11 133.524H101.777H102.11ZM102.11 136.521H101.777H102.11ZM102.11 139.386H101.777H102.11ZM102.11 137.654H101.777H102.11ZM102.11 137.054H101.777H102.11ZM102.11 138.786H101.777H102.11ZM102.11 138.253H101.777H102.11ZM121.825 118.205C121.825 118.071 121.759 117.938 121.692 117.872L121.825 118.205ZM121.825 117.605C121.825 117.472 121.759 117.339 121.692 117.272L121.825 117.605ZM121.825 115.873C121.825 115.74 121.759 115.607 121.692 115.54L121.825 115.873ZM121.825 117.006C121.825 116.872 121.759 116.739 121.692 116.673L121.825 117.006ZM121.825 116.473C121.825 116.34 121.759 116.206 121.692 116.14L121.825 116.473ZM121.825 111.744C121.825 111.61 121.759 111.477 121.692 111.411L121.825 111.744ZM121.825 111.211C121.825 111.078 121.759 110.944 121.692 110.878L121.825 111.211ZM121.825 115.274C121.825 115.141 121.759 115.007 121.692 114.941L121.825 115.274ZM121.825 110.611C121.825 110.478 121.759 110.345 121.692 110.278L121.825 110.611ZM121.825 112.343C121.825 112.21 121.759 112.077 121.692 112.01L121.825 112.343ZM121.825 112.943C121.825 112.809 121.759 112.676 121.692 112.61L121.825 112.943ZM121.825 110.012C121.825 109.879 121.759 109.745 121.692 109.679L121.825 110.012ZM121.692 117.139C121.692 117.205 121.692 117.205 121.759 117.272L121.692 117.139ZM121.692 117.738C121.692 117.805 121.692 117.805 121.759 117.872L121.692 117.738ZM121.692 116.539C121.692 116.606 121.692 116.606 121.759 116.673L121.692 116.539ZM121.692 114.874C121.692 114.941 121.692 114.941 121.759 115.007L121.692 114.874ZM121.692 115.407C121.692 115.474 121.692 115.474 121.759 115.54L121.692 115.407ZM121.692 116.007C121.692 116.073 121.692 116.073 121.759 116.14L121.692 116.007ZM121.692 111.344C121.692 111.411 121.692 111.411 121.759 111.477L121.692 111.344ZM121.692 112.476C121.692 112.543 121.692 112.543 121.759 112.61L121.692 112.476ZM121.692 111.877C121.692 111.943 121.692 111.943 121.759 112.01L121.692 111.877ZM121.692 110.145C121.692 110.212 121.692 110.212 121.759 110.278L121.692 110.145ZM121.692 110.745C121.692 110.811 121.692 110.811 121.759 110.878L121.692 110.745ZM121.692 109.612C121.692 109.679 121.692 109.679 121.759 109.745L121.692 109.612ZM78.4642 81.1044L78.5308 81.171L78.4642 81.1044ZM78.5308 81.171L78.4642 81.1044L78.5308 81.171ZM78.5308 147.978L78.4642 148.045L78.5308 147.978ZM78.3976 81.1044L78.4642 81.171H78.5308L78.3976 81.1044ZM78.3976 148.045V81.1044V148.045ZM78.5308 147.978H78.4642H78.5308ZM78.4642 148.045L78.5308 147.978L78.4642 148.045ZM112.7 81.171L112.767 81.1044L112.7 81.171ZM112.767 81.1044L112.7 81.171L112.767 81.1044ZM112.767 81.0378L112.7 81.171L112.767 81.0378ZM112.767 81.0378H78.3976H112.767ZM78.5308 81.171V81.1044V81.171ZM112.767 148.045L112.7 147.978L112.767 148.045ZM78.4642 148.111L78.5308 147.978L78.4642 148.111ZM112.767 148.111H78.3976H112.767ZM112.7 147.978L112.767 148.045L112.7 147.978ZM112.7 147.978V148.045V147.978ZM112.833 148.045L112.7 147.978L112.833 148.045ZM112.833 140.651V148.045V140.651ZM112.833 115.74V138.386V115.74ZM112.833 90.8291V113.475V90.8291ZM112.833 81.1044V88.4978V81.1044ZM112.7 81.171H112.767H112.7ZM113.3 140.651H113.166H113.3ZM114.099 138.386H113.966H114.099ZM114.099 140.651H113.966H114.099ZM114.099 138.386V140.718V138.386ZM113.899 138.386H113.1H113.899ZM113.166 138.919H113.3H113.166ZM113.3 139.519H113.166H113.3ZM113.3 140.118H113.166H113.3ZM113.899 140.651H113.3H113.899ZM113.3 138.919V139.519V138.919ZM113.3 140.118V140.718V140.118ZM113.899 140.651V138.32V140.651ZM112.833 140.118H112.7H112.833ZM112.833 139.519H112.7H112.833ZM112.7 140.118V139.519V140.118ZM112.833 138.386H112.7H112.833ZM112.7 138.919V138.32V138.919ZM112.7 138.919H112.833H112.7ZM113.1 140.118V139.519V140.118ZM113.033 138.386H112.833H113.033ZM112.833 138.919V138.32V138.919ZM112.833 138.919H113.033H112.833ZM113.033 140.118H112.833H113.033ZM113.033 140.118V139.519V140.118ZM113.033 139.519H112.833H113.033ZM112.833 140.118V139.519V140.118ZM113.1 138.386H112.967H113.1ZM113.033 138.919V138.32V138.919ZM113.1 138.919V138.32V138.919ZM7.3945 113.409H7.52771H7.3945ZM6.59521 115.74H6.72843H6.59521ZM6.59521 113.409H6.72843H6.59521ZM6.59521 115.74V113.409V115.74ZM7.3945 114.608H7.52771H7.3945ZM6.72843 115.74H7.52771H6.72843ZM7.52771 115.141H7.3945H7.52771ZM7.3945 114.008H7.52771H7.3945ZM7.3945 115.141V114.541V115.141ZM7.3945 114.008V113.409V114.008ZM6.72843 113.409H7.32789H6.72843ZM6.72843 113.409V115.74V113.409ZM7.52771 114.008V114.608V114.008ZM7.66093 114.608H7.86075H7.66093ZM7.66093 114.008H7.86075H7.66093ZM7.66093 114.008V114.608V114.008ZM7.86075 114.608H7.99396H7.86075ZM7.86075 114.008H7.99396H7.86075ZM7.86075 114.008V114.608V114.008ZM7.92736 114.008V114.608V114.008ZM7.66093 115.74H7.86075H7.66093ZM7.86075 115.141H7.66093H7.86075ZM7.52771 115.74H7.66093H7.52771ZM7.66093 115.141V115.74V115.141ZM7.52771 115.141V115.74V115.141ZM7.86075 115.74H7.99396H7.86075ZM7.92736 115.141V115.74V115.141ZM7.92736 115.141H7.79414H7.92736ZM7.86075 115.141V115.74V115.141ZM7.3945 88.4978H7.52771H7.3945ZM6.59521 90.8291H6.72843H6.59521ZM6.59521 88.4978H6.72843H6.59521ZM6.59521 90.8291V88.4978V90.8291ZM7.52771 90.2296H7.3945H7.52771ZM7.3945 89.6301H7.52771H7.3945ZM7.3945 89.0973H7.52771H7.3945ZM6.72843 90.8291H7.52771H6.72843ZM7.3945 90.2296V89.6301V90.2296ZM7.3945 89.0973V88.4978V89.0973ZM6.72843 88.4978H7.32789H6.72843ZM6.72843 88.4978V90.8291V88.4978ZM7.92736 90.2296H7.79414H7.92736ZM7.86075 90.8291H7.99396H7.86075ZM7.92736 90.2296V90.8291V90.2296ZM7.52771 90.8291H7.66093H7.52771ZM7.52771 90.2296V90.8291V90.2296ZM7.86075 90.2296H7.66093H7.86075ZM7.66093 90.8291H7.86075H7.66093ZM7.86075 90.2296V90.8291V90.2296ZM7.66093 90.2296V90.8291V90.2296ZM7.86075 89.0973H7.99396H7.86075ZM7.86075 89.6301H7.99396H7.86075ZM7.92736 89.0973V89.6967V89.0973ZM7.66093 89.0973H7.86075H7.66093ZM7.66093 89.6301H7.86075H7.66093ZM7.86075 89.0973V89.6967V89.0973ZM7.52771 89.0973V89.6967V89.0973ZM7.66093 89.0973V89.6967V89.0973ZM7.3945 138.386H7.52771H7.3945ZM6.59521 140.651H6.72843H6.59521ZM6.59521 138.386H6.72843H6.59521ZM6.59521 140.651V138.32V140.651ZM7.3945 139.519H7.52771H7.3945ZM7.52771 140.118H7.3945H7.52771ZM6.72843 140.651H7.52771H6.72843ZM7.3945 138.919H7.52771H7.3945ZM7.3945 140.118V139.519V140.118ZM7.3945 138.919V138.32V138.919ZM6.72843 138.386H7.32789H6.72843ZM6.72843 138.386V140.718V138.386ZM7.86075 140.118H7.66093H7.86075ZM7.66093 140.651H7.86075H7.66093ZM7.52771 138.919V139.519V138.919ZM7.92736 140.118H7.79414H7.92736ZM7.86075 140.651H7.99396H7.86075ZM7.92736 140.118V140.718V140.118ZM7.86075 140.118V140.718V140.118ZM7.52771 140.651H7.66093H7.52771ZM7.66093 140.118V140.718V140.118ZM7.52771 140.118V140.718V140.118ZM7.86075 139.519H7.99396H7.86075ZM7.86075 138.919H7.99396H7.86075ZM7.92736 138.919V139.519V138.919ZM7.66093 138.919H7.86075H7.66093ZM7.66093 138.919V139.519V138.919ZM7.66093 139.519H7.86075H7.66093ZM7.86075 138.919V139.519V138.919ZM69.2724 140.651H69.1392H69.2724ZM70.0051 138.386H69.8719H70.0051ZM70.0051 140.651H69.8719H70.0051ZM70.0051 138.386V140.718V138.386ZM69.8719 138.386H69.0726H69.8719ZM69.2724 139.519H69.1392H69.2724ZM69.0726 138.919H69.2058H69.0726ZM69.2724 140.118H69.1392H69.2724ZM69.2724 138.919V139.519V138.919ZM69.2724 140.118V140.718V140.118ZM69.8719 140.651H69.2724H69.8719ZM69.8719 140.651V138.32V140.651ZM69.0726 140.118V139.519V140.118ZM68.9394 139.519H68.7396H68.9394ZM68.9394 140.118H68.7396H68.9394ZM68.9394 140.118V139.519V140.118ZM68.8062 138.386H68.673H68.8062ZM68.673 138.919H68.8062H68.673ZM68.673 138.919V138.32V138.919ZM68.9394 138.386H68.7396H68.9394ZM68.8062 138.919V138.32V138.919ZM68.8062 138.919H69.006H68.8062ZM68.8062 139.519H68.673H68.8062ZM68.8062 140.118H68.673H68.8062ZM68.8062 140.118V139.519V140.118ZM68.673 140.118V139.519V140.118ZM69.0726 138.386H68.9394H69.0726ZM68.9394 138.919V138.32V138.919ZM69.0726 138.919V138.32V138.919ZM113.3 90.8291H113.166H113.3ZM113.899 88.4978H113.1H113.899ZM113.166 89.0973H113.3H113.166ZM113.3 90.2296H113.166H113.3ZM113.3 89.6301H113.166H113.3ZM113.899 90.8291H113.3H113.899ZM113.3 89.0973V89.6967V89.0973ZM113.3 90.2296V90.8291V90.2296ZM114.099 88.4978H113.966H114.099ZM114.099 90.8291H113.966H114.099ZM114.099 88.4978V90.8291V88.4978ZM113.899 90.8291V88.4978V90.8291ZM113.033 88.4978H112.833H113.033ZM112.833 89.0973H113.033H112.833ZM113.1 90.2296V89.6301V90.2296ZM113.033 90.2296H112.833H113.033ZM113.033 89.6301H112.833H113.033ZM113.033 90.2296V89.6301V90.2296ZM112.833 90.2296H112.7H112.833ZM112.833 90.2296V89.6301V90.2296ZM112.833 89.6301H112.7H112.833ZM112.7 90.2296V89.6301V90.2296ZM112.833 88.4978H112.7H112.833ZM112.7 89.0973H112.833H112.7ZM112.7 89.0973V88.4978V89.0973ZM112.833 89.0973V88.4978V89.0973ZM113.1 88.4978H112.967H113.1ZM113.033 89.0973V88.4978V89.0973ZM113.1 89.0973V88.4978V89.0973ZM113.899 113.409H113.1H113.899ZM113.899 115.74H113.3H113.899ZM113.3 114.008V114.608V114.008ZM113.3 115.141V115.74V115.141ZM114.099 113.409H113.966H114.099ZM114.099 115.74H113.966H114.099ZM114.099 113.409V115.74V113.409ZM113.899 115.74V113.409V115.74ZM113.033 113.409H112.833H113.033ZM112.833 114.008H113.033H112.833ZM112.833 113.409H112.7H112.833ZM112.7 114.008H112.833H112.7ZM112.7 114.008V113.409V114.008ZM112.833 114.008V113.409V114.008ZM113.033 115.141H112.833H113.033ZM113.033 114.608H112.833H113.033ZM113.1 115.141V114.541V115.141ZM113.033 115.141V114.541V115.141ZM112.833 115.141H112.7H112.833ZM112.833 115.141V114.541V115.141ZM112.833 114.608H112.7H112.833ZM112.7 115.141V114.541V115.141ZM113.1 113.409H112.967H113.1ZM113.033 114.008V113.409V114.008ZM113.1 114.008V113.409V114.008ZM113.166 115.74H113.3H113.166ZM114.099 113.409H113.966H114.099ZM114.099 115.74H113.966H114.099ZM114.099 113.409V115.74V113.409ZM113.899 113.409H113.1H113.899ZM113.166 114.608H113.3H113.166ZM113.166 115.141H113.3H113.166ZM113.3 114.008H113.166H113.3ZM113.899 115.74H113.3H113.899ZM113.3 114.008V114.608V114.008ZM113.3 115.141V115.74V115.141ZM113.899 115.74V113.409V115.74ZM112.833 114.608H112.7H112.833ZM112.833 115.141H112.7H112.833ZM112.7 115.141V114.541V115.141ZM113.1 115.141V114.541V115.141ZM113.1 113.409H112.967H113.1ZM113.1 114.008V113.409V114.008ZM112.833 113.409H112.7H112.833ZM112.7 114.008V113.409V114.008ZM112.7 114.008H112.833H112.7ZM113.033 114.608H112.833H113.033ZM113.033 115.141H112.833H113.033ZM113.033 115.141V114.541V115.141ZM112.833 115.141V114.541V115.141ZM113.033 113.409H112.833H113.033ZM112.833 114.008V113.409V114.008ZM112.833 114.008H113.033H112.833ZM113.033 114.008V113.409V114.008ZM69.2724 115.74H69.1392H69.2724ZM69.8719 113.409H69.0726H69.8719ZM69.2724 115.141H69.1392H69.2724ZM69.2724 114.608H69.1392H69.2724ZM69.0726 114.008H69.2058H69.0726ZM69.8719 115.74H69.2724H69.8719ZM69.2724 114.008V114.608V114.008ZM69.2724 115.141V115.74V115.141ZM70.0051 113.409H69.8719H70.0051ZM70.0051 115.74H69.8719H70.0051ZM70.0051 113.409V115.74V113.409ZM69.8719 115.74V113.409V115.74ZM68.9394 115.141H68.7396H68.9394ZM68.9394 114.608H68.7396H68.9394ZM69.0726 115.141V114.541V115.141ZM68.9394 115.141V114.541V115.141ZM68.8062 115.141H68.673H68.8062ZM68.8062 115.141V114.541V115.141ZM68.8062 114.608H68.673H68.8062ZM68.673 115.141V114.541V115.141ZM69.0726 113.409H68.9394H69.0726ZM69.0726 114.008V113.409V114.008ZM68.8062 113.409H68.673H68.8062ZM68.673 114.008V113.409V114.008ZM68.673 114.008H68.8062H68.673ZM68.9394 113.409H68.7396H68.9394ZM68.8062 114.008V113.409V114.008ZM68.8062 114.008H69.006H68.8062ZM68.9394 114.008V113.409V114.008ZM7.3945 113.409H7.52771H7.3945ZM6.59521 115.74H6.72843H6.59521ZM6.59521 113.409H6.72843H6.59521ZM6.59521 115.74V113.409V115.74ZM6.72843 115.74H7.52771H6.72843ZM7.3945 114.008H7.52771H7.3945ZM7.52771 115.141H7.3945H7.52771ZM7.3945 114.608H7.52771H7.3945ZM7.3945 115.141V114.541V115.141ZM7.3945 114.008V113.409V114.008ZM6.72843 113.409H7.32789H6.72843ZM6.72843 113.409V115.74V113.409ZM7.86075 114.008H7.99396H7.86075ZM7.86075 114.608H7.99396H7.86075ZM7.92736 114.008V114.608V114.008ZM7.66093 114.008H7.86075H7.66093ZM7.66093 114.608H7.86075H7.66093ZM7.86075 114.008V114.608V114.008ZM7.52771 114.008V114.608V114.008ZM7.66093 114.008V114.608V114.008ZM7.52771 115.74H7.66093H7.52771ZM7.52771 115.141V115.74V115.141ZM7.66093 115.74H7.86075H7.66093ZM7.86075 115.141H7.66093H7.86075ZM7.66093 115.141V115.74V115.141ZM7.86075 115.74H7.99396H7.86075ZM7.92736 115.141V115.74V115.141ZM7.92736 115.141H7.79414H7.92736ZM7.86075 115.141V115.74V115.141ZM69.2724 115.74H69.1392H69.2724ZM70.0051 113.409H69.8719H70.0051ZM70.0051 115.74H69.8719H70.0051ZM70.0051 113.409V115.74V113.409ZM69.8719 113.409H69.0726H69.8719ZM69.2724 114.608H69.1392H69.2724ZM69.0726 114.008H69.2058H69.0726ZM69.2724 115.141H69.1392H69.2724ZM69.2724 114.008V114.608V114.008ZM69.2724 115.141V115.74V115.141ZM69.8719 115.74H69.2724H69.8719ZM69.8719 115.74V113.409V115.74ZM68.9394 113.409H68.7396H68.9394ZM68.8062 114.008H69.006H68.8062ZM68.8062 113.409H68.673H68.8062ZM68.673 114.008H68.8062H68.673ZM68.673 114.008V113.409V114.008ZM68.8062 114.008V113.409V114.008ZM69.0726 113.409H68.9394H69.0726ZM68.9394 114.008V113.409V114.008ZM69.0726 114.008V113.409V114.008ZM68.9394 114.608H68.7396H68.9394ZM68.9394 115.141H68.7396H68.9394ZM68.8062 114.608H68.673H68.8062ZM68.8062 115.141H68.673H68.8062ZM68.8062 115.141V114.541V115.141ZM68.673 115.141V114.541V115.141ZM69.0726 115.141V114.541V115.141ZM68.9394 115.141V114.541V115.141ZM122.225 89.3637V89.9632V89.3637ZM122.092 89.3637V89.9632V89.3637ZM122.092 91.0955H122.225H122.092ZM122.225 90.496V91.0955V90.496ZM121.959 91.0955H122.092H121.959ZM122.092 90.496V91.0955V90.496ZM121.626 88.7642H121.759H121.626ZM121.626 91.0955H121.759H121.626ZM121.759 88.7642H121.892H121.759ZM121.759 91.0955V88.7642V91.0955ZM121.759 91.0955H121.892H121.759ZM121.959 88.7642V91.0955V88.7642ZM122.092 137.72V138.32V137.72ZM122.225 137.72V138.32V137.72ZM121.959 139.452H122.092H121.959ZM122.092 139.452H122.225H122.092ZM122.225 138.853V139.452V138.853ZM122.092 138.853V139.452V138.853ZM121.759 139.452H121.892H121.759ZM121.759 137.121H121.892H121.759ZM121.959 137.121V139.452V137.121ZM121.626 137.121H121.759H121.626ZM121.626 139.452H121.759H121.626ZM121.759 139.452V137.121V139.452ZM122.092 105.483V106.082V105.483ZM122.225 105.483V106.082V105.483ZM122.092 107.214H122.225H122.092ZM122.225 106.615V107.214V106.615ZM121.959 107.214H122.092H121.959ZM122.092 106.615V107.214V106.615ZM121.626 107.214H121.759H121.626ZM121.626 104.883H121.759H121.626ZM121.759 107.214H121.892H121.759ZM121.759 104.883H121.892H121.759ZM121.759 107.214V104.883V107.214ZM121.959 104.883V107.214V104.883ZM122.225 121.602V122.201V121.602ZM122.092 121.602V122.201V121.602ZM122.092 123.333H122.225H122.092ZM122.225 122.734V123.333V122.734ZM121.959 123.333H122.092H121.959ZM122.092 122.734V123.333V122.734ZM121.759 123.333H121.892H121.759ZM121.759 121.002H121.892H121.759ZM121.959 121.002V123.333V121.002ZM121.626 121.002H121.759H121.626ZM121.626 123.333H121.759H121.626ZM121.759 123.333V121.002V123.333ZM69.2724 90.8291H69.1392H69.2724ZM70.0051 88.4978H69.8719H70.0051ZM70.0051 90.8291H69.8719H70.0051ZM70.0051 88.4978V90.8291V88.4978ZM69.8719 88.4978H69.0726H69.8719ZM69.2724 90.2296H69.1392H69.2724ZM69.2724 89.6301H69.1392H69.2724ZM69.0726 89.0973H69.2058H69.0726ZM69.8719 90.8291H69.2724H69.8719ZM69.2724 89.0973V89.6967V89.0973ZM69.2724 90.2296V90.8291V90.2296ZM69.8719 90.8291V88.4978V90.8291ZM68.9394 88.4978H68.7396H68.9394ZM68.8062 89.0973H69.006H68.8062ZM69.0726 90.2296V89.6301V90.2296ZM68.9394 90.2296H68.7396H68.9394ZM68.9394 90.2296V89.6301V90.2296ZM68.9394 89.6301H68.7396H68.9394ZM69.0726 88.4978H68.9394H69.0726ZM68.9394 89.0973V88.4978V89.0973ZM69.0726 89.0973V88.4978V89.0973ZM68.8062 88.4978H68.673H68.8062ZM68.673 89.0973V88.4978V89.0973ZM68.673 89.0973H68.8062H68.673ZM68.8062 89.0973V88.4978V89.0973ZM68.8062 90.2296H68.673H68.8062ZM68.8062 90.2296V89.6301V90.2296ZM68.8062 89.6301H68.673H68.8062ZM68.673 90.2296V89.6301V90.2296ZM67.8071 10.5676V6.37133V10.5676ZM67.3408 6.37133V10.501V6.37133ZM41.9636 10.5676V6.37133V10.5676ZM41.4973 6.37133V10.501V6.37133ZM54.8853 10.5676V6.37133V10.5676ZM54.4191 6.37133V10.501V6.37133ZM66.1419 3.70705C66.3417 3.57384 66.3417 3.30741 66.2085 3.17419C66.2085 3.10759 66.1419 3.10759 66.0753 3.10759L66.1419 3.70705ZM69.1392 3.10759C68.9394 3.2408 68.8728 3.44062 69.006 3.64044C69.006 3.70705 69.0726 3.70705 69.0726 3.77366L69.1392 3.10759ZM66.0753 2.37491C66.2751 2.37491 66.4083 2.17509 66.4083 1.97527C66.4083 1.77545 66.2751 1.64223 66.0753 1.64223V2.37491ZM69.1392 1.64223C68.9394 1.64223 68.8062 1.84205 68.8062 2.04187C68.8062 2.24169 68.9394 2.37491 69.1392 2.37491V1.64223ZM69.2058 1.44241C69.0726 1.3092 68.9394 1.17598 68.8062 1.10938L69.2058 1.44241ZM66.4083 1.10938C66.2751 1.17598 66.1419 1.3092 66.0087 1.44241L66.4083 1.10938ZM69.1392 1.64223C69.2058 1.64223 69.2058 1.57562 69.2058 1.50902V1.44241L69.1392 1.64223ZM66.0087 1.44241C65.9421 1.50902 65.9421 1.57562 66.0087 1.57562H66.0753L66.0087 1.44241ZM66.0753 2.37491L65.276 2.50812L66.0753 2.37491ZM69.9385 2.50812L69.1392 2.37491L69.9385 2.50812ZM69.1392 3.10759L69.9385 2.97437L69.1392 3.10759ZM65.276 2.97437L66.0753 3.10759L65.276 2.97437ZM69.9385 2.97437C70.0051 2.97437 70.0717 2.90777 70.0717 2.77455L69.9385 2.97437ZM65.0762 2.77455C65.0762 2.84116 65.1428 2.97437 65.2094 2.97437L65.0762 2.77455ZM70.0717 2.70794C70.0717 2.64134 70.0051 2.50812 69.9385 2.50812L70.0717 2.70794ZM65.276 2.50812C65.2094 2.50812 65.1428 2.57473 65.1428 2.70794L65.276 2.50812ZM70.6712 6.37133V6.17151V6.37133ZM70.6712 6.17151C70.6046 5.1058 70.0051 4.1733 69.0726 3.70705L70.6712 6.17151ZM66.1419 3.70705C65.1428 4.23991 64.5433 5.30562 64.5433 6.37133L66.1419 3.70705ZM53.1535 3.70705C53.3534 3.57384 53.3534 3.30741 53.2201 3.17419C53.2201 3.10759 53.1535 3.10759 53.0869 3.10759L53.1535 3.70705ZM56.1509 3.10759C55.951 3.2408 55.8844 3.44062 56.0176 3.64044C56.0176 3.70705 56.0843 3.70705 56.0843 3.77366L56.1509 3.10759ZM53.1535 2.37491C53.3534 2.37491 53.4866 2.17509 53.4866 1.97527C53.4866 1.77545 53.3534 1.64223 53.1535 1.64223V2.37491ZM56.2175 1.64223C56.0176 1.64223 55.8844 1.84205 55.8844 2.04187C55.8844 2.24169 56.0176 2.37491 56.2175 2.37491V1.64223ZM56.2841 1.44241C56.1509 1.3092 56.0176 1.17598 55.8844 1.10938L56.2841 1.44241ZM53.4866 1.10938C53.3534 1.17598 53.2201 1.3092 53.0869 1.44241L53.4866 1.10938ZM56.2175 1.64223C56.2841 1.64223 56.2841 1.57562 56.2841 1.50902V1.44241L56.2175 1.64223ZM53.0869 1.44241C53.0203 1.50902 53.0203 1.57562 53.0869 1.57562H53.1535L53.0869 1.44241ZM53.1535 2.37491L52.3543 2.50812L53.1535 2.37491ZM57.0167 2.50812L56.2175 2.37491L57.0167 2.50812ZM56.1509 3.10759L56.9501 2.97437L56.1509 3.10759ZM52.3543 2.97437L53.1535 3.10759L52.3543 2.97437ZM57.15 2.70794C57.15 2.64134 57.0834 2.50812 57.0167 2.50812L57.15 2.70794ZM52.3543 2.50812C52.2876 2.50812 52.221 2.57473 52.221 2.70794L52.3543 2.50812ZM57.0167 2.97437C57.0834 2.97437 57.15 2.90777 57.15 2.77455L57.0167 2.97437ZM52.1544 2.77455C52.1544 2.84116 52.221 2.97437 52.2876 2.97437L52.1544 2.77455ZM57.7494 6.37133V6.17151V6.37133ZM57.7494 6.17151C57.6828 5.1058 57.0834 4.1733 56.1509 3.70705L57.7494 6.17151ZM53.1535 3.70705C52.1544 4.23991 51.555 5.30562 51.555 6.37133L53.1535 3.70705ZM40.2318 3.70705C40.4316 3.57384 40.4316 3.30741 40.2984 3.17419C40.2984 3.10759 40.2318 3.10759 40.1652 3.10759L40.2318 3.70705ZM43.2291 3.10759C43.0293 3.2408 42.9627 3.44062 43.0959 3.64044C43.0959 3.70705 43.1625 3.70705 43.1625 3.77366L43.2291 3.10759ZM40.2318 2.37491C40.4316 2.37491 40.5648 2.17509 40.5648 1.97527C40.5648 1.77545 40.4316 1.64223 40.2318 1.64223V2.37491ZM43.2291 1.64223C43.0293 1.64223 42.8961 1.84205 42.8961 2.04187C42.8961 2.24169 43.0293 2.37491 43.2291 2.37491V1.64223ZM43.2957 1.44241C43.1625 1.3092 43.0293 1.17598 42.8961 1.10938L43.2957 1.44241ZM40.5648 1.10938C40.4316 1.17598 40.2984 1.3092 40.1652 1.44241L40.5648 1.10938ZM43.2291 1.64223C43.2957 1.64223 43.2957 1.57562 43.2957 1.50902V1.44241L43.2291 1.64223ZM40.1652 1.44241C40.0986 1.50902 40.0986 1.57562 40.1652 1.57562H40.2318L40.1652 1.44241ZM40.2318 2.37491L39.4325 2.50812L40.2318 2.37491ZM44.095 2.50812L43.2957 2.37491L44.095 2.50812ZM43.2291 3.10759L44.0284 2.97437L43.2291 3.10759ZM39.3659 2.97437L40.2318 3.10759L39.3659 2.97437ZM44.095 2.97437C44.1616 2.97437 44.2282 2.84116 44.2282 2.77455L44.095 2.97437ZM39.2327 2.77455C39.2327 2.84116 39.2993 2.97437 39.3659 2.97437L39.2327 2.77455ZM44.2282 2.70794C44.2282 2.64134 44.1616 2.50812 44.095 2.50812L44.2282 2.70794ZM39.3659 2.50812C39.2993 2.50812 39.2327 2.57473 39.2327 2.70794L39.3659 2.50812ZM44.8277 6.37133V6.17151V6.37133ZM44.8277 6.17151C44.7611 5.1058 44.1616 4.1733 43.2291 3.70705L44.8277 6.17151ZM40.2318 3.70705C39.2327 4.23991 38.6332 5.30562 38.6332 6.37133L40.2318 3.70705ZM54.4857 12.366V13.1652V12.366ZM54.8187 13.0986V12.2994V13.0986ZM54.8187 28.0852V27.8854V28.0852ZM54.4857 27.952V28.1518V27.952ZM53.2868 15.4299V16.9619V15.4299ZM55.951 16.9619V15.4299V16.9619ZM53.2868 24.6883V25.0879V24.6883ZM53.2868 17.7611V23.1563V17.7611ZM55.951 23.1563V17.7611V23.1563ZM55.951 25.0213V24.6217V25.0213ZM55.951 15.4299C55.6846 14.6972 55.3516 13.8979 55.3516 13.0986L55.951 15.4299ZM53.8862 13.0986C53.8862 13.8979 53.6198 14.6972 53.2868 15.4299L53.8862 13.0986ZM56.3507 17.7611C56.5505 17.7611 56.6837 17.6279 56.6837 17.4281L56.3507 17.7611ZM52.5541 17.4281C52.5541 17.6279 52.6873 17.7611 52.8871 17.7611L52.5541 17.4281ZM56.6837 17.2949C56.6837 17.0951 56.5505 16.9619 56.3507 16.9619L56.6837 17.2949ZM52.8871 16.9619C52.6873 16.9619 52.5541 17.0951 52.5541 17.2949L52.8871 16.9619ZM52.5541 17.2949V17.4281V17.2949ZM56.6837 17.4281V17.2949V17.4281ZM52.3543 26.2202V27.952V26.2202ZM56.8835 27.952V26.2202V27.952ZM53.2868 25.0213L52.3543 26.1536L53.2868 25.0213ZM56.8835 26.2202L55.951 25.0879L56.8835 26.2202ZM46.8259 12.366V13.1652V12.366ZM47.1589 13.0986V12.2994V13.0986ZM47.1589 28.0852V27.8854V28.0852ZM46.8259 27.952V28.1518V27.952ZM45.6269 15.4299V16.9619V15.4299ZM48.3578 16.9619V15.4299V16.9619ZM45.6269 24.6883V25.0879V24.6883ZM45.6269 17.7611V23.1563V17.7611ZM48.3578 23.1563V17.7611V23.1563ZM48.3578 25.0213V24.6217V25.0213ZM48.3578 15.4299C48.0914 14.6972 47.7584 13.8979 47.7584 13.0986L48.3578 15.4299ZM46.2264 13.0986C46.2264 13.8979 45.96 14.6972 45.6269 15.4299L46.2264 13.0986ZM44.8943 17.2949V17.4281V17.2949ZM49.0905 17.4281V17.2949V17.4281ZM49.0905 17.2949C49.0905 17.0951 48.9573 16.9619 48.7575 16.9619L49.0905 17.2949ZM45.2939 16.9619C45.0941 16.9619 44.9609 17.0951 44.9609 17.2949L45.2939 16.9619ZM48.7575 17.7611C48.9573 17.7611 49.0905 17.6279 49.0905 17.4281L48.7575 17.7611ZM44.8943 17.4281C44.8943 17.6279 45.0275 17.7611 45.2273 17.7611L44.8943 17.4281ZM45.6269 25.0213L44.6944 26.1536L45.6269 25.0213ZM49.2903 26.2202L48.3578 25.0879L49.2903 26.2202ZM44.7611 26.2202V27.952V26.2202ZM49.2903 27.952V26.2202V27.952ZM62.0789 12.366V13.1652V12.366ZM62.4119 13.0986V12.2994V13.0986ZM62.4119 28.0852V27.8854V28.0852ZM62.0789 27.952V28.1518V27.952ZM60.88 15.4299V16.9619V15.4299ZM63.5442 16.9619V15.4299V16.9619ZM60.88 24.6883V25.0879V24.6883ZM60.88 17.7611V23.1563V17.7611ZM63.5442 23.1563V17.7611V23.1563ZM63.5442 25.0213V24.6217V25.0213ZM63.5442 15.4299C63.2778 14.6972 62.9448 13.8979 62.9448 13.0986L63.5442 15.4299ZM61.4794 13.0986C61.4794 13.8979 61.213 14.6972 60.88 15.4299L61.4794 13.0986ZM63.9439 17.7611C64.1437 17.7611 64.2769 17.6279 64.2769 17.4281L63.9439 17.7611ZM60.1473 17.4281C60.1473 17.6279 60.2805 17.7611 60.4803 17.7611L60.1473 17.4281ZM64.2769 17.2949C64.2769 17.0951 64.1437 16.9619 63.9439 16.9619L64.2769 17.2949ZM60.4803 16.9619C60.2805 16.9619 60.1473 17.0951 60.1473 17.2949L60.4803 16.9619ZM60.1473 17.2949V17.4281V17.2949ZM64.2769 17.4281V17.2949V17.4281ZM60.88 25.0213L59.9475 26.1536L60.88 25.0213ZM64.4767 26.2202L63.5442 25.0213L64.4767 26.2202ZM59.9475 26.2202V27.952V26.2202ZM64.4767 27.952V26.2202V27.952ZM53.2201 23.1563V24.6883V23.1563ZM56.0843 24.6883V23.1563V24.6883ZM45.5603 23.1563V24.6883V23.1563ZM48.4244 24.6883V23.1563V24.6883ZM60.8134 23.1563V24.6883V23.1563ZM63.6775 24.6883V23.1563V24.6883ZM56.2841 16.3624V15.8295V16.3624ZM52.8205 15.8295V16.3624V15.8295ZM52.9537 15.6963C52.8871 15.6963 52.8205 15.7629 52.8205 15.8295L52.9537 15.6963ZM56.2841 15.8295C56.2841 15.7629 56.2175 15.6963 56.1509 15.6963L56.2841 15.8295ZM52.7539 16.4956C52.8205 16.4956 52.8871 16.429 52.8871 16.3624L52.7539 16.4956ZM56.2841 16.3624C56.2841 16.429 56.3507 16.4956 56.4173 16.4956L56.2841 16.3624ZM57.0834 18.4272V16.6288V18.4272ZM52.0878 16.6288V18.4272V16.6288ZM57.0834 16.6288C57.0834 16.5622 57.0167 16.4956 56.9501 16.4956L57.0834 16.6288ZM52.221 16.4956C52.1544 16.4956 52.0878 16.5622 52.0878 16.6288L52.221 16.4956ZM57.0834 19.2931V19.0267V19.2931ZM52.0212 19.0267V19.2931V19.0267ZM57.0834 23.1563V21.9574V23.1563ZM52.0212 21.8908V23.0897V21.8908ZM57.0834 20.7585V19.4929V20.7585ZM52.0212 19.4929V20.7585V19.4929ZM57.0834 21.6243V21.3579V21.6243ZM52.0212 21.4245V21.691V21.4245ZM52.0878 18.4272C52.0878 18.4272 52.0212 18.4272 52.0878 18.4272V18.4272ZM52.0212 20.8251L52.0878 20.7585L52.0212 20.8251ZM57.0834 20.7585C57.0834 20.7585 57.0834 20.8251 57.15 20.8251L57.0834 20.7585ZM52.0212 21.6243C51.9546 21.6243 51.888 21.691 51.888 21.7576L52.0212 21.6243ZM57.2166 21.7576C57.2166 21.691 57.15 21.6243 57.0834 21.6243L57.2166 21.7576ZM51.9546 21.7576C51.9546 21.8242 52.0212 21.8908 52.0878 21.8908L51.9546 21.7576ZM57.0834 21.8908C57.15 21.8908 57.2166 21.8242 57.2166 21.7576L57.0834 21.8908ZM52.0212 19.2931C51.9546 19.2931 51.888 19.3597 51.888 19.4263L52.0212 19.2931ZM57.2166 19.3597C57.2166 19.2931 57.15 19.2265 57.0834 19.2265L57.2166 19.3597ZM51.9546 19.4263C51.9546 19.4929 52.0212 19.5595 52.0878 19.5595L51.9546 19.4263ZM57.0834 19.4929C57.15 19.4929 57.2166 19.4263 57.2166 19.3597L57.0834 19.4929ZM52.0212 18.4272L51.4218 19.0267L52.0212 18.4272ZM57.6828 19.0267L57.0834 18.4272L57.6828 19.0267ZM52.0212 20.8251L51.4884 21.3579L52.0212 20.8251ZM57.6828 21.4245L57.15 20.8251L57.6828 21.4245ZM42.8961 15.8295V16.3624V15.8295ZM42.9627 15.6963C42.8961 15.6963 42.8294 15.7629 42.8294 15.8295L42.9627 15.6963ZM42.7628 16.4956C42.8294 16.4956 42.8961 16.429 42.8961 16.3624L42.7628 16.4956ZM42.0968 16.6288V18.4272V16.6288ZM42.23 16.4956C42.1634 16.4956 42.0968 16.5622 42.0968 16.6288L42.23 16.4956ZM42.0968 19.0267V19.2931V19.0267ZM42.0968 24.0222V24.3552V24.0222ZM42.0968 19.4929V20.7585V19.4929ZM42.0968 21.4245V21.691V21.4245ZM42.0968 21.8908V23.1563V21.8908ZM42.0302 20.8251L42.0968 20.7585L42.0302 20.8251ZM42.0302 23.2229L42.0968 23.1563L42.0302 23.2229ZM41.9636 23.9556C41.9636 24.0222 42.0302 24.0888 42.0968 24.0888L41.9636 23.9556ZM42.0968 23.8224C42.0302 23.8224 41.9636 23.889 41.9636 23.9556L42.0968 23.8224ZM41.9636 19.4263C41.9636 19.4929 42.0302 19.5595 42.0968 19.5595L41.9636 19.4263ZM41.9636 21.7576C41.9636 21.8242 42.0302 21.8908 42.0968 21.8908L41.9636 21.7576ZM42.0968 21.6243C42.0302 21.6243 41.9636 21.691 41.9636 21.7576L42.0968 21.6243ZM42.0968 19.2931C42.0302 19.2931 41.9636 19.3597 41.9636 19.4263L42.0968 19.2931ZM42.0968 18.4272L41.4973 19.0267L42.0968 18.4272ZM42.0302 20.8251L41.4973 21.3579L42.0302 20.8251ZM42.0302 23.2229L41.4973 23.7558L42.0302 23.2229ZM66.2751 16.3624V15.8295V16.3624ZM66.2751 15.8295C66.2751 15.7629 66.2085 15.6963 66.1419 15.6963L66.2751 15.8295ZM66.2751 16.3624C66.2751 16.429 66.3417 16.4956 66.4083 16.4956L66.2751 16.3624ZM67.0744 18.4272V16.6288V18.4272ZM67.0744 16.6288C67.0744 16.5622 67.0078 16.4956 66.9412 16.4956L67.0744 16.6288ZM67.0744 19.2931V19.0267V19.2931ZM67.0744 23.1563V21.8908V23.1563ZM67.0744 21.6243V21.3579V21.6243ZM67.0744 24.3552V24.0222V24.3552ZM67.0744 20.7585V19.4929V20.7585ZM67.0744 20.7585C67.0744 20.7585 67.0744 20.8251 67.141 20.8251L67.0744 20.7585ZM67.0744 23.1563C67.0744 23.1563 67.0744 23.2229 67.141 23.2229L67.0744 23.1563ZM67.0744 24.0222C67.141 24.0222 67.2076 23.9556 67.2076 23.889L67.0744 24.0222ZM67.2076 23.9556C67.2076 23.889 67.141 23.8224 67.0744 23.8224L67.2076 23.9556ZM67.0744 19.4929C67.141 19.4929 67.2076 19.4263 67.2076 19.3597L67.0744 19.4929ZM67.2076 19.3597C67.2076 19.2931 67.141 19.2265 67.0744 19.2265L67.2076 19.3597ZM67.0744 21.8908C67.141 21.8908 67.2076 21.8242 67.2076 21.7576L67.0744 21.8908ZM67.2076 21.7576C67.2076 21.691 67.141 21.6243 67.0744 21.6243L67.2076 21.7576ZM67.6739 23.7558L67.141 23.2229L67.6739 23.7558ZM67.6739 21.4245L67.141 20.8251L67.6739 21.4245ZM67.6739 19.0267L67.0744 18.4272L67.6739 19.0267ZM121.892 113.742L121.692 113.542L121.892 113.742Z" stroke="#677075" stroke-width="0.3"/>
<path d="M7.72731 80.9713V88.4979M42.363 70.7805H67.2074H42.363ZM39.9651 25.088V24.8216V25.088ZM40.0317 25.088V24.8216V25.088ZM69.4054 24.8216V25.1546V24.8216ZM69.3388 24.8216V25.1546V24.8216ZM40.0983 24.6884C40.0317 24.6884 39.9651 24.755 39.9651 24.8216L40.0983 24.6884ZM69.4054 24.8216C69.4054 24.755 69.3388 24.6884 69.2722 24.6884L69.4054 24.8216ZM69.2722 24.6884L69.3388 24.8216L69.2722 24.6884ZM63.6772 24.6884H69.2722H63.6772ZM56.084 24.6884H60.8131H56.084ZM48.4242 24.6884H53.2199H48.4242ZM40.0983 24.6884H45.5601H40.0983ZM40.0317 24.8216V24.755V24.8216ZM69.3388 25.088V24.8216V25.088ZM63.6106 25.088H69.3388H63.6106ZM56.0174 25.088H60.8131H56.0174ZM48.3576 25.088H53.2199H48.3576ZM40.0317 25.088H45.5601H40.0317ZM40.0317 24.8216V25.1546V24.8216ZM66.8078 27.6857L66.8744 27.6191L66.8078 27.6857ZM66.8744 27.6191L66.8078 27.6857L66.8744 27.6191ZM66.8744 27.5525L66.8078 27.6857L66.8744 27.5525ZM44.7608 27.5525H42.4962H44.7608ZM52.354 27.5525H49.2235H52.354ZM59.9472 27.5525H56.8833H59.9472ZM66.8744 27.5525H64.4765H66.8744ZM44.6276 61.3223C44.4944 61.3223 44.4278 61.3889 44.4278 61.5221L44.6276 61.3223ZM45.0273 61.3223H44.6276H45.0273ZM45.2271 61.5221C45.2271 61.3889 45.1605 61.3223 45.0273 61.3223L45.2271 61.5221ZM45.2271 61.9217V61.5221V61.9217ZM45.0273 62.1215C45.1605 62.1215 45.2271 62.0549 45.2271 61.9217L45.0273 62.1215ZM44.6276 62.1215H45.0273H44.6276ZM44.4278 61.9217C44.4278 62.0549 44.4944 62.1215 44.6276 62.1215L44.4278 61.9217ZM44.4278 61.5221V61.9217V61.5221ZM44.6276 33.4139C44.4944 33.4139 44.4278 33.4805 44.4278 33.6137L44.6276 33.4139ZM45.0273 33.4139H44.6276H45.0273ZM45.2271 33.6137C45.2271 33.4805 45.1605 33.4139 45.0273 33.4139L45.2271 33.6137ZM45.2271 34.0134V33.6137V34.0134ZM45.0273 34.2132C45.1605 34.2132 45.2271 34.1466 45.2271 34.0134L45.0273 34.2132ZM44.6276 34.2132H45.0273H44.6276ZM44.4278 34.0134C44.4278 34.1466 44.4944 34.2132 44.6276 34.2132L44.4278 34.0134ZM44.4278 33.6137V34.0134V33.6137ZM42.4962 67.983H66.8744H42.4962ZM66.941 67.9164V27.6191V67.9164ZM66.8078 27.6857H66.8744H66.8078ZM66.8078 67.8497L66.8744 67.9164L66.8078 67.8497ZM66.8078 67.8497V67.9164V67.8497ZM66.8744 67.9164L66.8078 67.8497L66.8744 67.9164ZM66.941 67.9164L66.8078 67.8497L66.941 67.9164ZM69.9383 10.5677V9.03573V10.5677ZM67.8069 10.5677H69.8717H67.8069ZM54.8851 10.5677H67.3406H54.8851ZM41.9633 10.5677H54.4189H41.9633ZM39.2324 10.5677H41.4971H39.2324ZM67.8069 9.03573H69.8717H67.8069ZM54.8851 9.03573H67.3406H54.8851ZM41.9633 9.03573H54.4189H41.9633ZM39.2324 9.03573H41.4971H39.2324ZM39.2324 10.5677V9.03573V10.5677ZM48.4242 16.962V10.5677V16.962ZM48.4242 23.1564V17.7613V23.1564ZM46.8923 12.3661V10.5677V12.3661ZM60.6799 16.962V10.5677V16.962ZM60.6799 23.1564V17.7613V23.1564ZM62.2785 12.3661V10.5677V12.3661ZM63.6772 23.1564H64.2101H63.6772ZM56.084 23.1564H60.8131H56.084ZM48.4242 23.1564H53.2199H48.4242ZM44.9607 23.1564H45.5601H44.9607ZM64.1435 24.6884V23.1564V24.6884ZM44.9607 24.6884V23.1564V24.6884ZM67.8069 10.5677H67.3406H67.8069ZM41.9633 10.5677H41.4971H41.9633ZM54.8851 10.5677H54.4189H54.8851ZM68.0733 0.909668C68.3397 0.909668 68.9392 1.10949 69.0058 1.37592C68.5395 1.2427 68.3397 0.976275 67.7403 0.909668H68.0733ZM67.7403 0.909668H67.4072H67.0742H67.7403ZM67.1408 0.909668C66.8744 0.909668 66.6745 0.976275 66.4747 1.10949L67.1408 0.909668ZM67.607 0.909668H67.7403H68.0733H67.607ZM66.0751 1.64235H67.0742H66.0751ZM67.0742 1.64235H69.139H67.0742ZM69.2056 1.44252H66.0085H69.2056ZM69.139 2.37502H67.0742H69.139ZM67.0742 2.37502H66.0751H67.0742ZM66.0751 3.1077H67.0742H66.0751ZM67.0742 3.1077H69.139H67.0742ZM70.671 6.37145H66.5413H70.671ZM66.5413 6.37145H64.5431H66.5413ZM69.0724 3.70716H67.0742H69.0724ZM67.0742 3.70716H66.0751H67.0742ZM55.1515 0.909668C55.418 0.909668 56.0174 1.10949 56.084 1.37592C55.6178 1.2427 55.418 0.976275 54.8185 0.909668H55.1515ZM54.8185 0.909668H54.4855H54.1524H54.8185ZM54.219 0.909668C53.9526 0.909668 53.7528 0.976275 53.553 1.10949L54.219 0.909668ZM54.6853 0.909668H54.8185H55.1515H54.6853ZM53.1533 1.64235H54.1524H53.1533ZM54.1524 1.64235H56.2172H54.1524ZM56.2838 1.44252H53.0867H56.2838ZM56.1506 2.37502H54.0858H56.1506ZM54.1524 2.37502H53.1533H54.1524ZM53.1533 3.1077H54.1524H53.1533ZM54.1524 3.1077H56.2172H54.1524ZM57.7492 6.37145H53.6196H57.7492ZM53.6196 6.37145H51.6214H53.6196ZM56.1506 3.70716H54.1524H56.1506ZM54.1524 3.70716H53.1533H54.1524ZM42.2298 0.909668C42.4962 0.909668 43.0957 1.10949 43.1623 1.37592C42.696 1.2427 42.4962 0.976275 41.8967 0.909668H42.2298ZM41.8967 0.909668H41.5637H41.2307H41.8967ZM41.2307 0.909668C40.9642 0.909668 40.7644 0.976275 40.5646 1.10949L41.2307 0.909668ZM41.7635 0.909668H41.8967H42.2298H41.7635ZM40.2316 1.64235H41.2307H40.2316ZM41.2307 1.64235H43.2955H41.2307ZM43.2955 1.44252H40.0983H43.2955ZM43.2289 2.37502H41.1641H43.2289ZM41.2307 2.37502H40.2316H41.2307ZM40.2316 3.1077H41.2307H40.2316ZM41.2307 3.1077H43.2955H41.2307ZM44.8274 6.37145H40.6978H44.8274ZM40.6312 6.37145H38.633H40.6312ZM43.2289 3.70716H41.2307H43.2289ZM41.2307 3.70716H40.2316H41.2307ZM54.4855 12.3661H54.6187H54.4855ZM54.6187 12.3661H54.7519H54.6187ZM54.8185 28.0853H54.4855H54.8185ZM54.6187 13.0988H53.8194H54.6187ZM54.6187 13.0988H55.3513H54.6187ZM53.2865 15.43H54.6187H53.2865ZM54.6187 15.43H55.9508H54.6187ZM56.3505 17.7613H54.6187H56.3505ZM54.6187 17.7613H52.8869H54.6187ZM52.8869 16.962H54.6187H52.8869ZM54.6187 16.962H56.3505H54.6187ZM52.354 27.9521H54.6187H52.354ZM54.6187 27.9521H56.8833H54.6187ZM53.2865 25.0214H54.6187H53.2865ZM54.6187 25.0214H55.9508H54.6187ZM52.354 26.2203H54.6187H52.354ZM54.6187 26.2203H56.8833H54.6187ZM46.8256 12.3661H46.9589H46.8256ZM47.0255 12.3661H47.1587H47.0255ZM47.1587 28.0853H46.8256H47.1587ZM47.0255 13.0988H46.2262H47.0255ZM47.0255 13.0988H47.8248H47.0255ZM45.6267 15.43H46.9589H45.6267ZM47.0255 15.43H48.3576H47.0255ZM45.2937 16.962H47.0255H45.2937ZM47.0255 16.962H48.7573H47.0255ZM48.7573 17.7613H47.0255H48.7573ZM47.0255 17.7613H45.2937H47.0255ZM45.6267 25.0214H46.9589H45.6267ZM47.0255 25.0214H48.3576H47.0255ZM44.7608 27.9521H47.0255H44.7608ZM47.0255 27.9521H49.2901H47.0255ZM44.7608 26.2203H47.0255H44.7608ZM47.0255 26.2203H49.2901H47.0255ZM62.0787 12.3661H62.2119H62.0787ZM62.2119 12.3661H62.3451H62.2119ZM62.4117 28.0853H62.0787H62.4117ZM62.2119 13.0988H61.4126H62.2119ZM62.2119 13.0988H63.0112H62.2119ZM60.8797 15.43H62.2119H60.8797ZM62.2119 15.43H63.544H62.2119ZM63.9437 17.7613H62.2119H63.9437ZM62.2119 17.7613H60.4801H62.2119ZM60.4801 16.962H62.2119H60.4801ZM62.2119 16.962H63.9437H62.2119ZM60.8797 25.0214H62.2119H60.8797ZM62.2119 25.0214H63.544H62.2119ZM59.9472 26.2203H62.2119H59.9472ZM62.2119 26.2203H64.4765H62.2119ZM59.9472 27.9521H62.2119H59.9472ZM62.2119 27.9521H64.4765H62.2119ZM53.2199 23.1564H56.084H53.2199ZM53.2199 24.6884H56.084H53.2199ZM45.5601 24.6884H48.4242H45.5601ZM45.5601 23.1564H48.4242H45.5601ZM60.8131 24.6884H63.6772H60.8131ZM60.8131 23.1564H63.6772H60.8131ZM54.4855 12.4993H53.553H54.4855ZM55.6178 12.4993H54.8185H55.6178ZM54.4855 12.8989C54.4189 12.8989 54.3522 13.0321 54.2856 13.0988L54.4855 12.8989ZM54.8185 13.0988C54.8185 13.0321 54.8185 13.0322 54.7519 12.9655L54.8185 13.0988ZM53.553 14.6973V12.4993V14.6973ZM55.6178 12.4993V14.2977V12.4993ZM53.2865 15.6964H52.9535H53.2865ZM56.2172 15.6964H56.0174H56.2172ZM53.2865 16.4957H52.2208H53.2865ZM56.9499 16.4957H55.9508H56.9499ZM53.2865 18.4273H52.0876H53.2865ZM57.0831 18.4273H56.0174H57.0831ZM53.2865 21.6245H52.021H53.2865ZM57.0831 21.6245H55.9508H57.0831ZM53.2865 21.8909H52.021H53.2865ZM57.0831 21.8909H55.9508H57.0831ZM53.2865 19.2932H52.021H53.2865ZM57.0831 19.2932H55.9508H57.0831ZM53.2865 19.493H52.021H53.2865ZM57.0831 19.493H55.9508H57.0831ZM53.2865 21.4246H51.4215H53.2865ZM57.6826 21.4246H55.9508H57.6826ZM53.2865 19.0268H51.4215H53.2865ZM57.6826 19.0268H55.9508H57.6826ZM44.894 14.8971C44.894 14.7639 44.7608 14.6307 44.6276 14.6307C44.4944 14.6307 44.3612 14.7639 44.3612 14.8971C44.3612 15.0304 44.4944 15.1636 44.6276 15.1636C44.7608 15.1636 44.894 15.0304 44.894 14.8971ZM44.894 13.1654C44.894 13.0322 44.7608 12.8989 44.6276 12.8989C44.4944 12.8989 44.3612 13.0322 44.3612 13.1654C44.3612 13.2986 44.4944 13.4318 44.6276 13.4318C44.7608 13.4318 44.894 13.2986 44.894 13.1654ZM45.6267 12.4993H43.5619H45.6267ZM43.5619 15.6964V12.4993V15.6964ZM45.6267 12.4993V15.6964V12.4993ZM45.6267 15.6964H42.9624H45.6267ZM45.6267 16.4957H42.2298H45.6267ZM45.6267 18.4273H42.0965H45.6267ZM44.9607 24.0223H42.0299H44.9607ZM44.9607 23.8225H42.0299H44.9607ZM44.9607 23.9557H41.9633H44.9607ZM45.6267 19.493H42.0299H45.6267ZM45.6267 21.8909H42.0299H45.6267ZM45.6267 21.6245H42.0299H45.6267ZM45.6267 19.2932H42.0299H45.6267ZM45.6267 21.4246H41.4305H45.6267ZM44.9607 23.7559H41.4305H44.9607ZM45.6267 19.0268H41.4305H45.6267ZM44.9607 24.3553H41.0974H44.9607ZM41.1641 24.6884V24.3553V24.6884ZM63.544 15.2968V12.4993V15.2968ZM65.5422 12.4993H63.544H65.5422ZM64.8096 14.8971C64.8096 14.7639 64.6763 14.6307 64.5431 14.6307C64.4099 14.6307 64.2767 14.7639 64.2767 14.8971C64.2767 15.0304 64.4099 15.1636 64.5431 15.1636C64.6763 15.1636 64.8096 15.0304 64.8096 14.8971ZM64.8096 13.1654C64.8096 13.0322 64.6763 12.8989 64.5431 12.8989C64.4099 12.8989 64.2767 13.0322 64.2767 13.1654C64.2767 13.2986 64.4099 13.4318 64.5431 13.4318C64.6763 13.4318 64.8096 13.2986 64.8096 13.1654ZM65.5422 12.4993V15.6964V12.4993ZM66.1417 15.6964H63.544H66.1417ZM66.941 16.4957H63.6106H66.941ZM67.0742 18.4273H63.544H67.0742ZM67.0742 24.0223H64.1435H67.0742ZM67.0742 23.8225H64.1435H67.0742ZM67.2074 23.9557H64.1435H67.2074ZM67.0742 19.493H63.544H67.0742ZM67.0742 19.2932H63.544H67.0742ZM67.0742 21.8909H63.544H67.0742ZM67.0742 21.6245H63.544H67.0742ZM67.6737 21.4246H63.544H67.6737ZM67.6737 19.0268H63.544H67.6737ZM67.6737 23.7559H64.1435H67.6737ZM68.0067 24.3553H64.1435H68.0067ZM68.0067 24.6884V24.3553V24.6884ZM123.89 152.374V148.911V152.374ZM1.13321 152.374V148.911V152.374ZM119.827 150.642C119.827 151.308 120.36 151.775 120.959 151.775L119.827 150.642ZM121.026 149.443C120.36 149.443 119.894 149.976 119.894 150.576L121.026 149.443ZM121.359 149.443H120.959H121.359ZM122.558 150.642C122.558 149.976 122.025 149.51 121.426 149.51L122.558 150.642ZM121.359 151.775C122.025 151.775 122.491 151.242 122.491 150.642L121.359 151.775ZM121.026 151.775H121.426H121.026ZM2.46536 150.642C2.46536 151.308 2.99821 151.775 3.59767 151.775L2.46536 150.642ZM3.59767 149.443C2.9316 149.443 2.46536 149.976 2.46536 150.576L3.59767 149.443ZM3.99732 149.443H3.59767H3.99732ZM5.12964 150.642C5.12964 149.976 4.59678 149.51 3.99732 149.51L5.12964 150.642ZM3.99732 151.775C4.66339 151.775 5.12964 151.242 5.12964 150.642L3.99732 151.775ZM3.59767 151.775H3.99732H3.59767ZM123.89 148.911V148.511V148.911ZM1.13321 148.911V148.511V148.911ZM123.89 152.707V152.307V152.707ZM1.13321 152.707V152.307V152.707ZM1.13321 152.707H123.89H1.13321ZM1.13321 152.907H123.89H1.13321ZM123.89 152.907V152.707V152.907ZM1.13321 152.907V152.707V152.907ZM123.89 148.511V148.311V148.511ZM121.625 148.311H123.89H121.625ZM78.0644 148.311H113.033H78.0644ZM7.5941 148.311H69.0724H7.5941ZM1.13321 148.311H3.39785H1.13321ZM1.13321 148.511V148.311V148.511ZM121.492 148.511H123.89H121.492ZM78.0644 148.511H113.033H78.0644ZM7.5941 148.511H69.0724H7.5941ZM1.13321 148.511H3.53107H1.13321ZM122.691 77.974L122.758 78.0406L122.691 77.974ZM122.558 77.974H122.691H122.558ZM91.7854 75.1765C91.7854 75.2431 91.7854 75.2431 91.852 75.2431L91.7854 75.1765ZM91.7188 75.1765C91.7188 75.2431 91.7188 75.2431 91.7854 75.3097L91.7188 75.1765ZM91.852 75.2431L122.558 77.9074L91.852 75.2431ZM122.758 77.974L123.757 79.1729L122.758 77.974ZM122.758 78.0406L123.624 79.0397L122.758 78.0406ZM92.185 76.5087L123.69 79.2396L92.185 76.5087ZM91.852 75.3097L92.185 76.4421L91.852 75.3097ZM91.852 75.3097L92.185 76.4421L91.852 75.3097ZM92.185 76.4421L123.69 79.1729L92.185 76.4421ZM123.69 79.1729L122.624 77.974L123.69 79.1729ZM2.26553 67.2503V67.3835V67.2503ZM80.5288 74.244V74.1774V74.244ZM2.26553 67.3835V67.4501V67.3835ZM2.19893 67.4501H2.26553H2.19893ZM2.33214 67.4501H2.46536H2.33214ZM80.5288 74.244C80.5954 74.244 80.5954 74.244 80.5954 74.1774L80.5288 74.244ZM91.5856 75.2431C91.6522 75.2431 91.6522 75.2431 91.6522 75.1765L91.5856 75.2431ZM91.6522 75.3097C91.7188 75.3097 91.7188 75.2431 91.7188 75.1765L91.6522 75.3097ZM91.5856 75.2431L2.39875 67.4501L91.5856 75.2431ZM1 68.4492L2.19893 67.4501L1 68.4492ZM1.19982 68.3826L2.19893 67.5167L1.19982 68.3826ZM1.06661 68.5158L92.185 76.5087L1.06661 68.5158ZM2.33214 67.4501L1.06661 68.4492L2.33214 67.4501ZM1.06661 68.4492L92.185 76.4421L1.06661 68.4492ZM92.185 76.4421L91.852 75.3097L92.185 76.4421ZM91.852 75.3097H91.5856H91.852ZM83.726 72.4456C83.726 72.379 83.6593 72.379 83.5927 72.379L83.726 72.4456ZM78.9302 71.9794L83.5261 72.379L78.9302 71.9794ZM78.9302 71.9794L83.5927 72.379L78.9302 71.9794ZM1.99911 67.1837L2.13232 65.3187L1.99911 67.1837ZM2.06571 67.1837L2.19893 65.3187L2.06571 67.1837ZM2.33214 65.2521C2.26553 65.2521 2.19893 65.3187 2.19893 65.3853L2.33214 65.2521ZM2.26553 65.3187C2.26553 65.3187 2.19893 65.3187 2.26553 65.3187V65.3187ZM2.26553 65.3853L2.13232 67.2503L2.26553 65.3853ZM78.7304 73.911L78.8636 72.046L78.7304 73.911ZM42.5628 70.7805L78.7304 73.9776L42.5628 70.7805ZM2.06571 67.1837L40.3648 70.514L2.06571 67.1837ZM65.2758 70.7805L78.9302 71.9794L65.2758 70.7805ZM2.33214 65.2521L40.4314 68.5824L2.33214 65.2521ZM2.26553 65.3853V65.3187V65.3853ZM78.9302 71.9794C78.9302 72.046 78.9302 72.046 78.9302 72.1126V71.9794ZM94.1166 73.4447L93.9834 75.3097L94.1166 73.4447ZM94.1833 73.4447L94.05 75.3097L94.1833 73.4447ZM89.5208 74.9101L89.654 73.0451L89.5208 74.9101ZM78.5972 73.9776L89.4541 74.9101L78.5972 73.9776ZM89.4541 74.9101L89.5874 73.0451L89.4541 74.9101ZM94.1833 73.4447C94.1833 73.3781 94.1166 73.3115 94.05 73.3115L94.1833 73.4447ZM89.7206 73.0451C89.7206 73.0451 89.654 73.0451 89.7206 73.0451V73.0451ZM89.7206 72.9785L79.1967 72.046L89.7206 72.9785ZM89.7206 72.9785C89.654 72.9785 89.5874 73.0451 89.5874 73.1117L89.7206 72.9785ZM89.5208 74.9101L93.9168 75.3097L89.5208 74.9101ZM89.7206 73.1117L89.5874 74.9767L89.7206 73.1117ZM93.9834 75.3097L94.1166 73.4447L93.9834 75.3097ZM89.7206 72.9785L94.05 73.3781L89.7206 72.9785ZM89.7206 73.1117C89.7206 73.1117 89.7206 72.9785 89.7872 72.9785L89.7206 73.1117ZM94.05 73.3115L94.1166 73.3781V73.4447L94.05 73.3115ZM69.0724 148.311H7.5941H69.0724ZM68.9392 148.244H7.6607H68.9392ZM8.79302 148.244V148.111V148.244ZM8.79302 80.9713H7.72731H8.79302ZM7.72731 80.9713H7.79392H7.72731ZM3.46446 148.311H3.39785H3.46446ZM3.33125 148.311V68.7156V148.311ZM7.5941 149.11V148.244V149.11ZM3.46446 149.11V148.378V149.11ZM3.46446 149.11H7.5941H3.46446ZM7.5941 80.3053V69.0487V80.3053ZM7.5941 148.244H7.72731H7.5941ZM7.72731 140.651V148.178V140.651ZM7.72731 115.74V138.387V115.74ZM7.72731 90.8292V113.476V90.8292Z" stroke="#677075" stroke-width="0.3"/>
<path d="M67.0079 67.1172H66.9409" stroke="#677075" stroke-width="0.3"/>
<path d="M66.9409 28.3518H67.0079" stroke="#677075" stroke-width="0.3"/>
<path d="M67.0748 28.3518H67.0078" stroke="#677075" stroke-width="0.3"/>
<path d="M67.0078 67.1172H67.0748" stroke="#677075" stroke-width="0.3"/>
<path d="M40.4985 70.7805H40.3647" stroke="#677075" stroke-width="0.3"/>
<path d="M40.3647 70.7803V25.0879" stroke="#677075" stroke-width="0.3"/>
<path d="M69.1396 70.7805H69.0059" stroke="#677075" stroke-width="0.3"/>
<path d="M69.1392 25.0879V70.7803" stroke="#677075" stroke-width="0.3"/>
<path d="M42.4966 68.0496H42.3628" stroke="#677075" stroke-width="0.3"/>
<path d="M42.4961 27.4192V68.0495" stroke="#677075" stroke-width="0.3"/>
<path d="M42.3628 27.4192H42.4966" stroke="#677075" stroke-width="0.3"/>
<path d="M40.498 70.7805H42.363" stroke="#677075" stroke-width="0.3"/>
<path d="M42.3628 70.7804V68.0496" stroke="#677075" stroke-width="0.3"/>
<path d="M42.3628 27.4191V25.0879" stroke="#677075" stroke-width="0.3"/>
<path d="M67.208 68.0496H67.0742" stroke="#677075" stroke-width="0.3"/>
<path d="M67.0742 27.4192H67.208" stroke="#677075" stroke-width="0.3"/>
<path d="M67.0742 27.4192V68.0495" stroke="#677075" stroke-width="0.3"/>
<path d="M67.2075 25.0879V27.4191" stroke="#677075" stroke-width="0.3"/>
<path d="M67.2075 68.0496V70.7804" stroke="#677075" stroke-width="0.3"/>
<path d="M67.2075 70.7805H69.0059" stroke="#677075" stroke-width="0.3"/>
<path d="M64.4766 27.3525H67.2075" stroke="#677075" stroke-width="0.3"/>
<path d="M56.8833 27.3525H59.9472" stroke="#677075" stroke-width="0.3"/>
<path d="M49.29 27.3525H52.354" stroke="#677075" stroke-width="0.3"/>
<path d="M42.3628 27.3525H44.7606" stroke="#677075" stroke-width="0.3"/>
<path d="M42.3628 25.0879V27.2193" stroke="#677075" stroke-width="0.3"/>
<path d="M67.2075 27.2193V25.0879" stroke="#677075" stroke-width="0.3"/>
<path d="M67.2072 68.1162H42.3628" stroke="#677075" stroke-width="0.3"/>
<path d="M67.2075 70.7806V68.2495" stroke="#677075" stroke-width="0.3"/>
<path d="M42.3628 68.2495V70.7806" stroke="#677075" stroke-width="0.3"/>
</svg>
