<svg width="69" height="123" viewBox="0 0 69 123" fill="none" xmlns="http://www.w3.org/2000/svg">
<path d="M62.2778 6.41089V117.045" stroke="#677075" stroke-width="0.3" stroke-miterlimit="10"/>
<path d="M0.266602 122.574V0.949219H5.72838" stroke="#677075" stroke-width="0.3" stroke-miterlimit="10"/>
<path d="M6.32764 48.9063V44.1106" stroke="#677075" stroke-width="0.3" stroke-miterlimit="10" stroke-dasharray="24.49 2.45 0.82 2.45"/>
<path d="M6.26088 54.5679H62.344H6.26088ZM62.2774 57.8316H6.26088H62.2774ZM62.2108 54.5013H31.9712H62.2108ZM28.9073 62.8938C29.2403 62.8938 29.5067 62.6274 29.5067 62.2943C29.5067 61.9613 29.2403 61.6949 28.9073 61.6949V62.8938ZM29.5067 71.2197C29.5067 70.8866 29.2403 70.6202 28.9073 70.6202C28.5742 70.6202 28.3078 70.8866 28.3078 71.2197C28.3078 71.5527 28.5742 71.8191 28.9073 71.8191C29.2403 71.8191 29.5067 71.5527 29.5067 71.2197ZM36.1674 39.981H40.3637V50.1052H36.1674V39.981ZM39.4978 46.9081V45.5759V46.9081ZM37.433 45.5759V46.9081V45.5759ZM39.0316 45.5759V46.9081V45.5759ZM36.9667 46.9081V45.5759V46.9081ZM38.2323 39.981V50.1052V39.981ZM41.0964 45.5759V46.9081V45.5759ZM41.6292 46.9081V45.5759V46.9081ZM40.2971 39.981H42.3619V50.1052H40.2971V39.981ZM6.92695 48.6399H5.72803V44.4436H6.92695V48.6399Z" stroke="#677075" stroke-width="0.3" stroke-miterlimit="10"/>
<path d="M28.0415 62.2942H29.7733M26.9092 66.1574H29.0406H26.9092ZM28.0415 62.2942H29.7733H28.0415Z" stroke="#677075" stroke-width="0.3" stroke-miterlimit="10" stroke-dasharray="24.49 2.45 0.82 2.45"/>
<path d="M27.9751 57.8315H50.6215" stroke="#677075" stroke-width="0.3" stroke-miterlimit="10"/>
<path d="M28.0415 71.2195H29.7733M28.0415 71.2195H29.7733H28.0415Z" stroke="#677075" stroke-width="0.3" stroke-miterlimit="10" stroke-dasharray="24.49 2.45 0.82 2.45"/>
<path d="M7.19336 57.8315H29.8398" stroke="#677075" stroke-width="0.3" stroke-miterlimit="10"/>
<path d="M5.72803 122.573H62.8103" stroke="#677075" stroke-width="0.3" stroke-miterlimit="10"/>
<path d="M6.26123 116.579H62.2778" stroke="#677075" stroke-width="0.3" stroke-miterlimit="10"/>
<path d="M6.32764 102.392V97.6626" stroke="#677075" stroke-width="0.3" stroke-miterlimit="10" stroke-dasharray="24.49 2.45 0.82 2.45"/>
<path d="M6.32749 116.379V106.388V116.379ZM6.26088 106.322V117.045V106.322ZM11.1232 90.4024H23.0459V100.527H11.1232V90.4024ZM8.25909 87.5383H25.91V103.391H8.25909V87.5383ZM6.92695 102.192H5.72803V97.9956H6.92695V102.192Z" stroke="#677075" stroke-width="0.3" stroke-miterlimit="10"/>
<path d="M5.72838 122.573H0.266602" stroke="#677075" stroke-width="0.3" stroke-miterlimit="10"/>
<path d="M0.266602 117.045H6.26124M6.92731 106.321H5.72838V102.125H6.92731V106.321Z" stroke="#677075" stroke-width="0.3" stroke-miterlimit="10"/>
<path d="M6.32764 106.588V101.792M6.32764 75.7488V70.9531V75.7488Z" stroke="#677075" stroke-width="0.3" stroke-miterlimit="10" stroke-dasharray="24.49 2.45 0.82 2.45"/>
<path d="M6.26123 79.6121V97.9956M6.32784 97.9956V82.8758V97.9956Z" stroke="#677075" stroke-width="0.3" stroke-miterlimit="10"/>
<path d="M6.32764 79.8785V75.0828" stroke="#677075" stroke-width="0.3" stroke-miterlimit="10" stroke-dasharray="24.49 2.45 0.82 2.45"/>
<path d="M6.92695 79.612H5.72803V75.4158H6.92695V79.612Z" stroke="#677075" stroke-width="0.3" stroke-miterlimit="10"/>
<path d="M8.12598 72.0855V69.9541" stroke="#677075" stroke-width="0.3" stroke-miterlimit="10" stroke-dasharray="24.49 2.45 0.82 2.45"/>
<path d="M7.72668 71.6192L8.59257 70.7533M8.72578 71.2196C8.72578 70.8865 8.45935 70.6201 8.12632 70.6201C7.79328 70.6201 7.52686 70.8865 7.52686 71.2196C7.52686 71.5526 7.79328 71.819 8.12632 71.819C8.45935 71.819 8.72578 71.5526 8.72578 71.2196Z" stroke="#677075" stroke-width="0.3" stroke-miterlimit="10"/>
<path d="M10.2573 75.0828H11.9891" stroke="#677075" stroke-width="0.3" stroke-miterlimit="10" stroke-dasharray="24.49 2.45 0.82 2.45"/>
<path d="M10.2573 75.0827H11.9891M21.9136 75.0827H23.6453H21.9136ZM11.1232 75.9486V74.2168V75.9486Z" stroke="#677075" stroke-width="0.3" stroke-miterlimit="10" stroke-dasharray="24.49 2.45 0.82 2.45"/>
<path d="M22.8462 75.9486V74.2168M22.0469 75.0827H23.5122H22.0469ZM22.8462 75.9486V74.2168V75.9486ZM22.8462 75.9486V74.2168V75.9486Z" stroke="#677075" stroke-width="0.3" stroke-miterlimit="10" stroke-dasharray="24.49 2.45 0.82 2.45"/>
<path d="M6.26123 48.6399V71.2863M8.72569 62.2943C8.72569 61.9613 8.45926 61.6949 8.12623 61.6949C7.79319 61.6949 7.52676 61.9613 7.52676 62.2943C7.52676 62.6274 7.79319 62.8938 8.12623 62.8938C8.45926 62.8272 8.72569 62.5608 8.72569 62.2943ZM7.72659 62.694L8.59248 61.8281L7.72659 62.694ZM6.52766 57.8317V71.2863V57.8317Z" stroke="#677075" stroke-width="0.3" stroke-miterlimit="10"/>
<path d="M8.12598 63.2266V61.295M16.1188 58.4309H17.8506H16.1188ZM24.8443 66.1573H26.9758H24.8443Z" stroke="#677075" stroke-width="0.3" stroke-miterlimit="10" stroke-dasharray="24.49 2.45 0.82 2.45"/>
<path d="M16.9849 59.297V57.5652" stroke="#677075" stroke-width="0.3" stroke-miterlimit="10" stroke-dasharray="24.49 2.45 0.82 2.45"/>
<path d="M62.8105 122.573H68.2723" stroke="#677075" stroke-width="0.3" stroke-miterlimit="10"/>
<path d="M68.2725 117.045H62.2778" stroke="#677075" stroke-width="0.3" stroke-miterlimit="10"/>
<path d="M28.9077 72.0855V69.9541" stroke="#677075" stroke-width="0.3" stroke-miterlimit="10" stroke-dasharray="24.49 2.45 0.82 2.45"/>
<path d="M28.5078 71.6191L29.3071 70.8198" stroke="#677075" stroke-width="0.3" stroke-miterlimit="10"/>
<path d="M28.9077 71.9522V70.1538" stroke="#677075" stroke-width="0.3" stroke-miterlimit="10" stroke-dasharray="24.49 2.45 0.82 2.45"/>
<path d="M31.905 75.9486V74.2168M28.9077 60.1628V58.1646V60.1628ZM31.0391 75.0827H32.7709H31.0391ZM31.0391 75.0827H32.7709H31.0391Z" stroke="#677075" stroke-width="0.3" stroke-miterlimit="10" stroke-dasharray="24.49 2.45 0.82 2.45"/>
<path d="M36.5005 47.5074H37.8992M37.8992 46.908H36.5005V47.5074L37.8992 46.908Z" stroke="#677075" stroke-width="0.3" stroke-miterlimit="10"/>
<path d="M36.5673 49.3726H37.7662M36.4341 49.3726H37.966H36.4341Z" stroke="#677075" stroke-width="0.3" stroke-miterlimit="10" stroke-dasharray="24.49 2.45 0.82 2.45"/>
<path d="M40.2973 47.7073H36.1011M37.8329 49.3725C37.8329 49.0394 37.5664 48.773 37.2334 48.773C36.9004 48.773 36.6339 49.0394 36.6339 49.3725C36.6339 49.7055 36.9004 49.9719 37.2334 49.9719C37.5664 49.9719 37.8329 49.7055 37.8329 49.3725ZM37.6996 49.3725C37.6996 49.106 37.4332 48.8396 37.1668 48.8396C36.9004 48.8396 36.6339 49.106 36.6339 49.3725C36.6339 49.6389 36.9004 49.9053 37.1668 49.9053C37.4332 49.9053 37.6996 49.7055 37.6996 49.3725ZM37.8995 50.1051V50.4382H36.5007V50.1051H37.8995Z" stroke="#677075" stroke-width="0.3" stroke-miterlimit="10"/>
<path d="M28.9077 59.9631V58.0315" stroke="#677075" stroke-width="0.3" stroke-miterlimit="10" stroke-dasharray="24.49 2.45 0.82 2.45"/>
<path d="M37.167 50.5042V49.9719V50.5042Z" stroke="#677075" stroke-width="0.3" stroke-miterlimit="10"/>
<path d="M37.167 50.1719V48.6399" stroke="#677075" stroke-width="0.3" stroke-miterlimit="10" stroke-dasharray="24.49 2.45 0.82 2.45"/>
<path d="M36.1679 47.1079H32.6377M36.9005 49.7056L37.4334 49.1727L36.9005 49.7056ZM37.5666 49.4392C37.5666 49.2393 37.3668 49.0395 37.167 49.0395C36.9672 49.0395 36.7673 49.2393 36.7673 49.4392C36.7673 49.639 36.9672 49.8388 37.167 49.8388C37.3668 49.8388 37.5666 49.639 37.5666 49.4392ZM37.5 49.4392C37.5 49.2393 37.3668 49.1061 37.167 49.1061C36.9672 49.1061 36.8339 49.2393 36.8339 49.4392C36.8339 49.639 36.9672 49.7722 37.167 49.7722C37.3668 49.7722 37.5 49.639 37.5 49.4392ZM37.167 48.8397V48.3068H37.4334V47.7074L37.167 48.8397Z" stroke="#677075" stroke-width="0.3" stroke-miterlimit="10"/>
<path d="M37.167 49.972V48.7731M41.3632 50.1719V48.6399V50.1719Z" stroke="#677075" stroke-width="0.3" stroke-miterlimit="10" stroke-dasharray="24.49 2.45 0.82 2.45"/>
<path d="M42.0958 50.1051V50.4382H40.6304V50.1051M39.9644 50.1051V50.4382H38.499V50.1051H39.9644ZM39.2983 50.5048V49.9719V50.5048ZM41.3631 50.5048V49.9719V50.5048Z" stroke="#677075" stroke-width="0.3" stroke-miterlimit="10"/>
<path d="M39.2983 50.1719V48.6399" stroke="#677075" stroke-width="0.3" stroke-miterlimit="10" stroke-dasharray="24.49 2.45 0.82 2.45"/>
<path d="M38.5654 47.5074H39.9642V46.908H38.5654" stroke="#677075" stroke-width="0.3" stroke-miterlimit="10"/>
<path d="M38.499 49.3726H40.031" stroke="#677075" stroke-width="0.3" stroke-miterlimit="10" stroke-dasharray="24.49 2.45 0.82 2.45"/>
<path d="M39.2984 48.8396V48.3067H39.5648V47.7073M39.8313 49.3725C39.8313 49.0394 39.5648 48.773 39.2318 48.773C38.8988 48.773 38.6323 49.0394 38.6323 49.3725C38.6323 49.7055 38.8988 49.9719 39.2318 49.9719C39.5648 49.9719 39.8313 49.7055 39.8313 49.3725ZM39.7646 49.3725C39.7646 49.106 39.4982 48.8396 39.2318 48.8396C38.9654 48.8396 38.6989 49.106 38.6989 49.3725C38.6989 49.6389 38.9654 49.9053 39.2318 49.9053C39.5648 49.9053 39.7646 49.7055 39.7646 49.3725ZM39.032 49.7055L39.5648 49.1726L39.032 49.7055ZM39.698 49.4391C39.698 49.2392 39.4982 49.0394 39.2984 49.0394C39.0986 49.0394 38.8988 49.2392 38.8988 49.4391C38.8988 49.6389 39.0986 49.8387 39.2984 49.8387C39.4982 49.8387 39.698 49.6389 39.698 49.4391ZM39.698 49.4391C39.698 49.2392 39.5648 49.106 39.365 49.106C39.1652 49.106 39.032 49.2392 39.032 49.4391C39.032 49.6389 39.1652 49.7721 39.365 49.7721C39.4982 49.7721 39.698 49.6389 39.698 49.4391Z" stroke="#677075" stroke-width="0.3" stroke-miterlimit="10"/>
<path d="M39.2983 49.9719V48.8396" stroke="#677075" stroke-width="0.3" stroke-miterlimit="10" stroke-dasharray="24.49 2.45 0.82 2.45"/>
<path d="M38.5647 47.5067V46.908M37.8994 46.908V47.5067V46.908Z" stroke="#677075" stroke-width="0.3" stroke-miterlimit="10"/>
<path d="M41.3628 49.9719V48.8396" stroke="#677075" stroke-width="0.3" stroke-miterlimit="10" stroke-dasharray="24.49 2.45 0.82 2.45"/>
<path d="M41.3631 48.8396V48.3067H41.6296V47.7073L41.3631 48.8396ZM41.6962 49.4391C41.6962 49.2392 41.563 49.106 41.3631 49.106C41.1633 49.106 41.0301 49.2392 41.0301 49.4391C41.0301 49.6389 41.1633 49.7721 41.3631 49.7721C41.563 49.7721 41.6962 49.6389 41.6962 49.4391ZM41.6962 49.4391C41.6962 49.2392 41.4963 49.0394 41.2965 49.0394C41.0967 49.0394 40.8969 49.2392 40.8969 49.4391C40.8969 49.6389 41.0967 49.8387 41.2965 49.8387C41.563 49.8387 41.6962 49.6389 41.6962 49.4391ZM41.0967 49.7055L41.6296 49.1726L41.0967 49.7055ZM41.9626 49.3725C41.9626 49.106 41.6962 48.8396 41.4297 48.8396C41.1633 48.8396 40.8969 49.106 40.8969 49.3725C40.8969 49.6389 41.1633 49.9053 41.4297 49.9053C41.6962 49.9053 41.9626 49.7055 41.9626 49.3725ZM41.9626 49.3725C41.9626 49.0394 41.6962 48.773 41.3631 48.773C41.0301 48.773 40.7637 49.0394 40.7637 49.3725C40.7637 49.7055 41.0301 49.9719 41.3631 49.9719C41.6962 49.9719 41.9626 49.7055 41.9626 49.3725Z" stroke="#677075" stroke-width="0.3" stroke-miterlimit="10"/>
<path d="M40.5635 49.3726H42.162" stroke="#677075" stroke-width="0.3" stroke-miterlimit="10" stroke-dasharray="24.49 2.45 0.82 2.45"/>
<path d="M40.6968 47.5074V46.908M48.0236 47.1078V54.5678V47.1078ZM48.2234 49.3724H60.7455H48.2234ZM56.0164 49.6389L56.8823 48.773L56.0164 49.6389ZM57.0821 49.2392C57.0821 48.9062 56.8157 48.6397 56.4827 48.6397C56.1496 48.6397 55.8832 48.9062 55.8832 49.2392C55.8832 49.5722 56.1496 49.8387 56.4827 49.8387C56.8157 49.8387 57.0821 49.5722 57.0821 49.2392ZM57.1487 49.2392C57.1487 48.8396 56.8823 48.5731 56.4827 48.5731C56.083 48.5731 55.8166 48.8396 55.8166 49.2392C55.8166 49.6388 56.1496 49.9053 56.4827 49.9053C56.8823 49.9053 57.1487 49.6388 57.1487 49.2392ZM60.5457 48.2401V50.1717H48.5564L60.5457 48.2401ZM48.5564 48.2401H60.4791H48.5564ZM40.6968 47.5074H42.0955V46.908H40.6968V47.5074Z" stroke="#677075" stroke-width="0.3" stroke-miterlimit="10"/>
<path d="M54.6846 50.305V48.1736" stroke="#677075" stroke-width="0.3" stroke-miterlimit="10" stroke-dasharray="24.49 2.45 0.82 2.45"/>
<path d="M55.7502 48.2402V50.1718M53.3523 49.1727C53.3523 48.9063 53.1525 48.6399 52.8195 48.6399C52.5531 48.6399 52.2866 48.8397 52.2866 49.1727C52.2866 49.4392 52.4864 49.7056 52.8195 49.7056C53.0859 49.7056 53.3523 49.5058 53.3523 49.1727ZM53.4856 49.2393C53.4856 48.9063 53.2191 48.6399 52.8861 48.6399C52.5531 48.6399 52.2866 48.9063 52.2866 49.2393C52.2866 49.5724 52.5531 49.8388 52.8861 49.8388C53.2191 49.8388 53.4856 49.5724 53.4856 49.2393Z" stroke="#677075" stroke-width="0.3" stroke-miterlimit="10"/>
<path d="M52.8862 50.2384V48.2402" stroke="#677075" stroke-width="0.3" stroke-miterlimit="10" stroke-dasharray="24.49 2.45 0.82 2.45"/>
<path d="M48.5566 50.1718V48.2402M49.8888 49.2393C49.8888 48.9063 49.6224 48.6399 49.2893 48.6399C48.9563 48.6399 48.6899 48.9063 48.6899 49.2393C48.6899 49.5724 48.9563 49.8388 49.2893 49.8388C49.6224 49.8388 49.8888 49.5724 49.8888 49.2393ZM49.9554 49.2393C49.9554 48.8397 49.689 48.5733 49.2893 48.5733C48.8897 48.5733 48.6232 48.8397 48.6232 49.2393C48.6232 49.639 48.8897 49.9054 49.2893 49.9054C49.6224 49.9054 49.9554 49.639 49.9554 49.2393Z" stroke="#677075" stroke-width="0.3" stroke-miterlimit="10"/>
<path d="M49.2891 50.305V48.1736" stroke="#677075" stroke-width="0.3" stroke-miterlimit="10" stroke-dasharray="24.49 2.45 0.82 2.45"/>
<path d="M51.6869 49.2393C51.6869 48.9063 51.4205 48.6399 51.0875 48.6399C50.7544 48.6399 50.488 48.9063 50.488 49.2393C50.488 49.5723 50.7544 49.8388 51.0875 49.8388C51.4205 49.8388 51.6869 49.5723 51.6869 49.2393ZM51.7535 49.2393C51.7535 48.8397 51.4871 48.5732 51.0875 48.5732C50.6878 48.5732 50.4214 48.8397 50.4214 49.2393C50.4214 49.639 50.7544 49.9054 51.0875 49.9054C51.4871 49.9054 51.7535 49.639 51.7535 49.2393Z" stroke="#677075" stroke-width="0.3" stroke-miterlimit="10"/>
<path d="M51.0874 50.305V48.1736" stroke="#677075" stroke-width="0.3" stroke-miterlimit="10" stroke-dasharray="24.49 2.45 0.82 2.45"/>
<path d="M50.688 49.6388L51.5539 48.7729M52.0202 46.3085H53.6854V47.9736H52.0202V46.3085ZM54.085 48.2401V43.844V48.2401ZM54.085 43.844H51.6871V48.2401L54.085 43.844ZM54.4846 47.7738V52.2365V47.7738ZM51.2875 52.2365V47.1077V52.2365ZM51.0877 51.3706H54.2182H51.0877ZM55.2173 49.2392C55.2173 48.9061 54.9509 48.6397 54.6179 48.6397C54.2848 48.6397 54.0184 48.9061 54.0184 49.2392C54.0184 49.5722 54.2848 49.8386 54.6179 49.8386C54.9509 49.8386 55.2173 49.5722 55.2173 49.2392ZM55.3505 49.2392C55.3505 48.8395 55.0841 48.5731 54.6845 48.5731C54.2848 48.5731 54.0184 48.8395 54.0184 49.2392C54.0184 49.6388 54.2848 49.9052 54.6845 49.9052C55.0841 49.9052 55.3505 49.6388 55.3505 49.2392ZM54.2182 49.6388L55.0841 48.7729L54.2182 49.6388ZM52.553 49.5722L53.2857 48.8395L52.553 49.5722ZM48.8896 49.6388L49.7555 48.7729L48.8896 49.6388Z" stroke="#677075" stroke-width="0.3" stroke-miterlimit="10"/>
<path d="M51.8867 49.2393H53.8849" stroke="#677075" stroke-width="0.3" stroke-miterlimit="10" stroke-dasharray="24.49 2.45 0.82 2.45"/>
<path d="M52.4862 47.574L53.352 46.7081M53.5519 47.1077C53.5519 46.7081 53.2854 46.4417 52.8858 46.4417C52.4862 46.4417 52.2197 46.7081 52.2197 47.1077C52.2197 47.5074 52.4862 47.7738 52.8858 47.7738C53.2854 47.7738 53.5519 47.5074 53.5519 47.1077ZM53.4853 47.1077C53.4853 46.7747 53.2188 46.5083 52.8858 46.5083C52.5528 46.5083 52.2863 46.7747 52.2863 47.1077C52.2863 47.4408 52.5528 47.7072 52.8858 47.7072C53.2188 47.7072 53.4853 47.4408 53.4853 47.1077Z" stroke="#677075" stroke-width="0.3" stroke-miterlimit="10"/>
<path d="M56.4829 50.305V48.1736" stroke="#677075" stroke-width="0.3" stroke-miterlimit="10" stroke-dasharray="24.49 2.45 0.82 2.45"/>
<path d="M60.4125 49.2393C60.4125 48.9063 60.1461 48.6399 59.813 48.6399C59.48 48.6399 59.2136 48.9063 59.2136 49.2393C59.2136 49.5723 59.48 49.8388 59.813 49.8388C60.1461 49.8388 60.4125 49.5723 60.4125 49.2393ZM60.4791 49.2393C60.4791 48.8397 60.2127 48.5732 59.813 48.5732C59.4134 48.5732 59.147 48.8397 59.147 49.2393C59.147 49.639 59.4134 49.9054 59.813 49.9054C60.2127 49.9054 60.4791 49.639 60.4791 49.2393Z" stroke="#677075" stroke-width="0.3" stroke-miterlimit="10"/>
<path d="M59.813 50.305V48.1736" stroke="#677075" stroke-width="0.3" stroke-miterlimit="10" stroke-dasharray="24.49 2.45 0.82 2.45"/>
<path d="M59.347 49.6389L60.2129 48.773M62.2778 6.8772H6.26123H62.2778Z" stroke="#677075" stroke-width="0.3" stroke-miterlimit="10"/>
<path d="M5.72803 0.949219H62.8103" stroke="#677075" stroke-width="0.3" stroke-miterlimit="10"/>
<path d="M36.1674 43.5776H33.5032M6.92695 44.4435H5.72803V40.2472H6.92695V44.4435ZM6.32749 37.7828V25.7935V37.7828ZM6.26088 17.6008V40.2472V17.6008ZM33.5698 42.9781H36.1674H33.5698Z" stroke="#677075" stroke-width="0.3" stroke-miterlimit="10"/>
<path d="M6.32764 44.71V39.9143" stroke="#677075" stroke-width="0.3" stroke-miterlimit="10" stroke-dasharray="24.49 2.45 0.82 2.45"/>
<path d="M6.26123 6.41089V9.27499" stroke="#677075" stroke-width="0.3" stroke-miterlimit="10"/>
<path d="M6.32764 17.8672V13.0715M6.32764 13.7376V8.94189V13.7376Z" stroke="#677075" stroke-width="0.3" stroke-miterlimit="10" stroke-dasharray="24.49 2.45 0.82 2.45"/>
<path d="M0.266602 6.41089H6.26124M36.301 42.5119H38.166H36.301ZM38.0994 45.4426H36.2344V42.4453L38.0994 45.4426ZM68.2724 6.41089H62.2778H68.2724Z" stroke="#677075" stroke-width="0.3" stroke-miterlimit="10"/>
<path d="M36.5674 40.7136H37.7663" stroke="#677075" stroke-width="0.3" stroke-miterlimit="10" stroke-dasharray="24.49 2.45 0.82 2.45"/>
<path d="M37.6995 40.6468C37.6995 40.3804 37.4331 40.114 37.1666 40.114C36.9002 40.114 36.6338 40.3804 36.6338 40.6468C36.6338 40.9133 36.9002 41.1797 37.1666 41.1797C37.4331 41.1797 37.6995 40.9799 37.6995 40.6468ZM37.8327 40.6468C37.8327 40.3138 37.5663 40.0474 37.2333 40.0474C36.9002 40.0474 36.6338 40.3138 36.6338 40.6468C36.6338 40.9799 36.9002 41.2463 37.2333 41.2463C37.5663 41.2463 37.8327 40.9799 37.8327 40.6468Z" stroke="#677075" stroke-width="0.3" stroke-miterlimit="10"/>
<path d="M36.4341 40.7136H37.966" stroke="#677075" stroke-width="0.3" stroke-miterlimit="10" stroke-dasharray="24.49 2.45 0.82 2.45"/>
<path d="M36.1675 42.3786H42.4285M36.1675 45.5757H42.4285H36.1675ZM37.8993 39.9807V39.6477H36.5005V39.9807H37.8993Z" stroke="#677075" stroke-width="0.3" stroke-miterlimit="10"/>
<path d="M36.1011 45.043H38.2991M37.1668 41.4463V39.9143V41.4463ZM37.1668 41.3131V40.1141V41.3131ZM36.1011 45.043H38.2325H36.1011Z" stroke="#677075" stroke-width="0.3" stroke-miterlimit="10" stroke-dasharray="24.49 2.45 0.82 2.45"/>
<path d="M32.7705 46.575H36.1009M37.1666 40.1142V39.5813V40.1142ZM37.4996 42.3788V41.4463H37.2332V41.3131L37.4996 42.3788ZM37.4996 40.7136C37.4996 40.5138 37.3664 40.3806 37.1666 40.3806C36.9668 40.3806 36.8335 40.5138 36.8335 40.7136C36.8335 40.9134 36.9668 41.0467 37.1666 41.0467C37.3664 41.1133 37.4996 40.9134 37.4996 40.7136ZM37.5662 40.7136C37.5662 40.5138 37.3664 40.314 37.1666 40.314C36.9668 40.314 36.7669 40.5138 36.7669 40.7136C36.7669 40.9134 36.9668 41.1133 37.1666 41.1133C37.3664 41.1133 37.5662 40.98 37.5662 40.7136ZM36.9001 40.98L37.433 40.4472L36.9001 40.98Z" stroke="#677075" stroke-width="0.3" stroke-miterlimit="10"/>
<path d="M41.3628 41.4463V39.9143" stroke="#677075" stroke-width="0.3" stroke-miterlimit="10" stroke-dasharray="24.49 2.45 0.82 2.45"/>
<path d="M41.9626 40.6468C41.9626 40.3804 41.6962 40.114 41.4297 40.114C41.1633 40.114 40.8969 40.3804 40.8969 40.6468C40.8969 40.9133 41.1633 41.1797 41.4297 41.1797C41.6962 41.1797 41.9626 40.9799 41.9626 40.6468ZM41.9626 40.6468C41.9626 40.3138 41.6962 40.0474 41.3631 40.0474C41.0301 40.0474 40.7637 40.3138 40.7637 40.6468C40.7637 40.9799 41.0301 41.2463 41.3631 41.2463C41.6962 41.2463 41.9626 40.9799 41.9626 40.6468Z" stroke="#677075" stroke-width="0.3" stroke-miterlimit="10"/>
<path d="M39.2983 41.3129V40.114" stroke="#677075" stroke-width="0.3" stroke-miterlimit="10" stroke-dasharray="24.49 2.45 0.82 2.45"/>
<path d="M39.8313 40.6468C39.8313 40.3138 39.5648 40.0474 39.2318 40.0474C38.8988 40.0474 38.6323 40.3138 38.6323 40.6468C38.6323 40.9799 38.8988 41.2463 39.2318 41.2463C39.5648 41.2463 39.8313 40.9799 39.8313 40.6468ZM39.7646 40.6468C39.7646 40.3804 39.4982 40.114 39.2318 40.114C38.9654 40.114 38.6989 40.3804 38.6989 40.6468C38.6989 40.9133 38.9654 41.1797 39.2318 41.1797C39.5648 41.1797 39.7646 40.9799 39.7646 40.6468Z" stroke="#677075" stroke-width="0.3" stroke-miterlimit="10"/>
<path d="M39.2983 41.4463V39.9143M40.2974 45.043H42.4289H40.2974ZM40.2974 45.043H42.4289H40.2974Z" stroke="#677075" stroke-width="0.3" stroke-miterlimit="10" stroke-dasharray="24.49 2.45 0.82 2.45"/>
<path d="M40.4304 42.5119H42.2954V45.4426H40.4304M38.0991 42.5119V45.4426V42.5119ZM38.3655 45.4426V42.4453V45.4426ZM38.3655 42.5119H40.2305V45.4426H38.3655V42.5119ZM40.4304 45.4426V42.4453V45.4426Z" stroke="#677075" stroke-width="0.3" stroke-miterlimit="10"/>
<path d="M38.2324 45.0431H40.3638M38.4988 40.7136H40.0308H38.4988ZM38.2324 45.0431H40.3638H38.2324Z" stroke="#677075" stroke-width="0.3" stroke-miterlimit="10" stroke-dasharray="24.49 2.45 0.82 2.45"/>
<path d="M39.5645 42.3788V41.4463H39.2981V41.3131L39.5645 42.3788ZM39.0316 40.98L39.5645 40.4472L39.0316 40.98ZM39.6977 40.7136C39.6977 40.5138 39.4979 40.314 39.2981 40.314C39.0983 40.314 38.8984 40.5138 38.8984 40.7136C38.8984 40.9134 39.0983 41.1132 39.2981 41.1132C39.4979 41.1132 39.6977 40.98 39.6977 40.7136ZM39.6977 40.7136C39.6977 40.5138 39.5645 40.3806 39.3647 40.3806C39.1649 40.3806 39.0316 40.5138 39.0316 40.7136C39.0316 40.9134 39.1649 41.0466 39.3647 41.0466C39.4979 41.1133 39.6977 40.9134 39.6977 40.7136Z" stroke="#677075" stroke-width="0.3" stroke-miterlimit="10"/>
<path d="M40.5635 40.7136H42.162" stroke="#677075" stroke-width="0.3" stroke-miterlimit="10" stroke-dasharray="24.49 2.45 0.82 2.45"/>
<path d="M41.6962 42.3786V41.4461H41.4297V41.3129M50.6881 37.1166L51.554 36.2508L50.6881 37.1166ZM48.8897 37.1166L49.7556 36.2508L48.8897 37.1166ZM51.7538 36.717C51.7538 36.3174 51.4874 36.0509 51.0878 36.0509C50.6881 36.0509 50.4217 36.384 50.4217 36.717C50.4217 37.1166 50.7547 37.3831 51.0878 37.3831C51.4874 37.3831 51.7538 37.05 51.7538 36.717ZM51.6872 36.717C51.6872 36.384 51.4208 36.1175 51.0878 36.1175C50.7547 36.1175 50.4883 36.384 50.4883 36.717C50.4883 37.05 50.7547 37.3165 51.0878 37.3165C51.4208 37.3165 51.6872 37.05 51.6872 36.717ZM49.2228 45.4425L50.0886 44.5766L49.2228 45.4425ZM50.2885 45.0429C50.2885 44.7099 50.022 44.4434 49.689 44.4434C49.356 44.4434 49.0895 44.7099 49.0895 45.0429C49.0895 45.3759 49.356 45.6424 49.689 45.6424C50.022 45.6424 50.2885 45.3759 50.2885 45.0429ZM50.3551 45.0429C50.3551 44.6432 50.0887 44.3768 49.689 44.3768C49.2894 44.3768 49.0229 44.6432 49.0229 45.0429C49.0229 45.4425 49.2894 45.709 49.689 45.709C50.022 45.709 50.3551 45.3759 50.3551 45.0429ZM48.2237 36.717H60.7458H48.2237ZM60.546 35.7845V37.7161H48.5567L60.546 35.7845ZM57.149 36.717C57.149 36.3174 56.8826 36.0509 56.4829 36.0509C56.0833 36.0509 55.8169 36.384 55.8169 36.717C55.8169 37.1166 56.1499 37.3831 56.4829 37.3831C56.8826 37.3831 57.149 37.05 57.149 36.717ZM57.0824 36.717C57.0824 36.384 56.816 36.1175 56.4829 36.1175C56.1499 36.1175 55.8835 36.384 55.8835 36.717C55.8835 37.05 56.1499 37.3165 56.4829 37.3165C56.816 37.3165 57.0824 37.05 57.0824 36.717ZM48.5567 35.7845H60.4794H48.5567ZM56.0167 37.1166L56.8826 36.2508L56.0167 37.1166ZM48.0238 34.7854V42.9781V34.7854ZM51.6872 35.1184V35.7845V35.1184ZM54.0851 35.7845V34.9186V35.7845ZM54.4847 34.852V35.7845V34.852ZM54.4847 34.852V35.5847V34.852ZM42.0958 39.9807V39.6477H40.6304V39.9807H42.0958ZM41.3631 40.114V39.5811V40.114ZM39.2983 40.114V39.5811V40.114ZM39.9644 39.9807V39.6477H38.499V39.9807H39.9644ZM41.6962 40.7134C41.6962 40.5136 41.5629 40.3804 41.3631 40.3804C41.1633 40.3804 41.0301 40.5136 41.0301 40.7134C41.0301 40.9132 41.1633 41.0465 41.3631 41.0465C41.5629 41.1131 41.6962 40.9132 41.6962 40.7134ZM41.6962 40.7134C41.6962 40.5136 41.4963 40.3138 41.2965 40.3138C41.0967 40.3138 40.8969 40.5136 40.8969 40.7134C40.8969 40.9132 41.0967 41.1131 41.2965 41.1131C41.5629 41.1131 41.6962 40.9799 41.6962 40.7134ZM41.0967 40.9799L41.6296 40.447L41.0967 40.9799Z" stroke="#677075" stroke-width="0.3" stroke-miterlimit="10"/>
<path d="M51.0875 37.7828V35.6514M49.2891 37.7828V35.6514V37.7828Z" stroke="#677075" stroke-width="0.3" stroke-miterlimit="10" stroke-dasharray="24.49 2.45 0.82 2.45"/>
<path d="M55.7502 35.7846V37.7162V35.7846ZM48.5566 37.6496V35.718V37.6496ZM49.9554 36.7171C49.9554 36.3175 49.689 36.0511 49.2893 36.0511C48.8897 36.0511 48.6232 36.3841 48.6232 36.7171C48.6232 37.1168 48.8897 37.3832 49.2893 37.3832C49.6224 37.3832 49.9554 37.0502 49.9554 36.7171ZM49.8888 36.7171C49.8888 36.3841 49.6224 36.1177 49.2893 36.1177C48.9563 36.1177 48.6899 36.3841 48.6899 36.7171C48.6899 37.0502 48.9563 37.3166 49.2893 37.3166C49.6224 37.3166 49.8888 37.0502 49.8888 36.7171Z" stroke="#677075" stroke-width="0.3" stroke-miterlimit="10"/>
<path d="M54.6846 37.7828V35.6514" stroke="#677075" stroke-width="0.3" stroke-miterlimit="10" stroke-dasharray="24.49 2.45 0.82 2.45"/>
<path d="M52.5532 37.0501L53.2193 36.3174" stroke="#677075" stroke-width="0.3" stroke-miterlimit="10"/>
<path d="M52.8862 37.7162V35.718" stroke="#677075" stroke-width="0.3" stroke-miterlimit="10" stroke-dasharray="24.49 2.45 0.82 2.45"/>
<path d="M52.4863 35.1186C52.6195 35.1852 52.7527 35.2518 52.8859 35.2518C53.0858 35.2518 53.219 35.1852 53.3522 35.052L52.4863 35.1186ZM52.4197 35.1186C52.5529 35.2518 52.6861 35.3184 52.8859 35.3184C53.0858 35.3184 53.2856 35.1852 53.4188 35.052L52.4197 35.1186ZM54.0849 37.9161V37.6497V37.9161ZM51.687 37.6497V37.9161H54.0849L51.687 37.6497ZM54.2181 37.1168L55.084 36.2509L54.2181 37.1168ZM55.3504 36.7172C55.3504 36.3175 55.084 36.0511 54.6843 36.0511C54.2847 36.0511 54.0183 36.3841 54.0183 36.7172C54.0183 37.1168 54.2847 37.3832 54.6843 37.3832C55.084 37.3832 55.3504 37.0502 55.3504 36.7172ZM55.2172 36.7172C55.2172 36.3841 54.9508 36.1177 54.6177 36.1177C54.2847 36.1177 54.0183 36.3841 54.0183 36.7172C54.0183 37.0502 54.2847 37.3166 54.6177 37.3166C54.9508 37.3166 55.2172 37.0502 55.2172 36.7172ZM53.4854 36.7838C53.4854 36.4507 53.219 36.1843 52.8859 36.1843C52.5529 36.1843 52.2865 36.4507 52.2865 36.7838C52.2865 37.1168 52.5529 37.3832 52.8859 37.3832C53.219 37.3166 53.4854 37.0502 53.4854 36.7838ZM53.3522 36.7172C53.3522 36.4507 53.1524 36.1843 52.8193 36.1843C52.5529 36.1843 52.2865 36.3841 52.2865 36.7172C52.2865 36.9836 52.4863 37.25 52.8193 37.25C53.0858 37.1834 53.3522 36.9836 53.3522 36.7172Z" stroke="#677075" stroke-width="0.3" stroke-miterlimit="10"/>
<path d="M51.8867 36.717H53.8849" stroke="#677075" stroke-width="0.3" stroke-miterlimit="10" stroke-dasharray="24.49 2.45 0.82 2.45"/>
<path d="M53.6852 34.9854V35.4516H52.02V35.1186M59.3468 37.1168L60.2127 36.2509L59.3468 37.1168Z" stroke="#677075" stroke-width="0.3" stroke-miterlimit="10"/>
<path d="M59.813 37.7828V35.6514" stroke="#677075" stroke-width="0.3" stroke-miterlimit="10" stroke-dasharray="24.49 2.45 0.82 2.45"/>
<path d="M60.4791 36.7171C60.4791 36.3175 60.2127 36.051 59.813 36.051C59.4134 36.051 59.147 36.3841 59.147 36.7171C59.147 37.1167 59.4134 37.3832 59.813 37.3832C60.2127 37.3832 60.4791 37.0501 60.4791 36.7171ZM60.4125 36.7171C60.4125 36.3841 60.1461 36.1176 59.813 36.1176C59.48 36.1176 59.2136 36.3841 59.2136 36.7171C59.2136 37.0501 59.48 37.3166 59.813 37.3166C60.1461 37.3166 60.4125 37.0501 60.4125 36.7171Z" stroke="#677075" stroke-width="0.3" stroke-miterlimit="10"/>
<path d="M56.4829 37.7828V35.6514" stroke="#677075" stroke-width="0.3" stroke-miterlimit="10" stroke-dasharray="24.49 2.45 0.82 2.45"/>
<path d="M65.7412 112.716H67.6728" stroke="#677075" stroke-width="0.3" stroke-miterlimit="10"/>
<path d="M65.8076 112.516H67.606" stroke="#677075" stroke-width="0.3" stroke-miterlimit="10"/>
<path d="M68.0717 112.982L67.606 113.514" stroke="#677075" stroke-width="0.3" stroke-miterlimit="10"/>
<path d="M65.8745 113.448H67.6729" stroke="#677075" stroke-width="0.3" stroke-miterlimit="10"/>
<path d="M65.8745 113.515H67.6063" stroke="#677075" stroke-width="0.3" stroke-miterlimit="10"/>
<path d="M68.2723 109.119C67.6728 109.319 66.6071 109.585 66.2741 110.251C66.1408 110.518 66.1408 110.851 66.0076 111.117C65.608 111.717 65.5414 111.65 65.8078 112.383C66.4739 114.381 64.6755 113.915 68.3389 114.98" stroke="#677075" stroke-width="0.3" stroke-miterlimit="10"/>
<path d="M67.606 112.516V113.515" stroke="#677075" stroke-width="0.3" stroke-miterlimit="10"/>
<path d="M68.0717 112.982L67.606 112.516" stroke="#677075" stroke-width="0.3" stroke-miterlimit="10"/>
<path d="M51.2876 35.784V35.1187" stroke="#677075" stroke-width="0.3" stroke-miterlimit="10"/>
<path d="M68.2723 122.574V114.98M68.2723 109.119V0.949219H62.8105L68.2723 109.119Z" stroke="#677075" stroke-width="0.3" stroke-miterlimit="10"/>
<path d="M62.0777 116.379H6.32764" stroke="#677075" stroke-width="0.3" stroke-miterlimit="10"/>
<path d="M37.4998 37.1168L36.9669 37.6497M37.5664 37.4498C37.5664 37.25 37.3666 37.0502 37.1667 37.0502C36.9669 37.0502 36.7671 37.25 36.7671 37.4498C36.7671 37.6497 36.9669 37.8495 37.1667 37.8495C37.3666 37.8495 37.5664 37.6497 37.5664 37.4498ZM37.6996 37.3832C37.6996 37.1168 37.4998 36.917 37.2333 36.917C36.9669 36.917 36.7671 37.1168 36.7671 37.3832C36.7671 37.6497 36.9669 37.8495 37.2333 37.8495C37.4998 37.8495 37.6996 37.6497 37.6996 37.3832Z" stroke="#677075" stroke-width="0.3" stroke-miterlimit="10"/>
<path d="M37.167 38.3157V36.5173" stroke="#677075" stroke-width="0.3" stroke-miterlimit="10" stroke-dasharray="24.49 2.45 0.82 2.45"/>
<path d="M37.6996 39.6478V36.7837H36.7671V39.6478M37.6996 38.3823C37.6996 38.1158 37.4998 37.916 37.2333 37.916C36.9669 37.916 36.7671 38.1158 36.7671 38.3823C36.7671 38.6487 36.9669 38.8485 37.2333 38.8485C37.4998 38.8485 37.6996 38.6487 37.6996 38.3823Z" stroke="#677075" stroke-width="0.3" stroke-miterlimit="10"/>
<path d="M36.3008 38.3822H38.0326M36.3008 37.4497H38.0326H36.3008Z" stroke="#677075" stroke-width="0.3" stroke-miterlimit="10" stroke-dasharray="24.49 2.45 0.82 2.45"/>
<path d="M36.7007 39.0483H37.6332M37.5666 38.3157C37.5666 38.1158 37.3668 37.916 37.1669 37.916C36.9671 37.916 36.7673 38.1158 36.7673 38.3157C36.7673 38.5155 36.9671 38.7153 37.1669 38.7153C37.3668 38.7153 37.5666 38.5821 37.5666 38.3157ZM37.5 38.1158L36.9671 38.6487L37.5 38.1158Z" stroke="#677075" stroke-width="0.3" stroke-miterlimit="10"/>
<path d="M37.167 39.2481V37.5164" stroke="#677075" stroke-width="0.3" stroke-miterlimit="10" stroke-dasharray="24.49 2.45 0.82 2.45"/>
<path d="M5.72803 17.6008V13.4712H6.92695V17.6008" stroke="#677075" stroke-width="0.3" stroke-miterlimit="10"/>
<path d="M41.8291 37.4497V39.6477" stroke="#677075" stroke-width="0.3" stroke-miterlimit="10"/>
<path d="M38.9652 39.6478V39.0483H37.6997" stroke="#677075" stroke-width="0.3" stroke-miterlimit="10"/>
<path d="M41.0965 39.6478V39.0483H39.6978V39.6478" stroke="#677075" stroke-width="0.3" stroke-miterlimit="10"/>
<path d="M37.6997 37.4497H41.8293" stroke="#677075" stroke-width="0.3" stroke-miterlimit="10"/>
<path d="M25.7769 67.4231V65.8911M27.8417 67.2233V66.0243V67.2233ZM27.8417 67.4231V65.8911V67.4231ZM25.7769 67.2233V66.0243V67.2233Z" stroke="#677075" stroke-width="0.3" stroke-miterlimit="10" stroke-dasharray="24.49 2.45 0.82 2.45"/>
<path d="M25.7771 66.0908V65.558H26.0436V64.9585L25.7771 66.0908ZM25.1111 64.7587H28.5746V64.1592H25.1111V64.7587ZM28.9077 64.9585H24.7114H28.9077ZM25.5107 64.1592V62.8271V64.1592ZM27.6421 62.8271V64.1592V62.8271ZM25.977 62.8271V64.1592V62.8271ZM26.8429 62.6939V64.0926V62.6939ZM28.1084 64.1592V62.8271V64.1592ZM24.8446 59.6965H28.7745V62.6939H24.8446V59.6965ZM27.842 67.6894V67.1565V67.6894ZM28.5746 67.3563V67.6894H27.1093V67.3563H28.5746ZM25.7771 67.6894V67.1565V67.6894ZM26.5098 67.3563V67.6894H25.1111V67.3563H26.5098ZM26.1768 66.6237C26.1768 66.4238 25.977 66.224 25.7771 66.224C25.5773 66.224 25.3775 66.4238 25.3775 66.6237C25.3775 66.8235 25.5773 67.0233 25.7771 67.0233C25.977 67.0233 26.1768 66.8235 26.1768 66.6237ZM25.5107 66.8901L26.0436 66.3572L25.5107 66.8901ZM26.31 66.6237C26.31 66.3572 26.0436 66.0908 25.7771 66.0908C25.5107 66.0908 25.2443 66.3572 25.2443 66.6237C25.2443 66.8901 25.5107 67.1565 25.7771 67.1565C26.0436 67.1565 26.31 66.8901 26.31 66.6237ZM26.8429 64.7587V67.3563V64.7587ZM28.2416 66.6237C28.2416 66.4238 28.0418 66.224 27.842 66.224C27.6421 66.224 27.4423 66.4238 27.4423 66.6237C27.4423 66.8235 27.6421 67.0233 27.842 67.0233C28.0418 67.0233 28.2416 66.8235 28.2416 66.6237ZM27.5755 66.8901L28.1084 66.3572L27.5755 66.8901ZM28.4414 66.6237C28.4414 66.3572 28.175 66.0908 27.9086 66.0908C27.6421 66.0908 27.3757 66.3572 27.3757 66.6237C27.3757 66.8901 27.6421 67.1565 27.9086 67.1565C28.175 67.1565 28.4414 66.8901 28.4414 66.6237Z" stroke="#677075" stroke-width="0.3" stroke-miterlimit="10"/>
<path d="M24.9775 66.6235H26.5095M25.1774 66.6235H26.3763H25.1774Z" stroke="#677075" stroke-width="0.3" stroke-miterlimit="10" stroke-dasharray="24.49 2.45 0.82 2.45"/>
<path d="M27.8418 66.0908V65.558H28.1748V64.9585" stroke="#677075" stroke-width="0.3" stroke-miterlimit="10"/>
<path d="M27.109 66.6236H28.641M26.776 62.2942H28.9074H26.776ZM24.6445 62.2942H26.8426H24.6445ZM27.2422 66.6236H28.4411H27.2422Z" stroke="#677075" stroke-width="0.3" stroke-miterlimit="10" stroke-dasharray="24.49 2.45 0.82 2.45"/>
<path d="M24.7114 62.827H28.9077M24.7114 59.6299H28.9077H24.7114Z" stroke="#677075" stroke-width="0.3" stroke-miterlimit="10"/>
<path d="M25.7769 58.6975V57.1655" stroke="#677075" stroke-width="0.3" stroke-miterlimit="10" stroke-dasharray="24.49 2.45 0.82 2.45"/>
<path d="M26.0433 59.6299V58.6308H25.7769V58.4976" stroke="#677075" stroke-width="0.3" stroke-miterlimit="10"/>
<path d="M24.9775 57.8982H26.5761" stroke="#677075" stroke-width="0.3" stroke-miterlimit="10" stroke-dasharray="24.49 2.45 0.82 2.45"/>
<path d="M25.1777 57.8315C25.1777 57.8982 25.1777 57.8982 25.1777 57.9648C25.1777 58.2978 25.4442 58.5642 25.7772 58.5642C26.1102 58.5642 26.3767 58.2978 26.3767 57.9648C26.3767 57.8982 26.3767 57.8982 26.3767 57.8315" stroke="#677075" stroke-width="0.3" stroke-miterlimit="10"/>
<path d="M25.1777 57.8982H26.3767" stroke="#677075" stroke-width="0.3" stroke-miterlimit="10" stroke-dasharray="24.49 2.45 0.82 2.45"/>
<path d="M25.4438 57.8315C25.4438 57.8981 25.4438 57.8981 25.4438 57.9646C25.4438 58.1642 25.5769 58.2973 25.7765 58.2973C25.9761 58.2973 26.1092 58.1642 26.1092 57.9646C26.1092 57.8981 26.1092 57.8981 26.1092 57.8315" stroke="#677075" stroke-width="0.3" stroke-miterlimit="10"/>
<path d="M27.8418 58.6975V57.1655" stroke="#677075" stroke-width="0.3" stroke-miterlimit="10" stroke-dasharray="24.49 2.45 0.82 2.45"/>
<path d="M28.1748 59.6299V58.6308H27.8418V58.4976" stroke="#677075" stroke-width="0.3" stroke-miterlimit="10"/>
<path d="M27.1089 57.8982H28.6408M27.2421 57.8982H28.441H27.2421Z" stroke="#677075" stroke-width="0.3" stroke-miterlimit="10" stroke-dasharray="24.49 2.45 0.82 2.45"/>
<path d="M27.3091 57.8316C27.3091 57.8982 27.3091 57.8983 27.3091 57.9649C27.3091 58.2979 27.5755 58.5643 27.9086 58.5643C28.2416 58.5643 28.508 58.2979 28.508 57.9649C28.508 57.8983 28.508 57.8982 28.508 57.8316M29.9734 74.2836H33.3703H29.9734ZM35.0355 70.3538H31.3055C31.1057 70.3538 30.9725 70.2206 30.9725 70.0207V62.3609C30.9725 62.1611 31.1057 62.0279 31.3055 62.0279H38.6989L35.0355 70.3538ZM29.9734 77.8138V59.3636C29.9734 59.1638 30.1066 59.0306 30.3064 59.0306H41.1634L29.9734 77.8138ZM50.7548 47.1079H42.4289H50.7548ZM42.4289 42.9783H50.7548H42.4289ZM42.4289 46.5751H50.7548H42.4289ZM50.7548 43.5777H42.4289H50.7548ZM50.7548 42.9783V47.1745V42.9783ZM9.79144 57.8316V59.0306V57.8316ZM24.112 59.0306V57.8316V59.0306ZM7.06055 63.7597H9.19197H7.06055ZM9.19197 60.7624H7.06055H9.19197ZM9.19197 64.3591H7.06055V60.1629H9.19197V64.3591ZM7.06055 69.7543H9.19197H7.06055ZM9.19197 72.685H7.06055H9.19197ZM9.19197 69.1548H7.06055V73.3511H9.19197V69.1548ZM30.5728 57.8316V59.0306V57.8316ZM28.9077 60.7624H29.9734H28.9077ZM29.9734 63.7597H28.9077H29.9734ZM28.9077 64.3591H29.9734H28.9077ZM29.9734 60.1629H28.9077H29.9734ZM27.5755 58.1647L27.9752 57.765L27.5755 58.1647ZM25.5107 58.1647L25.9103 57.765L25.5107 58.1647ZM26.8428 57.8316V59.7632V57.8316ZM28.9077 57.8316V67.3565H24.7114V57.8316H28.9077ZM27.3091 73.2845V79.1459V73.2845ZM27.3091 67.6895V69.0882V67.6895ZM29.9734 69.7543H24.7114H29.9734ZM24.7114 72.685H29.9734H24.7114ZM29.9734 73.2845H24.7114H29.9734ZM24.7114 69.1548H29.9734H24.7114ZM28.9077 62.2943L29.3073 61.8947L28.9077 62.2943ZM27.5089 57.8316C27.5089 57.8982 27.5089 57.8983 27.5089 57.9649C27.5089 58.1647 27.6421 58.2979 27.8419 58.2979C28.0418 58.2979 28.175 58.1647 28.175 57.9649C28.175 57.8983 28.175 57.8982 28.175 57.8316H27.5089Z" stroke="#677075" stroke-width="0.3" stroke-miterlimit="10"/>
<path d="M31.0391 75.0827H32.7708M37.6998 59.1636V57.6982V59.1636ZM31.905 75.9486V74.2168V75.9486Z" stroke="#677075" stroke-width="0.3" stroke-miterlimit="10" stroke-dasharray="24.49 2.45 0.82 2.45"/>
<path d="M14.7203 83.2089H9.59154C9.39172 83.2089 9.2585 83.0757 9.2585 82.8758V59.3636C9.2585 59.1637 9.39172 59.0305 9.59154 59.0305H24.3783C24.5781 59.0305 24.7113 59.1637 24.7113 59.3636V79.9451M9.19189 74.2835H24.7113H9.19189ZM10.191 70.0207V62.3609C10.191 62.161 10.3242 62.0278 10.524 62.0278H23.3792C23.579 62.0278 23.7122 62.161 23.7122 62.3609V70.0207C23.7122 70.2205 23.579 70.3537 23.3792 70.3537H10.524C10.3242 70.3537 10.191 70.2205 10.191 70.0207Z" stroke="#677075" stroke-width="0.3" stroke-miterlimit="10"/>
<path d="M10.2573 75.0827H11.9891M21.847 75.0827H23.5787H21.847ZM22.8461 75.9486V74.2168V75.9486ZM11.1232 75.9486V74.2168V75.9486Z" stroke="#677075" stroke-width="0.3" stroke-miterlimit="10" stroke-dasharray="24.49 2.45 0.82 2.45"/>
<path d="M17.6508 58.4309H15.9856M15.2529 58.4309H18.3835H15.2529Z" stroke="#677075" stroke-width="0.3" stroke-miterlimit="10"/>
<path d="M16.1187 58.4309H17.8504M16.1187 58.4309H17.7838H16.1187Z" stroke="#677075" stroke-width="0.3" stroke-miterlimit="10" stroke-dasharray="24.49 2.45 0.82 2.45"/>
<path d="M16.9849 59.297V57.5652M16.9849 59.2304V57.5652V59.2304Z" stroke="#677075" stroke-width="0.3" stroke-miterlimit="10" stroke-dasharray="24.49 2.45 0.82 2.45"/>
<path d="M17.5842 58.431C17.5842 58.098 17.3178 57.8315 16.9847 57.8315C16.6517 57.8315 16.3853 58.098 16.3853 58.431C16.3853 58.764 16.6517 59.0305 16.9847 59.0305C17.3178 59.0305 17.5842 58.764 17.5842 58.431Z" stroke="#677075" stroke-width="0.3" stroke-miterlimit="10"/>
<path d="M16.252 58.4309H17.7173" stroke="#677075" stroke-width="0.3" stroke-miterlimit="10" stroke-dasharray="24.49 2.45 0.82 2.45"/>
<path d="M37.2334 58.964L38.0993 58.0315" stroke="#677075" stroke-width="0.3" stroke-miterlimit="10"/>
<path d="M16.5186 58.964L17.2512 58.0315" stroke="#677075" stroke-width="0.3" stroke-miterlimit="10"/>
<path d="M41.829 58.4309H46.6913V74.2834H33.4365" stroke="#677075" stroke-width="0.3" stroke-miterlimit="10"/>
<path d="M39.298 61.2952H43.8273V71.4194H34.7021" stroke="#677075" stroke-width="0.3" stroke-miterlimit="10"/>
<path d="M43.8274 90.469H31.9048V100.593H43.8274V90.469Z" stroke="#677075" stroke-width="0.3" stroke-miterlimit="10"/>
<path d="M29.0405 87.605H46.6914V103.457H29.0405V87.605Z" stroke="#677075" stroke-width="0.3" stroke-miterlimit="10"/>
<path d="M6.32764 82.8759C11.2566 84.9407 14.0541 83.6086 18.5833 81.677C21.7139 80.478 25.0442 80.145 28.1081 78.8128C31.1721 77.4141 33.3701 75.0829 34.569 71.8857C35.9678 66.5571 37.966 61.6948 42.2288 57.9648" stroke="#677075" stroke-width="0.3" stroke-miterlimit="10"/>
<path d="M62.0779 116.379V57.9648H42.229" stroke="#677075" stroke-width="0.3" stroke-miterlimit="10"/>
<path d="M51.2876 48.2402V37.6497" stroke="#677075" stroke-width="0.3" stroke-miterlimit="10"/>
<path d="M51.2876 54.5677V50.1716" stroke="#677075" stroke-width="0.3" stroke-miterlimit="10"/>
<path d="M54.4844 50.1716V54.5677" stroke="#677075" stroke-width="0.3" stroke-miterlimit="10"/>
<path d="M54.4844 37.6497V48.2402" stroke="#677075" stroke-width="0.3" stroke-miterlimit="10"/>
<path d="M16.5853 57.8315C16.3855 57.8982 16.2523 58.0314 16.1191 58.2312L15.6528 59.0971" stroke="#677075" stroke-width="0.3" stroke-miterlimit="10"/>
<path d="M18.2504 59.0304L17.7841 58.1645C17.6509 57.9647 17.5177 57.8315 17.3179 57.7649" stroke="#677075" stroke-width="0.3" stroke-miterlimit="10"/>
<path d="M16.4517 58.6309L16.1855 59.0301" stroke="#677075" stroke-width="0.3" stroke-miterlimit="10"/>
<path d="M36.9668 58.4309H38.4988" stroke="#677075" stroke-width="0.3" stroke-miterlimit="10" stroke-dasharray="24.49 2.45 0.82 2.45"/>
<path d="M38.299 58.431C38.299 58.098 38.0326 57.8315 37.6996 57.8315C37.3665 57.8315 37.1001 58.098 37.1001 58.431C37.1001 58.764 37.3665 59.0305 37.6996 59.0305C38.0326 59.0305 38.299 58.764 38.299 58.431Z" stroke="#677075" stroke-width="0.3" stroke-miterlimit="10"/>
<path d="M36.9001 58.4309H38.5653M36.8335 58.4309H38.6319H36.8335Z" stroke="#677075" stroke-width="0.3" stroke-miterlimit="10" stroke-dasharray="24.49 2.45 0.82 2.45"/>
<path d="M38.3659 58.4309H36.7007" stroke="#677075" stroke-width="0.3" stroke-miterlimit="10"/>
<path d="M36.8335 58.4309H38.6319" stroke="#677075" stroke-width="0.3" stroke-miterlimit="10" stroke-dasharray="24.49 2.45 0.82 2.45"/>
<path d="M37.1666 58.631L36.9667 59.0306M6.92695 75.4826H5.72803V71.2863H6.92695V75.4826ZM5.72803 13.4714H6.92695H5.72803ZM5.72803 13.4714V9.27515H6.92695V13.4714H5.72803ZM5.72803 17.601H6.92695H5.72803ZM62.2108 34.1862C56.6158 32.854 55.6833 35.7181 50.0217 35.0521C45.6923 34.386 44.0937 34.1862 39.631 34.9189C36.7669 35.4517 33.5698 35.3851 33.6364 39.1817C33.6364 40.9801 33.7696 42.6453 33.37 44.4437C32.3042 48.1071 31.7714 50.5715 31.9712 54.5013L62.2108 34.1862ZM62.2108 54.5013V34.1862V54.5013ZM39.0316 59.0306L38.5653 58.1647C38.4321 57.9649 38.2989 57.8317 38.0991 57.7651L39.0316 59.0306ZM37.3664 57.8317C37.1666 57.8983 37.0333 58.0315 36.9001 58.2313L36.4339 59.0972L37.3664 57.8317Z" stroke="#677075" stroke-width="0.3" stroke-miterlimit="10"/>
<path d="M59.6799 87.2052C59.6799 85.4734 58.2812 84.0081 56.4828 84.0081C54.751 84.0081 53.2856 85.4068 53.2856 87.2052C53.2856 88.937 54.6844 90.4023 56.4828 90.4023C58.2146 90.3357 59.6799 88.937 59.6799 87.2052Z" stroke="#677075" stroke-width="0.3" stroke-miterlimit="10"/>
<path d="M59.6799 87.2052C59.6799 85.4734 58.2812 84.0081 56.4828 84.0081C54.751 84.0081 53.2856 85.4068 53.2856 87.2052C53.2856 88.937 54.6844 90.4023 56.4828 90.4023C58.2146 90.3357 59.6799 88.937 59.6799 87.2052Z" stroke="#677075" stroke-width="0.3" stroke-miterlimit="10"/>
<path d="M58.2145 87.2052C58.2145 86.2061 57.4153 85.4734 56.4828 85.4734C55.5503 85.4734 54.751 86.2727 54.751 87.2052C54.751 88.1377 55.5503 88.937 56.4828 88.937C57.4153 88.937 58.2145 88.1377 58.2145 87.2052Z" stroke="#677075" stroke-width="0.3" stroke-miterlimit="10"/>
<path d="M58.2145 26.0599C58.2145 25.0608 57.4153 24.3281 56.4828 24.3281C55.5503 24.3281 54.751 25.1274 54.751 26.0599C54.751 26.9924 55.5503 27.7917 56.4828 27.7917C57.4153 27.7917 58.2145 27.059 58.2145 26.0599Z" stroke="#677075" stroke-width="0.3" stroke-miterlimit="10"/>
<path d="M59.6799 26.0599C59.6799 24.3282 58.2812 22.8628 56.4828 22.8628C54.751 22.8628 53.2856 24.2615 53.2856 26.0599C53.2856 27.8583 54.6844 29.2571 56.4828 29.2571C58.2146 29.2571 59.6799 27.8583 59.6799 26.0599Z" stroke="#677075" stroke-width="0.3" stroke-miterlimit="10"/>
<path d="M59.6799 26.0599C59.6799 24.3282 58.2812 22.8628 56.4828 22.8628C54.751 22.8628 53.2856 24.2615 53.2856 26.0599C53.2856 27.8583 54.6844 29.2571 56.4828 29.2571C58.2146 29.2571 59.6799 27.8583 59.6799 26.0599Z" stroke="#677075" stroke-width="0.3" stroke-miterlimit="10"/>
<path d="M50.8877 87.2053H61.8779" stroke="#677075" stroke-width="0.3" stroke-miterlimit="10"/>
<path d="M56.416 92.1342V81.144" stroke="#677075" stroke-width="0.3" stroke-miterlimit="10"/>
<path d="M56.416 31.0556V20.0654" stroke="#677075" stroke-width="0.3" stroke-miterlimit="10"/>
<path d="M50.8877 26.1267H61.8779" stroke="#677075" stroke-width="0.3" stroke-miterlimit="10"/>
</svg>
