<svg width="79" height="80" viewBox="0 0 79 80" fill="none" xmlns="http://www.w3.org/2000/svg">
<path d="M39.2723 76.5825C59.5162 76.5825 75.9271 60.1716 75.9271 39.9277C75.9271 19.6838 59.5162 3.27283 39.2723 3.27283C19.0284 3.27283 2.61743 19.6838 2.61743 39.9277C2.61743 60.1716 19.0284 76.5825 39.2723 76.5825Z" fill="white"/>
<path d="M39.2731 79.2007C60.963 79.2007 78.5461 61.471 78.5461 39.6003C78.5461 17.7297 60.963 0 39.2731 0C17.5831 0 0 17.7297 0 39.6003C0 61.471 17.5831 79.2007 39.2731 79.2007Z" fill="#666666"/>
<path d="M39.274 77.237C59.8794 77.237 76.5834 60.533 76.5834 39.9276C76.5834 19.3222 59.8794 2.61816 39.274 2.61816C18.6686 2.61816 1.9646 19.3222 1.9646 39.9276C1.9646 60.533 18.6686 77.237 39.274 77.237Z" fill="#166693"/>
<path d="M39.2735 74.6189C58.4329 74.6189 73.9647 58.9406 73.9647 39.6004C73.9647 20.2602 58.4329 4.58191 39.2735 4.58191C20.1141 4.58191 4.58228 20.2602 4.58228 39.6004C4.58228 58.9406 20.1141 74.6189 39.2735 74.6189Z" fill="white"/>
<path d="M62.4137 63.0678C75.1968 50.2848 75.1968 29.5702 62.4137 16.7872C49.6307 4.0042 28.9162 4.0042 16.1332 16.7872C3.35014 29.5702 3.35014 50.2848 16.1332 63.0678C28.9162 75.8508 49.6307 75.8508 62.4137 63.0678Z" fill="white"/>
<path fill-rule="evenodd" clip-rule="evenodd" d="M68.6354 45.7927C68.5404 46.2225 68.4376 46.6443 68.3268 47.0662L63.849 46.0952C63.9439 45.7529 64.031 45.4027 64.1101 45.0525L68.6354 45.7927ZM24.1182 19.368L31.2542 26.8656L25.827 27.8287L25.8982 33.3763C22.7495 31.4422 20.3682 29.922 16.9821 27.7093C16.2859 29.0226 15.7005 30.3995 15.2337 31.8322L10.922 30.9248C13.422 22.5119 19.5692 15.659 27.528 12.1729L29.403 16.3117C27.5122 17.1156 25.74 18.1423 24.1182 19.368ZM58.9202 23.4591C58.4693 22.9178 57.9946 22.3846 57.4962 21.8831L54.4187 24.9474L55.9218 26.4438L58.9202 23.4591ZM20.8508 56.7446L24.0074 53.6007L22.5043 52.1044L19.4663 55.1369C19.9014 55.686 20.3682 56.2273 20.8508 56.7446ZM43.2162 32.2779C41.6418 32.1108 42.1007 32.1108 40.5184 32.1108L37.1719 35.2069L36.2384 32.1983C36.2067 32.1983 35.4631 32.2938 35.4314 32.2938C28.8492 33.0261 24.047 35.7083 23.5723 38.9876C23.5723 38.9955 23.5723 39.0035 23.5723 39.0114C27.9473 39.6482 27.9394 39.3616 23.5723 39.9984C23.5723 40.0063 23.5723 40.0063 23.5723 40.0143C23.778 44.3919 32.4567 46.8433 35.5896 46.7478C35.5896 46.7478 36.5786 45.8325 38.6039 43.6119L38.9441 46.9945C38.9915 46.9945 39.8697 46.9707 39.9172 46.9707C44.0548 46.8592 54.5294 45.2276 55.2019 40.062C55.2019 40.0461 55.2019 40.0382 55.2019 40.0302L52.2589 39.4253L55.194 39.0194C55.194 39.0114 55.194 39.0035 55.194 38.9955C54.7114 35.6924 49.8538 32.9942 43.2162 32.2779ZM69.2445 41.6857C70.6448 23.7376 61.4281 6.84017 38.8017 9.42693L35.6529 9.91244C35.1703 9.97611 34.6798 10.0477 34.2052 10.1353L33.9283 10.1751H33.9836C32.1324 10.5173 30.3444 11.0347 28.6277 11.7112L30.5106 15.866C32.7099 15.0461 35.0438 14.5208 37.4805 14.3457L40.6371 23.8013L35.9852 22.2254L37.3143 33.814L38.6513 25.9424L42.338 27.7571L43.1529 28.2346L42.2906 14.4492C46.7051 14.9506 50.7636 16.5823 54.1892 19.0417C51.4915 22.0662 49.5374 24.255 47.1481 27.0885L52.6702 27.8287L52.8285 33.3206L61.5231 27.2317C62.243 28.5132 62.8522 29.8663 63.3427 31.275C62.2588 31.7208 61.4598 32.055 60.4629 32.4928L61.8632 33.4161L61.175 34.9283L64.2129 34.4428C64.474 35.7163 64.6401 37.0296 64.7034 38.3747L58.3031 37.6584L59.0389 39.1865L53.3744 39.4731L60.2256 40.1496L59.5769 38.7488L64.7113 40.1974C64.6797 41.4549 64.5531 42.6806 64.3395 43.8825L68.8727 44.6307C69.0467 43.6676 69.1654 42.6806 69.2445 41.6857ZM40.0437 69.36L43.3269 68.8586C43.8491 68.7949 44.3633 68.7153 44.8697 68.6198L44.925 68.6118H44.9171C55.8823 66.6141 64.7509 58.6389 68.0025 48.1964L63.5167 47.2254C63.0895 48.5625 62.5515 49.844 61.9186 51.0697C58.5405 48.865 55.9614 47.2174 52.8206 45.2833L52.8918 50.8309L47.4646 51.794L54.838 59.5383C51.2858 62.2604 46.9899 64.0751 42.3064 64.6163L43.1529 51.0856L42.338 51.5632L38.058 53.8475L38.1846 45.9917L34.2447 57.3018L40.5184 55.8771L37.5754 64.7118C35.1862 64.5447 32.8919 64.0432 30.74 63.2632L30.1308 65.0222L29.039 64.5526L29.6324 62.8255C27.7258 62.0296 25.9378 61.0108 24.3081 59.801C27.0296 56.7526 28.9837 54.5638 31.3887 51.7144L25.8666 50.9742L25.7084 45.4823L17.085 51.5234C16.3571 50.1862 15.748 48.7774 15.2733 47.305C16.4679 46.8513 17.3935 46.4931 18.5249 46.0315L16.8635 44.8694L17.7021 43.0866L14.3635 43.5323C14.316 43.2219 14.2685 42.9115 14.229 42.5931C14.2211 41.7494 14.2053 40.9296 14.1736 40.1655L19.2052 38.7408L18.5565 40.1416L25.2732 39.4492L19.7511 39.1706L20.4869 37.6424L14.1815 38.3508C14.2053 37.1171 14.2923 35.9392 14.5217 34.6259L10.2496 33.7265C10.1546 34.22 10.0676 34.7134 10.0043 35.2149C9.89357 35.8994 9.79864 36.5839 9.7037 37.2604C9.69579 37.2206 9.68788 37.1967 9.68788 37.2047C9.68788 37.2604 9.67997 37.3241 9.67997 37.3798C9.23693 40.5953 10.2258 42.3702 9.54547 45.0445C6.85561 53.7758 18.5169 70.0684 40.0437 69.36Z" fill="#666666"/>
<path fill-rule="evenodd" clip-rule="evenodd" d="M40.4669 72.6313L43.6473 72.1476C44.2183 72.0762 44.7893 71.989 45.3524 71.8859L45.408 71.878H45.3921C50.6424 70.9265 55.4566 68.7381 59.5252 65.6378C64.7121 61.5463 68.63 55.9087 70.5969 49.4306L65.9255 48.4236C65.4497 49.8826 64.8628 51.2939 64.1569 52.6419C60.4214 50.2235 57.5821 48.4157 54.1083 46.2906L54.1876 52.3802L48.1997 53.4348L56.3369 61.9349C52.419 64.9241 47.6762 66.9144 42.5052 67.5011L43.4411 52.6657L42.5449 53.189L37.818 55.6946L37.9528 47.0836L33.6066 59.4927L40.5304 57.9386L37.2787 67.6201C34.6456 67.4377 32.1156 66.8906 29.7283 66.0342L29.0542 67.961L27.8487 67.4456L28.5069 65.5585C26.4052 64.6942 24.4304 63.5762 22.63 62.2441C25.628 58.9059 27.7931 56.4955 30.4421 53.3793L24.3669 52.5388L24.1924 46.5206L14.6911 53.1335C13.89 51.6666 13.2159 50.1204 12.6924 48.5108C14.009 48.0113 15.0321 47.6227 16.2773 47.1073L14.4452 45.8308L15.3731 43.8723L11.6852 44.3718C11.6297 44.0308 11.5821 43.6899 11.5424 43.341C11.5345 42.4133 11.5187 41.5173 11.479 40.6768L17.0307 39.1227L16.3169 40.653L23.7245 39.8998L17.6335 39.5984L18.4424 37.9175L11.4869 38.6866C11.5187 37.3386 11.6138 36.0383 11.8676 34.6031L7.15659 33.6199C6.76004 35.6656 6.5459 37.7747 6.5459 39.9315C6.5459 58.0099 21.2024 72.6551 39.2773 72.6551C39.6818 72.6551 40.0704 72.6471 40.4669 72.6313ZM71.5328 45.5215L66.8455 44.7524C67.0755 43.4362 67.2183 42.0882 67.25 40.7085L61.5873 39.1148L62.3011 40.6451L54.7349 39.8998L60.9845 39.5826L60.1676 37.9016L67.2262 38.6866C67.1549 37.2118 66.9804 35.7766 66.6869 34.3731L63.34 34.9123L64.1014 33.2472L62.5549 32.2243C63.6493 31.7407 64.5376 31.3759 65.7352 30.8843C65.1959 29.3381 64.5218 27.8554 63.7287 26.4519L54.1321 33.1362L53.9576 27.118L47.8666 26.3092C50.5076 23.2089 52.6649 20.8064 55.639 17.4841C51.8559 14.7802 47.3749 12.9962 42.5052 12.449L43.4569 27.5699L42.5607 27.0466L38.4842 25.0564L37.009 33.6912L35.5497 20.9967L40.689 22.7252L37.1993 12.3539C34.5107 12.5521 31.9331 13.123 29.5062 14.019L27.4283 9.45976C29.3159 8.72235 31.2987 8.15938 33.3369 7.77878H33.2735L33.5749 7.7312C34.1062 7.63605 34.6376 7.55676 35.1769 7.4854L36.0256 7.35853C37.0883 7.25546 38.1749 7.19995 39.2693 7.19995C57.3521 7.19995 72.0007 21.853 72.0007 39.9235C72.0087 41.8345 71.85 43.7057 71.5328 45.5215ZM71.2869 46.7981C71.1918 47.2659 71.0807 47.7258 70.9618 48.1778L66.3062 47.1708C66.4093 46.7902 66.5045 46.4096 66.5918 46.029L71.2869 46.7981ZM7.91797 30.5434L12.6607 31.5345C13.1683 29.9566 13.8187 28.4501 14.588 27.007C18.3314 29.4333 20.9487 31.0984 24.4304 33.2234L24.3511 27.1338L30.339 26.0793L22.4635 17.8567C24.2559 16.5167 26.2149 15.3908 28.3007 14.5027L26.2307 9.96722C20.33 12.5283 15.3414 16.7625 11.8676 22.0512L11.8359 22.0909C11.7645 22.194 11.7011 22.297 11.6376 22.4001C10.0435 24.9057 8.78245 27.6413 7.91797 30.5434ZM43.5283 32.0261C50.8566 32.8111 56.218 35.7687 56.7414 39.3844C56.7414 39.3923 56.7414 39.4002 56.7414 39.4081L53.4976 39.8522L56.7493 40.5103C56.7493 40.5262 56.7493 40.5341 56.7493 40.5499C56.0038 46.2114 44.4404 48.0033 39.8721 48.1302C39.8166 48.1302 38.849 48.154 38.8014 48.1619L38.4287 44.459C36.2 46.9012 35.1056 47.9003 35.1056 47.9003C31.6476 48.0113 22.0669 45.3154 21.8449 40.5182C21.8449 40.5103 21.8449 40.5103 21.8449 40.5024C26.6669 39.7967 26.6828 40.1138 21.8528 39.4161C21.8528 39.4081 21.8528 39.4002 21.8528 39.3923C22.3762 35.8004 27.6821 32.8587 34.9469 32.0578C34.9787 32.0499 35.8035 31.9547 35.8431 31.9547L36.8742 35.2533L40.5621 31.8596C42.299 31.8437 41.7914 31.8437 43.5283 32.0261ZM18.8469 58.8583C18.3156 58.2954 17.8 57.7007 17.3162 57.0901L20.6711 53.7678L22.3287 55.4092L18.8469 58.8583Z" fill="#166693"/>
<path fill-rule="evenodd" clip-rule="evenodd" d="M26.8467 38.6289H29.218C29.1556 38.0634 28.9684 37.5921 28.6486 37.223C28.3366 36.8538 27.9076 36.6653 27.3694 36.6653C26.9637 36.6653 26.6205 36.7831 26.3397 37.003C26.0589 37.2308 25.8639 37.5293 25.7547 37.9063L24.2414 37.5607C24.3974 36.8931 24.7406 36.3511 25.2711 35.9505C25.8015 35.5499 26.4879 35.3457 27.3304 35.3457C28.4302 35.3457 29.296 35.7149 29.9123 36.4454C30.5363 37.1758 30.8405 38.1341 30.8405 39.3123C30.8405 40.1135 30.7001 40.7968 30.4115 41.378C30.1229 41.9514 29.7251 42.3991 29.2258 42.7212C28.7266 43.0354 28.1182 43.2003 27.4084 43.2003C25.6845 43.2003 24.6158 42.3834 24.218 40.7575L25.7547 40.2784C25.8327 40.8204 26.0277 41.2288 26.3397 41.488C26.6517 41.7472 27.0261 41.8807 27.4552 41.8807C27.8998 41.8807 28.282 41.7237 28.6018 41.4095C28.9216 41.0953 29.1244 40.6004 29.218 39.9092H26.8467V38.6289V38.6289ZM32.0574 43.0511V35.4792H34.3585L35.7157 40.6397L37.0574 35.4792H39.3663V43.0511H37.9466L37.9388 37.0894L36.4412 43.0511H34.9669L33.477 37.0894L33.4692 43.0511H32.0574ZM40.9264 35.4792H46.956V43.0511H45.4194V36.7595H42.463V43.0511H40.9264V35.4792ZM48.5239 43.0511V35.4792H50.981C51.9093 35.4792 52.5177 35.5185 52.7985 35.5892C53.2353 35.707 53.6019 35.9505 53.8905 36.3275C54.187 36.7124 54.3274 37.1994 54.3274 37.8042C54.3274 38.2676 54.2416 38.6604 54.0778 38.9745C53.9061 39.2887 53.6955 39.5401 53.4381 39.7207C53.1807 39.9014 52.9155 40.0192 52.6425 40.0742C52.2759 40.1449 51.7454 40.1841 51.059 40.1841H50.0606V43.0354H48.5239V43.0511ZM50.0606 36.7595V38.9196H50.8952C51.4958 38.9196 51.9015 38.8803 52.1043 38.8017C52.3071 38.7232 52.4709 38.5975 52.5801 38.4326C52.6971 38.2676 52.7517 38.0634 52.7517 37.8435C52.7517 37.5686 52.6737 37.3408 52.5099 37.1601C52.3461 36.9795 52.1433 36.8695 51.8937 36.8224C51.7142 36.791 51.3476 36.7674 50.7938 36.7674H50.0606V36.7595Z" fill="white"/>
<path d="M20.0117 26.8366L14.3997 21.5382L15.4598 20.3995L17.6724 22.4794L19.7467 20.2368L17.5341 18.157L18.6058 17.0183L24.2179 22.3167L23.1577 23.4554L20.7032 21.1431L18.6289 23.3857L21.0719 25.6979L20.0117 26.8366Z" fill="white"/>
<path d="M61.0329 17.0183L64.8012 21.9689L58.7512 26.8366L57.7947 25.5812L62.8306 21.5307L60.9753 19.0909L55.9394 23.1414L54.9829 21.886L61.0329 17.0183Z" fill="white"/>
<path fill-rule="evenodd" clip-rule="evenodd" d="M33.3813 11.4804L39.1451 23.0688L43.1851 27.491L44.5087 9.81812L33.3813 11.4804Z" fill="#166693"/>
<path d="M37.3199 8.50916H43.1998V16.3638H41.7021V9.82807H38.8065V16.3638H37.3088V8.50916H37.3199Z" fill="white"/>
</svg>
