<svg width="49" height="78" viewBox="0 0 49 78" fill="none" xmlns="http://www.w3.org/2000/svg">
<path d="M24.336 78.0002L13.104 44.9282L24.336 46.388V78.0002Z" fill="#166693"/>
<path d="M24.3359 78.0002L35.5679 44.9282L24.3359 46.388V78.0002Z" fill="#008FDF"/>
<circle cx="24.336" cy="24.336" r="24.336" fill="#166693"/>
<circle cx="24.3361" cy="24.3361" r="20.592" fill="white"/>
<path d="M24.7704 40.2353C24.2625 40.2143 23.7598 40.2195 23.252 40.1723C22.8017 40.1355 22.3566 40.0515 21.9115 39.9779C21.5869 39.9254 21.2623 39.8624 20.9376 39.7994C20.723 39.7574 20.5135 39.6996 20.3041 39.6366C19.9638 39.5315 19.6287 39.416 19.2935 39.2952C18.9009 39.1534 18.5082 39.0116 18.1312 38.8382C17.3301 38.4706 16.5656 38.0452 15.8378 37.5462C14.9006 36.9002 14.0157 36.1912 13.2617 35.3404C12.7014 34.7101 12.1255 34.0851 11.6647 33.3709C11.293 32.7984 10.9264 32.2259 10.6437 31.6114C10.3819 31.0442 10.1253 30.4717 9.89496 29.8888C9.75882 29.5421 9.65934 29.1797 9.56509 28.8173C9.43419 28.3131 9.29282 27.8037 9.20905 27.289C9.09909 26.6272 9.03102 25.955 9.01008 25.2827C8.9839 24.4949 9.01008 23.7071 9.07291 22.9245C9.10433 22.5149 9.19334 22.1105 9.26141 21.7113C9.319 21.3962 9.38183 21.0758 9.45514 20.766C9.49702 20.5716 9.55462 20.3773 9.61222 20.1882C10.0939 18.6336 10.7694 17.1683 11.6961 15.8238C12.5915 14.5213 13.6544 13.3816 14.8901 12.3942C15.6807 11.7639 16.5237 11.2072 17.4243 10.7503C18.0264 10.4457 18.6495 10.1726 19.2831 9.93623C19.791 9.74716 20.325 9.6106 20.8591 9.4793C21.4141 9.34275 21.9796 9.23771 22.5451 9.13792C22.7859 9.0959 23.032 9.10115 23.2729 9.07489C24.1368 8.98036 24.9955 8.96985 25.8595 9.07489C26.3098 9.13267 26.7601 9.16418 27.2104 9.23245C27.5559 9.28498 27.891 9.37426 28.2314 9.45304C28.4513 9.50556 28.6712 9.55808 28.8859 9.62636C29.3414 9.76816 29.8074 9.89421 30.2472 10.0728C30.8022 10.2986 31.3415 10.5665 31.8756 10.8291C32.5092 11.1389 33.1008 11.5276 33.6716 11.9373C34.7135 12.6831 35.6403 13.5496 36.4676 14.5213C37.0907 15.2513 37.6352 16.0391 38.1169 16.8742C38.4572 17.4624 38.7557 18.0717 39.0123 18.7019C39.1903 19.1378 39.3317 19.5842 39.473 20.0307C39.5987 20.4351 39.7244 20.8447 39.8186 21.2596C39.9024 21.6273 39.939 22.0002 39.9966 22.3731C40.0019 22.4151 40.0019 22.4624 40.0071 22.5044C40.1851 23.5548 40.1851 24.6105 40.1223 25.6714C40.0961 26.1598 40.0437 26.6482 39.9757 27.1314C39.9286 27.4781 39.8343 27.8142 39.7558 28.1556C39.7034 28.3919 39.651 28.6335 39.583 28.8646C39.4416 29.3215 39.3055 29.7837 39.1379 30.2301C39.007 30.5873 38.8395 30.9339 38.6824 31.2806C38.4101 31.895 38.075 32.4728 37.7137 33.04C37.0069 34.1482 36.1744 35.1566 35.2109 36.0494C34.148 37.0315 32.9856 37.8614 31.6924 38.5179C30.9803 38.8803 30.2472 39.2006 29.4828 39.4422C29.1005 39.563 28.7236 39.6891 28.3361 39.7889C28.0167 39.8729 27.6868 39.9044 27.3622 39.9779C27.0795 40.041 26.7967 40.062 26.514 40.1092C25.938 40.1933 25.3568 40.2195 24.7704 40.2353ZM26.1841 39.1061C26.6396 39.1114 27.0271 38.9906 27.4198 38.938C27.7025 38.896 27.98 38.8067 28.2523 38.7332C28.6293 38.6282 29.0115 38.5389 29.3781 38.4076C29.975 38.1975 30.5561 37.9454 31.1269 37.6618C32.0327 37.2049 32.8809 36.6639 33.6663 36.0284C33.7239 35.9811 33.771 35.9234 33.8443 35.8446C33.4621 35.5295 33.1008 35.2301 32.7396 34.9255C32.3835 34.6314 32.0275 34.3372 31.6714 34.0379C31.3101 33.7385 30.9436 33.4444 30.5823 33.1345C30.2263 32.8299 29.8441 32.562 29.5037 32.2102C29.5875 32.0946 29.6556 31.9896 29.7341 31.9003C30.3048 31.207 30.8808 30.519 31.4515 29.8257C31.8233 29.3741 32.2002 28.9276 32.5668 28.476C32.6348 28.3972 32.7029 28.3447 32.8181 28.3447C32.86 28.3709 32.9123 28.4024 32.9595 28.4392C33.8234 29.1587 34.6873 29.8783 35.5565 30.5925C36.0382 30.9917 36.5252 31.3908 37.0121 31.79C37.0645 31.832 37.1378 31.853 37.2111 31.8845C38.3787 29.8467 39.0018 27.6882 39.1327 25.372C38.8552 25.2827 38.5934 25.1934 38.3263 25.1146C38.0593 25.0359 37.7923 24.9676 37.5305 24.8836C37.2739 24.8048 37.0226 24.6892 36.7241 24.6735C36.7608 24.8888 36.7974 25.0726 36.8341 25.288C36.7084 25.2985 36.6194 25.3142 36.5252 25.3142C36.0696 25.3142 35.6193 25.3142 35.1638 25.3142C34.525 25.3195 33.8915 25.3352 33.2527 25.3457C33.1741 25.3457 33.0904 25.351 33.0537 25.2459C33.1375 25.1252 33.2579 25.0726 33.3993 25.0569C33.8129 25.0044 34.2266 24.9518 34.6402 24.8941C34.6821 24.8888 34.724 24.8731 34.7659 24.8678C34.9963 24.831 35.2266 24.7838 35.4623 24.7523C35.6193 24.7312 35.7712 24.6997 35.8759 24.5789C35.8235 24.2901 35.7712 24.0222 35.7241 23.7544C35.923 23.6756 36.0801 23.6756 36.2896 23.7386C36.389 23.7701 36.4885 23.7911 36.5932 23.8069C36.944 23.8647 37.2949 23.9172 37.6457 23.975C37.6876 23.9802 37.7294 24.0012 37.7713 24.0117C37.897 24.038 38.0279 24.0695 38.1536 24.0958C38.3159 24.1273 38.4782 24.1588 38.6353 24.1955C38.7976 24.227 38.9547 24.2481 39.1117 24.206C39.1693 23.9539 39.0541 22.6042 38.9442 22.2785C38.8709 22.2733 38.7871 22.2523 38.7033 22.2575C38.3473 22.2785 37.9912 22.3101 37.6352 22.3363C37.5462 22.3416 37.4572 22.3363 37.3577 22.3363C37.3525 22.058 37.5095 21.8846 37.609 21.6851C37.6614 21.58 37.7137 21.4855 37.6666 21.3594C37.431 21.1651 37.1273 21.0601 36.9074 20.8237C36.944 20.787 36.965 20.766 36.9859 20.7554C37.2216 20.6662 37.4519 20.5716 37.6876 20.4876C37.8342 20.4351 37.9808 20.3773 38.1326 20.3405C38.2688 20.309 38.3735 20.2565 38.452 20.1515C38.3997 19.9834 38.3682 19.8206 38.3002 19.6683C38.0488 19.0853 37.7975 18.5023 37.5305 17.9298C37.4572 17.7723 37.4205 17.5727 37.2163 17.4939C37.1587 17.5359 37.1011 17.5727 37.0488 17.62C36.7294 17.9036 36.41 18.1872 36.0906 18.4708C35.1691 19.2849 34.2475 20.0989 33.326 20.913C33.2474 20.9813 33.1794 21.0706 33.038 21.0391C32.9856 20.9813 32.9176 20.913 32.8547 20.8447C32.2212 20.1252 31.5876 19.4057 30.9541 18.6861C30.598 18.2817 30.242 17.8721 29.8807 17.4677C29.8022 17.3784 29.7655 17.2996 29.8179 17.1736C30.6347 16.454 31.4567 15.724 32.2788 14.994C32.7762 14.5528 33.2736 14.1169 33.771 13.6757C33.8391 13.6179 33.8915 13.5391 33.97 13.4498C31.8913 11.7114 29.5508 10.64 26.8805 10.1936C26.8334 10.8763 26.9328 11.5276 26.959 12.1789C26.9904 12.8354 26.9904 13.4919 27.0166 14.1484C27.0428 14.8049 27.0952 15.4561 27.1266 16.1126C27.158 16.7639 27.1789 17.4151 27.2104 18.1084C27.1004 18.0874 27.0114 18.0927 26.9433 18.0611C26.3359 17.7408 25.7338 17.4099 25.1317 17.0895C24.9275 16.9792 24.7285 16.8742 24.5086 16.7586C24.4824 16.8322 24.4667 16.8689 24.4615 16.9109C24.4143 17.3259 24.3672 17.7408 24.3201 18.1609C24.3096 18.2555 24.2939 18.35 24.2782 18.4445C24.2101 18.9015 24.1368 19.3584 24.0845 19.8153C24.0216 20.3458 23.9745 20.8762 23.9117 21.4014C23.896 21.5222 23.8646 21.643 23.8279 21.7586C23.8122 21.8111 23.7651 21.8531 23.7337 21.8951C23.6237 21.8426 23.6342 21.7638 23.6289 21.6851C23.5818 21.0758 23.5399 20.4666 23.4876 19.8573C23.4509 19.4057 23.4038 18.954 23.3671 18.4971C23.341 18.2082 23.3305 17.9193 23.3043 17.6357C23.2834 17.3994 23.2572 17.1683 23.2415 16.932C23.2205 16.6168 23.231 16.2965 23.1786 15.9918C23.0949 15.5297 23.1106 15.0675 23.0896 14.6053C23.0896 14.5423 23.1211 14.4793 23.142 14.39C23.9798 14.6946 24.7652 15.0622 25.6239 15.3616C25.0845 13.5654 24.5557 11.8165 24.0269 10.0675C23.4195 9.97825 22.8488 10.1148 22.2885 10.1988C20.9324 10.4037 19.6339 10.8028 18.393 11.3963C17.6495 11.7534 16.9269 12.1473 16.2357 12.6568C16.2881 12.7356 16.3247 12.8144 16.3823 12.8774C16.6023 13.1242 16.8274 13.3711 17.0525 13.6127C18.0631 14.6998 19.0684 15.7818 20.0789 16.8689C20.1418 16.9372 20.1994 17.0107 20.2674 17.0895C20.0999 17.2261 19.9323 17.2681 19.7438 17.2891C19.3669 17.3364 18.9899 17.3994 18.6129 17.4572C18.5972 17.4572 18.5815 17.4729 18.5657 17.4729C18.4296 17.4992 18.2935 17.5254 18.1573 17.5517C18.0369 17.5727 17.9165 17.5937 17.7961 17.6147C17.6337 17.641 17.4714 17.6725 17.3091 17.6988C17.2515 17.7093 17.1939 17.7198 17.1206 17.7355C17.1049 17.8248 17.0787 17.9088 17.0735 17.9929C17.0368 18.5601 17.0054 19.1273 16.9792 19.6945C16.9635 20.0097 16.9792 20.3248 16.974 20.6399C16.974 20.7239 16.9531 20.8027 16.9374 20.9288C16.8222 20.871 16.7436 20.8447 16.6756 20.7975C16.1258 20.4351 15.576 20.0727 15.0262 19.705C14.1728 19.1378 13.3193 18.5706 12.4658 18.0034C12.2564 17.8668 12.0417 17.7355 11.8113 17.5885C10.8531 19.3269 10.2929 21.1599 10.0887 23.1084C10.0677 23.2922 10.0049 23.4813 10.0782 23.7018C10.2458 23.6861 10.4081 23.6808 10.5704 23.6598C10.7694 23.6336 10.9631 23.5863 11.1621 23.5705C11.5024 23.539 11.8427 23.5495 12.1726 23.4497C12.2145 23.4392 12.2616 23.4392 12.3035 23.4392C12.6386 23.4497 12.9632 23.4025 13.2879 23.3395C13.4292 23.3079 13.5759 23.2607 13.7225 23.3395C13.8062 23.4918 13.7329 23.6336 13.6858 23.7701C13.6282 23.9382 13.5811 24.101 13.6806 24.2953C13.7591 24.3058 13.8429 24.3268 13.9267 24.3321C14.3246 24.3531 14.7278 24.3689 15.1309 24.3846C15.3247 24.3951 15.5132 24.4056 15.7069 24.4214C15.8221 24.4319 15.9268 24.4581 15.9896 24.6157C15.8745 24.6367 15.775 24.663 15.6755 24.6735C15.487 24.6892 15.2933 24.6945 15.1048 24.7102C14.8534 24.7312 14.6021 24.7628 14.3508 24.789C14.1937 24.8048 14.0366 24.8153 13.8848 24.831C13.5444 24.8678 13.2093 24.9046 12.869 24.9361C12.8009 24.9413 12.7276 24.9098 12.6281 24.8888C12.691 24.6735 12.7381 24.4949 12.7905 24.3111C12.6857 24.2481 12.5967 24.2691 12.5077 24.3058C12.4239 24.3373 12.3454 24.3636 12.2616 24.3846C11.9736 24.4424 11.6804 24.4897 11.3925 24.5474C11.3349 24.5579 11.2773 24.5842 11.2197 24.5999C11.1254 24.6262 11.0364 24.6525 10.9422 24.6682C10.6646 24.7207 10.3819 24.7733 10.0992 24.8258C10.0835 24.831 10.073 24.8468 10.0573 24.8573C9.9735 25.1882 10.0782 26.4907 10.2301 26.8478C10.6071 26.8006 10.9945 26.7428 11.382 26.7008C11.5914 26.6745 11.7956 26.664 12.0051 26.6535C12.0469 26.6535 12.0941 26.685 12.1412 26.7008C12.0522 27.0474 11.8009 27.3153 11.7694 27.6671C11.9998 27.83 12.2145 27.9823 12.4292 28.1293C12.513 28.1871 12.5758 28.2501 12.5601 28.3709C12.2773 28.476 11.9946 28.581 11.7118 28.6808C11.4291 28.7806 11.1411 28.8751 10.8531 28.9802C10.7955 29.0012 10.7537 29.0642 10.7065 29.1062C10.7903 29.332 10.8689 29.5369 10.9422 29.7417C11.1882 30.4612 11.5286 31.1387 11.9003 31.8005C11.9422 31.8688 12.0103 31.9266 12.0679 31.9896C12.7538 31.3541 13.4135 30.7343 14.0785 30.1199C14.7435 29.5054 15.3875 28.8699 16.0734 28.2869C16.4556 28.5757 16.8693 29.0642 16.9374 29.3005C16.3823 29.8205 15.8169 30.3509 15.2304 30.8972C15.2671 30.9707 15.288 31.0442 15.3351 31.0967C15.7907 31.5904 16.2462 32.0841 16.7017 32.5778C16.7489 32.6303 16.8222 32.6618 16.885 32.6986C17.4819 32.1471 18.0579 31.6167 18.6548 31.0652C19.0056 31.3226 19.236 31.6745 19.5135 31.9266C19.5658 32.1104 19.4454 32.1681 19.3669 32.2417C18.5239 33.0295 17.6809 33.8068 16.8379 34.5946C16.4347 34.9675 16.0315 35.3404 15.6336 35.7185C15.5603 35.7868 15.4556 35.8446 15.4818 36.0074C15.6912 36.165 15.9111 36.3435 16.1467 36.5063C16.8431 37 17.5657 37.4517 18.3511 37.7931C18.8328 38.0084 19.3197 38.2185 19.8171 38.4076C20.1418 38.5336 20.4769 38.6229 20.812 38.7122C21.0738 38.7805 21.3356 38.8382 21.6026 38.8908C21.9587 38.9643 22.3199 39.0273 22.676 39.0903C22.8121 39.1114 22.9535 39.1271 23.0949 39.1271C23.1839 39.1271 23.2781 39.1061 23.3671 39.0956C23.3828 39.0273 23.3881 38.9801 23.3986 38.9433C23.5609 38.4969 23.7337 38.0504 23.8907 37.5988C24.0531 37.1418 24.1944 36.6744 24.3515 36.2175C24.5505 35.645 24.7652 35.0725 24.9694 34.5001C25.0008 34.416 25.006 34.3162 25.0269 34.2112C24.9379 34.2112 24.8803 34.2007 24.8227 34.2112C24.3934 34.3267 23.9693 34.4475 23.5452 34.5631C23.0373 34.6996 22.5241 34.8362 22.011 34.9622C21.9063 34.9885 21.7911 34.978 21.6864 34.9832C21.6497 34.7732 21.655 34.7784 21.6969 34.6576C21.7702 34.4633 21.8382 34.2637 21.9063 34.0694C22.0215 33.7228 22.1367 33.3761 22.2519 33.0347C22.3618 32.7039 22.4718 32.3782 22.5817 32.0474C22.6865 31.7322 22.7807 31.4171 22.8854 31.1072C23.0006 30.7711 23.1211 30.435 23.2362 30.0988C23.3462 29.768 23.4509 29.4371 23.5609 29.1062C23.6813 28.7438 23.8017 28.3814 23.9274 28.019C23.9745 27.8877 24.0164 27.7459 24.1735 27.6356C24.1892 27.7354 24.2101 27.8037 24.2101 27.8667C24.1944 28.4444 24.1787 29.0222 24.1578 29.5999C24.1421 29.9833 24.1107 30.3667 24.0949 30.7501C24.0845 31.0127 24.0845 31.2753 24.074 31.5379C24.0583 31.916 24.0321 32.2889 24.0112 32.6671C24.0059 32.7564 23.9693 32.8614 24.1002 32.9244C24.5452 32.7091 24.9955 32.4938 25.4458 32.2732C25.9014 32.0526 26.3412 31.8005 26.8281 31.6219C26.9119 31.8268 26.8648 31.9948 26.8491 32.1681C26.8177 32.4623 26.7915 32.7564 26.7601 33.0557C26.7391 33.2816 26.7182 33.5074 26.692 33.7333C26.671 33.8961 26.6396 34.0641 26.6239 34.2269C26.5716 34.873 26.5244 35.5137 26.4721 36.1597C26.4564 36.3225 26.4302 36.4906 26.4145 36.6534C26.3935 36.8792 26.3726 37.1051 26.3517 37.3309C26.3255 37.583 26.3098 37.8351 26.2783 38.0872C26.2155 38.4128 26.2155 38.7437 26.1841 39.1061ZM34.8654 34.9202C34.9544 34.8467 35.012 34.8099 35.0591 34.7627C35.4727 34.2795 35.8864 33.7963 36.2948 33.3078C36.3524 33.2396 36.3629 33.1398 36.4047 33.0452C35.19 32.0421 34.0014 31.0547 32.7919 30.0568C32.7238 30.1199 32.661 30.1671 32.6139 30.2249C32.195 30.7291 31.7761 31.228 31.3625 31.7375C31.3154 31.7953 31.3049 31.8845 31.2787 31.9581C32.483 32.9507 33.6663 33.9276 34.8654 34.9202ZM36.499 16.2649C36.4833 16.2229 36.478 16.1862 36.4571 16.1547C36.0592 15.5822 35.6089 15.0465 35.1324 14.5423C35.0905 14.5003 35.0172 14.4845 34.9491 14.453C33.8025 15.4666 32.6662 16.4698 31.5562 17.4519C31.5143 17.5937 31.5824 17.662 31.6452 17.7355C32.0432 18.1872 32.4359 18.6389 32.8338 19.0905C32.9019 19.1693 32.9804 19.2324 33.0485 19.2954C33.2631 19.2008 36.3471 16.4855 36.499 16.2649ZM15.9687 33.5284C15.4451 32.8929 14.8849 32.3362 14.356 31.769C14.1466 31.8583 12.9947 32.9244 12.8271 33.166C12.9056 33.4496 13.9738 34.7154 14.3508 34.9727C14.3927 34.957 14.4503 34.9517 14.4869 34.9202C14.9739 34.4738 15.4503 34.0169 15.9687 33.5284Z" fill="url(#paint0_linear)"/>
<path d="M15.4556 24.9466C16.063 24.831 16.6494 24.7155 17.2306 24.6052C17.2306 24.5947 17.2358 24.5842 17.2358 24.5684C17.1939 24.5527 17.1573 24.5317 17.1154 24.5264C16.7436 24.4687 16.3719 24.4266 16.0054 24.3636C15.8483 24.3374 15.6912 24.2743 15.5237 24.2271C15.6807 23.6808 15.9897 23.2659 16.3719 22.9035C16.8379 22.4571 17.372 22.0947 17.9584 21.8164C18.3249 21.6431 18.6967 21.4645 19.0736 21.3227C19.4035 21.1966 19.7491 21.1178 20.0894 21.0181C20.3617 20.9393 20.6392 20.8657 20.9167 20.7922C20.9691 20.7765 21.0162 20.7712 21.0686 20.766C21.1104 20.7607 21.1576 20.7712 21.1995 20.7607C21.6183 20.6347 22.0582 20.6347 22.4823 20.5506C22.5922 20.5296 22.7022 20.5139 22.786 20.5034C22.9378 20.5926 22.9535 20.7187 22.9745 20.8395C23.0582 21.3227 23.142 21.8006 23.2205 22.2838C23.2834 22.6725 23.341 23.0611 23.3986 23.4498C23.43 23.6546 23.4823 23.8542 23.5766 24.101C24.0688 22.8878 24.54 21.7218 25.0217 20.5244C25.0846 20.5086 25.1736 20.4613 25.2626 20.4613C25.7076 20.4718 26.1579 20.4456 26.5925 20.5296C27.0271 20.6136 27.4774 20.5979 27.9068 20.7344C28.1738 20.8237 28.467 20.8395 28.7445 20.8973C28.9487 20.9393 29.1477 20.9918 29.3466 21.0548C29.6294 21.1389 29.9121 21.2229 30.1844 21.3279C30.4933 21.4435 30.797 21.5748 31.0902 21.7166C31.551 21.9372 31.9961 22.1893 32.4045 22.5044C32.9071 22.893 33.3522 23.329 33.6192 23.9119C33.7396 24.1798 33.8705 24.4529 33.7972 24.7838C33.3365 24.9991 32.8233 25.0831 32.284 25.2775C32.5458 25.3825 32.7815 25.3825 33.0066 25.4088C33.2265 25.4403 33.4517 25.4508 33.6716 25.4718C33.7344 25.6031 33.703 25.7134 33.6506 25.8132C33.3888 26.3174 33.0328 26.7375 32.593 27.0947C32.0536 27.5306 31.4567 27.8615 30.8232 28.1293C30.3886 28.3132 29.9226 28.4339 29.4723 28.581C29.2524 28.6545 29.0273 28.7176 28.8021 28.7858C28.7183 28.8121 28.6293 28.8173 28.5455 28.8384C28.4461 28.8594 28.3413 28.8804 28.2419 28.9066C28.2157 28.9119 28.1947 28.9276 28.1686 28.9329C27.8177 28.9907 27.4669 29.0537 27.1109 29.101C26.8281 29.1377 26.5402 29.1745 26.2522 29.1902C25.7233 29.2113 25.1893 29.2165 24.6604 29.227C24.629 29.227 24.5924 29.206 24.5295 29.185C24.5034 28.9381 24.4719 28.6755 24.4562 28.4182C24.4301 27.8877 24.4144 27.352 24.3882 26.8163C24.3829 26.706 24.3986 26.5852 24.252 26.5064C23.5818 27.3625 22.9745 28.2606 22.3147 29.0957C22.2309 29.101 22.1891 29.1115 22.1472 29.1062C21.744 29.0327 21.3461 28.9592 20.9481 28.8804C20.9062 28.8699 20.8644 28.8541 20.8225 28.8489C20.4821 28.8173 20.1627 28.7123 19.8433 28.602C19.6706 28.5442 19.4925 28.5022 19.325 28.4445C18.9323 28.3026 18.5396 28.1766 18.1626 28.0085C17.5971 27.7564 17.0735 27.4308 16.5918 27.0422C16.0944 26.6377 15.7279 26.1388 15.5027 25.5401C15.4346 25.3405 15.4608 25.1462 15.4556 24.9466ZM25.2573 26.5117C25.2731 26.4119 25.2835 26.3541 25.2835 26.2964C25.2835 25.246 25.2835 24.1955 25.2835 23.1504C25.2835 23.0664 25.2573 22.9876 25.2364 22.893C25.0165 22.8668 24.8228 22.83 24.6238 22.9298C24.2782 23.9119 23.9326 24.8941 23.5871 25.8552C23.4195 25.892 23.3986 25.7922 23.3672 25.6976C23.2624 25.3773 23.163 25.0516 23.053 24.7313C22.9273 24.3584 22.8069 23.9907 22.676 23.6231C22.587 23.3762 22.4927 23.1346 22.4037 22.9088C22.0896 22.8405 21.8958 22.851 21.6916 22.9403C21.6445 23.2134 21.6498 26.2964 21.7073 26.5064C21.8435 26.5327 21.9849 26.5747 22.1419 26.4487C22.1419 26.3594 22.1419 26.2543 22.1419 26.1546C22.1419 25.4193 22.1419 24.684 22.1419 23.9487C22.1419 23.8437 22.1158 23.7229 22.2362 23.6231C22.6027 24.5947 22.8959 25.5716 23.2781 26.538C23.4352 26.5275 23.5714 26.517 23.6918 26.5064C24.074 25.5348 24.3568 24.5632 24.7809 23.6336C24.8228 23.7491 24.8437 23.8542 24.8437 23.9645C24.8489 24.7155 24.8437 25.4665 24.8437 26.2228C24.8437 26.3174 24.8542 26.4067 24.8594 26.5117C25.0165 26.5117 25.1264 26.5117 25.2573 26.5117ZM17.4505 25.477C17.4871 25.7659 17.5971 25.9602 17.7332 26.1441C18.0998 26.6325 18.6234 26.7165 19.1784 26.7113C19.3773 26.706 19.5868 26.685 19.77 26.622C20.325 26.4277 20.6601 26.0128 20.8015 25.4613C20.9481 24.8783 20.9481 24.2848 20.6968 23.7176C20.5083 23.2869 20.1889 22.9823 19.7648 22.8195C19.3512 22.6619 18.9218 22.6409 18.482 22.7722C18.0422 22.9035 17.7385 23.1714 17.5395 23.5706C17.5081 23.6336 17.5081 23.7176 17.4976 23.7859C17.6652 23.8542 17.8013 23.8962 17.9584 23.8332C18.0945 23.5285 18.283 23.2659 18.6338 23.1661C18.9742 23.0716 19.3145 23.0821 19.6339 23.2134C20.1156 23.4077 20.4036 23.975 20.2622 24.4109C19.8224 24.4476 19.3721 24.3951 18.9061 24.4424C18.8956 24.5684 18.8904 24.6682 18.8852 24.7365C18.9794 24.8678 19.0894 24.8573 19.1941 24.8626C19.4925 24.8626 19.7857 24.8626 20.0842 24.8626C20.1994 24.8626 20.3146 24.8678 20.3565 25.0201C20.346 25.0936 20.325 25.1829 20.3146 25.267C20.2413 25.7869 19.8014 26.3121 19.1679 26.3279C18.6338 26.3436 18.194 26.1546 17.9741 25.6241C17.9374 25.5348 17.8851 25.456 17.8222 25.3457C17.6966 25.3825 17.5762 25.4298 17.4505 25.477ZM29.043 26.4749C29.0953 26.2281 29.0901 23.1556 29.0325 22.9193C28.9697 22.9035 28.9016 22.8773 28.823 22.872C28.2576 22.8248 26.5559 22.8615 26.3778 22.9193C26.315 23.1189 26.3098 26.2438 26.3726 26.5012C26.4826 26.5485 26.5978 26.559 26.7234 26.4644C26.7444 25.4298 26.7077 24.3846 26.7444 23.3552C26.9695 23.2712 28.3204 23.2554 28.6136 23.329C28.6188 23.4235 28.6346 23.5233 28.6346 23.6231C28.6346 24.4897 28.6346 25.3562 28.6346 26.2176C28.6346 26.3121 28.645 26.4014 28.6503 26.4959C28.8073 26.538 28.9278 26.559 29.043 26.4749ZM30.2577 25.0569C30.4305 25.0464 30.5614 25.0359 30.6871 25.0306C31.085 25.0149 31.4882 25.0726 31.8756 24.9203C32.0851 24.8415 32.2212 24.7102 32.3364 24.5264C32.4882 24.2901 32.483 24.0327 32.4778 23.7701C32.4621 23.3395 32.1008 22.9193 31.6557 22.9088C31.1269 22.8983 30.5928 22.8825 30.064 22.872C29.9907 22.872 29.9226 22.8983 29.8493 22.9088C29.8493 24.1273 29.8493 25.3142 29.8493 26.5064C29.9959 26.5432 30.1163 26.5747 30.2629 26.4382C30.2577 26.0075 30.2577 25.5558 30.2577 25.0569Z" fill="url(#paint1_linear)"/>
<path d="M30.3362 24.6262C30.2367 24.3846 30.2262 23.581 30.31 23.3079C30.3729 23.2974 30.4462 23.2817 30.5247 23.2764C30.8284 23.2764 31.1321 23.2712 31.441 23.2817C31.8756 23.2922 32.1426 23.6703 32.0379 24.0958C31.9646 24.4109 31.7499 24.5737 31.4567 24.6157C31.0849 24.6735 30.7132 24.6525 30.3362 24.6262Z" fill="url(#paint2_linear)"/>
<defs>
<linearGradient id="paint0_linear" x1="9" y1="9" x2="40.1604" y2="9" gradientUnits="userSpaceOnUse">
<stop stop-color="#166693"/>
<stop offset="1" stop-color="#008FDF"/>
</linearGradient>
<linearGradient id="paint1_linear" x1="9" y1="9" x2="40.1604" y2="9" gradientUnits="userSpaceOnUse">
<stop stop-color="#166693"/>
<stop offset="1" stop-color="#008FDF"/>
</linearGradient>
<linearGradient id="paint2_linear" x1="9" y1="9" x2="40.1604" y2="9" gradientUnits="userSpaceOnUse">
<stop stop-color="#166693"/>
<stop offset="1" stop-color="#008FDF"/>
</linearGradient>
</defs>
</svg>
