<svg width="23" height="20" fill="none" xmlns="http://www.w3.org/2000/svg"><path d="M21.002 11c1.055 0 1.39 1.422.447 1.894l-.07.039a2.85 2.85 0 00-.63.544c-.47.528-.747 1.188-.747 2.023 0 .835.277 1.495.747 2.023.28.316.555.51.7.583l.103.058c.814.52.464 1.836-.55 1.836h-18a1 1 0 01-.448-.106c-.355-.177-.83-.514-1.3-1.042-.78-.878-1.253-2-1.253-3.352 0-1.352.473-2.474 1.253-3.352.47-.528.945-.865 1.3-1.042A1 1 0 013.002 11h18zm-2.36 2H3.276l-.075.055c-.1.075-.214.174-.333.294l-.12.128c-.469.528-.747 1.188-.747 2.023 0 .835.278 1.495.748 2.023.16.18.319.321.452.422l.076.055h15.366l-.06-.107a4.946 4.946 0 01-.575-2.126l-.006-.267c0-.902.21-1.7.58-2.393l.06-.107zm.36-13a1 1 0 01.447.106c.355.177.83.514 1.3 1.042.78.878 1.253 2 1.253 3.352 0 1.352-.473 2.474-1.253 3.352-.47.528-.945.865-1.3 1.042A1 1 0 0119 9H1C-.053 9-.388 7.577.554 7.106l.07-.039a2.85 2.85 0 00.63-.544c.47-.528.748-1.188.748-2.023 0-.835-.278-1.495-.748-2.023-.28-.316-.555-.51-.7-.583l-.103-.058C-.363 1.316-.013 0 1.001 0h18zm-.275 2H3.36l.06.107c.334.623.538 1.333.575 2.126l.006.267c0 .902-.21 1.7-.58 2.393L3.357 7h15.366l.078-.055c.1-.075.214-.174.333-.294l.12-.128c.469-.528.747-1.188.747-2.023 0-.835-.278-1.495-.748-2.023a3.216 3.216 0 00-.452-.422L18.727 2z" fill="#008FDF"/></svg>