<svg width="20" height="20" fill="none" xmlns="http://www.w3.org/2000/svg"><path fill-rule="evenodd" clip-rule="evenodd" d="M2 10a8 8 0 1116 0 8 8 0 01-16 0zm8-10C4.477 0 0 4.477 0 10s4.477 10 10 10 10-4.477 10-10S15.523 0 10 0zm1 4a1 1 0 00-2 0v6a1 1 0 00.293.707l3 3a1 1 0 001.414-1.414L11 9.586V4z" fill="url(#paint0_linear)"/><defs><linearGradient id="paint0_linear" x1="0" y1="0" x2="20" y2="0" gradientUnits="userSpaceOnUse"><stop stop-color="#166693"/><stop offset="1" stop-color="#008FDF"/></linearGradient></defs></svg>