<svg width="30" height="32" fill="none" xmlns="http://www.w3.org/2000/svg"><path fill-rule="evenodd" clip-rule="evenodd" d="M15.023 0c.497 0 .974.187 1.326.52.352.334.549.786.549 1.258V25.93l9.924-9.41a1.931 1.931 0 011.32-.499c.49.004.961.191 1.309.52.348.33.545.776.549 1.242a1.73 1.73 0 01-.526 1.25L16.349 31.48c-.352.333-.829.52-1.326.52-.497 0-.974-.187-1.326-.52L.572 19.035a1.779 1.779 0 01-.42-.577 1.7 1.7 0 01-.012-1.375c.094-.218.233-.417.41-.584.175-.167.385-.299.615-.388a1.966 1.966 0 011.45.012c.229.093.436.228.609.398l9.924 9.41V1.778c0-.472.198-.924.55-1.257.35-.334.828-.521 1.325-.521z" fill="#fff"/></svg>