<svg width="19" height="14" fill="none" xmlns="http://www.w3.org/2000/svg"><path fill-rule="evenodd" clip-rule="evenodd" d="M.517 1.022C.76.707 1.08.45 1.454.272A2.822 2.822 0 012.66 0h13.68c.89 0 1.665.411 2.143 1.022.326.418.517.934.517 1.487v8.982C19 12.847 17.841 14 16.34 14H2.66C1.159 14 0 12.847 0 11.491V2.51c0-.554.19-1.07.517-1.49v.001zm2.27.728l6.01 6.094c.089.09.198.163.319.212a1.02 1.02 0 00.768 0 .951.951 0 00.319-.212l6.01-6.094H2.787zM17.1 3.454l-5.491 5.567c-.267.27-.593.487-.956.635a3.06 3.06 0 01-2.306 0 2.855 2.855 0 01-.956-.635L1.9 3.454v8.037c0 .45.372.759.76.759h13.68a.76.76 0 00.76-.759V3.454z" fill="url(#paint0_linear)"/><defs><linearGradient id="paint0_linear" x1="0" y1="0" x2="19" y2="0" gradientUnits="userSpaceOnUse"><stop stop-color="#166693"/><stop offset="1" stop-color="#008FDF"/></linearGradient></defs></svg>