<svg width="21" height="15" fill="none" xmlns="http://www.w3.org/2000/svg"><path fill-rule="evenodd" clip-rule="evenodd" d="M.571 1.095A2.846 2.846 0 011.607.291C2.02.101 2.477.001 2.94 0h15.12c.983 0 1.84.44 2.369 1.095.36.448.571 1 .571 1.593v9.624C21 13.764 19.719 15 18.06 15H2.94C1.281 15 0 13.764 0 12.312V2.688c0-.593.21-1.145.571-1.594v.001zm2.509.78l6.643 6.53c.098.096.218.174.352.226a1.158 1.158 0 00.85 0c.134-.052.254-.13.352-.226l6.643-6.53H3.08zM18.9 3.701l-6.069 5.965a3.17 3.17 0 01-1.056.68 3.47 3.47 0 01-1.275.24c-.439 0-.873-.082-1.274-.24a3.163 3.163 0 01-1.057-.68L2.1 3.7v8.611c0 .482.412.813.84.813h15.12c.428 0 .84-.33.84-.813v-8.61z" fill="#166693"/></svg>