<svg width="14" height="17" fill="none" xmlns="http://www.w3.org/2000/svg"><path fill-rule="evenodd" clip-rule="evenodd" d="M7.625 1.109C6.042-.158 4.183-.12 2.856.159c-.808.17-1.63.45-2.352.86A1 1 0 000 1.89v14a1 1 0 102 0v-5.37c1.376-.58 3.124-.85 4.375.15 1.583 1.266 3.442 1.227 4.768.948a9.004 9.004 0 002.152-.754c.392-.197.705-.502.705-.974v-8a1 1 0 00-1.495-.87c-1.439.787-3.504 1.19-4.88.089zM2 2.519v5.869c1.881-.602 4.021-.563 5.625.72.917.734 2.058.773 3.107.553A7.07 7.07 0 0012 9.259v-5.87a9.09 9.09 0 01-.857.228c-1.326.279-3.185.318-4.768-.948-1.251-1-2.999-.731-4.375-.151z" fill="url(#paint0_linear)"/><defs><linearGradient id="paint0_linear" x1="0" y1="0" x2="14" y2="0" gradientUnits="userSpaceOnUse"><stop stop-color="#166693"/><stop offset="1" stop-color="#008FDF"/></linearGradient></defs></svg>