<svg width="20" height="20" fill="none" xmlns="http://www.w3.org/2000/svg"><path d="M17.154 0H2.846C1.231 0 0 1.23 0 2.846v14.308C0 18.769 1.23 20 2.846 20h14.308C18.769 20 20 18.77 20 17.154V2.846C20 1.231 18.77 0 17.154 0zM10 16c3.308 0 6-2.615 6-5.77 0-.538-.077-1.153-.23-1.615h1.692v8.154a.77.77 0 01-.77.77H3.308a.77.77 0 01-.77-.77V8.54h1.77a5.856 5.856 0 00-.231 1.615C4 13.384 6.692 16 10 16zm0-2.308c-2.154 0-3.846-1.692-3.846-3.769S7.846 6.153 10 6.153s3.846 1.693 3.846 3.77c0 2.154-1.692 3.77-3.846 3.77zm7.385-8.23a.854.854 0 01-.847.846h-2.153a.854.854 0 01-.846-.846V3.385c0-.462.384-.847.846-.847h2.153c.462 0 .847.385.847.847v2.077z" fill="#BEC7CC"/></svg>