<svg width="22" height="22" fill="none" xmlns="http://www.w3.org/2000/svg"><path fill-rule="evenodd" clip-rule="evenodd" d="M2.5 2a.5.5 0 00-.5.5v17a.5.5 0 00.5.5h17a.5.5 0 00.5-.5v-17a.5.5 0 00-.5-.5h-17zM0 2.5A2.5 2.5 0 012.5 0h17A2.5 2.5 0 0122 2.5v17a2.5 2.5 0 01-2.5 2.5h-17A2.5 2.5 0 010 19.5v-17zM4 5a1 1 0 011-1h4a1 1 0 011 1v4a1 1 0 01-1 1H5a1 1 0 01-1-1V5zm2 1v2h2V6H6zm6-1a1 1 0 011-1h4a1 1 0 110 2h-4a1 1 0 01-1-1zm0 4a1 1 0 011-1h4a1 1 0 110 2h-4a1 1 0 01-1-1zm-8 4a1 1 0 011-1h12a1 1 0 110 2H5a1 1 0 01-1-1zm0 4a1 1 0 011-1h12a1 1 0 110 2H5a1 1 0 01-1-1z" fill="#008FDF"/></svg>