<svg width="47" height="54" fill="none" xmlns="http://www.w3.org/2000/svg"><path fill-rule="evenodd" clip-rule="evenodd" d="M16.45 0c-.624 0-1.221.248-1.662.688L.688 14.775A2.347 2.347 0 000 16.435v28.173a7.04 7.04 0 002.065 4.98 7.053 7.053 0 004.985 2.064H9.4a2.35 2.35 0 002.35-2.348 2.347 2.347 0 00-2.35-2.348H7.05a2.351 2.351 0 01-2.35-2.348V18.783h11.75a2.351 2.351 0 002.35-2.348V4.695h16.449a2.351 2.351 0 012.35 2.348v16.435a2.347 2.347 0 002.35 2.348 2.351 2.351 0 002.35-2.348V7.043a7.04 7.04 0 00-2.065-4.98A7.053 7.053 0 0035.249 0h-18.8zM14.1 14.087H8.023L14.1 8.015v6.072zm3.073 38.887c.372.458.91.83 1.591.97a2.882 2.882 0 001.577-.13c.71-.258 1.269-.744 1.63-1.103.574-.564 1.176-1.33 1.77-2.193 2.609-.9 6.27-1.726 9.833-2.247 1.98-.289 3.83-.47 5.386-.53.615.727 1.177 1.35 1.645 1.821.29.296.615.604.935.838.14.106.411.294.757.428.18.07 1.362.52 2.45-.357.644-.517 1.236-1.097 1.65-1.747.416-.657.809-1.657.482-2.794-.32-1.115-1.152-1.737-1.765-2.061a6.785 6.785 0 00-1.974-.625 15.449 15.449 0 00-1.962-.2 129.169 129.169 0 01-4.77-6.371 87.666 87.666 0 01-3.765-5.778c.106-.453.193-.885.263-1.299.118-.704.188-1.413.172-2.077a5.12 5.12 0 00-.46-2.12 3.332 3.332 0 00-2.144-1.801c-.945-.254-1.845-.064-2.536.192-1.064.392-1.65 1.268-1.851 2.12a4.386 4.386 0 00.03 1.919c.221 1.028.736 2.214 1.33 3.371.052.103.106.209.162.312-.561 1.843-1.388 4.015-2.373 6.264-1.44 3.294-3.135 6.56-4.592 8.894-.994.415-1.913.892-2.608 1.441-.475.374-1.112.98-1.417 1.867-.374 1.09-.108 2.179.554 2.996zm3.685-1.1l.014-.016a.123.123 0 01-.014.017zm12.034-8.25a75.415 75.415 0 00-5.75 1.076 89.204 89.204 0 002.401-5.043c.423-.97.835-1.956 1.215-2.93.58.878 1.187 1.768 1.803 2.641.932 1.328 1.888 2.64 2.867 3.935-.84.09-1.692.2-2.536.322zm-2.2-16.897v-.004.005z" fill="#fff"/></svg>