<svg width="16" height="16" fill="none" xmlns="http://www.w3.org/2000/svg"><path fill-rule="evenodd" clip-rule="evenodd" d="M5.472 10.528c1.92 1.92 3.705 2.991 5.032 3.586 1.16.52 2.528.112 3.594-.954l.244-.245-2.93-1.864c-.557.812-1.61 1.288-2.662.845-.796-.336-1.85-.912-2.792-1.854A8.796 8.796 0 014.105 7.25c-.444-1.052.031-2.105.844-2.662l-1.864-2.93-.245.244c-1.066 1.066-1.473 2.434-.954 3.594.595 1.327 1.665 3.111 3.586 5.032zm4.355 5.098C8.323 14.954 6.37 13.77 4.301 11.7 2.23 9.63 1.047 7.677.373 6.173-.517 4.184.296 2.104 1.669.73l.243-.244a1.657 1.657 0 012.57.282l2.346 3.687A.829.829 0 016.5 5.64l-.525.263c-.358.179-.43.494-.344.702a7.179 7.179 0 001.498 2.266 7.179 7.179 0 002.266 1.498c.208.088.524.014.703-.344l.262-.525a.83.83 0 011.185-.329l3.688 2.346a1.658 1.658 0 01.281 2.57l-.244.244c-1.373 1.374-3.453 2.187-5.443 1.296z" fill="url(#paint0_linear)"/><defs><linearGradient id="paint0_linear" x1="0" y1="0" x2="16" y2="0" gradientUnits="userSpaceOnUse"><stop stop-color="#166693"/><stop offset="1" stop-color="#008FDF"/></linearGradient></defs></svg>