<svg width="23" height="23" fill="none" xmlns="http://www.w3.org/2000/svg"><path fill-rule="evenodd" clip-rule="evenodd" d="M7.866 15.134c2.761 2.761 5.326 4.3 7.234 5.155 1.667.747 3.633.161 5.166-1.372l.35-.351-4.212-2.68c-.8 1.167-2.314 1.852-3.826 1.215-1.144-.484-2.66-1.31-4.014-2.665-1.354-1.354-2.18-2.87-2.663-4.014-.639-1.512.045-3.026 1.214-3.826l-2.68-4.212-.352.35C2.55 4.267 1.965 6.234 2.711 7.9c.855 1.908 2.394 4.473 5.155 7.234zm6.26 7.329c-2.161-.968-4.969-2.67-7.944-5.645-2.975-2.974-4.676-5.783-5.646-7.945-1.28-2.859-.11-5.848 1.863-7.823l.35-.352a2.382 2.382 0 013.695.405l3.371 5.3a1.191 1.191 0 01-.472 1.704l-.754.378c-.514.257-.62.711-.494 1.01.404.957 1.08 2.181 2.153 3.257 1.076 1.074 2.3 1.75 3.257 2.153.3.126.753.02 1.01-.494l.378-.754a1.191 1.191 0 011.703-.473l5.3 3.372a2.383 2.383 0 01.406 3.695l-.352.35c-1.973 1.975-4.963 3.144-7.823 1.862z" fill="#166693"/></svg>