<svg width="22" height="22" fill="none" xmlns="http://www.w3.org/2000/svg"><path fill-rule="evenodd" clip-rule="evenodd" d="M0 1a1 1 0 011-1h10a1 1 0 01.992.876L12.382 4H21a1 1 0 011 1v16a1 1 0 01-1 1H9.5a1 1 0 01-.992-.876L8.118 18H1a1 1 0 01-1-1V1zm10.133 17l.083.663.58-.663h-.663zm1.734-2H2V2h8.117l1.75 14zm-.163 4H20V6h-7.367l.25 2H16.5a1 1 0 110 2h-3.367l.25 2H16.5a1 1 0 110 2h-2.867l.36 2.876a1 1 0 01-.24.782L11.703 20zM3 5a1 1 0 011-1h3.5a1 1 0 010 2H4a1 1 0 01-1-1zm0 4a1 1 0 011-1h4a1 1 0 010 2H4a1 1 0 01-1-1zm0 4a1 1 0 011-1h4.5a1 1 0 110 2H4a1 1 0 01-1-1z" fill="#008FDF"/></svg>