<svg width="23" height="12" fill="none" xmlns="http://www.w3.org/2000/svg"><path d="M22.786 10.767c0-.082-.091-.082-.091-.164-.366-.658-1.19-1.48-2.288-2.384-.549-.41-.823-.74-1.007-.904-.274-.329-.274-.575-.183-.904.092-.247.458-.658 1.099-1.397.366-.411.549-.658.823-.904 1.373-1.644 2.013-2.713 1.83-3.206l-.091-.082c-.092-.082-.183-.164-.366-.164-.183-.083-.458-.083-.732 0h-4.118L17.57.74c-.091.082-.091.082-.091.164-.366.904-.824 1.644-1.281 2.466-.275.41-.55.822-.824 1.15-.275.33-.458.576-.64.74-.184.165-.367.247-.458.411-.092.082-.275.165-.275.082-.091 0-.183 0-.183-.082l-.274-.246c-.092-.083-.092-.247-.183-.411V.904c0-.082-.092-.246-.092-.329L12.995.33c-.092-.082-.275-.082-.366-.165A9.1 9.1 0 0010.98 0C9.516 0 8.51.082 8.144.247c-.183.082-.367.164-.458.328-.183.165-.183.247-.092.247.458.082.824.246 1.007.493l.092.164c.091.083.091.247.183.494.091.246.091.493.091.822V4.11c0 .41-.091.657-.091.904 0 .246-.092.41-.183.493-.092.164-.092.246-.183.246 0 0 0 .083-.092.083-.091 0-.183.082-.366.082-.092 0-.275-.082-.366-.165a1.054 1.054 0 01-.458-.41c-.183-.165-.366-.412-.549-.74-.183-.329-.457-.658-.64-1.151l-.183-.329a11.104 11.104 0 01-.458-.904c-.183-.41-.366-.74-.549-1.15a1.157 1.157 0 00-.274-.33h-.092s-.09-.08-.182-.08c-.091 0-.183-.083-.274-.083H.732C.366.575.183.658.092.74L0 .822v.164c0 .082 0 .165.092.33.457.985 1.006 1.972 1.555 2.958.55.904 1.098 1.726 1.464 2.301.458.576.824 1.151 1.282 1.644.457.493.732.822.823.986l.366.33.275.246c.183.164.457.41.823.657.366.247.824.493 1.281.74.458.247 1.007.411 1.556.575.64.165 1.19.247 1.739.165h1.373a.877.877 0 00.64-.247l.092-.082c0-.082.091-.082.091-.164v-.33c0-.328 0-.574.092-.821.091-.247.091-.411.183-.575.091-.165.183-.247.274-.33.092-.081.183-.164.183-.164h.092c.183-.082.457 0 .64.165.275.164.55.41.732.657.184.247.458.494.824.822.366.33.64.576.824.658l.274.164c.183.082.366.165.64.247.275.082.458.082.641.082l3.112-.082c.274 0 .549-.082.732-.165.183-.082.274-.164.274-.328v-.33c-.183-.164-.183-.246-.183-.328z" fill="#166693"/></svg>