<svg width="59" height="106" fill="none" xmlns="http://www.w3.org/2000/svg"><path d="M1 105.234h56.988M11.022 15.693h36.87-36.87zm0 86.249h36.87-36.87zm36.87-89.615v92.907-92.907zm-36.87 0v92.907-92.907zM1 12.327h56.988H1zM1 .623v104.684V.623zm56.988 0H1h56.988zm0 104.611V.623v104.611zM6.852 9.62H11.9m6.804 43.089c0-.951-.732-1.683-1.683-1.683-.951 0-1.683.732-1.683 1.683 0 .951.732 1.682 1.683 1.682.951 0 1.683-.731 1.683-1.682zM52.135 9.62a.812.812 0 00.805-.805l-.805.805zm.805-5.853a.812.812 0 00-.805-.804l.805.804zm-5.852-.804a.812.812 0 00-.805.804l.805-.804zm-.878 5.852c0 .439.366.805.804.805l-.804-.805zm0-5.048v5.048-5.048zm5.925-.804h-5.047 5.047zm.805 5.852V3.768v5.048zm-5.852.805h5.047-5.047zm-8.413 0a.812.812 0 00.805-.805l-.805.805zm.878-5.853a.812.812 0 00-.805-.804l.805.804zm-5.926-.804a.812.812 0 00-.805.804l.805-.804zm-.805 5.852c0 .439.366.805.805.805l-.805-.805zm0-5.048v5.048-5.048zm5.853-.804h-5.048 5.048zm.878 5.852V3.768v5.048zm-5.926.805h5.048-5.048zm-8.34 0a.812.812 0 00.805-.805l-.804.805zm.805-5.853a.812.812 0 00-.804-.804l.804.804zm-5.852-.804a.812.812 0 00-.805.804l.805-.804zm-.805 5.852c0 .439.366.805.805.805l-.805-.805zm0-5.048v5.048-5.048zm5.853-.804H20.24h5.048zm.804 5.852V3.768v5.048zm-5.852.805h5.048-5.048zm-8.413 0a.812.812 0 00.805-.805l-.805.805zm.878-5.853a.812.812 0 00-.805-.804l.805.804zm-5.853-.804c-.512 0-.877.365-.877.804l.877-.804zm-.877 5.852c0 .439.365.805.804.805l-.804-.805zm0-5.048v5.048-5.048zm5.852-.804H6.852h4.975zm.878 5.852V3.768v5.048zm4.316 40.748v5.853m2.707-2.707h-5.56 5.56zM5.316 40.346h1.317m-.659 4.682a2.467 2.467 0 002.488-2.488l-2.488 2.488zM3.487 42.54a2.467 2.467 0 002.487 2.488L3.487 42.54zm5.048-5.047a2.467 2.467 0 00-2.488-2.488l2.488 2.488zm-2.56-2.56a2.467 2.467 0 00-2.488 2.487l2.487-2.488zm-.66 2.56a2.552 2.552 0 00-1.828 3.145c.366 1.39 1.756 2.195 3.146 1.756 1.39-.366 2.194-1.756 1.755-3.146-.146-.804-.877-1.463-1.755-1.755H5.316zm-1.828 0v5.047-5.047zm5.048 5.047v-5.047 5.047zM6.633 29.811a1.66 1.66 0 00.878-2.194 1.66 1.66 0 00-2.195-.878c-.878.366-1.244 1.317-.878 2.195.146.365.512.731.878.877h1.317zm-1.317-1.243v11.705-11.705zm1.317 0H5.316h1.317zm0 11.778V28.64v11.705zm-.658-14.339v17.63m2.56-15.362H3.487h5.048zm-4.828 21.8h4.536M5.975 74.363a2.467 2.467 0 002.487-2.488l-2.487 2.488zm-2.488-2.488a2.467 2.467 0 002.488 2.488l-2.488-2.488zm5.048-5.047a2.467 2.467 0 00-2.487-2.488l2.487 2.488zm-2.56-2.56a2.467 2.467 0 00-2.488 2.486l2.488-2.487zM5.316 66.9a2.552 2.552 0 00-1.829 3.145 2.552 2.552 0 003.146 1.83c1.39-.366 2.195-1.756 1.756-3.146-.22-.878-.951-1.537-1.756-1.83H5.316zm-1.829-.073v5.047-5.047zm5.048 5.047v-5.047 5.047zM6.633 59.146a1.66 1.66 0 00.878-2.194 1.66 1.66 0 00-2.195-.878 1.66 1.66 0 00-.878 2.195c.147.365.513.731.878.877h1.317zm-1.317-1.243v11.705-11.705zm1.317 0H5.316h1.317zm0 11.778V57.976 69.68zm-1.317 0h1.317-1.317zM3.195 52.928a.5.5 0 00.512.512l-.512-.512zm.512-2.853a.5.5 0 00-.512.512l.512-.512zm5.048.512a.5.5 0 00-.512-.512l.512.512zm-.512 2.853a.5.5 0 00.512-.512l-.512.512zm-5.048-.512v-2.34 2.34zm5.048.512H3.707h4.536zm.512-2.853v2.341-2.34zm-2.78 4.756v17.63m2.56-15.363H3.487h5.048zm46.673-36.87h-4.536m-.22 21.8a2.467 2.467 0 002.488 2.488l-2.487-2.488zm2.488 2.488a2.467 2.467 0 002.487-2.488l-2.487 2.488zm0-10.096a2.467 2.467 0 00-2.487 2.487l2.487-2.487zm2.487 2.56a2.467 2.467 0 00-2.487-2.487l2.487 2.488zm-3.145 0a2.552 2.552 0 00-1.83 3.146c.367 1.39 1.757 2.195 3.146 1.756 1.39-.366 2.195-1.756 1.756-3.146-.22-.877-.95-1.536-1.756-1.828l-1.316.073zm3.145 0v5.048-5.047zm-4.974 5.048v-5.047 5.047zm3.145-12.729a1.66 1.66 0 00.878-2.194 1.66 1.66 0 00-2.194-.878c-.878.366-1.244 1.39-.878 2.194.146.366.512.732.878.878h1.316zm0-1.243v11.704-11.704zm-1.316 0h1.316-1.316zm0 11.778V28.64v11.705zm1.316 0h-1.316 1.316zm1.61-16.314a.5.5 0 00.512-.512l-.512.512zm.512-2.853a.5.5 0 00-.512-.512l.512.512zm-5.048-.439a.5.5 0 00-.512.512l.512-.512zm-.512 2.853a.5.5 0 00.512.512l-.512-.512zm5.56 0v-2.34 2.34zm-5.048.44h4.536-4.536zm-.512-2.854v2.341-2.34zm2.78 4.828v17.63m-2.487-15.362H55.5h-5.047zm4.755 21.8h-4.536m-.22 21.8a2.467 2.467 0 002.488 2.488l-2.487-2.488zm2.488 2.488a2.467 2.467 0 002.487-2.488l-2.487 2.488zm0-10.096a2.467 2.467 0 00-2.487 2.487l2.487-2.487zm2.487 2.56a2.467 2.467 0 00-2.487-2.487l2.487 2.488zm-3.145.074a2.552 2.552 0 00-1.83 3.145 2.552 2.552 0 003.146 1.83c1.39-.366 2.195-1.756 1.756-3.146-.22-.878-.95-1.537-1.756-1.83h-1.316zm3.145-.073v5.047-5.047zm-4.974 5.047v-5.047 5.047zm3.145-12.729a1.66 1.66 0 00.878-2.194 1.66 1.66 0 00-2.194-.878 1.66 1.66 0 00-.878 2.195c.146.365.512.731.878.877h1.316zm0-1.243v11.705-11.705zm-1.316 0h1.316-1.316zm0 11.778V57.976 69.68zm1.316 0h-1.316 1.316zm1.61-16.24a.5.5 0 00.512-.513l-.512.512zm.512-2.854a.5.5 0 00-.512-.512l.512.512zm-5.048-.512a.5.5 0 00-.512.512l.512-.512zm-.512 2.853a.5.5 0 00.512.512l-.512-.512zm5.56 0v-2.34 2.34zm-5.048.512h4.536-4.536zm-.512-2.853v2.341-2.34zm2.78 4.756v17.63M50.453 57.61H55.5h-5.047z" stroke="#677075" stroke-width=".3"/></svg>