<svg width="59" height="138" fill="none" xmlns="http://www.w3.org/2000/svg"><mask id="a" maskUnits="userSpaceOnUse" x="0" y="0" width="59" height="138"><path fill="#C4C4C4" d="M0 0h59v138H0z"/></mask><g mask="url(#a)" stroke="#677075" stroke-width=".3" stroke-miterlimit="10"><path d="M6.429 49.862v.66m.189.001v-.66m-4.065 5.382v.66m.188 0v-.66m3.688-4.722v1.04m-.19.282h-.472m0 .189h.472m.001 0c.283 0 .471-.189.471-.472m-.093 0v-1.039m-.188 1.039c0 .095-.096.19-.19.19m-.473-3.117h.472m.001 0c.094 0 .19.095.19.19m-.001-.002v1.039m.189 0v-1.039m-.378-.377c.283 0 .471.189.471.471m-.944-.471h.472m-2.836 5.288h-.378m0 0c-.283 0-.472.188-.472.471m0 .001v1.039m.188 0v-1.039m0 .001c0-.095.095-.19.19-.19m.094.001h.378m0 3.21h-.378m.001.002a.204.204 0 01-.19-.19m-.095-.095v-1.039m-.188 0v1.039m0 0c0 .283.189.471.472.471m.378.001h-.378m.378 0v-.094m2.08-8.877v.377m.284-.377v.377m-.284-.377h.284m-.284.377v8.216m.284-8.216v8.216m-.284.001v.377m.284 0h-.284m.284-.377v.377m-2.364-8.971v.377m.284-.377v.377m-.284-.377h.284m-.284.377v8.216m.284-8.216v8.216m-.284.001v.377m.284 0h-.284m.284-.377v.377m.946-.85h.378M5.01 75.454v-15.96m-.85-2.927h.472M4.16 75.454v-15.96m.473 15.961V56.567m.377-7.083v.284m.284 0v-.284m-1.418 0v.284m.284 0v-.284m.85.284v1.416m.284 0v-1.416m-1.418 0v1.416m.284 0v-1.416m1.134 8.688v-6.61m-.284-.001v6.61m.284-6.61v-.66m-.284 0v.66m.284 7.65v-1.039m-.284 0v1.039m.285 0H5.01m-1.134-8.31v.66m.284 0v-.66m-.284.66v6.61m.284.001v-6.61m0 7.649v-1.039m-.284 0v1.039m.284 0h-.284m.757 29.747h.378m-.001 18.793v-15.96m-.85 15.96v-15.96m.473 15.96V89.242m-.473 0h.472m.378-7.177v.284m.284 0v-.284m-1.418 0v.284m.284 0v-.284m.85.283v1.417m.284 0v-1.417m-1.418 0v1.417m.284 0v-1.417m.85 1.417v.66m.284 0v-.66m0 8.31v-1.039m-.284.094v1.04m.285-.095H5.01m.284-.945v-6.704m-.284 0v6.705m-1.134-.001v1.04m.284-.095v-1.039m0 1.039h-.284m0-8.31v.66m.284 0v-.66m-.284.661v6.705m.284-.001v-6.704M4.254 56v-5.382M4.916 56v-5.57m-.662-.19v-.85m0 1.039h.66m.002 0V49.39m-.662 33.43v-.85m.662 1.133V81.97m-.662 6.611v-5.383m.662 5.382v-5.477m-.662 0h.66m.381-7.648H4.16m0 0h-.284m1.419 32.58H4.16m0 0h-.284M1.228 82.443H.756m0 .755h.472m.474 0h.095m0-.755l-.095.094m-.095 0v-.094m.473.094v-.094m-.85 0v.094m-.757.945c0-.19.189-.284.284-.284m0-.755c-.19 0-.284-.095-.284-.284m1.89 1.417h1.04m0-1.511h-1.04m-.283 1.228l.284.283m0-1.511l-.284.284m-.473 1.321h.095m0-3.494h-.095M.19 83.481c0 .19.283.19.283 0m0-1.321c0-.19-.284-.19-.284 0m.001 0c-.095.471-.095.944 0 1.321m1.038-33.619H.756m0 .756h.472m.474-.095l.095.095m0-.756h-.095m-.095.756v-.095m.473.095v-.095m-.85 0v.095m-.757.283c0-.189.189-.283.284-.283m0-.755c-.19 0-.284-.095-.284-.284m1.89 1.417h1.04m0-1.512h-1.04m-.283 1.228l.284.283m0-1.511l-.284.19m-.378-2.172h-.095m0 3.494h.095M.19 50.9c0 .19.283.19.283 0m0-1.321c0-.19-.284-.19-.284 0m.001.001c-.095.471-.095.944 0 1.321m5.105-1.417H5.01m-.85 0h-.284m1.419 32.581H5.01m-.85 0h-.284m0-6.61l-.095 1.227m1.702 0l-.189-1.227m-1.512 1.227c0 .19-.095.284-.284.284m2.269.094c-.189 0-.284-.19-.284-.284m.663.756c.188-.095.188-.378 0-.378m-3.121 0c-.188 0-.188.283 0 .378"/><path d="M6.144 77.154l-.094-.094h-.284l-.094-.095m-2.174.095h-.283l-.095.094m0 .378a5.49 5.49 0 003.025 0m-2.269 30.503l-.095 1.227m1.702 0l-.189-1.227m-1.512 1.228c0 .189-.095.283-.284.283m2.269.095c-.189 0-.284-.19-.284-.284m.663.755c.188-.094.188-.377 0-.377m-3.121 0c-.188.094-.188.377 0 .377"/><path d="M6.144 109.734H6.05l-.284-.094h-.094m-2.174 0h-.283l-.095.094m0 .378c.946.284 2.08.284 3.025 0m52.375 27.67h-.284m.284-123.239v123.239m-8.887 0h-.283m0-8.688v8.688m0-110.868v98.497m0-110.868v8.688m8.886 114.551h-8.603m4.821-88.77a.331.331 0 00-.661 0c0 .377.661.377.661 0zm-1.513-1.794c0-.283-.378-.283-.378 0-.094.188.378.283.378 0zm2.742 0c0-.283-.377-.283-.377 0 0 .188.377.283.377 0zM9.076 137.782h.284m0 0V14.543M.19 137.782h.283M.19 49.484V14.543m0 67.522v-31.07m0 86.787V83.576m5.293-1.606H3.687m.473 6.611h.851m.472-39.191H3.687M4.16 56h.851M.473 137.782h8.603m-3.782-1.983c.283 0 .283-.378 0-.378-.189 0-.189.283 0 .378zm-1.418 0c.283 0 .283-.378 0-.378-.284 0-.284.283 0 .378zm-.756.472v-1.133m2.93 1.133H3.12m2.93 0v-1.133m-2.93 0v-.095m2.93.095v-.095m-2.93.001v-.19m2.93 0H3.12m2.93.19v-.19m43.3 2.928H9.36m39.99-4.533H9.36m26.187-18.131c0 .283.378.283.378 0-.095-.283-.378-.283-.378 0zm-12.668 0c0 .283.378.283.378 0-.095-.283-.378-.283-.378 0zm10.777-75.361c0 .283.378.283.378 0-.094-.283-.378-.283-.378 0zm-8.886 0c0 .283.377.283.377 0-.094-.283-.377-.283-.377 0zm1.89 3.211h5.389m-5.389 0a.947.947 0 01-.945-.944m-.095-4.627v4.627m0-4.627c0-.567.473-.945.945-.945m5.484 0H26.66m5.389 0c.567 0 .945.472.945.945m.095 4.627v-4.627m0 4.627a.947.947 0 01-.945.944m-19.759 69.883c.094-1.417 1.985-1.511 2.174-.094 0 1.511-2.08 1.605-2.174.094z"/><path d="M12.763 112.851c0 .945 1.323.945 1.418.095.094-1.039-1.418-1.039-1.418-.095zm-.378-77.815c.094-1.417 1.985-1.511 2.174-.095 0 1.511-2.08 1.606-2.174.095z"/><path d="M12.763 35.036c0 .944 1.323.944 1.418.094.094-1.039-1.418-1.133-1.418-.094zm.662 78.003c.283 0 .283-.377 0-.377-.189.094-.189.377 0 .377zm.567-.282h-.095m.095.283v-.283m-.094.283h.094m-.946 0c.094.378.662.378.756 0m-.85 0h.095m-.095-.283v.283m.095-.283h-.095m.945-.001c-.095-.377-.662-.377-.756 0"/><path d="M13.425 35.224c.283 0 .283-.377 0-.377-.189 0-.189.283 0 .377zm.567-.283h-.095m.095.19v-.19m-.094.189h.094m-.946 0c.094.378.662.378.756 0m-.85 0h.095m-.095-.189v.19m.095-.19h-.095m.945 0c-.095-.377-.662-.377-.756 0M58.52.19c0-.096 0-.096 0 0m0-.096H.19m0 .096c0-.096 0-.096 0 0m0-.001v1.133M2.269.85c0 .188.283.188.283 0 0-.284-.283-.284-.283 0zm53.887 0c0 .188.284.188.284 0 0-.284-.284-.284-.284 0zM58.52.189v1.133M.19 13.41v1.133m58.33 0H.19m2.079-.661c0 .188.283.188.283 0 0-.283-.283-.283-.283 0zm53.887 0c0 .188.284.188.284 0 0-.283-.284-.283-.284 0zm2.364-.472v1.133M.19 1.322v.095m58.33-.095v.095M.19 13.221v.095m58.33-.095v.095M.19 1.417V1.7m58.33-.283V1.7m0-.283H.19m0 .283v11.332M58.52 1.7v11.332m-58.33 0v.284m58.33-.095H.19m58.33-.189v.284m-9.643 112.095h-1.135m1.135 3.683h-1.135m.001-3.683h-.284m.284 3.683h-.284m.283 0v-3.683m-.283 3.683v-3.683m2.269 0h-.19m.19.944h-.19m.189 0v-.944m-.189 1.794h.19m0 .945h-.19m.189-.001v-.944m-.567 0h.378m0 .945h-.378m.378-.001v-.944m-.661 0h.284m-.284.944v-.944m.283.945h-.283m.283-.001v-.944m0-1.794h-.283m0 .944v-.944m.283.944h-.283m.661-.944h-.378m.378.944v-.944m-.378.944v-.944m.378.944h-.378m1.796-99.441h.19m-.19-3.683h.19m-.001 0v3.683m-1.418 0h1.23m-.001-3.683v3.683m-1.229-3.683h1.23m-2.08 3.683h.284m-.284-.944h.284m-.284 0v.944m.283-1.794h-.283m0-.944h.284m-.284 0v.944m.85-.944v.944m-.189-.944h.19m0 .944h-.19m0-.944v.944m-.378-.944h.378m-.378 0v.944m.378 0h-.378m0 1.794h.378m-.378-.944v.944m0-.944h.378m0 .944h.19m-.19-.944v.944m.189-.944v.944m-.189-.944h.19m-1.985-2.739h-.284m.284 3.683h-.284m0 .001V23.23m1.418.001h-1.135m0 3.684V23.23m1.135 3.684h-1.135m1.986-3.683h-.19m.19.945h-.19m.189 0v-.945m-.189 1.889h.19m0 .85h-.19m.189 0v-.85m-.567 0h.378m0 .85h-.378m.378 0v-.85m-.661.85v-.85m.283.85h-.283m.283 0v-.85m-.283 0h.284m.377-1.889h-.378m.378.945v-.945m0 .945h-.378m0 0v-.945m0 0h-.283m0 .945v-.945m.283.945h-.283m.85 104.918h1.23m-1.23-3.683h1.23m-.001 3.683h.19m-.19-3.683h.19m-.19 0v3.683m.189-3.683v3.683m-2.268 0h.284m-.284-.944h.284m-.284 0v.944m.283-1.889h-.283m0-.85h.284m-.284 0v.85m.661 0h-.378m0-.85h.378m-.378 0v.85m.567-.85v.85m-.189-.85h.19m-.19 0v.85m.19 0h-.19m0 1.889h.19m-.001-.944v.944m-.189-.944h.19m-.568 0v.944m0 0h.378m0-.944v.944m-.378-.944h.378m2.175-87.92v-3.494m.662-.756h3.498m-3.499 0a.745.745 0 00-.756.756m4.917 0a.745.745 0 00-.757-.756m-4.065 4.25c0 .378.283.756.756.756m3.403 0a.745.745 0 00.756-.756m-.094-3.494v3.494m-.661.755h-3.498m3.214-3.872h-2.93m2.93 0v2.833m-2.931 0v-2.833m0 2.833h2.93m-2.93-2.833h2.93M3.687 81.876h.094m1.608 0h.094M2.08 89.147c.567 0 .662.85.094.945-.756.094-.756-.85-.094-.945zm-.378-8.593h.095l.094-.094h.189m-.473.66v-.377m.473-.283c.85.094.472 1.322-.284.85m5.389 7.837c.568 0 .662.85.095.945-.756.094-.756-.85-.095-.945zm0-8.687c.568 0 .662.85.095.944-.756.094-.756-.85-.095-.944zm-5.672-.756h6.145m-6.713.566c0-.283.284-.566.567-.566m-.567 2.361V80.27m0 10.01v-6.61m.567 7.177c-.283 0-.567-.189-.567-.566m2.931.567H1.513m6.144 0H5.294m2.93-.568c0 .284-.283.567-.567.567m.568-10.577v10.01m-.568-10.576c.284 0 .567.283.567.566m-6.522 1.795h.378m-.662 0h.19m0 1.605h-.19m.662 0h-.378m.378-.472v.472m0-1.605v.377m-.945-.377h.19m.095 1.605h-.19m2.551-2.36h1.607m-1.607-.284h1.607M.945 82.442v-.377m0 1.605v-.377m.19.377h-.19m.19-1.228v-.472m0 1.7v-.472m-.19-1.133h.19m.095.378v.755m.567-.378h-.095m-.095-.377h-.094m0 .755h.094m.473-.755h-.284m.284.377h-.284m.284.378h-.284m-.283-.755h-.19m0 .377h.19m0 .378h-.19m-.093-.755h.094m0 .755h-.095m3.025 0v-.378m-1.891-.755v.755m0 0v.756m-.283-1.228v1.039m-.473-.567v.756m.095.094v-.755m-.095-1.983v1.888m.095 0v-1.888m-.095-.756v.756m.095 0v-.756m4.727 2.361v.66m.189 0v-.66m-4.065 5.289v.66m.188 0v-.66m3.498-3.4h-.472m0 .189h.472m.001-.001c.283 0 .471-.188.471-.471m-.093.094v-1.039m-.189 0v1.039m.001 0c0 .095-.096.19-.19.19m-.473-3.212h.472m.001 0c.094 0 .19.095.19.19m-.001.093v1.039m.189 0v-1.039m-.378-.472c.188 0 .377.189.377.472m-.85-.472h.472m-3.686 5.761v1.038m.85-1.415h-.378m0 0c-.283 0-.472.188-.472.47m.188.945v-1.038m0 0c0-.094.095-.19.19-.19m.094.001h.378m0 3.211h-.378m.001.001a.204.204 0 01-.19-.19m-.095-.095v-1.039m-.188 0v1.04m0-.001c0 .283.189.472.472.472m.378.001h-.378m2.458-8.972v.377m.284-.377v.377m-.284-.377h.284m-.284.378v8.216m.284-8.216v8.216m-.284 0v.377m.284.001h-.284m.284-.378v.377m-2.364-8.971v.377m.284-.377v.377m-.284-.377h.284m-.284 8.594v.377m.284.001h-.284m.284-.378v.377m-.284-8.593v8.216m.284-8.216v8.216M2.08 56.567c.567 0 .662.85.094.945-.756 0-.756-.945-.094-.945zm-.378-8.594l.095-.094h.283m-.473.661v-.377m.473-.284c.85.094.472 1.322-.284.85m5.389 7.838c.568 0 .662.85.095.945-.756 0-.756-.945-.095-.945zm0-8.688c.567 0 .662.85.095.944-.757 0-.851-.944-.095-.944zm-5.672-.756h6.145m-6.713.567c0-.283.284-.566.567-.566M.945 49.39v-1.7m0 10.01v-6.704m.567 7.27c-.283 0-.567-.283-.567-.566m2.931.567H1.513m6.144 0H5.294m2.93-.567c0 .283-.283.566-.567.566m.568-10.576V57.7m-.568-10.577c.284 0 .567.284.567.567m-6.616 3.306h-.19m.662 0h-.378m0-1.606h.378m-.662 0h.19m.472 1.228v.377m0-1.605v.472m-.66 1.134h-.19m-.095-1.606h.19m2.456-.661h1.607m-1.607-.283h1.607M.945 49.862v-.378m0 1.511v-.377m.19.378h-.19m.19-1.134v-.472m0 1.605v-.472m-.19-1.133h.19m.095.472v.756m.567-.378h-.095m-.095-.378h-.094m0 .756h.094m.473-.756h-.284m.284.378h-.284m.284.378h-.284m-.566-.756h.094m0 .756h-.095m.284-.756h-.19m0 .378h.19m0 .378h-.19m2.931-.001v-.377m-1.891-.756v.756m0 0v.755m-.283-1.322v1.04m-.473-3.211v.755m.095.094v-.755m-.095 2.644v.755m.095 0v-.755m-.095-1.889v1.889m.095 0v-1.89"/></g></svg>