<svg width="125" height="154" fill="none" xmlns="http://www.w3.org/2000/svg"><path d="M121.692 114.674l.2-.199m-54.085 33.769v-.133.133zm0-67.273h1.066-1.066zm11.523 67.14v.133-.133zm0-67.14v.133-.133zm-10.39 0h-.067.066zm0 7.527V80.97v7.527zm0 24.911V90.762v22.647zm0 24.977V115.74v22.646zm0 9.858v-7.526 7.526zm.133 0h-.134.134zm9.125 0h-.133.133zm0-67.273v67.273-67.273zm-9.125-6.527v5.861-5.861zm0 73.8v.866-.866zm0 .866h9.058-9.058zm8.992-.866v.866-.866zm0-73.001v5.062-5.062zm33.769 5.795v-.133.133zm0 67.206v-.133.133zm9.658.067h.134-.134zm.134 0V79.04v69.271zM112.9 88.498V80.97v7.527zm0 24.911V90.762v22.647zm0 24.977V115.74v22.646zm0 9.858v-7.526 7.526zm.133 0h-.133.133zm0-67.872v-2.065 2.065zm0 68.738v-.866.866zm8.459 0h-8.459 8.459zm0-.799v.733-.733zm-52.42-68.006v-5.861 5.861zm-61.478 0V69.05v11.256zm61.479.666H7.594h61.479zm0-.6v.534-.533zm-61.479.534v-.533.533zm61.479 0H7.594h61.479zm43.96-.533v-2.065 2.065zm-34.968 0V75.31v5.062zm34.968 0v.533-.533zm-34.968.533v-.533.533zm34.968 0H78.065h34.968zm0 .066H78.065h34.968zm-34.835 67.273h34.769-34.77zm-.133.067h34.968-34.968zM38.433 81.104l.067.067-.067-.067zm.067.067l-.067-.067.067.067zm0 66.807l-.067.067.067-.067zm-.133-66.874l.133.067-.133-.067zm0 66.941v-66.94 66.94zm.133-.067h-.067.067zm-.067.067l.067-.067-.067.067zm30.24-66.874l.067-.067-.067.067zm.067-.067l-.067.067.067-.067zm0-.066l-.067.133.067-.133zm-30.307 0h30.373-30.373zm.067.133v-.067.067zm30.24 66.874l-.067-.067.067.067zm-30.307.066l.067-.133-.067.133zm30.307 0H38.433 68.74zm.066-.066l-.066-.067h-.067l.133.067zm0-7.394v7.394-7.394zm0-24.911v22.646-22.646zm0-24.91v22.645-22.646zm0-9.726v7.394-7.394zm-.133.067h.067-.067zm0 66.807l.067.067-.067-.067zm0 0v.067-.067zm53.219-34.236v.4-.4zm0 .4v.399-.399zm-81.06-20.649c0-.333-.267-.6-.6-.6-.333 0-.6.267-.6.6 0 .333.267.6.6.6.333 0 .6-.267.6-.6zm-.2 0c0-.2-.2-.4-.4-.4s-.4.2-.4.4.2.4.4.4c.266 0 .4-.2.4-.4zm40.63 42.163c0-.333-.267-.6-.6-.6-.333 0-.6.267-.6.6 0 .333.267.599.6.599.333 0 .6-.266.6-.599zm-.2 0c0-.2-.2-.4-.4-.4s-.4.2-.4.4c0 .199.2.399.4.399s.4-.133.4-.399zm.2-42.163c0-.333-.267-.6-.6-.6-.333 0-.6.267-.6.6 0 .333.267.6.6.6.333 0 .6-.267.6-.6zm-.2 0c0-.2-.2-.4-.4-.4s-.4.2-.4.4.2.4.4.4.4-.2.4-.4zm-40.23 42.163c0-.333-.267-.6-.6-.6-.333 0-.6.267-.6.6 0 .333.267.599.6.599.333 0 .6-.266.6-.599zm-.2 0c0-.2-.2-.4-.4-.4s-.4.2-.4.4c0 .199.2.399.4.399.266 0 .4-.133.4-.399zM80.928 93.56v-.133.133zm-.467 0c0 .133.134.2.267.133a.143.143 0 00.133-.133h-.4zm-.066-.133v.133-.133zm.466 0c0-.134-.133-.2-.266-.134a.143.143 0 00-.134.134h.4zm-40.297.133v-.133.133zm-.466 0c0 .133.133.2.266.133a.143.143 0 00.133-.133h-.4zm-.067-.133v.133-.133zm.466 0c0-.134-.133-.2-.266-.134a.143.143 0 00-.133.134h.4zm40.43 42.295v-.133.133zm-.066-.066c0-.134-.133-.2-.266-.134a.144.144 0 00-.134.134h.4zm-.4.066c0 .133.134.2.267.133a.143.143 0 00.133-.133h-.4zm-.066-.066v.133-.133zm-39.831.066v-.133.133zm-.466 0c0 .133.133.2.266.133a.143.143 0 00.133-.133h-.4zm-.067-.066v.133-.133zm.466 0c0-.134-.133-.2-.266-.134-.067 0-.133.067-.133.134h.4zm72.069-22.247h.133-.133zm-1.932 2.331h.134-.134zm0-2.331h.134-.134zm0 2.331v-2.331 2.331zm2.065-.599h-.133.133zm-1.931.599h1.931-1.931zm1.798-1.732h.133-.133zm0 .6h.133-.133zm-1.798-1.199h1.798-1.798zm1.798 1.732v-.6.6zm0-1.133v-.599.599zm-1.798-.599v2.331-2.331zm1.931 2.331h.133-.133zm0-.599v.599-.599zm.133-1.133h.2-.2zm0 .6h.2-.2zm.2-.6h.133-.133zm0 .6h.133-.133zm0-.6v.6-.6zm.133 0v.6-.6zm-.466 0v.6-.6zm.133 0v.6-.6zm.333 1.133h-.133.133zm-.133.599h.133-.133zm.133-.599v.599-.599zm-.133 0h-.2.2zm-.2.599h.2-.2zm.2-.599v.599-.599zm-.2 0v.599-.599zm-.266 23.245h.133-.133zm-1.932 2.265h.134-.134zm0-2.265h.134-.134zm0 2.265v-2.331 2.331zm2.065-.533h-.133.133zm-.133-1.199h.133-.133zm0 .6h.133-.133zm-1.798 1.132h1.931-1.931zm0-2.265h1.798-1.798zm1.798 1.732v-.599.599zm0-1.199v-.599.599zm-1.798-.533v2.332-2.332zm1.931.533v.6-.6zm.333 0h.133-.133zm0 .6h.133-.133zm.133-.6v.6-.6zm-.333 0h.2-.2zm0 0v.6-.6zm0 .6h.2-.2zm.2-.6v.6-.6zm-.333 1.732h.133-.133zm0-.533v.6-.6zm.466 0h-.133.133zm-.133.533h.133-.133zm.133-.533v.6-.6zm-.333.533h.2-.2zm.2-.533v.6-.6zm0 0h-.2.2zm-.2 0v.6-.6zm-.266-51.62h.133-.133zm-1.932 2.331h.134-.134zm0-2.331h.134-.134zm0 2.331v-2.331 2.331zm2.065-.6h-.133.133zm-.133-1.132h.133-.133zm0 .533h.133-.133zm-1.798 1.2h1.931-1.931zm1.798-.6v-.6.6zm0-1.133v-.6.6zm-1.798-.6h1.798-1.798zm0 0v2.332-2.331zm1.931.6v.6-.6zm.133 0h.2-.2zm0 0v.6-.6zm0 .533h.2-.2zm-.133 1.2h.133-.133zm0-.6v.6-.6zm.333-1.133h.133-.133zm0 0v.6-.6zm0 .533h.133-.133zm.133-.533v.6-.6zm-.133 1.133h-.2.2zm-.2.6h.2-.2zm0-.6v.6-.6zm.333 0h-.133.133zm-.133.6h.133-.133zm.133-.6v.6-.6zm-.133 0v.6-.6zm-.466 23.179h.133-.133zm-1.932 2.331h.134-.134zm0-2.331h.134-.134zm0 2.331v-2.331 2.331zm2.065-.599h-.133.133zm-1.931.599h1.931-1.931zm1.798-1.132h.133-.133zm0-.6h.133-.133zm-1.798-.599h1.798-1.798zm1.798 1.732v-.6.6zm0-1.133v-.599.599zm-1.798-.599v2.331-2.331zm1.931.599v.6-.6zm0 1.732h.133-.133zm0-.599v.599-.599zm.333-1.133h.133-.133zm0 .6h.133-.133zm.133-.6v.6-.6zm-.333 0h.2-.2zm0 0v.6-.6zm0 .6h.2-.2zm.2-.6v.6-.6zm-.2 1.732h.2-.2zm.2-.599h-.2.2zm-.2 0v.599-.599zm.2.599h.133-.133zm.133-.599v.599-.599zm0 0h-.133.133zm-.133 0v.599-.599zm9.192-8.526h-.133.133zm0 0v-.533.533zm0-.533h-.133.133zm0-1.199h-.133.133zm-.133.6h.133-.133zm.133 0v-.6.6zm-.266 1.132h.133-.133zm.133 0v-.533.533zm0-.533h-.133.133zm0-1.199h-.133.133zm-.133.6h.133-.133zm.133 0v-.6.6zm0-16.12h.133-.133zm.133-.599h-.133.133zm0 .6v-.6.6zm0 .6h-.133.133zm0 .532h-.133.133zm0 0v-.6.6zm-.266-1.132h.133-.133zm.133-.6h-.133.133zm0 .6v-.6.6zm0 .6h-.133.133zm-.133.532h.133-.133zm.133 0v-.6.6zm0 47.757h-.133.133zm-.133.6h.133-.133zm0-1.133h.133-.133zm.133-.599h-.133.133zm.133 1.132h-.133.133zm0 .6h-.133.133zm0 0v-.6.6zm-.133 0v-.6.6zm0-1.133h.133-.133zm.133-.599h-.133.133zm-.133.599v-.599.599zm.133 0v-.599.599zm0-15.586h-.133.133zm0 .6h-.133.133zm0 0v-.6.6zm-.133-1.732h-.133.133zm-.133.6h.133-.133zm.266-.6h-.133.133zm-.133.6h.133-.133zm0 0v-.6.6zm.133 0v-.6.6zm-.133.532h-.133.133zm-.133.6h.133-.133zm.133 0v-.6.6zm-55.484-6.994h.133-.133zm0-2.331h.133-.133zm0 2.331v-2.331 2.331zm.133 0h1.932-1.932zm1.799-.599v-.6.6zm0-1.133v-.599.599zm-1.799-.599h1.799-1.799zm0 0v2.331-2.331zm2.065.599h.2-.2zm0 .6h.2-.2zm-.133-.6v.6-.6zm.133 0v.6-.6zm.2 0h.133-.133zm0 0v.6-.6zm0 .6h.133-.133zm.067-.6v.6-.6zm-.067 1.133h-.2.2zm-.2.599h.2-.2zm.267-.599h-.134.134zm-.067.599h.133-.133zm.067-.599v.599-.599zm-.067 0v.599-.599zm-.333.599h.133-.133zm.133-.599v.599-.599zm-.133 0v.599-.599zm0-1.732h-.133.133zm-2.065 2.331h.133-.133zm0-2.331h.133-.133zm0 2.331v-2.331 2.331zm1.932-.599h.133-.133zm.133-1.133h-.133.133zm-1.932 1.732h1.932-1.932zm1.932-1.132h-.133.133zm-.133.533v-.6.6zm0-1.133v-.599.599zm-1.799-.599h1.799-1.799zm0 0v2.331-2.331zm2.265.599h.133-.133zm0 .6h.133-.133zm.067-.6v.6-.6zm-.4 0v.6-.6zm.133 0h.2-.2zm0 0v.6-.6zm0 .6h.2-.2zm.2-.6v.6-.6zm0 1.133h-.2.2zm-.333.599h.266-.266zm.133-.599v.599-.599zm-.133 0v.599-.599zm.4 0h-.134.134zm-.067.599h.133-.133zm.067-.599v.599-.599zm-.067 0v.599-.599zm-.466 23.245h.133-.133zm-1.932 2.265h.133-.133zm0-2.265h.133-.133zm0 2.265v-2.331 2.331zm2.065-.533h-.133.133zm-.133-1.199h.133-.133zm0 .6h.133-.133zm-1.799 1.132h1.932-1.932zm0-2.265h1.799-1.799zm1.799 1.732v-.599.599zm0-1.199v-.599.599zm-1.799-.533v2.332-2.332zm2.065.533h.2-.2zm0 .6h.2-.2zm-.133-.6v.6-.6zm.133 0v.6-.6zm.2 0h.133-.133zm0 0v.6-.6zm0 .6h.133-.133zm.067-.6v.6-.6zm-.067 1.199h-.2.2zm-.333.533h.266-.266zm.133-.533v.6-.6zm-.133 0v.6-.6zm.4 0h-.134.134zm-.067.533h.133-.133zm.067-.533v.6-.6zm-.067 0v.6-.6zm-.466-51.62h.133-.133zm-1.932 2.331h.133-.133zm0-2.331h.133-.133zm0 2.331v-2.331 2.331zm2.065-.6h-.133.133zm-.133-1.132h.133-.133zM66.74 90.83h1.932-1.932zm1.799-1.199h.133-.133zm-1.799-1.132h1.799-1.799zm1.799 1.732v-.6.6zm0-1.133v-.6.6zm-1.799-.6v2.332-2.331zm2.265.6h.133-.133zm0 .533h.133-.133zm.067-.533v.6-.6zm-.267 0h.2-.2zm0 .533h.2-.2zm.2-.533v.6-.6zm-.333 0v.6-.6zm.133 0v.6-.6zm.2 1.732h.133-.133zm.067-.6v.6-.6zm0 0h-.134.134zm-.267.6h.2-.2zm.2-.6v.6-.6zm0 0h-.2.2zm-.333.6h.133-.133zm.133-.6v.6-.6zm-.133 0v.6-.6zm-58.614 23.18h-.133.133zm0 2.331h-.133.133zm0-2.331v2.331-2.331zm-.2 0H7.927 9.86zm-1.732.599v.6-.6zm0 1.133v.599-.599zm1.732.599H8.061h1.798zm0 0v-2.331 2.331zm-2.065-2.331h-.2.2zm-.133.599h.2-.2zm0 1.133h-.133.133zm0-.533h-.133.133zm-.133.533v-.6.6zm.266 0h-.2.2zm0-.533h-.2.2zm-.133.533v-.6.6zm.266-1.732h-.133.133zm-.133.599v-.599.599zm.133 0v-.599.599zm0 1.133v-.6.6zm-.133 0v-.6.6zm-.133-1.732h-.133.133zm-.133.599v-.599.599zm0 0h.133-.133zm.133 0v-.599.599zm.266 1.732h.134-.134zm1.932-2.331H7.927 9.86zm-1.732.599h-.133.133zm-.2.6h.134-.134zm0 .533h.134-.134zm1.932.599H8.061h1.798zm-1.732-1.732v.6-.6zm0 1.133v.599-.599zm1.932-1.732h-.133.133zm0 2.331h-.133.133zm0-2.331v2.331-2.331zm-.2 2.331v-2.331 2.331zm-1.932-.599v-.6.6zm-.133-1.732h-.2.2zm-.133.599h.2-.2zm.133.6h-.2.2zm0 .533h-.2.2zm0 0v-.6.6zm.133-1.732h-.133.133zm-.133.599v-.599.599zm.133 0v-.599.599zm-.266 1.133h-.133.133zm0 0v-.6.6zm0-.533h-.133.133zm-.133.533v-.6.6zm.133-1.732h-.133.133zm-.133.599v-.599.599zm0 0h.133-.133zm.133 0v-.599.599zm.466 26.643h-.133.133zm1.932-2.265h-.133.133zm0 2.265h-.133.133zm0-2.265v2.332-2.332zm-.2 0H7.927 9.86zm-1.732 1.133h-.133.133zm0 .599h-.133.133zm-.2-1.199h.134-.134zm.2 0v.6-.6zm0 1.199v.6-.6zm1.732.533H8.061h1.798zm0 0v-2.331 2.331zm-2.065-1.132h-.2.2zm0 .599h-.2.2zm-.133-.599h-.133.133zm0 .599h-.133.133zm0 0v-.599.599zm-.133 0v-.599.599zm.4 0v-.599.599zm-.134 0v-.599.599zm-.133-1.732h-.133.133zm-.133.533v-.599.599zm0 0h.133-.133zm.266-.533h-.2.2zm-.133.533v-.599.599zm0 0h.2-.2zm.266-.533h-.133.133zm-.133.533v-.599.599zm.133 0v-.599.599zm.2-48.09h-.133.133zm1.732-2.331H7.927 9.86zM8.127 89.63h-.133.133zm0 .6h-.133.133zm-.2-1.133h.134-.134zM9.86 90.83H8.061h1.798zm-1.732-1.732v.6-.6zm0 1.133v.6-.6zm1.932-1.732h-.133.133zm0 2.331h-.133.133zm0-2.331v2.331-2.331zm-.2 2.331v-2.331 2.331zm-2.199-1.2h-.133.133zm0 .6h-.133.133zm-.133 0v-.6.6zm.4 0v-.6.6zm-.134-.6h-.2.2zm0 .6h-.2.2zm0 0v-.6.6zm-.133 0v-.6.6zm.133-1.732h-.2.2zm-.133.6h.2-.2zm0-.6h-.133.133zm-.133.6v-.6.6zm0 0h.133-.133zm.133 0v-.6.6zm.266-.6h-.133.133zm-.133.6v-.6.6zm.133 0v-.6.6zM38.3 148.044h.067-.067zm.067-66.94H38.3h.067zm-30.506 0l.066.066-.066-.067zm.066.066l-.066-.067.066.067zm-.133-.067l.133.067-.133-.067zm0 59.547v7.394-7.394zm0-24.911v22.646-22.646zm0-24.91v22.645-22.646zm0-9.726v7.394-7.394zm.133 66.874l-.066.067.066-.067zm0 0h-.066.066zm-.066.067l.066-.067-.066.067zM38.167 81.17l.067-.067-.067.067zm.067-.067l-.067.067.067-.067zm0-.066l-.067.133.067-.133zm-30.373 0h30.373H7.86zm.066.133v-.067.067zm30.307 66.874l-.067-.067.067.067zm-30.373.066l.066-.133-.066.133zm30.373 0H7.86h30.373zm.066-.066l-.133-.067.133.067zm0-66.94v66.94-66.94zm-.133.066h.067-.067zm0 66.807l.067.067-.067-.067zm0 0v.067-.067zm49.755-59.214v10.324-10.324zm0 10.324h15.32-15.32zm15.387 0V88.764v10.324zm0-10.324h-15.32 15.32zm-1.133 1.665h-.133.133zm0 2.332h-.133.133zm0-1.133h-.133.133zm0-1.731h-.133.133zm0 2.264h-.133.133zm0-1.132h-.133.133zm0 5.262h-.133.133zm0-.6h-.133.133zm0 2.332h-.133.133zm0-2.864h-.133.133zm0 1.731h-.133.133zm0 .533h-.133.133zm-13.055-7.526h-.133.133zm0 7.526h-.133.133zm0-4.662h-.133.133zm0-2.332h-.133.133zm0 5.262h-.133.133zm0-4.063h-.133.133zm0-.6h-.133.133zm0 1.133h-.133.133zm0 5.862h-.133.133zm0-2.864h-.133.133zm0 1.132h-.133.133zm0 .6h-.133.133zm3.864 0h-.134.134zm0 .532h-.134.134zm0-6.994h-.134.134zm0 1.732h-.134.134zm0 4.13h-.134.134zm0-4.663h-.134.134zm0-1.731h-.134.134zm0 5.794h-.134.134zm0-2.93h-.134.134zm0 2.398h-.134.134zm0-4.13h-.134.134zm0 6.994h-.134.134zm5.328-.6h-.133.133zm0-1.732h-.133.133zm0 .6h-.133.133zm0 1.732h-.133.133zm0-1.133h-.133.133zm0-1.731h-.133.133zm0-2.998h-.133.133zm0-1.732h-.133.133zm0 2.332h-.133.133zm0-2.864h-.133.133zm0 1.132h-.133.133zm0 .6h-.133.133zm-5.795-1.2h-3.064 3.064zm0-.532h-3.064 3.064zm0 1.132h-3.064 3.064zm0 6.394h-3.064 3.064zm0-.533h-3.064 3.064zm0-1.731h-3.064 3.064zm0-2.998h-3.064 3.064zm0 5.862h-3.064 3.064zm0-1.732h-3.064 3.064zm0-3.53h-3.064 3.064zm0 2.93h-3.064 3.064zm0-4.063h-3.064 3.064zm9.259-1.731h-3.064 3.064zm0 2.864h-3.064 3.064zm0-.6h-3.064 3.064zm0-1.132h-3.064 3.064zm0 .6h-3.064 3.064zm0-1.2h-3.064 3.064zm0 5.862h-3.064 3.064zm0 .6h-3.064 3.064zm0 1.132h-3.064 3.064zm0-2.864h-3.064 3.064zm0 2.264h-3.064 3.064zm0-1.732h-3.064 3.064zm-12.323-4.66h-.333.333zm0-.6h-.333.333zm0 2.332h-.333.333zm0-1.133h-.333.333zm0-1.731h-.333.333zm0 6.993h-.333.333zm0-1.731h-.333.333zm0-2.998h-.333.333zm0 5.262h-.333.333zm0-1.132h-.333.333zm0 1.732h-.333.333zm0-2.332h-.333.333zm9.259-4.063h-.333.333zm0 .533h-.333.333zm0 .6h-.333.333zm0-2.332h-.333.333zm0 .6h-.333.333zm0-1.132h-.333.333zm0 5.794h-.333.333zm0 2.332h-.333.333zm0-2.864h-.333.333zm0 1.731h-.333.333zm0 .533h-.333.333zm0-1.132h-.333.333zm-5.862-5.262h-.333.333zm0-.6h-.333.333zm0-.532h-.333.333zm0 1.731h-.333.333zm0 3.53h-.333.333zm0 1.133h-.333.333zm0-.6h-.333.333zm0 1.2h-.333.333zm0 1.132h-.333.333zm0-.6h-.333.333zm0-4.662h-.333.333zm0-.6h-.333.333zm9.259 0h-.333.333zm0-1.132h-.333.333zm0 .6h-.333.333zm0-1.732h-.333.333zm0 .532h-.333.333zm0 2.332h-.333.333zm0 3.53h-.333.333zm0-1.132h-.333.333zm0 .532h-.333.333zm0 1.2h-.333.333zm0 .532h-.333.333zm0 .6h-.333.333zm19.715-9.259a.5.5 0 00-.133-.266l.133.266zm0 2.398h-.133.133zm0 0v-.067.067zm0 5.861h-.133.133zm0 0a.507.507 0 00-.133-.332l.133.332zm0-2.33h-.133.133zm0 0a.507.507 0 00-.133-.334l.133.333zm0 .599h-.133.133zm0 0a.507.507 0 00-.133-.333l.133.333zm0-3.53h-.133.133zm0 0a.507.507 0 00-.133-.334l.133.334zm0 4.662h-.133.133zm0 0a.507.507 0 00-.133-.333l.133.333zm0-2.265h-.133.133zm0 0a.507.507 0 00-.133-.333l.133.333zm0 1.732h-.133.133zm0 0a.507.507 0 00-.133-.333l.133.333zm-.133-4.596c0 .067 0 .067.067.133l-.067-.133zm0-2.864c0 .067 0 .067.067.133l-.067-.133zm0 7.527c0 .066 0 .066.067.133l-.067-.133zm0-2.265c0 .067 0 .067.067.133l-.067-.133zm0 2.864c0 .067 0 .067.067.133l-.067-.133zm0-2.264c0 .066 0 .066.067.133l-.067-.133zm0 .532c0 .067 0 .067.067.134l-.067-.133zm0 .6c0 .067 0 .067.067.133l-.067-.133zm0-4.33v6.994-6.993zm0-3.33v1.066-1.066zm.133 22.313h-.133.133zm0 0a.508.508 0 00-.133-.333l.133.333zm0 .6h-.133.133zm0 0a.508.508 0 00-.133-.333l.133.333zm0 .533h-.133.133zm0 0a.506.506 0 00-.133-.333l.133.333zm0 1.199h-.133.133zm0 0a.506.506 0 00-.133-.333l.133.333zm0-.6h-.133.133zm0 0a.508.508 0 00-.133-.333l.133.333zm0 5.262h-.133.133zm0 0a.508.508 0 00-.133-.333l.133.333zm0 1.133h-.133.133zm0 0a.504.504 0 00-.133-.333l.133.333zm0-2.265h-.133.133zm0 0a.506.506 0 00-.133-.333l.133.333zm0-.6h-.133.133zm0 0a.508.508 0 00-.133-.333l.133.333zm0 2.332h-.133.133zm0 0a.504.504 0 00-.133-.333l.133.333zm0-1.199h-.133.133zm0 0a.506.506 0 00-.133-.333l.133.333zm0-3.53h-.133.133zm0 0a.504.504 0 00-.133-.333l.133.333zm-.133-2.731c0 .066 0 .066.067.133l-.067-.133zm0 1.731c0 .067 0 .067.067.134l-.067-.134zm0-.599c0 .067 0 .067.067.133l-.067-.133zm0-1.732c0 .067 0 .067.067.133l-.067-.133zm0 2.864c0 .067 0 .067.067.134l-.067-.134zm0-1.665c0 .067 0 .067.067.133l-.067-.133zm0 4.063c0 .067 0 .067.067.133l-.067-.133zm0 .6c0 .066 0 .066.067.133l-.067-.133zm0 1.132c0 .067 0 .067.067.133l-.067-.133zm0-.599c0 .066 0 .066.067.133l-.067-.133zm0 1.198c0 .067 0 .067.067.134l-.067-.134zm0 .533c0 .067 0 .067.067.134l-.067-.134zm0-8.792v10.324-10.324zm.133 22.314h-.133.133zm0 0a.504.504 0 00-.133-.333l.133.333zm0 2.331h-.133.133zm0 0a.506.506 0 00-.133-.333l.133.333zm0-1.732h-.133.133zm0 0a.508.508 0 00-.133-.333l.133.333zm0 .599h-.133.133zm0 0a.508.508 0 00-.133-.333l.133.333zm0 .533h-.133.133zm0 0a.508.508 0 00-.133-.333l.133.333zm0 1.133h-.133.133zm0 0a.504.504 0 00-.133-.333l.133.333zm0 2.397h-.133.133zm0 0a.508.508 0 00-.133-.333l.133.333zm0 .6h-.133.133zm0 0a.508.508 0 00-.133-.333l.133.333zm-.133-3.996c0 .066 0 .066.067.133l-.067-.133zm0-1.133c0 .067 0 .067.067.133l-.067-.133zm0 .533c0 .067 0 .067.067.133l-.067-.133zm0-1.132c0 .066 0 .066.067.133l-.067-.133zm0-.6c0 .067 0 .067.067.134l-.067-.134zm0 2.931c0 .067 0 .067.067.133l-.067-.133zm0 2.331c0 .067 0 .067.067.133l-.067-.133zm0 .6c0 .066 0 .066.067.133l-.067-.133zm0 2.797v1.066-1.066zm0-9.325v6.994-6.994zm-33.77-.066v10.324-10.324zm0 10.39h15.32-15.32zm15.387 0v-10.39 10.39zm0-10.39h-15.32 15.32zm-1.133 3.463h-.133.133zm0-2.264h-.133.133zm0 1.731h-.133.133zm0-1.199h-.133.133zm0 2.332h-.133.133zm0-1.732h-.133.133zm0 5.861h-.133.133zm0 .533h-.133.133zm0-1.132h-.133.133zm0-.6h-.133.133zm0 2.332h-.133.133zm0-2.865h-.133.133zm-13.055-5.261h-.133.133zm0 6.394h-.133.133zm0-1.133h-.133.133zm0-2.997h-.133.133zm0-1.732h-.133.133zm0 5.262h-.133.133zm0-4.662h-.133.133zm0 .599h-.133.133zm0 1.133h-.133.133zm0 5.262h-.133.133zm0-.6h-.133.133zm0-.533h-.133.133zm3.864-4.729h-.134.134zm0-2.264h-.134.134zm0 6.394h-.134.134zm0-5.262h-.134.134zm0 6.394h-.134.134zm0 .6h-.134.134zm0-2.865h-.134.134zm0 1.732h-.134.134zm0-6.461h-.134.134zm0 5.262h-.134.134zm0-4.063h-.134.134zm0 1.133h-.134.134zm5.328 2.93h-.133.133zm0-.533h-.133.133zm0 2.865h-.133.133zm0-1.732h-.133.133zm0 .599h-.133.133zm0 .533h-.133.133zm0-6.394h-.133.133zm0-1.132h-.133.133zm0 .532h-.133.133zm0 2.332h-.133.133zm0-.6h-.133.133zm0-.533h-.133.133zm-5.795-1.199h-3.064 3.064zm0-.532h-3.064 3.064zm0 8.126h-3.064 3.064zm0-6.994h-3.064 3.064zm0 5.861h-3.064 3.064zm0-4.729h-3.064 3.064zm0 4.13h-3.064 3.064zm0-4.663h-3.064 3.064zm0 1.133h-3.064 3.064zm0 4.662h-3.064 3.064zm0-2.265h-3.064 3.064zm0 .533h-3.064 3.064zm9.259-2.93h-3.064 3.064zm0-.6h-3.064 3.064zm0-2.264h-3.064 3.064zm0 1.731h-3.064 3.064zm0-1.199h-3.064 3.064zm0 .6h-3.064 3.064zm0 4.129h-3.064 3.064zm0 1.133h-3.064 3.064zm0 1.732h-3.064 3.064zm0-2.332h-3.064 3.064zm0 1.732h-3.064 3.064zm0-.533h-3.064 3.064zm-12.323-6.461h-.333.333zm0 4.729h-.333.333zm0-2.997h-.333.333zm0 .6h-.333.333zm0 4.129h-.333.333zm0-6.993h-.333.333zm0 5.794h-.333.333zm0-4.063h-.333.333zm0 6.395h-.333.333zm0-6.994h-.333.333zm0 5.262h-.333.333zm0 1.132h-.333.333zm9.259-5.795h-.333.333zm0-1.199h-.333.333zm0 1.732h-.333.333zm0-1.132h-.333.333zm0-1.132h-.333.333zm0 2.864h-.333.333zm0 3.53h-.333.333zm0 1.732h-.333.333zm0-2.332h-.333.333zm0-.533h-.333.333zm0 2.265h-.333.333zm0-.533h-.333.333zm-5.862-6.461h-.333.333zm0 1.199h-.333.333zm0-1.731h-.333.333zm0 1.132h-.333.333zm0 4.129h-.333.333zm0-2.997h-.333.333zm0 .6h-.333.333zm0 2.93h-.333.333zm0 1.199h-.333.333zm0 .533h-.333.333zm0-1.132h-.333.333zm0 1.732h-.333.333zm9.259-6.994h-.333.333zm0-1.132h-.333.333zm0 2.864h-.333.333zm0-1.133h-.333.333zm0-1.199h-.333.333zm0 1.732h-.333.333zm0 2.997h-.333.333zm0 2.865h-.333.333zm0-1.732h-.333.333zm0-.6h-.333.333zm0 1.732h-.333.333zm0-.533h-.333.333zm19.715-20.048a.504.504 0 00-.133-.333l.133.333zm0-.6a.508.508 0 00-.133-.333l.133.333zm0-1.732a.508.508 0 00-.133-.333l.133.333zm0 1.133a.504.504 0 00-.133-.333l.133.333zm0-.533a.506.506 0 00-.133-.333l.133.333zm0-4.729a.504.504 0 00-.133-.333l.133.333zm0-.533a.506.506 0 00-.133-.333l.133.333zm0 4.063a.506.506 0 00-.133-.333l.133.333zm0-4.663a.508.508 0 00-.133-.333l.133.333zm0 1.732a.508.508 0 00-.133-.333l.133.333zm0 .6a.504.504 0 00-.133-.333l.133.333zm0-2.931a.506.506 0 00-.133-.333l.133.333zm-.133 7.127c0 .066 0 .066.067.133l-.067-.133zm0 .599c0 .067 0 .067.067.134l-.067-.134zm0-1.199c0 .067 0 .067.067.134l-.067-.134zm0-1.665c0 .067 0 .067.067.133l-.067-.133zm0 .533c0 .067 0 .067.067.133l-.067-.133zm0 .6c0 .066 0 .066.067.133l-.067-.133zm0-4.663c0 .067 0 .067.067.133l-.067-.133zm0 1.132c0 .067 0 .067.067.134l-.067-.134zm0-.599c0 .066 0 .066.067.133l-.067-.133zm0-1.732c0 .067 0 .067.067.133l-.067-.133zm0 .6c0 .066 0 .066.067.133l-.067-.133zm0-1.133c0 .067 0 .067.067.133l-.067-.133zM78.464 81.104l.067.067-.067-.067zm.067.067l-.067-.067.067.067zm0 66.807l-.067.067.067-.067zm-.133-66.874l.066.067h.067l-.133-.067zm0 66.941v-66.94 66.94zm.133-.067h-.067.067zm-.067.067l.067-.067-.067.067zM112.7 81.171l.067-.067-.067.067zm.067-.067l-.067.067.067-.067zm0-.066l-.067.133.067-.133zm0 0h-34.37 34.37zm-34.236.133v-.067.067zm34.236 66.874l-.067-.067.067.067zm-34.303.066l.067-.133-.067.133zm34.303 0h-34.37 34.37zm-.067-.133l.067.067-.067-.067zm0 0v.067-.067zm.133.067l-.133-.067.133.067zm0-7.394v7.394-7.394zm0-24.911v22.646-22.646zm0-24.91v22.645-22.646zm0-9.726v7.394-7.394zm-.133.067h.067-.067zm.6 59.48h-.134.134zm.799-2.265h-.133.133zm0 2.265h-.133.133zm0-2.265v2.332-2.332zm-.2 0h-.799.799zm-.733.533h.134-.134zm.134.6h-.134.134zm0 .599h-.134.134zm.599.533h-.599.599zm-.599-1.732v.6-.6zm0 1.199v.6-.6zm.599.533v-2.331 2.331zm-1.066-.533h-.133.133zm0-.599h-.133.133zm-.133.599v-.599.599zm.133-1.732h-.133.133zm-.133.533v-.599.599zm0 0h.133-.133zm.4 1.199v-.599.599zm-.067-1.732h-.2.2zm-.2.533v-.599.599zm0 0h.2-.2zm.2 1.199h-.2.2zm0 0v-.599.599zm0-.599h-.2.2zm-.2.599v-.599.599zm.267-1.732h-.133.133zm-.067.533v-.599.599zm.067 0v-.599.599zM7.394 113.409h.134-.133zm-.799 2.331h.133-.133zm0-2.331h.133-.133zm0 2.331v-2.331 2.331zm.8-1.132h.133-.133zm-.667 1.132h.8-.8zm.8-.599h-.133.133zm-.133-1.133h.133-.133zm0 1.133v-.6.6zm0-1.133v-.599.599zm-.667-.599h.6-.6zm0 0v2.331-2.331zm.8.599v.6-.6zm.133.6h.2-.2zm0-.6h.2-.2zm0 0v.6-.6zm.2.6h.133-.133zm0-.6h.133-.133zm0 0v.6-.6zm.066 0v.6-.6zm-.266 1.732h.2-.2zm.2-.599h-.2.2zm-.333.599h.133-.133zm.133-.599v.599-.599zm-.133 0v.599-.599zm.333.599h.133-.133zm.066-.599v.599-.599zm0 0h-.133.133zm-.066 0v.599-.599zm-.466-26.643h.133-.133zm-.8 2.331h.133-.133zm0-2.331h.133-.133zm0 2.331v-2.331 2.331zm.933-.6h-.133.133zm-.133-.599h.133-.133zm0-.533h.133-.133zm-.667 1.732h.8-.8zm.667-.6v-.599.6zm0-1.132v-.6.6zm-.667-.6h.6-.6zm0 0v2.332-2.331zm1.2 1.733h-.134.133zm-.067.6h.133-.133zm.066-.6v.6-.6zm-.4.6h.134-.133zm0-.6v.6-.6zm.334 0h-.2.2zm-.2.6h.2-.2zm.2-.6v.6-.6zm-.2 0v.6-.6zm.2-1.133h.133-.133zm0 .533h.133-.133zm.066-.533v.6-.6zm-.266 0h.2-.2zm0 .533h.2-.2zm.2-.533v.6-.6zm-.333 0v.6-.6zm.133 0v.6-.6zm-.266 49.289h.133-.133zm-.8 2.265h.133-.133zm0-2.265h.133-.133zm0 2.265v-2.331 2.331zm.8-1.132h.133-.133zm.133.599h-.133.133zm-.8.533h.8-.8zm.667-1.732h.133-.133zm0 1.199v-.599.599zm0-1.199v-.599.599zm-.667-.533h.6-.6zm0 0v2.332-2.332zm1.133 1.732h-.2.2zm-.2.533h.2-.2zm-.133-1.732v.6-.6zm.4 1.199h-.134.133zm-.067.533h.133-.133zm.066-.533v.6-.6zm-.066 0v.6-.6zm-.333.533h.133-.133zm.133-.533v.6-.6zm-.133 0v.6-.6zm.333-.599h.133-.133zm0-.6h.133-.133zm.066 0v.6-.6zm-.266 0h.2-.2zm0 0v.6-.6zm0 .6h.2-.2zm.2-.6v.6-.6zm61.411 1.732h-.133.133zm.733-2.265h-.133.133zm0 2.265h-.133.133zm0-2.265v2.332-2.332zm-.133 0h-.8.8zm-.6 1.133h-.133.133zm-.2-.6h.134-.133zm.2 1.199h-.133.133zm0-1.199v.6-.6zm0 1.199v.6-.6zm.6.533h-.6.6zm0 0v-2.331 2.331zm-.8-.533v-.599.599zm-.133-.599h-.2.2zm0 .599h-.2.2zm0 0v-.599.599zm-.133-1.732h-.133.133zm-.133.533h.133-.133zm0 0v-.599.599zm.266-.533h-.2.2zm-.133.533v-.599.599zm0 0h.2-.2zm0 .6h-.133.133zm0 .599h-.133.133zm0 0v-.599.599zm-.133 0v-.599.599zm.4-1.732h-.134.134zm-.134.533v-.599.599zm.134 0v-.599.599zm44.227-48.09h-.134.134zm.599-2.331h-.799.799zm-.733.6h.134-.134zm.134 1.132h-.134.134zm0-.6h-.134.134zm.599 1.2h-.599.599zm-.599-1.733v.6-.6zm0 1.133v.6-.6zm.799-1.732h-.133.133zm0 2.331h-.133.133zm0-2.331v2.331-2.331zm-.2 2.331v-2.331 2.331zm-.866-2.331h-.2.2zm-.2.6h.2-.2zm.267 1.132v-.6.6zm-.067 0h-.2.2zm0-.6h-.2.2zm0 .6v-.6.6zm-.2 0h-.133.133zm0 0v-.6.6zm0-.6h-.133.133zm-.133.6v-.6.6zm.133-1.732h-.133.133zm-.133.6h.133-.133zm0 0v-.6.6zm.133 0v-.6.6zm.267-.6h-.133.133zm-.067.6v-.6.6zm.067 0v-.6.6zm.799 24.311h-.799.799zm0 2.331h-.599.599zm-.599-1.732v.6-.6zm0 1.133v.599-.599zm.799-1.732h-.133.133zm0 2.331h-.133.133zm0-2.331v2.331-2.331zm-.2 2.331v-2.331 2.331zm-.866-2.331h-.2.2zm-.2.599h.2-.2zm0-.599h-.133.133zm-.133.599h.133-.133zm0 0v-.599.599zm.133 0v-.599.599zm.2 1.133h-.2.2zm0-.533h-.2.2zm.067.533v-.6.6zm-.067 0v-.6.6zm-.2 0h-.133.133zm0 0v-.6.6zm0-.533h-.133.133zm-.133.533v-.6.6zm.4-1.732h-.133.133zm-.067.599v-.599.599zm.067 0v-.599.599zm.066 1.732h.134-.134zm.933-2.331h-.133.133zm0 2.331h-.133.133zm0-2.331v2.331-2.331zm-.2 0h-.799.799zm-.733 1.199h.134-.134zm0 .533h.134-.134zm.134-1.133h-.134.134zm.599 1.732h-.599.599zm-.599-1.732v.6-.6zm0 1.133v.599-.599zm.599.599v-2.331 2.331zm-1.066-1.132h-.133.133zm0 .533h-.133.133zm-.133 0v-.6.6zm.4 0v-.6.6zm0-1.732h-.133.133zm0 .599v-.599.599zm-.267-.599h-.133.133zm-.133.599v-.599.599zm0 0h.133-.133zm.333.6h-.2.2zm0 .533h-.2.2zm0 0v-.6.6zm-.2 0v-.6.6zm.2-1.732h-.2.2zm-.2.599v-.599.599zm0 0h.2-.2zm.2 0v-.599.599zm-43.76 1.732h-.134.133zm.599-2.331h-.8.8zm-.6 1.732h-.133.133zm0-.533h-.133.133zm-.2-.6h.134-.133zm.8 1.732h-.6.6zm-.6-1.732v.6-.6zm0 1.133v.599-.599zm.733-1.732h-.133.133zm0 2.331h-.133.133zm0-2.331v2.331-2.331zm-.133 2.331v-2.331 2.331zm-.933-.599h-.2.2zm0-.533h-.2.2zm.134.533v-.6.6zm-.134 0v-.6.6zm-.133 0h-.133.133zm0 0v-.6.6zm0-.533h-.133.133zm-.133.533v-.6.6zm.4-1.732h-.134.134zm0 .599v-.599.599zm-.267-.599h-.133.133zm-.133.599v-.599.599zm0 0h.133-.133zm.266-.599h-.2.2zm-.133.599v-.599.599zm0 0h.2-.2zm.133 0v-.599.599zm-61.544-.599h.133-.133zm-.8 2.331h.133-.133zm0-2.331h.133-.133zm0 2.331v-2.331 2.331zm.133 0h.8-.8zm.667-1.732h.133-.133zm.133 1.133h-.133.133zm-.133-.533h.133-.133zm0 .533v-.6.6zm0-1.133v-.599.599zm-.667-.599h.6-.6zm0 0v2.331-2.331zm1.133.599h.133-.133zm0 .6h.133-.133zm.066-.6v.6-.6zm-.266 0h.2-.2zm0 .6h.2-.2zm.2-.6v.6-.6zm-.333 0v.6-.6zm.133 0v.6-.6zm-.133 1.732h.133-.133zm0-.599v.599-.599zm.133.599h.2-.2zm.2-.599h-.2.2zm-.2 0v.599-.599zm.2.599h.133-.133zm.066-.599v.599-.599zm0 0h-.133.133zm-.066 0v.599-.599zm61.411.599h-.133.133zm.733-2.331h-.133.133zm0 2.331h-.133.133zm0-2.331v2.331-2.331zm-.133 0h-.8.8zm-.6 1.199h-.133.133zm-.2-.6h.134-.133zm.2 1.133h-.133.133zm0-1.133v.6-.6zm0 1.133v.599-.599zm.6.599h-.6.6zm0 0v-2.331 2.331zm-.933-2.331h-.2.2zm-.133.599h.2-.2zm0-.599h-.133.133zm-.133.599h.133-.133zm0 0v-.599.599zm.133 0v-.599.599zm.267-.599h-.134.134zm-.134.599v-.599.599zm.134 0v-.599.599zm-.134.6h-.2.2zm0 .533h-.2.2zm-.133-.533h-.133.133zm0 .533h-.133.133zm0 0v-.6.6zm-.133 0v-.6.6zm.4 0v-.6.6zm-.134 0v-.6.6zm53.286-25.777v.6-.6zm-.133 0v.6-.6zm0 1.731h.133-.133zm.133-.599v.6-.6zm-.266.6h.133-.133zm.133-.6v.6-.6zm-.466-1.732h.133-.133zm0 2.332h.133-.133zm.133-2.332h.133-.133zm0 2.332v-2.332 2.332zm0 0h.133-.133zm.2-2.332v2.332-2.332zm.133 48.956v.6-.6zm.133 0v.6-.6zm-.266 1.732h.133-.133zm.133 0h.133-.133zm.133-.599v.599-.599zm-.133 0v.599-.599zm-.333.599h.133-.133zm0-2.331h.133-.133zm.2 0v2.331-2.331zm-.333 0h.133-.133zm0 2.331h.133-.133zm.133 0v-2.331 2.331zm.333-33.969v.599-.599zm.133 0v.599-.599zm-.133 1.731h.133-.133zm.133-.599v.599-.599zm-.266.599h.133-.133zm.133-.599v.599-.599zm-.466.599h.133-.133zm0-2.331h.133-.133zm.133 2.331h.133-.133zm0-2.331h.133-.133zm0 2.331v-2.331 2.331zm.2-2.331v2.331-2.331zm.266 16.719v.599-.599zm-.133 0v.599-.599zm0 1.731h.133-.133zm.133-.599v.599-.599zm-.266.599h.133-.133zm.133-.599v.599-.599zm-.333.599h.133-.133zm0-2.331h.133-.133zm.2 0v2.331-2.331zm-.333 0h.133-.133zm0 2.331h.133-.133zm.133 0v-2.331 2.331zM69.272 90.829h-.133.133zm.733-2.331h-.133.133zm0 2.331h-.133.133zm0-2.331v2.331-2.331zm-.133 0h-.8.8zm-.6 1.732h-.133.133zm0-.6h-.133.133zm-.2-.533h.134-.133zm.8 1.732h-.6.6zm-.6-1.732v.6-.6zm0 1.133v.6-.6zm.6.6v-2.332 2.331zm-.933-2.332h-.2.2zm-.133.6h.2-.2zm.267 1.132v-.6.6zm-.134 0h-.2.2zm0 0v-.6.6zm0-.6h-.2.2zm.134-1.132h-.134.134zm-.134.6v-.6.6zm.134 0v-.6.6zm-.267-.6h-.133.133zm-.133.6v-.6.6zm0 0h.133-.133zm.133 0v-.6.6zm0 1.132h-.133.133zm0 0v-.6.6zm0-.6h-.133.133zm-.133.6v-.6.6zm-.866-79.662V6.37v4.197zm-.466-4.197v4.13-4.13zm-25.377 4.197V6.37v4.197zm-.467-4.197v4.13-4.13zm13.388 4.197V6.37v4.197zM54.42 6.37v4.13-4.13zm11.723-2.664c.2-.133.2-.4.067-.533 0-.066-.067-.066-.134-.066l.067.6zm2.997-.6c-.2.134-.266.334-.133.533 0 .067.067.067.067.134l.066-.666zm-3.064-.732c.2 0 .333-.2.333-.4s-.133-.333-.333-.333v.733zm3.064-.733c-.2 0-.333.2-.333.4s.133.333.333.333v-.733zm.067-.2c-.133-.133-.267-.266-.4-.333l.4.333zm-2.798-.333c-.133.067-.266.2-.4.333l.4-.333zm2.731.533c.067 0 .067-.066.067-.133v-.067l-.067.2zm-3.13-.2c-.067.067-.067.134 0 .134h.066l-.066-.134zm.066.933l-.799.133.8-.133zm3.864.133l-.8-.133.8.133zm-.8.6l.8-.134-.8.134zm-3.863-.134l.8.134-.8-.134zm4.663 0c.066 0 .133-.066.133-.2l-.133.2zm-4.863-.2c0 .067.067.2.133.2l-.133-.2zm4.996-.066c0-.067-.067-.2-.133-.2l.133.2zm-4.796-.2c-.067 0-.133.067-.133.2l.133-.2zm5.395 3.863v-.2.2zm0-.2c-.066-1.065-.666-1.998-1.598-2.464l1.598 2.465zm-4.53-2.464a3.057 3.057 0 00-1.598 2.664l1.599-2.664zm-12.988 0c.2-.133.2-.4.067-.533 0-.066-.066-.066-.133-.066l.066.6zm2.998-.6c-.2.134-.267.334-.133.533 0 .067.066.067.066.134l.067-.666zm-2.998-.732c.2 0 .334-.2.334-.4s-.134-.333-.334-.333v.733zm3.065-.733c-.2 0-.334.2-.334.4s.134.333.334.333v-.733zm.066-.2c-.133-.133-.266-.266-.4-.333l.4.333zm-2.797-.333c-.134.067-.267.2-.4.333l.4-.333zm2.73.533c.067 0 .067-.066.067-.133v-.067l-.066.2zm-3.13-.2c-.067.067-.067.134 0 .134h.066l-.066-.134zm.066.933l-.799.133.8-.133zm3.864.133l-.8-.133.8.133zm-.866.6l.8-.134-.8.134zm-3.797-.134l.8.134-.8-.134zm4.796-.266c0-.067-.067-.2-.133-.2l.133.2zm-4.796-.2c-.066 0-.133.067-.133.2l.133-.2zm4.663.466c.066 0 .133-.066.133-.2l-.133.2zm-4.863-.2c0 .067.067.2.134.2l-.134-.2zM57.75 6.37v-.2.2zm0-.2c-.066-1.065-.666-1.998-1.598-2.464l1.598 2.465zm-4.596-2.464a3.057 3.057 0 00-1.598 2.664l1.599-2.664zm-12.921 0c.2-.133.2-.4.066-.533 0-.066-.066-.066-.133-.066l.067.6zm2.997-.6c-.2.134-.266.334-.133.533 0 .067.067.067.067.134l.066-.666zm-2.997-.732c.2 0 .333-.2.333-.4s-.133-.333-.333-.333v.733zm2.997-.733c-.2 0-.333.2-.333.4s.133.333.333.333v-.733zm.067-.2c-.133-.133-.267-.266-.4-.333l.4.333zm-2.731-.333c-.133.067-.267.2-.4.333l.4-.333zm2.664.533c.067 0 .067-.066.067-.133v-.067l-.067.2zm-3.064-.2c-.066.067-.066.134 0 .134h.067l-.067-.134zm.067.933l-.8.133.8-.133zm3.863.133l-.8-.133.8.133zm-.866.6l.8-.134-.8.134zm-3.863-.134l.866.134-.866-.134zm4.729 0c.067 0 .133-.133.133-.2l-.133.2zm-4.862-.2c0 .067.066.2.133.2l-.133-.2zm4.995-.066c0-.067-.066-.2-.133-.2l.133.2zm-4.862-.2c-.067 0-.133.067-.133.2l.133-.2zm5.462 3.863v-.2.2zm0-.2c-.067-1.065-.666-1.998-1.599-2.464l1.599 2.465zm-4.596-2.464a3.057 3.057 0 00-1.599 2.664l1.599-2.664zm14.254 8.659v.8-.8zm.333.733v-.8.8zm0 14.986v-.2.2zm-.333-.133v.2-.2zm-1.2-12.522v1.532-1.532zm2.665 1.532V15.43v1.532zm-2.664 7.726v.4-.4zm0-6.927v5.395-5.395zm2.664 5.395V17.76v5.395zm0 1.865v-.4.4zm0-9.591c-.266-.733-.6-1.532-.6-2.331l.6 2.33zm-2.065-2.331c0 .799-.266 1.598-.6 2.33l.6-2.33zm2.465 4.662c.2 0 .333-.133.333-.333l-.333.333zm-3.797-.333c0 .2.133.333.333.333l-.333-.333zm4.13-.133c0-.2-.133-.333-.333-.333l.333.333zm-3.797-.333c-.2 0-.333.133-.333.333l.333-.333zm-.333.333v.133-.133zm4.13.133v-.133.133zm-4.33 8.792v1.732-1.732zm4.53 1.732V26.22v1.732zm-3.597-2.93l-.933 1.132.933-1.133zm3.596 1.198l-.932-1.132.932 1.132zM46.826 12.366v.8-.8zm.333.733v-.8.8zm0 14.986v-.2.2zm-.333-.133v.2-.2zm-1.2-12.522v1.532-1.532zm2.732 1.532V15.43v1.532zm-2.731 7.726v.4-.4zm0-6.927v5.395-5.395zm2.73 5.395v-5.395 5.395zm0 1.865v-.4.4zm0-9.591c-.266-.733-.599-1.532-.599-2.331l.6 2.33zm-2.13-2.331c0 .799-.267 1.598-.6 2.33l.6-2.33zm-1.333 4.196v.133-.133zm4.197.133v-.133.133zm0-.133c0-.2-.134-.333-.334-.333l.334.333zm-3.797-.333c-.2 0-.333.133-.333.333l.333-.333zm3.464.8c.2 0 .332-.134.332-.334l-.333.333zm-3.864-.334c0 .2.134.333.333.333l-.333-.333zm.733 7.593l-.933 1.133.933-1.133zm3.663 1.2l-.932-1.133.932 1.132zm-4.529 0v1.731-1.732zm4.53 1.731V26.22v1.732zm12.788-15.586v.8-.8zm.333.733v-.8.8zm0 14.986v-.2.2zm-.333-.133v.2-.2zM60.88 15.43v1.532-1.532zm2.664 1.532V15.43v1.532zm-2.664 7.726v.4-.4zm0-6.927v5.395-5.395zm2.664 5.395v-5.395 5.395zm0 1.865v-.4.4zm0-9.591c-.266-.733-.6-1.532-.6-2.331l.6 2.33zm-2.065-2.331c0 .799-.266 1.598-.599 2.33l.6-2.33zm2.465 4.662c.2 0 .333-.133.333-.333l-.333.333zm-3.797-.333c0 .2.134.333.333.333l-.333-.333zm4.13-.133c0-.2-.133-.333-.333-.333l.333.333zm-3.797-.333c-.2 0-.333.133-.333.333l.333-.333zm-.333.333v.133-.133zm4.13.133v-.133.133zm-3.397 7.593l-.933 1.133.933-1.133zm3.597 1.2l-.933-1.2.933 1.2zm-4.53 0v1.731-1.732zm4.53 1.731V26.22v1.732zM53.22 23.156v1.532-1.532zm2.864 1.532v-1.532 1.532zM45.56 23.156v1.532-1.532zm2.864 1.532v-1.532 1.532zm12.39-1.532v1.532-1.532zm2.864 1.532v-1.532 1.532zm-7.394-8.326v-.532.532zm-3.463-.532v.532-.532zm.133-.134a.143.143 0 00-.133.133l.133-.133zm3.33.133a.143.143 0 00-.133-.133l.133.133zm-3.53.667a.143.143 0 00.133-.134l-.133.134zm3.53-.134c0 .067.067.134.133.134l-.133-.134zm.8 2.065V16.63v1.798zm-4.996-1.798v1.798-1.798zm4.995 0a.143.143 0 00-.133-.133l.133.133zm-4.862-.133a.143.143 0 00-.133.133l.133-.133zm4.862 2.797v-.266.266zm-5.062-.266v.266-.266zm5.062 4.13v-1.2 1.2zm-5.062-1.266v1.199-1.2zm5.062-1.132v-1.266 1.266zm-5.062-1.266v1.266-1.266zm5.062 2.131v-.266.266zm-5.062-.2v.267-.267zm.067-2.997s-.067 0 0 0v0zm-.067 2.398l.067-.066-.067.066zm5.062-.066s0 .066.067.066l-.067-.066zm-5.062.865a.143.143 0 00-.133.134l.133-.134zm5.196.134a.143.143 0 00-.134-.134l.134.134zm-5.262 0c0 .066.066.133.133.133l-.133-.133zm5.128.133a.143.143 0 00.134-.133l-.134.133zm-5.062-2.598a.143.143 0 00-.133.133l.133-.133zm5.196.067a.143.143 0 00-.134-.133l.134.133zm-5.262.066c0 .067.066.134.133.134l-.133-.134zm5.128.067a.143.143 0 00.134-.133l-.134.133zm-5.062-1.066l-.6.6.6-.6zm5.662.6l-.6-.6.6.6zm-5.662 1.798l-.533.533.533-.533zm5.662.6l-.533-.6.533.6zm-14.787-5.596v.533-.532zm.067-.133a.143.143 0 00-.134.133l.134-.133zm-.2.8a.143.143 0 00.133-.134l-.133.134zm-.666.133v1.798-1.798zm.133-.133a.143.143 0 00-.133.133l.133-.133zm-.133 2.53v.267-.266zm0 4.996v.333-.333zm0-4.53v1.267-1.266zm0 1.932v.267-.267zm0 .467v1.265-1.265zm-.067-1.066l.067-.066-.067.066zm0 2.398l.067-.067-.067.067zm-.066.733c0 .066.066.133.133.133l-.133-.133zm.133-.134a.143.143 0 00-.133.134l.133-.134zm-.133-4.396c0 .067.066.134.133.134l-.133-.134zm0 2.332c0 .066.066.133.133.133l-.133-.133zm.133-.134a.143.143 0 00-.133.134l.133-.134zm0-2.33a.143.143 0 00-.133.132l.133-.133zm0-.867l-.6.6.6-.6zm-.067 2.398l-.533.533.533-.533zm0 2.398l-.533.533.533-.533zm24.245-6.86v-.534.533zm0-.534a.143.143 0 00-.133-.133l.133.133zm0 .533c0 .067.067.134.133.134l-.133-.134zm.8 2.065V16.63v1.798zm0-1.798a.143.143 0 00-.134-.133l.133.133zm0 2.664v-.266.266zm0 3.863v-1.265 1.265zm0-1.532v-.266.266zm0 2.731v-.333.333zm0-3.596v-1.266 1.266zm0 0s0 .066.066.066l-.067-.066zm0 2.397s0 .067.066.067l-.067-.067zm0 .866a.143.143 0 00.133-.133l-.134.133zm.133-.066a.143.143 0 00-.134-.134l.134.134zm-.134-4.463a.143.143 0 00.134-.133l-.134.133zm.134-.133a.143.143 0 00-.134-.133l.134.133zm-.134 2.53a.143.143 0 00.134-.132l-.134.133zm.134-.132a.143.143 0 00-.134-.134l.134.134zm.466 1.998l-.533-.533.533.533zm0-2.332l-.533-.599.533.6zm0-2.397l-.6-.6.6.6zm54.218 94.715l-.2-.2.2.2z" stroke="#677075" stroke-width=".3"/><path d="M7.727 80.971v7.527M42.363 70.78h24.844-24.844zm-2.398-45.692v-.266.266zm.067 0v-.266.266zm29.373-.266v.333-.333zm-.066 0v.333-.333zm-29.24-.134a.143.143 0 00-.134.134l.133-.134zm29.306.134a.143.143 0 00-.133-.134l.133.134zm-.133-.134l.067.134-.067-.134zm-5.595 0h5.595-5.595zm-7.593 0h4.73-4.73zm-7.66 0h4.796-4.796zm-8.326 0h5.462-5.462zm-.066.134v-.067.067zm29.307.266v-.266.266zm-5.728 0h5.728-5.728zm-7.594 0h4.796-4.796zm-7.66 0h4.863-4.862zm-8.325 0h5.528-5.528zm0-.266v.333-.333zm26.776 2.864l.066-.067-.066.067zm.066-.067l-.066.067.066-.067zm0-.067l-.066.134.066-.134zm-22.113 0h-2.265 2.265zm7.593 0h-3.13 3.13zm7.593 0h-3.064 3.064zm6.927 0h-2.397 2.397zm-22.246 33.77c-.134 0-.2.067-.2.2l.2-.2zm.4 0h-.4.4zm.2.2c0-.133-.068-.2-.2-.2l.2.2zm0 .4v-.4.4zm-.2.2c.133 0 .2-.067.2-.2l-.2.2zm-.4 0h.4-.4zm-.2-.2c0 .133.066.2.2.2l-.2-.2zm0-.4v.4-.4zm.2-28.108c-.134 0-.2.066-.2.2l.2-.2zm.4 0h-.4.4zm.2.2c0-.133-.068-.2-.2-.2l.2.2zm0 .4v-.4.4zm-.2.2c.133 0 .2-.067.2-.2l-.2.2zm-.4 0h.4-.4zm-.2-.2c0 .133.066.2.2.2l-.2-.2zm0-.4v.4-.4zm-1.932 34.369h24.378-24.378zm24.445-.067V27.62v40.297zm-.133-40.23h.066-.066zm0 40.164l.066.066-.066-.066zm0 0v.066-.066zm.066.066l-.066-.066.066.066zm.067 0l-.133-.066.133.066zm2.997-57.348V9.036v1.532zm-2.131 0h2.065-2.065zm-12.922 0h12.456-12.456zm-12.922 0H54.42 41.963zm-2.73 0h2.264-2.265zm28.574-1.532h2.065-2.065zm-12.922 0h12.456-12.456zm-12.922 0H54.42 41.963zm-2.73 0h2.264-2.265zm0 1.532V9.036v1.532zm9.191 6.394v-6.394 6.394zm0 6.194v-5.395 5.395zm-1.532-10.79v-1.798 1.798zm13.788 4.596v-6.394 6.394zm0 6.194v-5.395 5.395zm1.599-10.79v-1.798 1.798zm1.398 10.79h.533-.533zm-7.593 0h4.73-4.73zm-7.66 0h4.796-4.796zm-3.463 0h.6-.6zm19.183 1.532v-1.532 1.532zm-19.183 0v-1.532 1.532zm22.846-14.12h-.466.466zm-25.844 0h-.466.466zm12.922 0h-.466.466zM68.073.91c.267 0 .866.2.933.466-.466-.133-.666-.4-1.266-.466h.333zm-.333 0h-.666.666zm-.6 0c-.266 0-.466.066-.665.2l.666-.2zm.467 0h.466-.466zm-1.532.732h1-1zm1 0h2.064-2.065zm2.13-.2h-3.197 3.198zm-.066.933h-2.065 2.065zm-2.065 0h-.999 1zm-.999.733h1-1zm1 0h2.064-2.065zM70.67 6.37h-4.13 4.13zm-4.13 0h-1.998 1.998zm2.531-2.664h-1.998 1.998zm-1.998 0h-.999 1zM55.152.91c.266 0 .865.2.932.466-.466-.133-.666-.4-1.266-.466h.334zm-.334 0h-.666.666zm-.599 0c-.266 0-.466.066-.666.2l.666-.2zm.466 0h.467-.467zm-1.532.732h1-1zm1 0h2.064-2.065zm2.13-.2h-3.196 3.197zm-.132.933h-2.065 2.065zm-1.999 0h-.999 1zm-.999.733h1-1zm1 0h2.064-2.065zm3.596 3.263h-4.13 4.13zm-4.13 0h-1.998 1.999zm2.532-2.664h-1.999 1.999zm-1.999 0h-.999 1zM42.23.91c.266 0 .866.2.932.466-.466-.133-.666-.4-1.265-.466h.333zm-.333 0h-.666.666zm-.666 0c-.267 0-.467.066-.666.2l.666-.2zm.532 0h.467-.466zm-1.531.732h.999-1zm.999 0h2.064-2.064zm2.064-.2h-3.197 3.197zm-.066.933h-2.065 2.065zm-1.998 0h-1 1zm-1 .733h1-1zm1 0h2.064-2.064zm3.596 3.263h-4.13 4.13zm-4.196 0h-1.998 1.998zm2.598-2.664H41.23h1.998zm-1.998 0h-1 1zm13.255 8.66h.133-.133zm.133 0h.133-.133zm.2 15.718h-.334.334zm-.2-14.986h-.8.8zm0 0h.732-.732zm-1.333 2.331h1.333-1.333zm1.333 0h1.332-1.332zm1.731 2.331h-1.73 1.731zm-1.731 0h-1.732 1.732zm-1.732-.799h1.732-1.732zm1.732 0h1.731-1.731zm-2.265 10.99h2.265-2.265zm2.265 0h2.264-2.264zm-1.333-2.93h1.333-1.333zm1.333 0h1.332-1.332zm-2.265 1.198h2.265-2.265zm2.265 0h2.264-2.264zm-7.793-13.854h.133-.133zm.2 0h.133-.133zm.133 15.72h-.333.333zm-.133-14.987h-.8.8zm0 0h.799-.8zm-1.4 2.331h1.333-1.332zm1.4 0h1.332-1.332zm-1.732 1.532h1.732-1.732zm1.732 0h1.731-1.731zm1.731.8h-1.731 1.731zm-1.731 0h-1.732 1.732zm-1.4 7.26h1.333-1.332zm1.4 0h1.332-1.332zm-2.265 2.93h2.264-2.264zm2.264 0h2.265-2.264zm-2.264-1.732h2.264-2.264zm2.264 0h2.265-2.264zM62.08 12.366h.133-.133zm.133 0h.133-.133zm.2 15.72h-.333.333zm-.2-14.987h-.8.8zm0 0h.8-.8zM60.88 15.43h1.332-1.332zm1.332 0h1.332-1.332zm1.732 2.331h-1.732 1.732zm-1.732 0H60.48h1.732zm-1.732-.799h1.732-1.732zm1.732 0h1.732-1.732zm-1.332 8.06h1.332-1.332zm1.332 0h1.332-1.332zm-2.265 1.198h2.265-2.265zm2.265 0h2.264-2.264zm-2.265 1.732h2.265-2.265zm2.265 0h2.264-2.264zm-8.992-4.796h2.864-2.864zm0 1.532h2.864-2.864zm-7.66 0h2.864-2.864zm0-1.532h2.864-2.864zm15.253 1.532h2.864-2.864zm0-1.532h2.864-2.864zM54.485 12.5h-.932.933zm1.133 0h-.8.8zm-1.133.4c-.066 0-.133.133-.2.2l.2-.2zm.334.2c0-.067 0-.067-.067-.133l.066.133zm-1.266 1.598V12.5v2.198zm2.065-2.198v1.799V12.5zm-2.332 3.197h-.333.333zm2.931 0h-.2.2zm-2.93.8H52.22h1.066zm3.663 0h-1 1zm-3.664 1.931h-1.198 1.198zm3.797 0h-1.066 1.066zm-3.797 3.198h-1.265 1.265zm3.797 0h-1.132 1.132zm-3.797.266h-1.265 1.265zm3.797 0h-1.132 1.132zm-3.797-2.598h-1.265 1.265zm3.797 0h-1.132 1.132zm-3.797.2h-1.265 1.265zm3.797 0h-1.132 1.132zm-3.797 1.932h-1.864 1.864zm4.397 0H55.95h1.732zm-4.397-2.398h-1.864 1.864zm4.397 0H55.95h1.732zm-12.789-4.13a.286.286 0 00-.266-.266.286.286 0 00-.267.266c0 .133.133.267.267.267a.286.286 0 00.266-.267zm0-1.732a.287.287 0 00-.266-.266.287.287 0 00-.267.266c0 .134.133.267.267.267a.286.286 0 00.266-.267zm.733-.666h-2.065 2.065zm-2.065 3.197V12.5v3.197zm2.065-3.197v3.197V12.5zm0 3.197h-2.665 2.665zm0 .8H42.23h3.397zm0 1.931h-3.53 3.53zm-.666 5.595H42.03h2.93zm0-.2H42.03h2.93zm0 .134h-2.998 2.998zm.666-4.463H42.03h3.597zm0 2.398H42.03h3.597zm0-.266H42.03h3.597zm0-2.332H42.03h3.597zm0 2.132H41.43h4.197zm-.666 2.33h-3.53 3.53zm.666-4.728H41.43h4.197zm-.666 5.328h-3.864 3.864zm-3.797.333v-.333.333zm22.38-9.391V12.5v2.798zm1.998-2.798h-1.998 1.998zm-.732 2.398a.287.287 0 00-.267-.266.286.286 0 00-.266.266c0 .133.133.267.266.267a.287.287 0 00.267-.267zm0-1.732a.287.287 0 00-.267-.266.287.287 0 00-.266.266c0 .134.133.267.266.267a.287.287 0 00.267-.267zm.732-.666v3.197V12.5zm.6 3.197h-2.598 2.598zm.799.8h-3.33 3.33zm.133 1.931h-3.53 3.53zm0 5.595h-2.93 2.93zm0-.2h-2.93 2.93zm.133.134h-3.063 3.063zm-.133-4.463h-3.53 3.53zm0-.2h-3.53 3.53zm0 2.598h-3.53 3.53zm0-.266h-3.53 3.53zm.6-.2h-4.13 4.13zm0-2.398h-4.13 4.13zm0 4.729h-3.53 3.53zm.333.6h-3.864 3.864zm0 .332v-.333.333zm55.883 127.686v-3.463 3.463zm-122.757 0v-3.463 3.463zm118.694-1.732c0 .666.533 1.133 1.132 1.133l-1.132-1.133zm1.199-1.199c-.666 0-1.132.533-1.132 1.133l1.132-1.133zm.333 0h-.4.4zm1.199 1.199c0-.666-.533-1.132-1.132-1.132l1.132 1.132zm-1.199 1.133c.666 0 1.132-.533 1.132-1.133l-1.132 1.133zm-.333 0h.4-.4zm-118.56-1.133c0 .666.532 1.133 1.132 1.133l-1.133-1.133zm1.132-1.199c-.666 0-1.133.533-1.133 1.133l1.133-1.133zm.4 0h-.4.4zm1.132 1.199c0-.666-.533-1.132-1.133-1.132l1.133 1.132zm-1.133 1.133c.666 0 1.133-.533 1.133-1.133l-1.133 1.133zm-.4 0h.4-.4zm120.293-2.864v-.4.4zm-122.757 0v-.4.4zm122.757 3.796v-.4.4zm-122.757 0v-.4.4zm0 0H123.89 1.133zm0 .2H123.89 1.133zm122.757 0v-.2.2zm-122.757 0v-.2.2zm122.757-4.396v-.2.2zm-2.265-.2h2.265-2.265zm-43.56 0h34.968-34.969zm-70.47 0h61.477H7.594zm-6.462 0h2.265-2.265zm0 .2v-.2.2zm120.359 0h2.398-2.398zm-43.428 0h34.969-34.969zm-70.47 0h61.478H7.594zm-6.46 0H3.53 1.133zM122.69 77.974l.067.067-.067-.067zm-.133 0h.133-.133zm-30.773-2.797c0 .066 0 .066.067.066l-.067-.066zm-.066 0c0 .066 0 .066.066.133l-.066-.133zm.133.066l30.706 2.664-30.706-2.664zm30.906 2.731l.999 1.199-.999-1.199zm0 .067l.866.999-.866-1zm-30.573-1.532l31.505 2.73-31.505-2.73zm-.333-1.2l.333 1.133-.333-1.132zm0 0l.333 1.133-.333-1.132zm.333 1.133l31.505 2.73-31.505-2.73zm31.505 2.73l-1.066-1.198 1.066 1.199zM2.266 67.25v.133-.133zm78.263 6.994v-.067.067zm-78.263-6.86v.066-.067zm-.067.066h.067-.067zm.133 0h.133-.133zm78.197 6.794c.066 0 .066 0 .066-.067l-.066.067zm11.057 1c.066 0 .066 0 .066-.067l-.066.066zm.066.066c.067 0 .067-.067.067-.133l-.067.133zm-.066-.067L2.399 67.45l89.187 7.793zM1 68.45l1.199-.999-1.199 1zm.2-.066l.999-.866-1 .866zm-.133.133l91.118 7.993-91.118-7.993zm1.265-1.066l-1.265 1 1.265-1zm-1.265 1l91.118 7.992L1.067 68.45zm91.118 7.992l-.333-1.132.333 1.132zm-.333-1.132h-.266.266zm-8.126-2.864c0-.067-.067-.067-.133-.067l.133.067zm-4.796-.467l4.596.4-4.596-.4zm0 0l4.663.4-4.663-.4zM2 67.184l.132-1.865L2 67.184zm.066 0l.133-1.865-.133 1.865zm.266-1.932a.143.143 0 00-.133.133l.133-.133zm-.066.067s-.067 0 0 0v0zm0 .066l-.134 1.865.134-1.865zm76.464 8.526l.134-1.865-.134 1.865zm-36.167-3.13l36.167 3.197-36.167-3.197zM2.066 67.184l38.299 3.33-38.3-3.33zm63.21 3.597l13.654 1.198-13.654-1.198zM2.332 65.252l38.1 3.33-38.1-3.33zm-.066.133v-.066.066zM78.93 71.98v.134-.134zm15.187 1.466l-.134 1.865.134-1.865zm.066 0l-.133 1.865.133-1.865zm-4.662 1.465l.133-1.865-.133 1.865zm-10.924-.932l10.857.932-10.857-.932zm10.857.932l.133-1.865-.133 1.865zm4.73-1.465a.143.143 0 00-.134-.133l.133.133zm-4.463-.4s-.067 0 0 0v0zm0-.067l-10.524-.932 10.524.932zm0 0a.143.143 0 00-.134.134l.134-.133zm-.2 1.932l4.396.4-4.396-.4zm.2-1.798l-.134 1.865.134-1.865zm4.262 2.198l.134-1.865-.134 1.865zm-4.262-2.332l4.329.4-4.33-.4zm0 .134s0-.133.066-.133l-.066.133zm4.329.2l.067.066v.067l-.067-.133zM69.072 148.31H7.594h61.478zm-.133-.067H7.661h61.278zm-60.146 0v-.133.133zm0-67.273H7.727h1.066zm-1.066 0h.067-.067zm-4.263 67.34h-.066.066zm-.133 0V68.716v79.595zm4.263.799v-.866.866zm-4.13 0v-.732.732zm0 0h4.13-4.13zm4.13-68.805V69.05v11.256zm0 67.939h.133-.133zm.133-7.593v7.527-7.527zm0-24.911v22.647-22.647zm0-24.91v22.646-22.647zm59.281-23.712h-.067m-.001-38.765h.068m.067 0h-.067m0 38.765h.067M40.498 70.78h-.133m0 0V25.088M69.14 70.78h-.134m.134-45.692V70.78m-26.643-2.73h-.134m.133-40.63v40.63m-.133-40.63h.134m-1.999 43.36h1.865m0 0v-2.73m0-40.63v-2.332M67.208 68.05h-.134m0-40.63h.134m-.134 0v40.63m.133-42.962v2.331m0 40.631v2.73m0 0h1.799m-4.529-43.428h2.73m-10.324 0h3.064m-10.657 0h3.064m-9.991 0h2.398m-2.398-2.264v2.131m24.844.001v-2.132m0 43.028H42.363m24.844 2.664v-2.53m-24.844 0v2.53" stroke="#677075" stroke-width=".3"/></svg>