<svg width="69" height="123" fill="none" xmlns="http://www.w3.org/2000/svg"><path d="M62.278 6.41v110.635M.267 122.574V.949h5.461" stroke="#677075" stroke-width=".3" stroke-miterlimit="10"/><path d="M6.328 48.906v-4.795" stroke="#677075" stroke-width=".3" stroke-miterlimit="10" stroke-dasharray="24.49 2.45 0.82 2.45"/><path d="M6.26 54.568h56.084H6.261zm56.017 3.264H6.261h56.016zm-.066-3.33H31.97h30.24zm-33.304 8.392c.333 0 .6-.267.6-.6 0-.333-.267-.6-.6-.6v1.2zm.6 8.326c0-.333-.267-.6-.6-.6-.333 0-.6.267-.6.6 0 .333.267.6.6.6.333 0 .6-.267.6-.6zm6.66-31.239h4.197v10.124h-4.197V39.981zm3.33 6.927v-1.332 1.332zm-2.064-1.332v1.332-1.332zm1.599 0v1.332-1.332zm-2.065 1.332v-1.332 1.332zm1.265-6.927v10.124-10.124zm2.864 5.595v1.332-1.332zm.533 1.332v-1.332 1.332zm-1.332-6.927h2.065v10.124h-2.065V39.981zM6.927 48.64H5.728v-4.196h1.199v4.196z" stroke="#677075" stroke-width=".3" stroke-miterlimit="10"/><path d="M28.041 62.294h1.732m-2.864 3.863h2.132-2.132zm1.133-3.863h1.731-1.732z" stroke="#677075" stroke-width=".3" stroke-miterlimit="10" stroke-dasharray="24.49 2.45 0.82 2.45"/><path d="M27.975 57.831h22.646" stroke="#677075" stroke-width=".3" stroke-miterlimit="10"/><path d="M28.041 71.22h1.732m-1.732 0h1.732-1.732z" stroke="#677075" stroke-width=".3" stroke-miterlimit="10" stroke-dasharray="24.49 2.45 0.82 2.45"/><path d="M7.193 57.831H29.84M5.728 122.573H62.81m-56.549-5.994h56.017" stroke="#677075" stroke-width=".3" stroke-miterlimit="10"/><path d="M6.328 102.392v-4.73" stroke="#677075" stroke-width=".3" stroke-miterlimit="10" stroke-dasharray="24.49 2.45 0.82 2.45"/><path d="M6.327 116.379v-9.991 9.991zm-.066-10.057v10.723-10.723zm4.862-15.92h11.923v10.125H11.123V90.402zM8.26 87.538h17.65v15.853H8.26V87.538zm-1.332 14.654h-1.2v-4.196h1.199v4.196zm-1.2 20.381H.267" stroke="#677075" stroke-width=".3" stroke-miterlimit="10"/><path d="M.267 117.045H6.26m.666-10.724H5.728v-4.196h1.2v4.196z" stroke="#677075" stroke-width=".3" stroke-miterlimit="10"/><path d="M6.328 106.588v-4.796m0-26.043v-4.796 4.796z" stroke="#677075" stroke-width=".3" stroke-miterlimit="10" stroke-dasharray="24.49 2.45 0.82 2.45"/><path d="M6.261 79.612v18.384m.067 0v-15.12 15.12z" stroke="#677075" stroke-width=".3" stroke-miterlimit="10"/><path d="M6.328 79.879v-4.796" stroke="#677075" stroke-width=".3" stroke-miterlimit="10" stroke-dasharray="24.49 2.45 0.82 2.45"/><path d="M6.927 79.612H5.728v-4.196h1.199v4.196z" stroke="#677075" stroke-width=".3" stroke-miterlimit="10"/><path d="M8.126 72.085v-2.13" stroke="#677075" stroke-width=".3" stroke-miterlimit="10" stroke-dasharray="24.49 2.45 0.82 2.45"/><path d="M7.727 71.62l.866-.867m.133.467c0-.334-.267-.6-.6-.6-.333 0-.6.266-.6.6 0 .333.267.599.6.599.333 0 .6-.266.6-.6z" stroke="#677075" stroke-width=".3" stroke-miterlimit="10"/><path d="M10.257 75.083h1.732m-1.732 0h1.732m9.925 0h1.731-1.731zm-10.79.866v-1.732 1.732zm11.722 0v-1.732m-.8.866h1.466-1.465zm.8.866v-1.732 1.732zm0 0v-1.732 1.732z" stroke="#677075" stroke-width=".3" stroke-miterlimit="10" stroke-dasharray="24.49 2.45 0.82 2.45"/><path d="M6.261 48.64v22.646m2.465-8.992c0-.333-.267-.6-.6-.6-.333 0-.6.267-.6.6 0 .333.267.6.6.6.333-.067.6-.333.6-.6zm-1 .4l.866-.866-.865.866zm-1.198-4.862v13.454-13.454z" stroke="#677075" stroke-width=".3" stroke-miterlimit="10"/><path d="M8.126 63.227v-1.932m7.993-2.864h1.732-1.732zm8.725 7.726h2.132-2.132zm-7.859-6.86v-1.732" stroke="#677075" stroke-width=".3" stroke-miterlimit="10" stroke-dasharray="24.49 2.45 0.82 2.45"/><path d="M62.81 122.573h5.462m0-5.528h-5.994" stroke="#677075" stroke-width=".3" stroke-miterlimit="10"/><path d="M28.908 72.085v-2.13" stroke="#677075" stroke-width=".3" stroke-miterlimit="10" stroke-dasharray="24.49 2.45 0.82 2.45"/><path d="M28.508 71.62l.8-.8" stroke="#677075" stroke-width=".3" stroke-miterlimit="10"/><path d="M28.908 71.952v-1.798m2.997 5.795v-1.732m-2.997-14.054v-1.998 1.998zm2.131 14.92h1.732-1.732zm0 0h1.732-1.732z" stroke="#677075" stroke-width=".3" stroke-miterlimit="10" stroke-dasharray="24.49 2.45 0.82 2.45"/><path d="M36.5 47.507h1.4m0-.599h-1.4v.6l1.4-.6z" stroke="#677075" stroke-width=".3" stroke-miterlimit="10"/><path d="M36.567 49.373h1.2m-1.333 0h1.532-1.532z" stroke="#677075" stroke-width=".3" stroke-miterlimit="10" stroke-dasharray="24.49 2.45 0.82 2.45"/><path d="M40.297 47.707h-4.196m1.732 1.666c0-.334-.267-.6-.6-.6-.333 0-.6.266-.6.6 0 .333.267.599.6.599.333 0 .6-.267.6-.6zm-.133 0c0-.267-.267-.533-.533-.533-.267 0-.533.266-.533.532 0 .267.266.533.533.533.266 0 .533-.2.533-.532zm.2.732v.333h-1.4v-.333h1.4z" stroke="#677075" stroke-width=".3" stroke-miterlimit="10"/><path d="M28.908 59.963v-1.931" stroke="#677075" stroke-width=".3" stroke-miterlimit="10" stroke-dasharray="24.49 2.45 0.82 2.45"/><path d="M37.167 50.504v-.532.532z" stroke="#677075" stroke-width=".3" stroke-miterlimit="10"/><path d="M37.167 50.172V48.64" stroke="#677075" stroke-width=".3" stroke-miterlimit="10" stroke-dasharray="24.49 2.45 0.82 2.45"/><path d="M36.168 47.108h-3.53m4.263 2.598l.532-.533-.532.533zm.666-.267c0-.2-.2-.4-.4-.4s-.4.2-.4.4.2.4.4.4.4-.2.4-.4zm-.067 0c0-.2-.133-.333-.333-.333s-.333.133-.333.333.133.333.333.333.333-.133.333-.333zm-.333-.6v-.532h.266v-.6l-.266 1.133z" stroke="#677075" stroke-width=".3" stroke-miterlimit="10"/><path d="M37.167 49.972v-1.199m4.196 1.399V48.64v1.532z" stroke="#677075" stroke-width=".3" stroke-miterlimit="10" stroke-dasharray="24.49 2.45 0.82 2.45"/><path d="M42.096 50.105v.333H40.63v-.333m-.666 0v.333H38.5v-.333h1.465zm-.666.4v-.533.533zm2.065 0v-.533.533z" stroke="#677075" stroke-width=".3" stroke-miterlimit="10"/><path d="M39.298 50.172V48.64" stroke="#677075" stroke-width=".3" stroke-miterlimit="10" stroke-dasharray="24.49 2.45 0.82 2.45"/><path d="M38.565 47.507h1.4v-.599h-1.4" stroke="#677075" stroke-width=".3" stroke-miterlimit="10"/><path d="M38.499 49.373h1.532" stroke="#677075" stroke-width=".3" stroke-miterlimit="10" stroke-dasharray="24.49 2.45 0.82 2.45"/><path d="M39.298 48.84v-.533h.267v-.6m.266 1.666c0-.334-.266-.6-.6-.6a.597.597 0 00-.599.6c0 .333.267.599.6.599.333 0 .6-.267.6-.6zm-.066 0c0-.267-.267-.533-.533-.533-.267 0-.533.266-.533.532 0 .267.266.533.533.533.333 0 .533-.2.533-.532zm-.733.333l.533-.533-.533.532zm.666-.267c0-.2-.2-.4-.4-.4s-.4.2-.4.4.2.4.4.4.4-.2.4-.4zm0 0c0-.2-.133-.333-.333-.333s-.333.133-.333.333.133.333.333.333c.133 0 .333-.133.333-.333z" stroke="#677075" stroke-width=".3" stroke-miterlimit="10"/><path d="M39.298 49.972V48.84" stroke="#677075" stroke-width=".3" stroke-miterlimit="10" stroke-dasharray="24.49 2.45 0.82 2.45"/><path d="M38.565 47.507v-.599m-.666 0v.599-.599z" stroke="#677075" stroke-width=".3" stroke-miterlimit="10"/><path d="M41.363 49.972V48.84" stroke="#677075" stroke-width=".3" stroke-miterlimit="10" stroke-dasharray="24.49 2.45 0.82 2.45"/><path d="M41.363 48.84v-.533h.267v-.6l-.267 1.133zm.333.6c0-.2-.133-.334-.333-.334s-.333.133-.333.333.133.333.333.333.333-.133.333-.333zm0 0c0-.2-.2-.4-.4-.4s-.4.2-.4.4c0 .199.2.399.4.399.267 0 .4-.2.4-.4zm-.6.266l.534-.533-.533.532zm.867-.334c0-.266-.267-.532-.533-.532-.267 0-.533.266-.533.532 0 .267.266.533.533.533.266 0 .533-.2.533-.532zm0 0a.597.597 0 00-.6-.599c-.333 0-.6.266-.6.6 0 .333.267.599.6.599.333 0 .6-.267.6-.6z" stroke="#677075" stroke-width=".3" stroke-miterlimit="10"/><path d="M40.563 49.373h1.599" stroke="#677075" stroke-width=".3" stroke-miterlimit="10" stroke-dasharray="24.49 2.45 0.82 2.45"/><path d="M40.697 47.507v-.599m7.327.2v7.46-7.46zm.2 2.264h12.522-12.523zm7.792.267l.866-.866-.866.866zm1.066-.4c0-.333-.266-.6-.6-.6a.598.598 0 00-.599.6c0 .333.267.6.6.6.333 0 .6-.267.6-.6zm.067 0c0-.4-.267-.666-.666-.666-.4 0-.666.267-.666.666 0 .4.333.666.666.666.4 0 .666-.266.666-.666zm3.397-.999v1.932h-11.99l11.99-1.932zm-11.99 0H60.48 48.556zm-7.86-.733h1.4v-.599h-1.4v.6z" stroke="#677075" stroke-width=".3" stroke-miterlimit="10"/><path d="M54.685 50.305v-2.131" stroke="#677075" stroke-width=".3" stroke-miterlimit="10" stroke-dasharray="24.49 2.45 0.82 2.45"/><path d="M55.75 48.24v1.932m-2.398-1c0-.266-.2-.532-.532-.532-.267 0-.533.2-.533.533 0 .266.2.533.532.533.267 0 .533-.2.533-.533zm.134.067c0-.333-.267-.6-.6-.6-.333 0-.6.267-.6.6 0 .333.267.6.6.6.333 0 .6-.267.6-.6z" stroke="#677075" stroke-width=".3" stroke-miterlimit="10"/><path d="M52.886 50.238V48.24" stroke="#677075" stroke-width=".3" stroke-miterlimit="10" stroke-dasharray="24.49 2.45 0.82 2.45"/><path d="M48.557 50.172V48.24m1.332 1c0-.334-.267-.6-.6-.6-.333 0-.6.266-.6.6 0 .332.267.599.6.599.333 0 .6-.267.6-.6zm.066 0c0-.4-.266-.667-.666-.667s-.666.267-.666.666c0 .4.267.666.666.666a.667.667 0 00.666-.666z" stroke="#677075" stroke-width=".3" stroke-miterlimit="10"/><path d="M49.29 50.305v-2.131" stroke="#677075" stroke-width=".3" stroke-miterlimit="10" stroke-dasharray="24.49 2.45 0.82 2.45"/><path d="M51.687 49.24c0-.334-.267-.6-.6-.6a.596.596 0 00-.599.6c0 .332.266.599.6.599a.598.598 0 00.599-.6zm.067 0c0-.4-.267-.667-.666-.667-.4 0-.667.267-.667.666 0 .4.333.666.666.666.4 0 .666-.266.666-.666z" stroke="#677075" stroke-width=".3" stroke-miterlimit="10"/><path d="M51.087 50.305v-2.131" stroke="#677075" stroke-width=".3" stroke-miterlimit="10" stroke-dasharray="24.49 2.45 0.82 2.45"/><path d="M50.688 49.639l.866-.866m.466-2.465h1.665v1.666H52.02v-1.665zm2.065 1.932v-4.396 4.396zm0-4.396h-2.398v4.396l2.398-4.396zm.4 3.93v4.462-4.462zm-3.197 4.462v-5.128 5.129zm-.2-.865h3.13-3.13zm4.13-2.132c0-.333-.267-.6-.6-.6-.333 0-.6.267-.6.6 0 .333.267.6.6.6.333 0 .6-.267.6-.6zm.132 0c0-.4-.266-.666-.666-.666s-.666.267-.666.666c0 .4.267.666.666.666.4 0 .666-.266.666-.666zm-1.132.4l.866-.866-.866.866zm-1.665-.067l.733-.733-.733.733zm-3.663.067l.865-.866-.865.866z" stroke="#677075" stroke-width=".3" stroke-miterlimit="10"/><path d="M51.887 49.24h1.998" stroke="#677075" stroke-width=".3" stroke-miterlimit="10" stroke-dasharray="24.49 2.45 0.82 2.45"/><path d="M52.486 47.574l.866-.866m.2.4c0-.4-.267-.666-.666-.666-.4 0-.666.266-.666.666s.266.666.666.666.666-.267.666-.666zm-.067 0c0-.333-.266-.6-.6-.6a.598.598 0 00-.599.6c0 .333.267.6.6.6.333 0 .6-.267.6-.6z" stroke="#677075" stroke-width=".3" stroke-miterlimit="10"/><path d="M56.483 50.305v-2.131" stroke="#677075" stroke-width=".3" stroke-miterlimit="10" stroke-dasharray="24.49 2.45 0.82 2.45"/><path d="M60.413 49.24c0-.334-.267-.6-.6-.6-.333 0-.6.266-.6.6 0 .332.267.599.6.599.333 0 .6-.267.6-.6zm.066 0c0-.4-.266-.667-.666-.667s-.666.267-.666.666c0 .4.266.666.666.666s.666-.266.666-.666z" stroke="#677075" stroke-width=".3" stroke-miterlimit="10"/><path d="M59.813 50.305v-2.131" stroke="#677075" stroke-width=".3" stroke-miterlimit="10" stroke-dasharray="24.49 2.45 0.82 2.45"/><path d="M59.347 49.639l.866-.866m2.065-41.896H6.26h56.017zM5.728.95H62.81M36.167 43.578h-2.664m-26.576.865H5.728v-4.196h1.199v4.197zm-.6-6.66v-11.99 11.99zM6.261 17.6v22.646V17.6zM33.57 42.978h2.597-2.597z" stroke="#677075" stroke-width=".3" stroke-miterlimit="10"/><path d="M6.328 44.71v-4.796" stroke="#677075" stroke-width=".3" stroke-miterlimit="10" stroke-dasharray="24.49 2.45 0.82 2.45"/><path d="M6.261 6.41v2.865" stroke="#677075" stroke-width=".3" stroke-miterlimit="10"/><path d="M6.328 17.867v-4.796m0 .667V8.942v4.796z" stroke="#677075" stroke-width=".3" stroke-miterlimit="10" stroke-dasharray="24.49 2.45 0.82 2.45"/><path d="M.267 6.41H6.26M36.3 42.512h1.865H36.3zm1.798 2.93h-1.865v-2.997l1.865 2.998zm30.174-39.03h-5.994 5.994z" stroke="#677075" stroke-width=".3" stroke-miterlimit="10"/><path d="M36.567 40.714h1.2" stroke="#677075" stroke-width=".3" stroke-miterlimit="10" stroke-dasharray="24.49 2.45 0.82 2.45"/><path d="M37.7 40.647c0-.267-.267-.533-.533-.533-.267 0-.533.266-.533.533 0 .266.266.533.533.533.266 0 .532-.2.532-.533zm.133 0c0-.333-.267-.6-.6-.6-.333 0-.6.267-.6.6 0 .333.267.6.6.6.333 0 .6-.267.6-.6z" stroke="#677075" stroke-width=".3" stroke-miterlimit="10"/><path d="M36.434 40.714h1.532" stroke="#677075" stroke-width=".3" stroke-miterlimit="10" stroke-dasharray="24.49 2.45 0.82 2.45"/><path d="M36.167 42.379h6.261m-6.26 3.197h6.26-6.26zm1.731-5.595v-.333h-1.398v.333h1.398z" stroke="#677075" stroke-width=".3" stroke-miterlimit="10"/><path d="M36.101 45.043H38.3m-1.132-3.597v-1.532 1.532zm0-.133v-1.199 1.2zm-1.066 3.73h2.132H36.1z" stroke="#677075" stroke-width=".3" stroke-miterlimit="10" stroke-dasharray="24.49 2.45 0.82 2.45"/><path d="M32.77 46.575h3.33m1.067-6.46v-.534.533zm.333 2.264v-.933h-.267v-.133l.267 1.066zm0-1.665c0-.2-.134-.333-.333-.333-.2 0-.334.133-.334.333s.134.333.334.333c.2.066.333-.134.333-.333zm.066 0c0-.2-.2-.4-.4-.4s-.4.2-.4.4.2.4.4.4.4-.134.4-.4zm-.666.266l.533-.533-.533.533z" stroke="#677075" stroke-width=".3" stroke-miterlimit="10"/><path d="M41.363 41.446v-1.532" stroke="#677075" stroke-width=".3" stroke-miterlimit="10" stroke-dasharray="24.49 2.45 0.82 2.45"/><path d="M41.963 40.647c0-.267-.267-.533-.533-.533-.267 0-.533.266-.533.533 0 .266.266.533.533.533.266 0 .533-.2.533-.533zm0 0c0-.333-.267-.6-.6-.6-.333 0-.6.267-.6.6 0 .333.267.6.6.6.333 0 .6-.267.6-.6z" stroke="#677075" stroke-width=".3" stroke-miterlimit="10"/><path d="M39.298 41.313v-1.199" stroke="#677075" stroke-width=".3" stroke-miterlimit="10" stroke-dasharray="24.49 2.45 0.82 2.45"/><path d="M39.831 40.647c0-.333-.266-.6-.6-.6a.598.598 0 00-.599.6c0 .333.267.6.6.6.333 0 .6-.267.6-.6zm-.066 0c0-.267-.267-.533-.533-.533-.267 0-.533.266-.533.533 0 .266.266.533.533.533.333 0 .533-.2.533-.533z" stroke="#677075" stroke-width=".3" stroke-miterlimit="10"/><path d="M39.298 41.446v-1.532m1 5.129h2.13-2.13zm0 0h2.13-2.13z" stroke="#677075" stroke-width=".3" stroke-miterlimit="10" stroke-dasharray="24.49 2.45 0.82 2.45"/><path d="M40.43 42.512h1.865v2.93H40.43m-2.33-2.93v2.93-2.93zm.265 2.93v-2.997 2.998zm0-2.93h1.865v2.93h-1.864v-2.93zm2.065 2.93v-2.997 2.998z" stroke="#677075" stroke-width=".3" stroke-miterlimit="10"/><path d="M38.232 45.043h2.132m-1.865-4.33h1.532-1.532zm-.267 4.33h2.132-2.132z" stroke="#677075" stroke-width=".3" stroke-miterlimit="10" stroke-dasharray="24.49 2.45 0.82 2.45"/><path d="M39.565 42.379v-.933h-.267v-.133l.267 1.066zm-.533-1.399l.533-.533-.533.533zm.666-.266c0-.2-.2-.4-.4-.4s-.4.2-.4.4.2.4.4.4.4-.134.4-.4zm0 0c0-.2-.133-.333-.333-.333s-.333.133-.333.333.133.333.333.333c.133.066.333-.134.333-.333z" stroke="#677075" stroke-width=".3" stroke-miterlimit="10"/><path d="M40.563 40.714h1.599" stroke="#677075" stroke-width=".3" stroke-miterlimit="10" stroke-dasharray="24.49 2.45 0.82 2.45"/><path d="M41.696 42.379v-.933h-.266v-.133m9.258-4.196l.866-.866-.866.866zm-1.798 0l.866-.866-.866.866zm2.864-.4c0-.4-.267-.666-.666-.666a.667.667 0 000 1.332c.4 0 .666-.333.666-.666zm-.067 0c0-.333-.266-.6-.6-.6a.598.598 0 00-.599.6c0 .333.267.6.6.6.333 0 .6-.267.6-.6zm-2.464 8.726l.866-.866-.866.866zm1.066-.4c0-.333-.267-.6-.6-.6-.333 0-.6.267-.6.6 0 .333.267.6.6.6.333 0 .6-.267.6-.6zm.066 0c0-.4-.266-.666-.666-.666s-.666.266-.666.666.266.666.666.666c.333 0 .666-.333.666-.666zm-2.131-8.326h12.522-12.522zm12.322-.932v1.931h-11.99l11.99-1.931zm-3.397.932c0-.4-.266-.666-.666-.666s-.666.333-.666.666a.667.667 0 001.332 0zm-.067 0c0-.333-.266-.6-.6-.6a.598.598 0 00-.599.6c0 .333.267.6.6.6.333 0 .6-.267.6-.6zm-8.525-.932h11.922-11.922zm7.46 1.332l.866-.866-.866.866zm-7.993-2.332v8.193-8.193zm3.663.333v.666-.666zm2.398.666v-.865.866zm.4-.932v.933-.933zm0 0v.733-.733zm-12.39 5.129v-.333H40.63v.333h1.466zm-.732.133v-.533.533zm-2.065 0v-.533.533zm.666-.133v-.333H38.5v.333h1.465zm1.732.732c0-.2-.133-.333-.333-.333s-.333.134-.333.333c0 .2.133.334.333.334.2.066.333-.134.333-.334zm0 0c0-.2-.2-.4-.4-.4s-.4.2-.4.4.2.4.4.4c.267 0 .4-.133.4-.4zm-.6.267l.534-.533-.533.533z" stroke="#677075" stroke-width=".3" stroke-miterlimit="10"/><path d="M51.087 37.783V35.65m-1.798 2.132V35.65v2.132z" stroke="#677075" stroke-width=".3" stroke-miterlimit="10" stroke-dasharray="24.49 2.45 0.82 2.45"/><path d="M55.75 35.785v1.931-1.931zm-7.193 1.865v-1.932 1.932zm1.398-.933c0-.4-.266-.666-.666-.666s-.666.333-.666.666c0 .4.267.666.666.666.333 0 .666-.333.666-.666zm-.066 0c0-.333-.267-.6-.6-.6-.333 0-.6.267-.6.6 0 .333.267.6.6.6.333 0 .6-.267.6-.6z" stroke="#677075" stroke-width=".3" stroke-miterlimit="10"/><path d="M54.685 37.783V35.65" stroke="#677075" stroke-width=".3" stroke-miterlimit="10" stroke-dasharray="24.49 2.45 0.82 2.45"/><path d="M52.553 37.05l.666-.733" stroke="#677075" stroke-width=".3" stroke-miterlimit="10"/><path d="M52.886 37.716v-1.998" stroke="#677075" stroke-width=".3" stroke-miterlimit="10" stroke-dasharray="24.49 2.45 0.82 2.45"/><path d="M52.486 35.119c.134.066.267.133.4.133.2 0 .333-.067.466-.2l-.866.067zm-.066 0c.133.133.266.2.466.2s.4-.134.533-.267l-1 .067zm1.665 2.797v-.266.266zm-2.398-.266v.266h2.398l-2.398-.266zm2.531-.533l.866-.866-.866.866zm1.132-.4c0-.4-.266-.666-.666-.666s-.666.333-.666.666c0 .4.267.666.666.666.4 0 .666-.333.666-.666zm-.133 0c0-.333-.266-.6-.6-.6a.598.598 0 00-.599.6c0 .333.267.6.6.6.333 0 .6-.267.6-.6zm-1.732.067c0-.333-.266-.6-.6-.6a.598.598 0 00-.599.6c0 .333.267.6.6.6.333-.067.6-.334.6-.6zm-.133-.067c0-.266-.2-.533-.533-.533-.266 0-.533.2-.533.533 0 .267.2.533.533.533.267-.067.533-.266.533-.533z" stroke="#677075" stroke-width=".3" stroke-miterlimit="10"/><path d="M51.887 36.717h1.998" stroke="#677075" stroke-width=".3" stroke-miterlimit="10" stroke-dasharray="24.49 2.45 0.82 2.45"/><path d="M53.685 34.985v.467H52.02v-.333m7.327 1.998l.866-.866-.866.866z" stroke="#677075" stroke-width=".3" stroke-miterlimit="10"/><path d="M59.813 37.783V35.65" stroke="#677075" stroke-width=".3" stroke-miterlimit="10" stroke-dasharray="24.49 2.45 0.82 2.45"/><path d="M60.48 36.717c0-.4-.267-.666-.667-.666s-.666.333-.666.666c0 .4.266.666.666.666s.666-.333.666-.666zm-.067 0c0-.333-.267-.6-.6-.6-.333 0-.6.267-.6.6 0 .333.267.6.6.6.333 0 .6-.267.6-.6z" stroke="#677075" stroke-width=".3" stroke-miterlimit="10"/><path d="M56.483 37.783V35.65" stroke="#677075" stroke-width=".3" stroke-miterlimit="10" stroke-dasharray="24.49 2.45 0.82 2.45"/><path d="M65.741 112.716h1.932m-1.865-.2h1.798m.466.466l-.466.532m-1.732-.066h1.799m-1.799.067h1.732m.666-4.396c-.6.2-1.665.466-1.998 1.132-.133.267-.133.6-.266.866-.4.6-.467.533-.2 1.266.666 1.998-1.133 1.532 2.53 2.597m-.732-2.464v.999m.466-.533l-.466-.466M51.288 35.784v-.665m16.984 87.455v-7.594m0-5.861V.949H62.81l5.462 108.17zm-6.194 7.26H6.328M37.5 37.117l-.533.533m.6-.2c0-.2-.2-.4-.4-.4s-.4.2-.4.4.2.4.4.4.4-.2.4-.4zm.133-.067c0-.266-.2-.466-.467-.466-.266 0-.466.2-.466.466 0 .267.2.466.466.466.267 0 .467-.2.467-.466z" stroke="#677075" stroke-width=".3" stroke-miterlimit="10"/><path d="M37.167 38.316v-1.799" stroke="#677075" stroke-width=".3" stroke-miterlimit="10" stroke-dasharray="24.49 2.45 0.82 2.45"/><path d="M37.7 39.648v-2.864h-.933v2.864m.933-1.266c0-.266-.2-.466-.467-.466-.266 0-.466.2-.466.466 0 .267.2.467.466.467.267 0 .467-.2.467-.467z" stroke="#677075" stroke-width=".3" stroke-miterlimit="10"/><path d="M36.3 38.382h1.733M36.3 37.45h1.732H36.3z" stroke="#677075" stroke-width=".3" stroke-miterlimit="10" stroke-dasharray="24.49 2.45 0.82 2.45"/><path d="M36.7 39.048h.933m-.066-.732c0-.2-.2-.4-.4-.4s-.4.2-.4.4.2.4.4.4.4-.134.4-.4zm-.067-.2l-.533.533.533-.533z" stroke="#677075" stroke-width=".3" stroke-miterlimit="10"/><path d="M37.167 39.248v-1.732" stroke="#677075" stroke-width=".3" stroke-miterlimit="10" stroke-dasharray="24.49 2.45 0.82 2.45"/><path d="M5.728 17.6v-4.129h1.199v4.13M41.83 37.45v2.198m-2.865 0v-.6H37.7m3.396.6v-.6h-1.398v.6M37.7 37.45h4.13" stroke="#677075" stroke-width=".3" stroke-miterlimit="10"/><path d="M25.777 67.423v-1.532m2.065 1.332v-1.199 1.2zm0 .2v-1.532 1.532zm-2.065-.2v-1.199 1.2z" stroke="#677075" stroke-width=".3" stroke-miterlimit="10" stroke-dasharray="24.49 2.45 0.82 2.45"/><path d="M25.777 66.09v-.532h.267v-.6l-.267 1.133zm-.666-1.331h3.464v-.6H25.11v.6zm3.797.2H24.71h4.197zm-3.397-.8v-1.332 1.332zm2.131-1.332v1.332-1.332zm-1.665 0v1.332-1.332zm.866-.133v1.399-1.4zm1.265 1.465v-1.332 1.332zm-3.263-4.463h3.93v2.998h-3.93v-2.998zm2.997 7.993v-.532.532zm.733-.333v.333h-1.466v-.333h1.466zm-2.798.333v-.532.532zm.733-.333v.333h-1.4v-.333h1.399zm-.333-.732c0-.2-.2-.4-.4-.4s-.4.2-.4.4.2.4.4.4.4-.2.4-.4zm-.666.266l.533-.533-.533.533zm.799-.266c0-.267-.266-.533-.533-.533-.266 0-.533.266-.533.533 0 .266.267.532.533.532.267 0 .533-.266.533-.532zm.533-1.865v2.597-2.597zm1.399 1.865c0-.2-.2-.4-.4-.4s-.4.2-.4.4.2.4.4.4.4-.2.4-.4zm-.666.266l.532-.533-.532.533zm.865-.266c0-.267-.266-.533-.532-.533-.267 0-.533.266-.533.533 0 .266.266.532.533.532.266 0 .532-.266.532-.532z" stroke="#677075" stroke-width=".3" stroke-miterlimit="10"/><path d="M24.977 66.624h1.532m-1.332 0h1.2-1.2z" stroke="#677075" stroke-width=".3" stroke-miterlimit="10" stroke-dasharray="24.49 2.45 0.82 2.45"/><path d="M27.842 66.09v-.532h.333v-.6" stroke="#677075" stroke-width=".3" stroke-miterlimit="10"/><path d="M27.109 66.624h1.532m-1.865-4.33h2.131-2.131zm-2.131 0h2.198-2.198zm2.597 4.33h1.2-1.2z" stroke="#677075" stroke-width=".3" stroke-miterlimit="10" stroke-dasharray="24.49 2.45 0.82 2.45"/><path d="M24.711 62.827h4.197M24.71 59.63h4.197-4.197z" stroke="#677075" stroke-width=".3" stroke-miterlimit="10"/><path d="M25.777 58.697v-1.532" stroke="#677075" stroke-width=".3" stroke-miterlimit="10" stroke-dasharray="24.49 2.45 0.82 2.45"/><path d="M26.043 59.63v-1h-.266v-.132" stroke="#677075" stroke-width=".3" stroke-miterlimit="10"/><path d="M24.977 57.898h1.6" stroke="#677075" stroke-width=".3" stroke-miterlimit="10" stroke-dasharray="24.49 2.45 0.82 2.45"/><path d="M25.178 57.831v.134c0 .333.266.6.6.6a.598.598 0 00.599-.6v-.134" stroke="#677075" stroke-width=".3" stroke-miterlimit="10"/><path d="M25.178 57.898h1.199" stroke="#677075" stroke-width=".3" stroke-miterlimit="10" stroke-dasharray="24.49 2.45 0.82 2.45"/><path d="M25.444 57.831v.134c0 .2.133.332.332.332.2 0 .333-.133.333-.332v-.134" stroke="#677075" stroke-width=".3" stroke-miterlimit="10"/><path d="M27.842 58.697v-1.532" stroke="#677075" stroke-width=".3" stroke-miterlimit="10" stroke-dasharray="24.49 2.45 0.82 2.45"/><path d="M28.175 59.63v-1h-.333v-.132" stroke="#677075" stroke-width=".3" stroke-miterlimit="10"/><path d="M27.109 57.898h1.532m-1.399 0h1.199-1.199z" stroke="#677075" stroke-width=".3" stroke-miterlimit="10" stroke-dasharray="24.49 2.45 0.82 2.45"/><path d="M27.31 57.832v.133c0 .333.266.6.599.6a.597.597 0 00.599-.6v-.133m1.465 16.452h3.397-3.397zm5.063-3.93h-3.73c-.2 0-.334-.133-.334-.333v-7.66c0-.2.134-.333.333-.333H38.7l-3.663 8.326zm-5.063 7.46v-18.45c0-.2.134-.333.333-.333h10.857l-11.19 18.783zm20.782-30.706h-8.326 8.326zm-8.326-4.13h8.326-8.326zm0 3.597h8.326-8.326zm8.326-2.997h-8.326 8.326zm0-.6v4.197-4.197zM9.79 57.832v1.199-1.2zm14.321 1.199v-1.2 1.2zM7.061 63.76h2.131-2.131zm2.131-2.998H7.061h2.131zm0 3.597H7.061v-4.196h2.131v4.196zm-2.131 5.395h2.131-2.131zm2.131 2.931H7.061h2.131zm0-3.53H7.061v4.196h2.131v-4.196zm21.38-11.323v1.199-1.2zm-1.664 2.93h1.065-1.065zm1.065 2.998h-1.065 1.065zm-1.065.6h1.065-1.065zm1.065-4.197h-1.065 1.065zm-2.397-1.998l.4-.4-.4.4zm-2.065 0l.4-.4-.4.4zm1.332-.333v1.931-1.931zm2.065 0v9.524H24.71v-9.524h4.197zm-1.599 15.452v5.862-5.862zm0-5.595v1.4-1.4zm2.664 2.065h-5.262 5.262zm-5.262 2.931h5.262-5.262zm5.262.6h-5.262 5.262zm-5.262-4.13h5.262-5.262zm4.197-6.86l.4-.4-.4.4zm-1.4-4.463v.133c0 .2.134.333.334.333s.333-.133.333-.333v-.133h-.666z" stroke="#677075" stroke-width=".3" stroke-miterlimit="10"/><path d="M31.04 75.083h1.73m4.93-15.92v-1.465 1.466zM31.905 75.95v-1.732 1.732z" stroke="#677075" stroke-width=".3" stroke-miterlimit="10" stroke-dasharray="24.49 2.45 0.82 2.45"/><path d="M14.72 83.209H9.592c-.2 0-.334-.133-.334-.333V59.364c0-.2.134-.333.334-.333h14.786c.2 0 .333.133.333.333v20.581m-15.52-5.661h15.52-15.52zm1-4.263v-7.66c0-.2.133-.333.333-.333h12.855c.2 0 .333.133.333.333v7.66c0 .2-.133.333-.333.333H10.524c-.2 0-.333-.133-.333-.333z" stroke="#677075" stroke-width=".3" stroke-miterlimit="10"/><path d="M10.257 75.083h1.732m9.858 0h1.732-1.732zm1 .866v-1.732 1.732zm-11.724 0v-1.732 1.732z" stroke="#677075" stroke-width=".3" stroke-miterlimit="10" stroke-dasharray="24.49 2.45 0.82 2.45"/><path d="M17.65 58.43h-1.664m-.733 0h3.13-3.13z" stroke="#677075" stroke-width=".3" stroke-miterlimit="10"/><path d="M16.119 58.43h1.731m-1.731 0h1.665-1.665zm.866.867v-1.732m0 1.665v-1.665 1.665z" stroke="#677075" stroke-width=".3" stroke-miterlimit="10" stroke-dasharray="24.49 2.45 0.82 2.45"/><path d="M17.584 58.431c0-.333-.266-.6-.6-.6a.598.598 0 00-.599.6c0 .333.267.6.6.6.333 0 .6-.267.6-.6z" stroke="#677075" stroke-width=".3" stroke-miterlimit="10"/><path d="M16.252 58.43h1.465" stroke="#677075" stroke-width=".3" stroke-miterlimit="10" stroke-dasharray="24.49 2.45 0.82 2.45"/><path d="M37.233 58.964l.866-.932m-21.58.932l.732-.932m24.578.398h4.862v15.853H33.436" stroke="#677075" stroke-width=".3" stroke-miterlimit="10"/><path d="M39.298 61.295h4.53V71.42h-9.126m9.125 19.049H31.905v10.124h11.922V90.469z" stroke="#677075" stroke-width=".3" stroke-miterlimit="10"/><path d="M29.04 87.605h17.651v15.852h-17.65V87.605zM6.328 82.876c4.929 2.065 7.726.733 12.255-1.199 3.13-1.199 6.461-1.532 9.525-2.864 3.064-1.399 5.262-3.73 6.461-6.927 1.399-5.329 3.397-10.191 7.66-13.921m19.849 58.414V57.965H42.229m9.059-9.725V37.65m0 16.918v-4.396m3.196 0v4.396m0-16.918v10.59m-37.899 9.591c-.2.067-.333.2-.466.4l-.466.866m2.597-.067l-.466-.866c-.133-.2-.266-.333-.466-.4m-.866.866l-.267.4" stroke="#677075" stroke-width=".3" stroke-miterlimit="10"/><path d="M36.967 58.43h1.532" stroke="#677075" stroke-width=".3" stroke-miterlimit="10" stroke-dasharray="24.49 2.45 0.82 2.45"/><path d="M38.299 58.431c0-.333-.266-.6-.6-.6a.598.598 0 00-.599.6c0 .333.267.6.6.6a.597.597 0 00.599-.6z" stroke="#677075" stroke-width=".3" stroke-miterlimit="10"/><path d="M36.9 58.43h1.665m-1.731 0h1.798-1.798z" stroke="#677075" stroke-width=".3" stroke-miterlimit="10" stroke-dasharray="24.49 2.45 0.82 2.45"/><path d="M38.366 58.43H36.7" stroke="#677075" stroke-width=".3" stroke-miterlimit="10"/><path d="M36.834 58.43h1.798" stroke="#677075" stroke-width=".3" stroke-miterlimit="10" stroke-dasharray="24.49 2.45 0.82 2.45"/><path d="M37.167 58.631l-.2.4M6.927 75.483H5.728v-4.197h1.199v4.197zM5.728 13.47h1.199-1.199zm0 0V9.275h1.199v4.196H5.728zm0 4.13h1.199-1.199zm56.483 16.585c-5.595-1.332-6.528 1.532-12.19.866-4.329-.666-5.927-.866-10.39-.133-2.864.533-6.061.466-5.995 4.263 0 1.798.134 3.463-.266 5.262-1.066 3.663-1.599 6.127-1.399 10.057l30.24-20.315zm0 20.315V34.186v20.315zm-23.18 4.53l-.466-.866c-.133-.2-.266-.333-.466-.4l.933 1.266zm-1.665-1.2c-.2.067-.333.2-.466.4l-.466.866.932-1.265zM59.68 87.205a3.198 3.198 0 10-3.197 3.197c1.732-.066 3.197-1.465 3.197-3.197z" stroke="#677075" stroke-width=".3" stroke-miterlimit="10"/><path d="M59.68 87.205a3.198 3.198 0 10-3.197 3.197c1.732-.066 3.197-1.465 3.197-3.197z" stroke="#677075" stroke-width=".3" stroke-miterlimit="10"/><path d="M58.215 87.205c0-.999-.8-1.732-1.732-1.732-.933 0-1.732.8-1.732 1.732 0 .933.8 1.732 1.732 1.732.932 0 1.732-.8 1.732-1.732zm0-61.145c0-1-.8-1.732-1.732-1.732-.933 0-1.732.8-1.732 1.732 0 .932.8 1.732 1.732 1.732a1.72 1.72 0 001.732-1.732z" stroke="#677075" stroke-width=".3" stroke-miterlimit="10"/><path d="M59.68 26.06a3.198 3.198 0 00-6.394 0c0 1.798 1.398 3.197 3.197 3.197a3.198 3.198 0 003.197-3.197z" stroke="#677075" stroke-width=".3" stroke-miterlimit="10"/><path d="M59.68 26.06a3.198 3.198 0 00-6.394 0c0 1.798 1.398 3.197 3.197 3.197a3.198 3.198 0 003.197-3.197zm-8.792 61.145h10.99m-5.462 4.929v-10.99m0-50.088v-10.99m-5.528 6.061h10.99" stroke="#677075" stroke-width=".3" stroke-miterlimit="10"/></svg>