<svg width="23" height="20" viewBox="0 0 23 20" fill="none" xmlns="http://www.w3.org/2000/svg">
<path d="M21.0015 11C22.0567 11 22.3925 12.4225 21.4487 12.8944L21.3791 12.9329C21.2253 13.0249 20.9894 13.2063 20.7489 13.4769C20.2791 14.0053 20.0015 14.6648 20.0015 15.5C20.0015 16.3352 20.2791 16.9947 20.7489 17.5231C21.0295 17.8388 21.3039 18.0331 21.4487 18.1056L21.552 18.1641C22.3656 18.6848 22.0161 20 21.0015 20H3.0015C2.84625 20 2.69314 19.9639 2.55428 19.8944C2.19914 19.7169 1.72348 19.3799 1.25409 18.8519C0.473848 17.9741 0.00149751 16.8523 0.00149751 15.5C0.00149751 14.1477 0.473848 13.0259 1.25409 12.1481C1.72348 11.6201 2.19914 11.2831 2.55428 11.1056C2.69314 11.0361 2.84625 11 3.0015 11H21.0015ZM18.6425 13H3.2755L3.20082 13.0547C3.10087 13.1305 2.98684 13.2286 2.86843 13.349L2.74891 13.4769C2.27915 14.0053 2.0015 14.6648 2.0015 15.5C2.0015 16.3352 2.27915 16.9947 2.74891 17.5231C2.90926 17.7035 3.06756 17.8443 3.20082 17.9453L3.2775 18H18.6435L18.5826 17.8932C18.2485 17.2699 18.0451 16.5603 18.0077 15.7674L18.0015 15.5C18.0015 14.5985 18.2114 13.7994 18.5826 13.1068L18.6425 13ZM19.0015 0C19.1567 0 19.3099 0.0361451 19.4487 0.105573C19.8039 0.283143 20.2795 0.620073 20.7489 1.14814C21.5291 2.02591 22.0015 3.14774 22.0015 4.5C22.0015 5.85226 21.5291 6.97409 20.7489 7.85186C20.2795 8.37993 19.8039 8.71686 19.4487 8.89443C19.3099 8.96385 19.1567 9 19.0015 9H1.0015C-0.0537269 9 -0.389538 7.57748 0.554284 7.10557L0.623935 7.06707C0.777653 6.97515 1.01356 6.79373 1.25409 6.52314C1.72385 5.99466 2.0015 5.33524 2.0015 4.5C2.0015 3.66476 1.72385 3.00534 1.25409 2.47686C0.973477 2.16118 0.699144 1.96686 0.554284 1.89443L0.451028 1.83589C-0.362642 1.3152 -0.0131414 0 1.0015 0H19.0015ZM18.7265 2H3.3595L3.42043 2.10676C3.75445 2.73013 3.9579 3.43974 3.99525 4.23262L4.0015 4.5C4.0015 5.40151 3.79156 6.2006 3.42043 6.89324L3.3585 7H18.7245L18.8022 6.94533C18.9021 6.86955 19.0162 6.77143 19.1346 6.651L19.2541 6.52314C19.7238 5.99466 20.0015 5.33524 20.0015 4.5C20.0015 3.66476 19.7238 3.00534 19.2541 2.47686C19.0937 2.29647 18.9354 2.15571 18.8022 2.05467L18.7265 2Z" fill="#008FDF"/>
</svg>
