<svg width="30" height="32" viewBox="0 0 30 32" fill="none" xmlns="http://www.w3.org/2000/svg">
<path fill-rule="evenodd" clip-rule="evenodd" d="M15.023 0C15.5203 0 15.9972 0.187303 16.3489 0.520705C16.7005 0.854107 16.898 1.3063 16.898 1.7778V25.931L26.8224 16.5211C27.176 16.1972 27.6497 16.0181 28.1413 16.0221C28.6329 16.0262 29.1032 16.2131 29.4508 16.5427C29.7985 16.8724 29.9957 17.3183 29.9999 17.7844C30.0042 18.2505 29.8152 18.6996 29.4737 19.0349L16.3487 31.4795C15.9971 31.8128 15.5202 32 15.023 32C14.5259 32 14.049 31.8128 13.6974 31.4795L0.572416 19.0349C0.393334 18.8709 0.250492 18.6747 0.152225 18.4578C0.0539585 18.2409 0.0022342 18.0076 7.07945e-05 17.7716C-0.00209261 17.5355 0.0453477 17.3014 0.139624 17.083C0.233901 16.8645 0.373126 16.666 0.549174 16.499C0.725223 16.3321 0.934571 16.2001 1.165 16.1107C1.39543 16.0213 1.64233 15.9764 1.89129 15.9784C2.14025 15.9805 2.38629 16.0295 2.61505 16.1227C2.84381 16.2158 3.0507 16.3513 3.22366 16.5211L13.148 25.931V1.7778C13.148 1.3063 13.3456 0.854107 13.6972 0.520705C14.0488 0.187303 14.5258 0 15.023 0V0Z" fill="white"/>
</svg>
