<svg width="19" height="14" viewBox="0 0 19 14" fill="none" xmlns="http://www.w3.org/2000/svg">
<path fill-rule="evenodd" clip-rule="evenodd" d="M0.5168 1.022C0.760001 0.706896 1.08133 0.449789 1.45408 0.272039C1.82683 0.0942894 2.24025 0.00102714 2.66 0H16.34C17.2292 0 18.0054 0.41125 18.4832 1.022C18.809 1.44025 19 1.95563 19 2.50863V11.4914C19 12.8467 17.841 14 16.34 14H2.66C1.159 14 0 12.8467 0 11.4914V2.50863C0 1.95563 0.19 1.44025 0.5168 1.02112V1.022ZM2.78635 1.75L8.797 7.84438C8.88604 7.9346 8.99457 8.0067 9.11563 8.05603C9.2367 8.10536 9.36762 8.13084 9.5 8.13084C9.63238 8.13084 9.7633 8.10536 9.88436 8.05603C10.0054 8.0067 10.114 7.9346 10.203 7.84438L16.2136 1.75H2.78635ZM17.1 3.4545L11.609 9.02125C11.3419 9.29194 11.0163 9.50821 10.6531 9.65621C10.2899 9.80421 9.89715 9.88066 9.5 9.88066C9.10285 9.88066 8.71009 9.80421 8.34691 9.65621C7.98372 9.50821 7.65812 9.29194 7.391 9.02125L1.9 3.4545V11.4914C1.9 11.9411 2.2724 12.25 2.66 12.25H16.34C16.7276 12.25 17.1 11.9411 17.1 11.4914V3.4545Z" fill="url(#paint0_linear)"/>
<defs>
<linearGradient id="paint0_linear" x1="0" y1="0" x2="19" y2="2.90626e-10" gradientUnits="userSpaceOnUse">
<stop stop-color="#166693"/>
<stop offset="1" stop-color="#008FDF"/>
</linearGradient>
</defs>
</svg>
