<svg width="21" height="15" viewBox="0 0 21 15" fill="none" xmlns="http://www.w3.org/2000/svg">
<path fill-rule="evenodd" clip-rule="evenodd" d="M0.5712 1.095C0.840001 0.757388 1.19515 0.481917 1.60714 0.291471C2.01913 0.101024 2.47607 0.00110051 2.94 0H18.06C19.0428 0 19.9006 0.440625 20.4288 1.095C20.7889 1.54313 21 2.09531 21 2.68781V12.3122C21 13.7644 19.719 15 18.06 15H2.94C1.281 15 0 13.7644 0 12.3122V2.68781C0 2.09531 0.21 1.54312 0.5712 1.09406V1.095ZM3.07965 1.875L9.723 8.40469C9.82141 8.50136 9.94137 8.5786 10.0752 8.63146C10.209 8.68431 10.3537 8.71162 10.5 8.71162C10.6463 8.71162 10.791 8.68431 10.9248 8.63146C11.0586 8.5786 11.1786 8.50136 11.277 8.40469L17.9203 1.875H3.07965ZM18.9 3.70125L12.831 9.66563C12.5358 9.95565 12.1759 10.1874 11.7745 10.3459C11.3731 10.5045 10.9389 10.5864 10.5 10.5864C10.061 10.5864 9.62695 10.5045 9.22553 10.3459C8.82411 10.1874 8.46424 9.95565 8.169 9.66563L2.1 3.70125V12.3122C2.1 12.7941 2.5116 13.125 2.94 13.125H18.06C18.4884 13.125 18.9 12.7941 18.9 12.3122V3.70125Z" fill="#166693"/>
</svg>
