<svg width="14" height="17" viewBox="0 0 14 17" fill="none" xmlns="http://www.w3.org/2000/svg">
<path fill-rule="evenodd" clip-rule="evenodd" d="M7.625 1.10852C6.042 -0.158481 4.183 -0.119481 2.856 0.159519C2.048 0.329519 1.226 0.609519 0.504 1.01952C0.350799 1.10703 0.223478 1.23352 0.13496 1.38614C0.046443 1.53876 -0.000119278 1.71209 2.29467e-07 1.88852V15.8885C2.29467e-07 16.1537 0.105357 16.4081 0.292894 16.5956C0.48043 16.7832 0.734784 16.8885 1 16.8885C1.26522 16.8885 1.51957 16.7832 1.70711 16.5956C1.89464 16.4081 2 16.1537 2 15.8885V10.5185C3.376 9.93852 5.124 9.66852 6.375 10.6685C7.958 11.9355 9.817 11.8965 11.143 11.6175C11.8894 11.4584 12.6125 11.205 13.295 10.8635C13.687 10.6655 14 10.3615 14 9.88852V1.88852C14 1.71346 13.9541 1.54147 13.8668 1.38973C13.7795 1.23799 13.6539 1.11183 13.5025 1.02386C13.3512 0.935885 13.1794 0.889183 13.0043 0.888421C12.8293 0.88766 12.6571 0.932866 12.505 1.01952C11.066 1.80552 9.001 2.20952 7.625 1.10752V1.10852ZM2 2.51852V8.38752C3.881 7.78552 6.021 7.82452 7.625 9.10752C8.542 9.84152 9.683 9.88052 10.732 9.66052C11.1664 9.56667 11.5909 9.43207 12 9.25852V3.38852C11.7184 3.47906 11.4324 3.55516 11.143 3.61652C9.817 3.89552 7.958 3.93452 6.375 2.66852C5.124 1.66852 3.376 1.93752 2 2.51752V2.51852Z" fill="url(#paint0_linear)"/>
<defs>
<linearGradient id="paint0_linear" x1="0" y1="0" x2="14" y2="1.30804e-10" gradientUnits="userSpaceOnUse">
<stop stop-color="#166693"/>
<stop offset="1" stop-color="#008FDF"/>
</linearGradient>
</defs>
</svg>
