<svg width="18" height="18" viewBox="0 0 18 18" fill="none" xmlns="http://www.w3.org/2000/svg">
<path fill-rule="evenodd" clip-rule="evenodd" d="M8.99982 1.99464C8.03524 1.99441 7.08482 2.22674 6.22912 2.67194C5.37342 3.11714 4.63767 3.76208 4.08423 4.5521C3.53079 5.34213 3.17598 6.25393 3.04988 7.21024C2.92378 8.16655 3.0301 9.13916 3.35982 10.0456C3.57146 10.0116 3.78547 9.99455 3.99982 9.99464H4.99982C5.26504 9.99464 5.51939 10.1 5.70693 10.2875C5.89447 10.4751 5.99982 10.7294 5.99982 10.9946V16.9946C5.99982 17.2599 5.89447 17.5142 5.70693 17.7017C5.51939 17.8893 5.26504 17.9946 4.99982 17.9946H3.99982C3.1683 17.9946 2.35745 17.7354 1.68006 17.2532C1.00268 16.7709 0.49243 16.0895 0.220289 15.3038C-0.0518525 14.518 -0.0723573 13.667 0.161627 12.8691C0.395611 12.0711 0.87245 11.366 1.52582 10.8516C1.06368 9.6403 0.902864 8.33478 1.05723 7.0475C1.2116 5.76021 1.67651 4.52973 2.41196 3.462C3.1474 2.39427 4.13133 1.52128 5.27903 0.918192C6.42674 0.315108 7.70382 0 9.00032 0C10.2968 0 11.5739 0.315108 12.7216 0.918192C13.8693 1.52128 14.8532 2.39427 15.5887 3.462C16.3241 4.52973 16.7891 5.76021 16.9434 7.0475C17.0978 8.33478 16.937 9.6403 16.4748 10.8516C17.1283 11.366 17.6051 12.0713 17.8391 12.8693C18.073 13.6673 18.0525 14.5184 17.7802 15.3042C17.5079 16.09 16.9975 16.7714 16.32 17.2536C15.6424 17.7358 14.8314 17.9948 13.9998 17.9946H12.9988C12.7336 17.9946 12.4793 17.8893 12.2917 17.7017C12.1042 17.5142 11.9988 17.2599 11.9988 16.9946V10.9946C11.9988 10.7294 12.1042 10.4751 12.2917 10.2875C12.4793 10.1 12.7336 9.99464 12.9988 9.99464H13.9988C14.2168 9.99464 14.4308 10.0126 14.6388 10.0456C14.9685 9.13924 15.0749 8.16672 14.9488 7.21049C14.8227 6.25426 14.468 5.34251 13.9147 4.55251C13.3614 3.76252 12.6258 3.11755 11.7702 2.67229C10.9146 2.22702 9.96432 1.99457 8.99982 1.99464ZM3.99982 11.9946C3.46939 11.9946 2.96068 12.2054 2.58561 12.5804C2.21054 12.9555 1.99982 13.4642 1.99982 13.9946C1.99982 14.5251 2.21054 15.0338 2.58561 15.4089C2.96068 15.7839 3.46939 15.9946 3.99982 15.9946V11.9946ZM13.9998 11.9946V15.9946C14.5303 15.9946 15.039 15.7839 15.414 15.4089C15.7891 15.0338 15.9998 14.5251 15.9998 13.9946C15.9998 13.4642 15.7891 12.9555 15.414 12.5804C15.039 12.2054 14.5303 11.9946 13.9998 11.9946Z" fill="white"/>
</svg>
