<svg width="18" height="22" viewBox="0 0 18 22" fill="none" xmlns="http://www.w3.org/2000/svg">
<path d="M6.5 6C6.5 5.44772 6.94772 5 7.5 5H13.5C14.0523 5 14.5 5.44772 14.5 6C14.5 6.55228 14.0523 7 13.5 7H7.5C6.94772 7 6.5 6.55228 6.5 6Z" fill="#008FDF"/>
<path d="M7.5 10C6.94772 10 6.5 10.4477 6.5 11C6.5 11.5523 6.94772 12 7.5 12H13.5C14.0523 12 14.5 11.5523 14.5 11C14.5 10.4477 14.0523 10 13.5 10H7.5Z" fill="#008FDF"/>
<path d="M6.5 16C6.5 15.4477 6.94772 15 7.5 15H13.5C14.0523 15 14.5 15.4477 14.5 16C14.5 16.5523 14.0523 17 13.5 17H7.5C6.94772 17 6.5 16.5523 6.5 16Z" fill="#008FDF"/>
<path d="M5.5 6C5.5 6.5523 5.0523 7 4.5 7C3.9477 7 3.5 6.5523 3.5 6C3.5 5.4477 3.9477 5 4.5 5C5.0523 5 5.5 5.4477 5.5 6Z" fill="#008FDF"/>
<path d="M4.5 12C5.0523 12 5.5 11.5523 5.5 11C5.5 10.4477 5.0523 10 4.5 10C3.9477 10 3.5 10.4477 3.5 11C3.5 11.5523 3.9477 12 4.5 12Z" fill="#008FDF"/>
<path d="M5.5 16C5.5 16.5523 5.0523 17 4.5 17C3.9477 17 3.5 16.5523 3.5 16C3.5 15.4477 3.9477 15 4.5 15C5.0523 15 5.5 15.4477 5.5 16Z" fill="#008FDF"/>
<path fill-rule="evenodd" clip-rule="evenodd" d="M0 2C0 0.89543 0.89543 0 2 0H16C17.1046 0 18 0.89543 18 2V20C18 21.1046 17.1046 22 16 22H2C0.89543 22 0 21.1046 0 20V2ZM16 2H2V20H16V2Z" fill="#008FDF"/>
</svg>
