<svg width="47" height="54" viewBox="0 0 47 54" fill="none" xmlns="http://www.w3.org/2000/svg">
<path fill-rule="evenodd" clip-rule="evenodd" d="M16.4495 0C15.8263 0.000132974 15.2287 0.247578 14.7881 0.687908L0.688531 14.7748C0.247802 15.215 0.000133094 15.812 0 16.4347V44.6084C0 46.4764 0.742745 48.2679 2.06484 49.5888C3.38693 50.9097 5.18008 51.6518 7.0498 51.6518H9.39973C10.023 51.6518 10.6207 51.4045 11.0614 50.9642C11.5021 50.5239 11.7497 49.9267 11.7497 49.304C11.7497 48.6813 11.5021 48.0842 11.0614 47.6439C10.6207 47.2036 10.023 46.9562 9.39973 46.9562H7.0498C6.42656 46.9562 5.82885 46.7088 5.38815 46.2685C4.94745 45.8282 4.69987 45.2311 4.69987 44.6084V18.7825H16.4495C17.0728 18.7825 17.6705 18.5351 18.1112 18.0948C18.5519 17.6545 18.7995 17.0573 18.7995 16.4347V4.69562H35.249C35.8722 4.69562 36.47 4.94298 36.9107 5.38328C37.3514 5.82358 37.5989 6.42075 37.5989 7.04343V23.4781C37.5989 24.1008 37.8465 24.6979 38.2872 25.1382C38.7279 25.5785 39.3256 25.8259 39.9489 25.8259C40.5721 25.8259 41.1698 25.5785 41.6105 25.1382C42.0512 24.6979 42.2988 24.1008 42.2988 23.4781V7.04343C42.2988 5.1754 41.5561 3.38387 40.234 2.06297C38.9119 0.742073 37.1187 0 35.249 0H16.4495ZM14.0996 14.0869H8.02267L14.0996 8.01542V14.0869ZM17.1733 52.9736C17.5446 53.4315 18.0827 53.8048 18.7642 53.9433C19.3987 54.0748 19.9556 53.955 20.341 53.8141C21.0507 53.5559 21.61 53.0699 21.9719 52.7107C22.5453 52.1472 23.1468 51.3818 23.7414 50.5178C26.3498 49.6186 30.011 48.7922 33.5735 48.271C35.5545 47.9822 37.4039 47.8014 38.9596 47.7404C39.5752 48.4682 40.1369 49.0904 40.6045 49.5623C40.8959 49.8581 41.2202 50.1656 41.5398 50.4004C41.6808 50.5061 41.951 50.6939 42.2965 50.8277C42.4774 50.8982 43.6594 51.3489 44.7474 50.4709C45.3913 49.9543 45.9835 49.3744 46.3971 48.7241C46.813 48.0667 47.2055 47.0665 46.8788 45.9302C46.5592 44.815 45.7274 44.1928 45.114 43.8688C44.4919 43.5609 43.8262 43.3503 43.1401 43.2443C42.4909 43.136 41.8355 43.0694 41.1779 43.0447C39.5226 40.9702 37.9318 38.8452 36.4075 36.6728C35.0773 34.7969 33.8215 32.8694 32.6429 30.8948C32.7487 30.4417 32.8356 30.0097 32.9061 29.5965C33.0236 28.8921 33.0941 28.1831 33.0777 27.5187C33.0774 26.7872 32.9203 26.0643 32.6171 25.3986C32.4119 24.9611 32.1139 24.5735 31.7439 24.2626C31.3738 23.9516 30.9405 23.7248 30.4739 23.5978C29.5293 23.3443 28.6292 23.5344 27.9384 23.7904C26.8738 24.1824 26.2887 25.0582 26.0866 25.9104C25.9551 26.5442 25.9656 27.1993 26.1172 27.8286C26.3381 28.8569 26.8527 30.0426 27.4472 31.2C27.4989 31.3033 27.553 31.409 27.6094 31.5123C27.0477 33.3553 26.2206 35.5271 25.2359 37.7763C23.7954 41.0702 22.1011 44.336 20.6442 46.6698C19.6501 47.0853 18.7313 47.5619 18.0357 48.1113C17.5611 48.4846 16.9242 49.0904 16.6187 49.9778C16.2451 51.0672 16.5106 52.1566 17.1733 52.9736V52.9736ZM20.858 51.8749L20.8721 51.8584C20.8679 51.8643 20.8632 51.8698 20.858 51.8749V51.8749ZM32.892 43.6247C30.9792 43.9064 29.0099 44.2726 27.1417 44.6999C27.9736 43.087 28.7937 41.3684 29.5434 39.6569C29.9664 38.6872 30.3776 37.7011 30.7583 36.7268C31.3387 37.6049 31.945 38.4947 32.5607 39.3681C33.4932 40.6964 34.449 42.0082 35.4276 43.303C34.5887 43.3922 33.7356 43.5026 32.892 43.6247V43.6247ZM30.6925 26.7275V26.7228V26.7275Z" fill="white"/>
</svg>
