<svg width="16" height="16" viewBox="0 0 16 16" fill="none" xmlns="http://www.w3.org/2000/svg">
<path fill-rule="evenodd" clip-rule="evenodd" d="M5.47218 10.5279C7.39292 12.4487 9.17694 13.5193 10.5044 14.1142C11.6636 14.6338 13.0317 14.2261 14.0981 13.1596L14.3417 12.9152L11.4117 11.0508C10.8549 11.8628 9.80172 12.3393 8.7502 11.896C7.9539 11.5596 6.89989 10.9845 5.95775 10.0423C5.01561 9.10019 4.44138 8.04618 4.10496 7.24987C3.66082 6.19834 4.13645 5.14515 4.94932 4.58832L3.08493 1.65829L2.84049 1.90191C1.77405 2.96835 1.3672 4.33641 1.88592 5.49566C2.48087 6.82312 3.55144 8.60716 5.47218 10.5279ZM9.82741 15.6265C8.32346 14.9528 6.37041 13.7695 4.30052 11.6996C2.23062 9.63051 1.04736 7.67661 0.372859 6.17265C-0.517907 4.18395 0.295797 2.10409 1.66882 0.730228L1.91243 0.485783C2.08789 0.310211 2.30054 0.176294 2.53469 0.0939206C2.76883 0.0115474 3.01849 -0.0171778 3.26523 0.00986625C3.51196 0.0369103 3.74947 0.119033 3.96021 0.250169C4.17096 0.381306 4.34955 0.558107 4.48281 0.767516L6.82781 4.45491C6.88992 4.55272 6.93082 4.66247 6.94788 4.77707C6.96495 4.89167 6.95779 5.00858 6.92687 5.12024C6.89594 5.2319 6.84195 5.33584 6.76836 5.42534C6.69478 5.51484 6.60325 5.58791 6.49967 5.63984L5.97516 5.90252C5.61719 6.0815 5.54427 6.39721 5.63128 6.60519C5.91218 7.27058 6.38201 8.12241 7.12942 8.87066C7.87767 9.61808 8.72949 10.0879 9.39487 10.3688C9.60285 10.4567 9.91856 10.3829 10.0975 10.0249L10.3602 9.50042C10.4121 9.39677 10.4851 9.30515 10.5745 9.23149C10.664 9.15782 10.7679 9.10374 10.8796 9.07273C10.9913 9.04173 11.1082 9.0345 11.2228 9.0515C11.3375 9.06851 11.4473 9.10937 11.5451 9.17145L15.2325 11.5173C15.4419 11.6506 15.6187 11.8292 15.7498 12.0399C15.881 12.2506 15.9631 12.4882 15.9901 12.7349C16.0172 12.9816 15.9885 13.2313 15.9061 13.4654C15.8237 13.6996 15.6898 13.9122 15.5142 14.0877L15.2698 14.3313C13.8968 15.7052 11.8169 16.5181 9.82741 15.6265Z" fill="url(#paint0_linear)"/>
<defs>
<linearGradient id="paint0_linear" x1="0" y1="0" x2="16" y2="1.80333e-10" gradientUnits="userSpaceOnUse">
<stop stop-color="#166693"/>
<stop offset="1" stop-color="#008FDF"/>
</linearGradient>
</defs>
</svg>
