<svg width="27" height="27" viewBox="0 0 27 27" fill="none" xmlns="http://www.w3.org/2000/svg">
<path fill-rule="evenodd" clip-rule="evenodd" d="M10.4999 3.00004C8.51078 3.00004 6.60315 3.79022 5.19664 5.19677C3.79013 6.60332 2.99997 8.51101 2.99997 10.5002C2.99997 12.4893 3.79013 14.397 5.19664 15.8036C6.60315 17.2101 8.51078 18.0003 10.4999 18.0003C12.489 18.0003 14.3966 17.2101 15.8031 15.8036C17.2096 14.397 17.9998 12.4893 17.9998 10.5002C17.9998 8.51101 17.2096 6.60332 15.8031 5.19677C14.3966 3.79022 12.489 3.00004 10.4999 3.00004ZM3.30869e-07 10.5002C3.16466e-06 8.83703 0.395058 7.19768 1.15263 5.71711C1.91021 4.23654 3.00864 2.95711 4.35746 1.98418C5.70628 1.01125 7.26692 0.372636 8.91086 0.120941C10.5548 -0.130754 12.235 0.0116637 13.8131 0.536467C15.3912 1.06127 16.8221 1.95345 17.988 3.13953C19.1538 4.32561 20.0212 5.77167 20.5188 7.35863C21.0164 8.94558 21.1299 10.628 20.85 12.2675C20.5701 13.9069 19.9047 15.4563 18.9088 16.7883L26.5602 24.4384C26.8417 24.7197 26.9999 25.1012 27 25.4991C27.0001 25.8971 26.8422 26.2787 26.561 26.5602C26.2797 26.8417 25.8981 26.9999 25.5002 27C25.1023 27.0001 24.7207 26.8422 24.4392 26.5609L16.7893 18.9108C15.2286 20.0783 13.3737 20.7884 11.4324 20.9615C9.49101 21.1346 7.53979 20.7639 5.79715 19.8909C4.05451 19.0179 2.58924 17.6771 1.56539 16.0186C0.541534 14.3601 -0.000488882 12.4493 3.30869e-07 10.5002V10.5002Z" fill="white"/>
</svg>
