<svg width="23" height="12" viewBox="0 0 23 12" fill="none" xmlns="http://www.w3.org/2000/svg">
<path d="M22.7864 10.7671C22.7864 10.6849 22.6948 10.6849 22.6948 10.6027C22.3288 9.94521 21.5052 9.12329 20.4071 8.21918C19.858 7.80822 19.5835 7.47945 19.4004 7.31507C19.1259 6.9863 19.1259 6.73973 19.2174 6.41097C19.3089 6.16439 19.675 5.75342 20.3155 5.01369C20.6816 4.60274 20.8646 4.35617 21.1391 4.10959C22.5118 2.46575 23.1524 1.39725 22.9694 0.904103L22.8779 0.821918C22.7864 0.739726 22.6948 0.657537 22.5118 0.657537C22.3288 0.575345 22.0543 0.575345 21.7797 0.657537H18.3023C18.2108 0.657537 18.2108 0.657537 18.0278 0.657537C17.9362 0.657537 17.8447 0.657537 17.8447 0.657537H17.7532H17.6617L17.5702 0.739721C17.4787 0.821913 17.4787 0.821911 17.4787 0.904103C17.1126 1.80821 16.6551 2.54794 16.1975 3.36986C15.923 3.78082 15.6485 4.19178 15.3739 4.52055C15.0994 4.84932 14.9164 5.09589 14.7333 5.26027C14.5503 5.42466 14.3673 5.50685 14.2758 5.67123C14.1843 5.75342 14.0013 5.83562 14.0013 5.75343C13.9097 5.75343 13.8182 5.75342 13.8182 5.67123C13.7267 5.58904 13.6352 5.50685 13.5437 5.42465C13.4522 5.34246 13.4522 5.17808 13.3607 5.01369C13.3607 4.84931 13.3607 4.68493 13.3607 4.60274C13.3607 4.52054 13.3607 4.27398 13.3607 4.10959C13.3607 3.86302 13.3607 3.69863 13.3607 3.61644C13.3607 3.36986 13.3607 3.0411 13.3607 2.71233C13.3607 2.38357 13.3607 2.13698 13.3607 1.9726C13.3607 1.80822 13.3607 1.56164 13.3607 1.39726C13.3607 1.15068 13.3607 0.986294 13.3607 0.904103C13.3607 0.821911 13.2692 0.657532 13.2692 0.57534C13.1777 0.493148 13.0861 0.410954 12.9946 0.328762C12.9031 0.24657 12.7201 0.246573 12.6286 0.164381C12.171 0.0821893 11.622 0 10.9814 0C9.51721 0 8.51057 0.0821943 8.14453 0.246578C7.96151 0.32877 7.77848 0.410957 7.68697 0.57534C7.50395 0.739724 7.50394 0.821918 7.59545 0.821918C8.05301 0.90411 8.41906 1.06849 8.60209 1.31506L8.6936 1.47946C8.78511 1.56165 8.7851 1.72602 8.87661 1.9726C8.96812 2.21917 8.96813 2.46575 8.96813 2.79452C8.96813 3.28767 8.96813 3.78082 8.96813 4.10959C8.96813 4.52055 8.87661 4.76712 8.87661 5.01369C8.87661 5.26027 8.78511 5.42466 8.6936 5.50685C8.60209 5.67123 8.60208 5.75343 8.51057 5.75343C8.51057 5.75343 8.51056 5.83561 8.41905 5.83561C8.32754 5.83561 8.23603 5.91781 8.05301 5.91781C7.9615 5.91781 7.77848 5.83562 7.68697 5.75343C7.50395 5.67124 7.32093 5.50685 7.22941 5.34247C7.04639 5.17809 6.86336 4.9315 6.68034 4.60274C6.49732 4.27397 6.22277 3.94521 6.03975 3.45205L5.85674 3.12329C5.76523 2.95891 5.58221 2.63014 5.39918 2.21918C5.21616 1.80822 5.03313 1.47946 4.85011 1.0685C4.7586 0.904113 4.6671 0.821913 4.57559 0.739721H4.48407C4.48407 0.739721 4.39255 0.657537 4.30104 0.657537C4.20952 0.657537 4.11802 0.57534 4.02651 0.57534H0.732095C0.366049 0.57534 0.183029 0.65753 0.091517 0.739721L0 0.821918C0 0.821918 0 0.904108 0 0.986299C0 1.06849 5.58405e-06 1.15068 0.091517 1.31506C0.549074 2.30136 1.09814 3.28767 1.64721 4.27397C2.19628 5.17808 2.74535 6 3.1114 6.57535C3.56896 7.15069 3.935 7.72603 4.39255 8.21918C4.85011 8.71233 5.12464 9.0411 5.21615 9.20548C5.39917 9.36987 5.49068 9.45205 5.58219 9.53424L5.85674 9.78082C6.03977 9.94521 6.31429 10.1918 6.68034 10.4384C7.04639 10.6849 7.50394 10.9315 7.96149 11.1781C8.41905 11.4247 8.96813 11.5891 9.5172 11.7534C10.1578 11.9178 10.7068 12 11.2559 11.9178H12.6286C12.9031 11.9178 13.0862 11.8356 13.2692 11.6712L13.3607 11.589C13.3607 11.5068 13.4522 11.5069 13.4522 11.4247C13.4522 11.3425 13.4522 11.2603 13.4522 11.0959C13.4522 10.7671 13.4522 10.5206 13.5437 10.274C13.6352 10.0274 13.6352 9.86302 13.7267 9.69864C13.8182 9.53425 13.9097 9.45206 14.0013 9.36986C14.0928 9.28767 14.1843 9.20548 14.1843 9.20548H14.2758C14.4588 9.12329 14.7333 9.20548 14.9164 9.36986C15.1909 9.53425 15.4654 9.78083 15.6485 10.0274C15.8315 10.274 16.106 10.5206 16.4721 10.8493C16.8381 11.1781 17.1127 11.4247 17.2957 11.5069L17.5702 11.6712C17.7532 11.7534 17.9363 11.8356 18.2108 11.9178C18.4853 12 18.6683 12 18.8514 12L21.9628 11.9178C22.2373 11.9178 22.5118 11.8356 22.6948 11.7534C22.8779 11.6712 22.9694 11.589 22.9694 11.4247C22.9694 11.3425 22.9694 11.1781 22.9694 11.0959C22.7863 10.9315 22.7864 10.8493 22.7864 10.7671Z" fill="#166693"/>
</svg>
