<svg width="20" height="15" viewBox="0 0 20 15" fill="none" xmlns="http://www.w3.org/2000/svg">
<path d="M20 5.75757C20 5.30302 19.927 4.77273 19.927 4.16667C19.854 3.56061 19.781 2.95454 19.708 2.42424C19.562 1.81818 19.3431 1.36364 18.9051 0.984851C18.5401 0.606063 18.0292 0.378783 17.5183 0.303026C15.8394 0.0757529 13.3577 0 10 0C6.64235 0 4.08759 0.0757529 2.48175 0.303026C1.9708 0.378783 1.45985 0.606063 1.09489 0.984851C0.729927 1.36364 0.437952 1.81818 0.291966 2.42424C0.145981 2.95454 0.0729972 3.48485 0.0729972 4.16667C4.45403e-06 4.77273 0 5.30302 0 5.75757C0 6.21211 0 6.74242 0 7.49999C0 8.25757 0 8.86363 0 9.24242C0 9.69697 0.0729972 10.2273 0.0729972 10.8333C0.14599 11.4394 0.218974 12.0454 0.291966 12.5757C0.437952 13.1818 0.656934 13.6364 1.09489 14.0151C1.45985 14.3939 1.9708 14.6212 2.48175 14.697C4.16058 14.9242 6.64235 15 10 15C13.3577 15 15.9124 14.9242 17.5183 14.697C18.0292 14.6212 18.5401 14.3939 18.9051 14.0151C19.2701 13.6364 19.562 13.1818 19.708 12.5757C19.854 12.0454 19.927 11.5152 19.927 10.8333C20 10.2273 20 9.69697 20 9.24242C20 8.78787 20 8.25757 20 7.49999C20 6.74242 20 6.13636 20 5.75757ZM13.8686 8.10606L8.1022 11.8182C8.0292 11.8939 7.88322 11.9697 7.73723 11.9697C7.59125 11.9697 7.51825 11.9697 7.37227 11.8939C7.15329 11.7424 7.00731 11.5152 7.00731 11.2121V3.71212C7.00731 3.40909 7.15329 3.18182 7.37227 3.0303C7.59125 2.87879 7.88322 2.87879 8.1022 3.0303L13.8686 6.74242C14.0876 6.89393 14.2336 7.12121 14.2336 7.34848C14.2336 7.57575 14.0876 7.95454 13.8686 8.10606Z" fill="#166693"/>
</svg>
